<svg width="325" height="239" viewBox="0 0 325 239" fill="none" xmlns="http://www.w3.org/2000/svg">
<rect width="325" height="239" fill="#EEEEEE"/>
<path d="M33.1 51.09V41.96H84.47V51.09C66.1 65.94 54.77 87.28 53.01 115H41.79C43.44 88.38 55.21 67.04 73.58 51.09H33.1ZM129.962 65.39C129.962 55.27 123.692 48.78 113.902 48.78C104.332 48.78 97.6219 55.38 97.6219 65.39C97.6219 75.29 104.222 82.11 113.792 82.11C123.472 82.11 129.962 75.29 129.962 65.39ZM112.912 108.18C124.352 108.18 130.622 97.4 131.172 80.46C127.762 86.18 121.382 90.58 111.592 90.58C97.8419 90.58 87.7219 80.46 87.7219 65.83C87.7219 52.19 97.9519 40.64 113.792 40.64C132.272 40.64 140.742 53.29 140.742 75.84C140.742 96.63 133.482 116.32 112.032 116.32C97.5119 116.32 90.4719 107.41 88.9319 98.17L99.0519 98.06C100.262 104.66 105.322 108.18 112.912 108.18ZM163.884 84.42C152.554 84.42 147.054 75.62 147.054 62.75C147.054 49.77 152.554 41.19 163.884 41.19C175.104 41.19 180.604 49.77 180.604 62.75C180.604 75.62 175.104 84.42 163.884 84.42ZM163.884 78.59C169.824 78.59 173.014 73.09 173.014 62.75C173.014 52.3 169.824 47.02 163.884 47.02C157.834 47.02 154.644 52.3 154.644 62.75C154.644 73.09 157.834 78.59 163.884 78.59ZM159.374 115H169.714L220.864 41.96H210.524L159.374 115ZM216.464 115.77C205.134 115.77 199.634 106.97 199.634 94.1C199.634 81.12 205.134 72.54 216.464 72.54C227.684 72.54 233.184 81.12 233.184 94.1C233.184 106.97 227.684 115.77 216.464 115.77ZM216.464 109.94C222.404 109.94 225.594 104.44 225.594 94.1C225.594 83.65 222.404 78.37 216.464 78.37C210.414 78.37 207.224 83.65 207.224 94.1C207.224 104.44 210.414 109.94 216.464 109.94Z" fill="#1B1B1B"/>
<path d="M39.938 172.574L38.354 172.718C38.12 171.692 37.274 171.314 36.158 171.314C35.204 171.314 34.268 171.656 34.268 172.394C34.268 173.078 34.79 173.366 35.726 173.564L36.788 173.78C38.444 174.122 39.992 174.716 39.992 176.462C39.992 178.226 38.39 179.216 36.32 179.216C33.962 179.216 32.666 177.74 32.504 176.354L34.106 176.21C34.34 177.272 35.024 177.938 36.356 177.938C37.58 177.938 38.444 177.398 38.444 176.624C38.444 175.814 37.544 175.418 36.518 175.202L35.366 174.968C34.088 174.716 32.738 174.158 32.738 172.484C32.738 170.936 34.43 170.036 36.32 170.036C38.3 170.036 39.596 171.062 39.938 172.574ZM42.9704 172.898L41.4764 172.844C41.5844 171.026 43.1864 170.018 45.1664 170.018C47.6684 170.018 48.6944 170.99 48.6584 173.366L48.6224 175.598C48.6044 176.984 48.6944 177.83 48.8024 179H47.3264L47.2724 177.758C46.7324 178.64 45.8684 179.216 44.3024 179.216C42.2504 179.216 41.1884 177.866 41.1884 176.354C41.1884 175.4 41.6744 174.752 42.3764 174.356C43.2224 173.888 44.2844 173.708 45.4184 173.582L47.1284 173.402V173.078C47.1284 171.638 46.2644 171.26 45.0944 171.26C43.7084 171.26 43.0604 171.926 42.9704 172.898ZM47.2364 175.184V174.662L45.4004 174.842C43.6724 175.004 42.8084 175.418 42.8084 176.408C42.8084 177.344 43.5464 177.884 44.5904 177.884C45.8324 177.884 47.2364 177.218 47.2364 175.184ZM50.7581 170.18H52.2881V179H50.7581V170.18ZM50.7581 167.048H52.2881V168.884H50.7581V167.048ZM61.9856 167.048V179H60.5096L60.4556 177.794C59.8976 178.64 59.0696 179.216 57.5936 179.216C55.4696 179.216 53.9216 177.488 53.9216 174.608C53.9216 171.764 55.5236 170.036 57.7736 170.036C59.0516 170.036 59.9696 170.576 60.4556 171.332V167.048H61.9856ZM57.9896 177.884C59.3396 177.884 60.5276 176.894 60.5276 174.608C60.5276 172.322 59.3936 171.368 57.9896 171.368C56.3876 171.368 55.5416 172.574 55.5416 174.608C55.5416 176.66 56.3696 177.884 57.9896 177.884ZM68.4216 170.18V167.75H69.9516V170.18H71.6436V171.44H69.9516V176.534C69.9516 177.47 70.0056 177.704 70.8876 177.704H71.6436V179H70.5456C68.8176 179 68.4216 178.622 68.4216 176.75V171.44H66.9996V170.18H68.4216ZM74.7712 167.048V171.404C75.2752 170.63 76.1572 170.036 77.6692 170.036C78.8572 170.036 79.6852 170.486 80.1532 171.242C80.4952 171.8 80.6392 172.538 80.6392 173.582V179H79.1092V173.996C79.1092 173.06 79.0012 172.502 78.7852 172.124C78.4612 171.584 77.9212 171.368 77.1472 171.368C75.6712 171.368 74.7712 172.376 74.7712 174.302V179H73.2412V167.048H74.7712ZM86.4012 179.216C83.5212 179.216 82.1352 177.2 82.1352 174.626C82.1352 171.872 83.9172 170.036 86.4192 170.036C89.1912 170.036 90.7752 172.232 90.5592 175.076H83.7552C83.7552 176.804 84.8712 177.866 86.3652 177.866C87.7692 177.866 88.4712 177.272 88.8492 176.318L90.4152 176.516C90.0012 177.974 88.6152 179.216 86.4012 179.216ZM86.4192 171.332C84.8892 171.332 83.8452 172.25 83.7732 173.798H88.9392C88.9032 172.61 88.0572 171.332 86.4192 171.332ZM92.4194 182.114H91.6274V180.782H92.2574C93.2474 180.782 93.6974 180.674 94.1474 179.18L94.2014 179L90.9614 170.18H92.6534L94.9394 176.948L97.1714 170.18H98.7554L95.5514 179.378C94.9214 181.178 94.4174 182.114 92.4194 182.114ZM104.86 172.898L103.366 172.844C103.474 171.026 105.076 170.018 107.056 170.018C109.558 170.018 110.584 170.99 110.548 173.366L110.512 175.598C110.494 176.984 110.584 177.83 110.692 179H109.216L109.162 177.758C108.622 178.64 107.758 179.216 106.192 179.216C104.14 179.216 103.078 177.866 103.078 176.354C103.078 175.4 103.564 174.752 104.266 174.356C105.112 173.888 106.174 173.708 107.308 173.582L109.018 173.402V173.078C109.018 171.638 108.154 171.26 106.984 171.26C105.598 171.26 104.95 171.926 104.86 172.898ZM109.126 175.184V174.662L107.29 174.842C105.562 175.004 104.698 175.418 104.698 176.408C104.698 177.344 105.436 177.884 106.48 177.884C107.722 177.884 109.126 177.218 109.126 175.184ZM117.13 170.144V171.764C116.806 171.728 116.536 171.71 116.284 171.71C114.88 171.71 114.178 172.484 114.178 174.464V179H112.648V170.18H114.142V171.746C114.592 170.738 115.51 170.162 116.68 170.126C116.824 170.126 116.968 170.126 117.13 170.144ZM121.905 179.216C119.025 179.216 117.639 177.2 117.639 174.626C117.639 171.872 119.421 170.036 121.923 170.036C124.695 170.036 126.279 172.232 126.063 175.076H119.259C119.259 176.804 120.375 177.866 121.869 177.866C123.273 177.866 123.975 177.272 124.353 176.318L125.919 176.516C125.505 177.974 124.119 179.216 121.905 179.216ZM121.923 171.332C120.393 171.332 119.349 172.25 119.277 173.798H124.443C124.407 172.61 123.561 171.332 121.923 171.332ZM132.687 172.898L131.193 172.844C131.301 171.026 132.903 170.018 134.883 170.018C137.385 170.018 138.411 170.99 138.375 173.366L138.339 175.598C138.321 176.984 138.411 177.83 138.519 179H137.043L136.989 177.758C136.449 178.64 135.585 179.216 134.019 179.216C131.967 179.216 130.905 177.866 130.905 176.354C130.905 175.4 131.391 174.752 132.093 174.356C132.939 173.888 134.001 173.708 135.135 173.582L136.845 173.402V173.078C136.845 171.638 135.981 171.26 134.811 171.26C133.425 171.26 132.777 171.926 132.687 172.898ZM136.953 175.184V174.662L135.117 174.842C133.389 175.004 132.525 175.418 132.525 176.408C132.525 177.344 133.263 177.884 134.307 177.884C135.549 177.884 136.953 177.218 136.953 175.184ZM147.207 172.574L145.623 172.718C145.389 171.692 144.543 171.314 143.427 171.314C142.473 171.314 141.537 171.656 141.537 172.394C141.537 173.078 142.059 173.366 142.995 173.564L144.057 173.78C145.713 174.122 147.261 174.716 147.261 176.462C147.261 178.226 145.659 179.216 143.589 179.216C141.231 179.216 139.935 177.74 139.773 176.354L141.375 176.21C141.609 177.272 142.293 177.938 143.625 177.938C144.849 177.938 145.713 177.398 145.713 176.624C145.713 175.814 144.813 175.418 143.787 175.202L142.635 174.968C141.357 174.716 140.007 174.158 140.007 172.484C140.007 170.936 141.699 170.036 143.589 170.036C145.569 170.036 146.865 171.062 147.207 172.574ZM148.943 167.048H150.473V173.906L154.091 170.18H155.963L152.795 173.438L156.251 179H154.469L151.751 174.518L150.473 175.832V179H148.943V167.048ZM160.785 179.216C157.905 179.216 156.519 177.2 156.519 174.626C156.519 171.872 158.301 170.036 160.803 170.036C163.575 170.036 165.159 172.232 164.943 175.076H158.139C158.139 176.804 159.255 177.866 160.749 177.866C162.153 177.866 162.855 177.272 163.233 176.318L164.799 176.516C164.385 177.974 162.999 179.216 160.785 179.216ZM160.803 171.332C159.273 171.332 158.229 172.25 158.157 173.798H163.323C163.287 172.61 162.441 171.332 160.803 171.332ZM174.053 167.048V179H172.577L172.523 177.794C171.965 178.64 171.137 179.216 169.661 179.216C167.537 179.216 165.989 177.488 165.989 174.608C165.989 171.764 167.591 170.036 169.841 170.036C171.119 170.036 172.037 170.576 172.523 171.332V167.048H174.053ZM170.057 177.884C171.407 177.884 172.595 176.894 172.595 174.608C172.595 172.322 171.461 171.368 170.057 171.368C168.455 171.368 167.609 172.574 167.609 174.608C167.609 176.66 168.437 177.884 170.057 177.884ZM180.435 170.18V169.532C180.435 167.66 180.831 167.048 182.865 167.048H183.657V168.344H182.901C182.109 168.344 181.965 168.578 181.965 169.514V170.18H183.657V171.44H181.965V179H180.435V171.44H179.193V170.18H180.435ZM185.966 174.626C185.966 176.93 187.064 177.884 188.504 177.884C189.944 177.884 191.042 176.93 191.042 174.626C191.042 172.322 189.944 171.368 188.504 171.368C187.064 171.368 185.966 172.322 185.966 174.626ZM184.346 174.626C184.346 171.458 186.344 170.036 188.504 170.036C190.664 170.036 192.662 171.458 192.662 174.626C192.662 177.794 190.664 179.216 188.504 179.216C186.344 179.216 184.346 177.794 184.346 174.626ZM198.787 170.144V171.764C198.463 171.728 198.193 171.71 197.941 171.71C196.537 171.71 195.835 172.484 195.835 174.464V179H194.305V170.18H195.799V171.746C196.249 170.738 197.167 170.162 198.337 170.126C198.481 170.126 198.625 170.126 198.787 170.144ZM205.137 172.898L203.643 172.844C203.751 171.026 205.353 170.018 207.333 170.018C209.835 170.018 210.861 170.99 210.825 173.366L210.789 175.598C210.771 176.984 210.861 177.83 210.969 179H209.493L209.439 177.758C208.899 178.64 208.035 179.216 206.469 179.216C204.417 179.216 203.355 177.866 203.355 176.354C203.355 175.4 203.841 174.752 204.543 174.356C205.389 173.888 206.451 173.708 207.585 173.582L209.295 173.402V173.078C209.295 171.638 208.431 171.26 207.261 171.26C205.875 171.26 205.227 171.926 205.137 172.898ZM209.403 175.184V174.662L207.567 174.842C205.839 175.004 204.975 175.418 204.975 176.408C204.975 177.344 205.713 177.884 206.757 177.884C207.999 177.884 209.403 177.218 209.403 175.184ZM223.432 172.574L221.848 172.718C221.614 171.692 220.768 171.314 219.652 171.314C218.698 171.314 217.762 171.656 217.762 172.394C217.762 173.078 218.284 173.366 219.22 173.564L220.282 173.78C221.938 174.122 223.486 174.716 223.486 176.462C223.486 178.226 221.884 179.216 219.814 179.216C217.456 179.216 216.16 177.74 215.998 176.354L217.6 176.21C217.834 177.272 218.518 177.938 219.85 177.938C221.074 177.938 221.938 177.398 221.938 176.624C221.938 175.814 221.038 175.418 220.012 175.202L218.86 174.968C217.582 174.716 216.232 174.158 216.232 172.484C216.232 170.936 217.924 170.036 219.814 170.036C221.794 170.036 223.09 171.062 223.432 172.574ZM225.168 170.18H226.698V179H225.168V170.18ZM225.168 167.048H226.698V168.884H225.168V167.048ZM228.926 179V170.18H230.456V171.404C230.924 170.612 231.734 170.036 233.192 170.036C234.596 170.036 235.298 170.648 235.712 171.566C236.378 170.558 237.35 170.036 238.808 170.036C239.744 170.036 240.446 170.378 240.914 170.864C241.454 171.44 241.688 172.34 241.688 173.582V179H240.158V174.014C240.158 172.934 240.014 172.25 239.654 171.872C239.33 171.53 238.862 171.368 238.25 171.368C236.918 171.368 236.072 172.394 236.072 174.248V179H234.542V174.014C234.542 172.934 234.398 172.25 234.038 171.872C233.714 171.53 233.246 171.368 232.634 171.368C231.302 171.368 230.456 172.394 230.456 174.248V179H228.926ZM243.775 170.18H245.305V179H243.775V170.18ZM243.775 167.048H245.305V168.884H243.775V167.048ZM249.063 167.048V179H247.533V167.048H249.063ZM252.586 172.898L251.092 172.844C251.2 171.026 252.802 170.018 254.782 170.018C257.284 170.018 258.31 170.99 258.274 173.366L258.238 175.598C258.22 176.984 258.31 177.83 258.418 179H256.942L256.888 177.758C256.348 178.64 255.484 179.216 253.918 179.216C251.866 179.216 250.804 177.866 250.804 176.354C250.804 175.4 251.29 174.752 251.992 174.356C252.838 173.888 253.9 173.708 255.034 173.582L256.744 173.402V173.078C256.744 171.638 255.88 171.26 254.71 171.26C253.324 171.26 252.676 171.926 252.586 172.898ZM256.852 175.184V174.662L255.016 174.842C253.288 175.004 252.424 175.418 252.424 176.408C252.424 177.344 253.162 177.884 254.206 177.884C255.448 177.884 256.852 177.218 256.852 175.184ZM264.856 170.144V171.764C264.532 171.728 264.262 171.71 264.01 171.71C262.606 171.71 261.904 172.484 261.904 174.464V179H260.374V170.18H261.868V171.746C262.318 170.738 263.236 170.162 264.406 170.126C264.55 170.126 264.694 170.126 264.856 170.144ZM34.736 199.92V204.114H33.206V192.18H34.7L34.736 193.458C35.294 192.612 36.122 192.036 37.598 192.036C39.722 192.036 41.27 193.764 41.27 196.644C41.27 199.488 39.668 201.216 37.418 201.216C36.14 201.216 35.222 200.676 34.736 199.92ZM37.202 193.368C35.852 193.368 34.664 194.358 34.664 196.644C34.664 198.93 35.798 199.884 37.202 199.884C38.804 199.884 39.65 198.678 39.65 196.644C39.65 194.592 38.822 193.368 37.202 193.368ZM47.3869 192.144V193.764C47.0629 193.728 46.7929 193.71 46.5409 193.71C45.1369 193.71 44.4349 194.484 44.4349 196.464V201H42.9049V192.18H44.3989V193.746C44.8489 192.738 45.7669 192.162 46.9369 192.126C47.0809 192.126 47.2249 192.126 47.3869 192.144ZM49.5165 196.626C49.5165 198.93 50.6145 199.884 52.0545 199.884C53.4945 199.884 54.5925 198.93 54.5925 196.626C54.5925 194.322 53.4945 193.368 52.0545 193.368C50.6145 193.368 49.5165 194.322 49.5165 196.626ZM47.8965 196.626C47.8965 193.458 49.8945 192.036 52.0545 192.036C54.2145 192.036 56.2125 193.458 56.2125 196.626C56.2125 199.794 54.2145 201.216 52.0545 201.216C49.8945 201.216 47.8965 199.794 47.8965 196.626ZM65.4661 189.048V201H63.9901L63.9361 199.794C63.3781 200.64 62.5501 201.216 61.0741 201.216C58.9501 201.216 57.4021 199.488 57.4021 196.608C57.4021 193.764 59.0041 192.036 61.2541 192.036C62.5321 192.036 63.4501 192.576 63.9361 193.332V189.048H65.4661ZM61.4701 199.884C62.8201 199.884 64.0081 198.894 64.0081 196.608C64.0081 194.322 62.8741 193.368 61.4701 193.368C59.8681 193.368 59.0221 194.574 59.0221 196.608C59.0221 198.66 59.8501 199.884 61.4701 199.884ZM73.311 201V199.74C72.825 200.568 72.051 201.198 70.539 201.198C69.459 201.198 68.703 200.802 68.235 200.172C67.803 199.596 67.623 198.75 67.623 197.652V192.18H69.153V197.166C69.153 198.066 69.243 198.642 69.441 199.038C69.729 199.632 70.305 199.866 71.097 199.866C72.483 199.866 73.311 198.84 73.311 196.986V192.18H74.841V201H73.311ZM80.7675 192.036C82.9635 192.036 84.2775 193.584 84.4755 194.952L82.9275 195.168C82.7115 194.07 81.8475 193.386 80.6595 193.386C79.2555 193.386 78.1035 194.43 78.1035 196.59C78.1035 198.786 79.2735 199.866 80.6595 199.866C81.9555 199.866 82.7835 199.074 82.9995 198.102L84.5655 198.3C84.2775 199.848 82.7295 201.216 80.6235 201.216C77.9955 201.216 76.4835 199.254 76.4835 196.608C76.4835 194.016 78.0495 192.036 80.7675 192.036ZM86.6355 192.18V189.75H88.1655V192.18H89.8575V193.44H88.1655V198.534C88.1655 199.47 88.2195 199.704 89.1015 199.704H89.8575V201H88.7595C87.0315 201 86.6355 200.622 86.6355 198.75V193.44H85.2135V192.18H86.6355ZM95.6593 192.18V189.75H97.1893V192.18H98.8813V193.44H97.1893V198.534C97.1893 199.47 97.2433 199.704 98.1253 199.704H98.8813V201H97.7833C96.0553 201 95.6593 200.622 95.6593 198.75V193.44H94.2373V192.18H95.6593ZM101.505 196.626C101.505 198.93 102.603 199.884 104.043 199.884C105.483 199.884 106.581 198.93 106.581 196.626C106.581 194.322 105.483 193.368 104.043 193.368C102.603 193.368 101.505 194.322 101.505 196.626ZM99.8849 196.626C99.8849 193.458 101.883 192.036 104.043 192.036C106.203 192.036 108.201 193.458 108.201 196.626C108.201 199.794 106.203 201.216 104.043 201.216C101.883 201.216 99.8849 199.794 99.8849 196.626ZM114.051 192.18V189.75H115.581V192.18H117.273V193.44H115.581V198.534C115.581 199.47 115.635 199.704 116.517 199.704H117.273V201H116.175C114.447 201 114.051 200.622 114.051 198.75V193.44H112.629V192.18H114.051ZM120.401 189.048V193.404C120.905 192.63 121.787 192.036 123.299 192.036C124.487 192.036 125.315 192.486 125.783 193.242C126.125 193.8 126.269 194.538 126.269 195.582V201H124.739V195.996C124.739 195.06 124.631 194.502 124.415 194.124C124.091 193.584 123.551 193.368 122.777 193.368C121.301 193.368 120.401 194.376 120.401 196.302V201H118.871V189.048H120.401ZM132.03 201.216C129.15 201.216 127.764 199.2 127.764 196.626C127.764 193.872 129.546 192.036 132.048 192.036C134.82 192.036 136.404 194.232 136.188 197.076H129.384C129.384 198.804 130.5 199.866 131.994 199.866C133.398 199.866 134.1 199.272 134.478 198.318L136.044 198.516C135.63 199.974 134.244 201.216 132.03 201.216ZM132.048 193.332C130.518 193.332 129.474 194.25 129.402 195.798H134.568C134.532 194.61 133.686 193.332 132.048 193.332ZM142.542 196.626C142.542 198.93 143.64 199.884 145.08 199.884C146.52 199.884 147.618 198.93 147.618 196.626C147.618 194.322 146.52 193.368 145.08 193.368C143.64 193.368 142.542 194.322 142.542 196.626ZM140.922 196.626C140.922 193.458 142.92 192.036 145.08 192.036C147.24 192.036 149.238 193.458 149.238 196.626C149.238 199.794 147.24 201.216 145.08 201.216C142.92 201.216 140.922 199.794 140.922 196.626ZM152.411 192.18V193.404C152.915 192.63 153.797 192.036 155.309 192.036C156.497 192.036 157.325 192.486 157.793 193.242C158.135 193.8 158.279 194.538 158.279 195.582V201H156.749V195.996C156.749 195.06 156.641 194.502 156.425 194.124C156.101 193.584 155.561 193.368 154.787 193.368C153.311 193.368 152.411 194.376 152.411 196.302V201H150.881V192.18H152.411ZM164.041 201.216C161.161 201.216 159.775 199.2 159.775 196.626C159.775 193.872 161.557 192.036 164.059 192.036C166.831 192.036 168.415 194.232 168.199 197.076H161.395C161.395 198.804 162.511 199.866 164.005 199.866C165.409 199.866 166.111 199.272 166.489 198.318L168.055 198.516C167.641 199.974 166.255 201.216 164.041 201.216ZM164.059 193.332C162.529 193.332 161.485 194.25 161.413 195.798H166.579C166.543 194.61 165.697 193.332 164.059 193.332ZM173.959 192.18V189.75H175.489V192.18H177.181V193.44H175.489V198.534C175.489 199.47 175.543 199.704 176.425 199.704H177.181V201H176.083C174.355 201 173.959 200.622 173.959 198.75V193.44H172.537V192.18H173.959ZM180.308 189.048V193.404C180.812 192.63 181.694 192.036 183.206 192.036C184.394 192.036 185.222 192.486 185.69 193.242C186.032 193.8 186.176 194.538 186.176 195.582V201H184.646V195.996C184.646 195.06 184.538 194.502 184.322 194.124C183.998 193.584 183.458 193.368 182.684 193.368C181.208 193.368 180.308 194.376 180.308 196.302V201H178.778V189.048H180.308ZM191.938 201.216C189.058 201.216 187.672 199.2 187.672 196.626C187.672 193.872 189.454 192.036 191.956 192.036C194.728 192.036 196.312 194.232 196.096 197.076H189.292C189.292 198.804 190.408 199.866 191.902 199.866C193.306 199.866 194.008 199.272 194.386 198.318L195.952 198.516C195.538 199.974 194.152 201.216 191.938 201.216ZM191.956 193.332C190.426 193.332 189.382 194.25 189.31 195.798H194.476C194.44 194.61 193.594 193.332 191.956 193.332ZM197.956 204.114H197.164V202.782H197.794C198.784 202.782 199.234 202.674 199.684 201.18L199.738 201L196.498 192.18H198.19L200.476 198.948L202.708 192.18H204.292L201.088 201.378C200.458 203.178 199.954 204.114 197.956 204.114ZM210.397 194.898L208.903 194.844C209.011 193.026 210.613 192.018 212.593 192.018C215.095 192.018 216.121 192.99 216.085 195.366L216.049 197.598C216.031 198.984 216.121 199.83 216.229 201H214.753L214.699 199.758C214.159 200.64 213.295 201.216 211.729 201.216C209.677 201.216 208.615 199.866 208.615 198.354C208.615 197.4 209.101 196.752 209.803 196.356C210.649 195.888 211.711 195.708 212.845 195.582L214.555 195.402V195.078C214.555 193.638 213.691 193.26 212.521 193.26C211.135 193.26 210.487 193.926 210.397 194.898ZM214.663 197.184V196.662L212.827 196.842C211.099 197.004 210.235 197.418 210.235 198.408C210.235 199.344 210.973 199.884 212.017 199.884C213.259 199.884 214.663 199.218 214.663 197.184ZM222.667 192.144V193.764C222.343 193.728 222.073 193.71 221.821 193.71C220.417 193.71 219.715 194.484 219.715 196.464V201H218.185V192.18H219.679V193.746C220.129 192.738 221.047 192.162 222.217 192.126C222.361 192.126 222.505 192.126 222.667 192.144ZM227.442 201.216C224.562 201.216 223.176 199.2 223.176 196.626C223.176 193.872 224.958 192.036 227.46 192.036C230.232 192.036 231.816 194.232 231.6 197.076H224.796C224.796 198.804 225.912 199.866 227.406 199.866C228.81 199.866 229.512 199.272 229.89 198.318L231.456 198.516C231.042 199.974 229.656 201.216 227.442 201.216ZM227.46 193.332C225.93 193.332 224.886 194.25 224.814 195.798H229.98C229.944 194.61 229.098 193.332 227.46 193.332ZM237.36 192.18V189.75H238.89V192.18H240.582V193.44H238.89V198.534C238.89 199.47 238.944 199.704 239.826 199.704H240.582V201H239.484C237.756 201 237.36 200.622 237.36 198.75V193.44H235.938V192.18H237.36ZM246.662 192.144V193.764C246.338 193.728 246.068 193.71 245.816 193.71C244.412 193.71 243.71 194.484 243.71 196.464V201H242.18V192.18H243.674V193.746C244.124 192.738 245.042 192.162 246.212 192.126C246.356 192.126 246.5 192.126 246.662 192.144ZM248.319 204.114H247.527V202.782H248.157C249.147 202.782 249.597 202.674 250.047 201.18L250.101 201L246.861 192.18H248.553L250.839 198.948L253.071 192.18H254.655L251.451 201.378C250.821 203.178 250.317 204.114 248.319 204.114ZM255.689 192.18H257.219V201H255.689V192.18ZM255.689 189.048H257.219V190.884H255.689V189.048ZM260.976 192.18V193.404C261.48 192.63 262.362 192.036 263.874 192.036C265.062 192.036 265.89 192.486 266.358 193.242C266.7 193.8 266.844 194.538 266.844 195.582V201H265.314V195.996C265.314 195.06 265.206 194.502 264.99 194.124C264.666 193.584 264.126 193.368 263.352 193.368C261.876 193.368 260.976 194.376 260.976 196.302V201H259.446V192.18H260.976ZM274.802 200.226V199.434C274.244 200.28 273.488 200.856 272.012 200.856C269.888 200.856 268.34 199.236 268.34 196.428C268.34 193.656 269.942 192.036 272.192 192.036C273.47 192.036 274.316 192.576 274.802 193.332L274.838 192.18H276.332V199.884C276.332 201.72 276.062 202.476 275.558 203.034C274.892 203.79 273.776 204.222 272.444 204.222C270.392 204.222 269.024 203.286 268.736 201.522L270.356 201.468C270.572 202.278 271.058 202.89 272.462 202.89C273.272 202.89 273.902 202.656 274.298 202.224C274.622 201.864 274.802 201.45 274.802 200.226ZM272.408 199.524C273.758 199.524 274.874 198.642 274.874 196.428C274.874 194.214 273.812 193.368 272.408 193.368C270.806 193.368 269.96 194.466 269.96 196.428C269.96 198.408 270.788 199.524 272.408 199.524ZM283.364 196.626C283.364 198.93 284.462 199.884 285.902 199.884C287.342 199.884 288.44 198.93 288.44 196.626C288.44 194.322 287.342 193.368 285.902 193.368C284.462 193.368 283.364 194.322 283.364 196.626ZM281.744 196.626C281.744 193.458 283.742 192.036 285.902 192.036C288.062 192.036 290.06 193.458 290.06 196.626C290.06 199.794 288.062 201.216 285.902 201.216C283.742 201.216 281.744 199.794 281.744 196.626ZM293.233 192.18V193.404C293.737 192.63 294.619 192.036 296.131 192.036C297.319 192.036 298.147 192.486 298.615 193.242C298.957 193.8 299.101 194.538 299.101 195.582V201H297.571V195.996C297.571 195.06 297.463 194.502 297.247 194.124C296.923 193.584 296.383 193.368 295.609 193.368C294.133 193.368 293.233 194.376 293.233 196.302V201H291.703V192.18H293.233Z" fill="#1B1B1B"/>
</svg>
