<svg width="325" height="239" viewBox="0 0 325 239" fill="none" xmlns="http://www.w3.org/2000/svg">
<rect width="325" height="239" fill="#EEEEEE"/>
<path d="M78.64 65.39C78.64 55.27 72.37 48.78 62.58 48.78C53.01 48.78 46.3 55.38 46.3 65.39C46.3 75.29 52.9 82.11 62.47 82.11C72.15 82.11 78.64 75.29 78.64 65.39ZM61.59 108.18C73.03 108.18 79.3 97.4 79.85 80.46C76.44 86.18 70.06 90.58 60.27 90.58C46.52 90.58 36.4 80.46 36.4 65.83C36.4 52.19 46.63 40.64 62.47 40.64C80.95 40.64 89.42 53.29 89.42 75.84C89.42 96.63 82.16 116.32 60.71 116.32C46.19 116.32 39.15 107.41 37.61 98.17L47.73 98.06C48.94 104.66 54 108.18 61.59 108.18ZM124.332 108.18C133.242 108.18 140.832 102.24 140.832 91.02C140.832 78.92 132.252 73.97 124.112 73.97C116.742 73.97 111.462 78.15 109.812 81.78L100.462 81.34L105.302 41.96H147.872V50.98H112.892L110.252 71.33C114.212 67.59 120.152 65.83 126.312 65.83C139.292 65.83 150.732 74.85 150.732 90.91C150.732 107.63 138.082 116.32 124.222 116.32C107.062 116.32 99.2521 105.43 97.8221 94.21L107.392 93.44C108.822 102.46 113.882 108.18 124.332 108.18ZM173.552 84.42C162.222 84.42 156.722 75.62 156.722 62.75C156.722 49.77 162.222 41.19 173.552 41.19C184.772 41.19 190.272 49.77 190.272 62.75C190.272 75.62 184.772 84.42 173.552 84.42ZM173.552 78.59C179.492 78.59 182.682 73.09 182.682 62.75C182.682 52.3 179.492 47.02 173.552 47.02C167.502 47.02 164.312 52.3 164.312 62.75C164.312 73.09 167.502 78.59 173.552 78.59ZM169.042 115H179.382L230.532 41.96H220.192L169.042 115ZM226.132 115.77C214.802 115.77 209.302 106.97 209.302 94.1C209.302 81.12 214.802 72.54 226.132 72.54C237.352 72.54 242.852 81.12 242.852 94.1C242.852 106.97 237.352 115.77 226.132 115.77ZM226.132 109.94C232.072 109.94 235.262 104.44 235.262 94.1C235.262 83.65 232.072 78.37 226.132 78.37C220.082 78.37 216.892 83.65 216.892 94.1C216.892 104.44 220.082 109.94 226.132 109.94Z" fill="#1B1B1B"/>
<path d="M34.232 174.626C34.232 176.93 35.33 177.884 36.77 177.884C38.21 177.884 39.308 176.93 39.308 174.626C39.308 172.322 38.21 171.368 36.77 171.368C35.33 171.368 34.232 172.322 34.232 174.626ZM32.612 174.626C32.612 171.458 34.61 170.036 36.77 170.036C38.93 170.036 40.928 171.458 40.928 174.626C40.928 177.794 38.93 179.216 36.77 179.216C34.61 179.216 32.612 177.794 32.612 174.626ZM42.9489 170.18V169.532C42.9489 167.66 43.3449 167.048 45.3789 167.048H46.1709V168.344H45.4149C44.6229 168.344 44.4789 168.578 44.4789 169.514V170.18H46.1709V171.44H44.4789V179H42.9489V171.44H41.7069V170.18H42.9489ZM58.1363 172.574L56.5523 172.718C56.3183 171.692 55.4723 171.314 54.3563 171.314C53.4023 171.314 52.4663 171.656 52.4663 172.394C52.4663 173.078 52.9883 173.366 53.9243 173.564L54.9863 173.78C56.6423 174.122 58.1903 174.716 58.1903 176.462C58.1903 178.226 56.5883 179.216 54.5183 179.216C52.1603 179.216 50.8643 177.74 50.7023 176.354L52.3043 176.21C52.5383 177.272 53.2223 177.938 54.5543 177.938C55.7783 177.938 56.6423 177.398 56.6423 176.624C56.6423 175.814 55.7423 175.418 54.7163 175.202L53.5643 174.968C52.2863 174.716 50.9363 174.158 50.9363 172.484C50.9363 170.936 52.6283 170.036 54.5183 170.036C56.4983 170.036 57.7943 171.062 58.1363 172.574ZM65.4887 179V177.74C65.0027 178.568 64.2287 179.198 62.7167 179.198C61.6367 179.198 60.8807 178.802 60.4127 178.172C59.9807 177.596 59.8007 176.75 59.8007 175.652V170.18H61.3307V175.166C61.3307 176.066 61.4207 176.642 61.6187 177.038C61.9067 177.632 62.4827 177.866 63.2747 177.866C64.6607 177.866 65.4887 176.84 65.4887 174.986V170.18H67.0187V179H65.4887ZM73.7372 170.144V171.764C73.4132 171.728 73.1432 171.71 72.8912 171.71C71.4872 171.71 70.7852 172.484 70.7852 174.464V179H69.2552V170.18H70.7492V171.746C71.1992 170.738 72.1172 170.162 73.2872 170.126C73.4312 170.126 73.5752 170.126 73.7372 170.144ZM75.5026 170.18L77.9506 176.894L80.3806 170.18H81.9646L78.5626 179H77.2126L73.8106 170.18H75.5026ZM86.6297 179.216C83.7497 179.216 82.3637 177.2 82.3637 174.626C82.3637 171.872 84.1457 170.036 86.6477 170.036C89.4197 170.036 91.0037 172.232 90.7877 175.076H83.9837C83.9837 176.804 85.0997 177.866 86.5937 177.866C87.9977 177.866 88.6997 177.272 89.0777 176.318L90.6437 176.516C90.2297 177.974 88.8437 179.216 86.6297 179.216ZM86.6477 171.332C85.1177 171.332 84.0737 172.25 84.0017 173.798H89.1677C89.1317 172.61 88.2857 171.332 86.6477 171.332ZM92.6479 182.114H91.8559V180.782H92.4859C93.4759 180.782 93.9259 180.674 94.3759 179.18L94.4299 179L91.1899 170.18H92.8819L95.1679 176.948L97.3999 170.18H98.9839L95.7799 179.378C95.1499 181.178 94.6459 182.114 92.6479 182.114ZM103.654 179.216C100.774 179.216 99.3885 177.2 99.3885 174.626C99.3885 171.872 101.17 170.036 103.672 170.036C106.444 170.036 108.028 172.232 107.812 175.076H101.008C101.008 176.804 102.124 177.866 103.618 177.866C105.022 177.866 105.724 177.272 106.102 176.318L107.668 176.516C107.254 177.974 105.868 179.216 103.654 179.216ZM103.672 171.332C102.142 171.332 101.098 172.25 101.026 173.798H106.192C106.156 172.61 105.31 171.332 103.672 171.332ZM116.923 167.048V179H115.447L115.393 177.794C114.835 178.64 114.007 179.216 112.531 179.216C110.407 179.216 108.859 177.488 108.859 174.608C108.859 171.764 110.461 170.036 112.711 170.036C113.989 170.036 114.907 170.576 115.393 171.332V167.048H116.923ZM112.927 177.884C114.277 177.884 115.465 176.894 115.465 174.608C115.465 172.322 114.331 171.368 112.927 171.368C111.325 171.368 110.479 172.574 110.479 174.608C110.479 176.66 111.307 177.884 112.927 177.884ZM122.657 170.108C122.657 167.804 125.087 166.832 127.049 166.832C129.227 166.832 131.171 167.84 131.639 170.018L129.983 170.252C129.587 168.758 128.201 168.308 126.977 168.308C126.041 168.308 124.403 168.686 124.403 170.054C124.403 171.116 125.249 171.584 126.383 171.836L127.787 172.142C129.641 172.556 131.855 173.204 131.855 175.634C131.855 178.01 129.659 179.216 127.247 179.216C124.385 179.216 122.585 177.65 122.261 175.382L123.917 175.148C124.241 176.804 125.357 177.74 127.283 177.74C129.065 177.74 130.109 176.984 130.109 175.796C130.109 174.518 129.011 174.032 127.499 173.708L125.987 173.384C124.331 173.024 122.657 172.142 122.657 170.108ZM133.902 170.18V167.75H135.432V170.18H137.124V171.44H135.432V176.534C135.432 177.47 135.486 177.704 136.368 177.704H137.124V179H136.026C134.298 179 133.902 178.622 133.902 176.75V171.44H132.48V170.18H133.902ZM139.747 174.626C139.747 176.93 140.845 177.884 142.285 177.884C143.725 177.884 144.823 176.93 144.823 174.626C144.823 172.322 143.725 171.368 142.285 171.368C140.845 171.368 139.747 172.322 139.747 174.626ZM138.127 174.626C138.127 171.458 140.125 170.036 142.285 170.036C144.445 170.036 146.443 171.458 146.443 174.626C146.443 177.794 144.445 179.216 142.285 179.216C140.125 179.216 138.127 177.794 138.127 174.626ZM152.568 170.144V171.764C152.244 171.728 151.974 171.71 151.722 171.71C150.318 171.71 149.616 172.484 149.616 174.464V179H148.086V170.18H149.58V171.746C150.03 170.738 150.948 170.162 152.118 170.126C152.262 170.126 152.406 170.126 152.568 170.144ZM157.344 179.216C154.464 179.216 153.078 177.2 153.078 174.626C153.078 171.872 154.86 170.036 157.362 170.036C160.134 170.036 161.718 172.232 161.502 175.076H154.698C154.698 176.804 155.814 177.866 157.308 177.866C158.712 177.866 159.414 177.272 159.792 176.318L161.358 176.516C160.944 177.974 159.558 179.216 157.344 179.216ZM157.362 171.332C155.832 171.332 154.788 172.25 154.716 173.798H159.882C159.846 172.61 159 171.332 157.362 171.332ZM165.623 179L170.123 167.048H172.103L176.657 179H174.785L173.831 176.408H168.323L167.405 179H165.623ZM171.059 168.812L168.863 174.914H173.291L171.059 168.812ZM184.332 172.574L182.748 172.718C182.514 171.692 181.668 171.314 180.552 171.314C179.598 171.314 178.662 171.656 178.662 172.394C178.662 173.078 179.184 173.366 180.12 173.564L181.182 173.78C182.838 174.122 184.386 174.716 184.386 176.462C184.386 178.226 182.784 179.216 180.714 179.216C178.356 179.216 177.06 177.74 176.898 176.354L178.5 176.21C178.734 177.272 179.418 177.938 180.75 177.938C181.974 177.938 182.838 177.398 182.838 176.624C182.838 175.814 181.938 175.418 180.912 175.202L179.76 174.968C178.482 174.716 177.132 174.158 177.132 172.484C177.132 170.936 178.824 170.036 180.714 170.036C182.694 170.036 183.99 171.062 184.332 172.574ZM192.801 172.574L191.217 172.718C190.983 171.692 190.137 171.314 189.021 171.314C188.067 171.314 187.131 171.656 187.131 172.394C187.131 173.078 187.653 173.366 188.589 173.564L189.651 173.78C191.307 174.122 192.855 174.716 192.855 176.462C192.855 178.226 191.253 179.216 189.183 179.216C186.825 179.216 185.529 177.74 185.367 176.354L186.969 176.21C187.203 177.272 187.887 177.938 189.219 177.938C190.443 177.938 191.307 177.398 191.307 176.624C191.307 175.814 190.407 175.418 189.381 175.202L188.229 174.968C186.951 174.716 185.601 174.158 185.601 172.484C185.601 170.936 187.293 170.036 189.183 170.036C191.163 170.036 192.459 171.062 192.801 172.574ZM195.563 174.626C195.563 176.93 196.661 177.884 198.101 177.884C199.541 177.884 200.639 176.93 200.639 174.626C200.639 172.322 199.541 171.368 198.101 171.368C196.661 171.368 195.563 172.322 195.563 174.626ZM193.943 174.626C193.943 171.458 195.941 170.036 198.101 170.036C200.261 170.036 202.259 171.458 202.259 174.626C202.259 177.794 200.261 179.216 198.101 179.216C195.941 179.216 193.943 177.794 193.943 174.626ZM207.733 170.036C209.929 170.036 211.243 171.584 211.441 172.952L209.893 173.168C209.677 172.07 208.813 171.386 207.625 171.386C206.221 171.386 205.069 172.43 205.069 174.59C205.069 176.786 206.239 177.866 207.625 177.866C208.921 177.866 209.749 177.074 209.965 176.102L211.531 176.3C211.243 177.848 209.695 179.216 207.589 179.216C204.961 179.216 203.449 177.254 203.449 174.608C203.449 172.016 205.015 170.036 207.733 170.036ZM212.986 170.18H214.516V179H212.986V170.18ZM212.986 167.048H214.516V168.884H212.986V167.048ZM218.039 172.898L216.545 172.844C216.653 171.026 218.255 170.018 220.235 170.018C222.737 170.018 223.763 170.99 223.727 173.366L223.691 175.598C223.673 176.984 223.763 177.83 223.871 179H222.395L222.341 177.758C221.801 178.64 220.937 179.216 219.371 179.216C217.319 179.216 216.257 177.866 216.257 176.354C216.257 175.4 216.743 174.752 217.445 174.356C218.291 173.888 219.353 173.708 220.487 173.582L222.197 173.402V173.078C222.197 171.638 221.333 171.26 220.163 171.26C218.777 171.26 218.129 171.926 218.039 172.898ZM222.305 175.184V174.662L220.469 174.842C218.741 175.004 217.877 175.418 217.877 176.408C217.877 177.344 218.615 177.884 219.659 177.884C220.901 177.884 222.305 177.218 222.305 175.184ZM226.259 170.18V167.75H227.789V170.18H229.481V171.44H227.789V176.534C227.789 177.47 227.843 177.704 228.725 177.704H229.481V179H228.383C226.655 179 226.259 178.622 226.259 176.75V171.44H224.837V170.18H226.259ZM234.751 179.216C231.871 179.216 230.485 177.2 230.485 174.626C230.485 171.872 232.267 170.036 234.769 170.036C237.541 170.036 239.125 172.232 238.909 175.076H232.105C232.105 176.804 233.221 177.866 234.715 177.866C236.119 177.866 236.821 177.272 237.199 176.318L238.765 176.516C238.351 177.974 236.965 179.216 234.751 179.216ZM234.769 171.332C233.239 171.332 232.195 172.25 232.123 173.798H237.289C237.253 172.61 236.407 171.332 234.769 171.332ZM247.228 172.574L245.644 172.718C245.41 171.692 244.564 171.314 243.448 171.314C242.494 171.314 241.558 171.656 241.558 172.394C241.558 173.078 242.08 173.366 243.016 173.564L244.078 173.78C245.734 174.122 247.282 174.716 247.282 176.462C247.282 178.226 245.68 179.216 243.61 179.216C241.252 179.216 239.956 177.74 239.794 176.354L241.396 176.21C241.63 177.272 242.314 177.938 243.646 177.938C244.87 177.938 245.734 177.398 245.734 176.624C245.734 175.814 244.834 175.418 243.808 175.202L242.656 174.968C241.378 174.716 240.028 174.158 240.028 172.484C240.028 170.936 241.72 170.036 243.61 170.036C245.59 170.036 246.886 171.062 247.228 172.574ZM259.472 172.574L257.888 172.718C257.654 171.692 256.808 171.314 255.692 171.314C254.738 171.314 253.802 171.656 253.802 172.394C253.802 173.078 254.324 173.366 255.26 173.564L256.322 173.78C257.978 174.122 259.526 174.716 259.526 176.462C259.526 178.226 257.924 179.216 255.854 179.216C253.496 179.216 252.2 177.74 252.038 176.354L253.64 176.21C253.874 177.272 254.558 177.938 255.89 177.938C257.114 177.938 257.978 177.398 257.978 176.624C257.978 175.814 257.078 175.418 256.052 175.202L254.9 174.968C253.622 174.716 252.272 174.158 252.272 172.484C252.272 170.936 253.964 170.036 255.854 170.036C257.834 170.036 259.13 171.062 259.472 172.574ZM262.504 172.898L261.01 172.844C261.118 171.026 262.72 170.018 264.7 170.018C267.202 170.018 268.228 170.99 268.192 173.366L268.156 175.598C268.138 176.984 268.228 177.83 268.336 179H266.86L266.806 177.758C266.266 178.64 265.402 179.216 263.836 179.216C261.784 179.216 260.722 177.866 260.722 176.354C260.722 175.4 261.208 174.752 261.91 174.356C262.756 173.888 263.818 173.708 264.952 173.582L266.662 173.402V173.078C266.662 171.638 265.798 171.26 264.628 171.26C263.242 171.26 262.594 171.926 262.504 172.898ZM266.77 175.184V174.662L264.934 174.842C263.206 175.004 262.342 175.418 262.342 176.408C262.342 177.344 263.08 177.884 264.124 177.884C265.366 177.884 266.77 177.218 266.77 175.184ZM270.292 170.18H271.822V179H270.292V170.18ZM270.292 167.048H271.822V168.884H270.292V167.048ZM281.52 167.048V179H280.044L279.99 177.794C279.432 178.64 278.604 179.216 277.128 179.216C275.004 179.216 273.456 177.488 273.456 174.608C273.456 171.764 275.058 170.036 277.308 170.036C278.586 170.036 279.504 170.576 279.99 171.332V167.048H281.52ZM277.524 177.884C278.874 177.884 280.062 176.894 280.062 174.608C280.062 172.322 278.928 171.368 277.524 171.368C275.922 171.368 275.076 172.574 275.076 174.608C275.076 176.66 275.904 177.884 277.524 177.884ZM33.638 192.18V189.75H35.168V192.18H36.86V193.44H35.168V198.534C35.168 199.47 35.222 199.704 36.104 199.704H36.86V201H35.762C34.034 201 33.638 200.622 33.638 198.75V193.44H32.216V192.18H33.638ZM39.9876 189.048V193.404C40.4916 192.63 41.3736 192.036 42.8856 192.036C44.0736 192.036 44.9016 192.486 45.3696 193.242C45.7116 193.8 45.8556 194.538 45.8556 195.582V201H44.3256V195.996C44.3256 195.06 44.2176 194.502 44.0016 194.124C43.6776 193.584 43.1376 193.368 42.3636 193.368C40.8876 193.368 39.9876 194.376 39.9876 196.302V201H38.4576V189.048H39.9876ZM51.6176 201.216C48.7376 201.216 47.3516 199.2 47.3516 196.626C47.3516 193.872 49.1336 192.036 51.6356 192.036C54.4076 192.036 55.9916 194.232 55.7756 197.076H48.9716C48.9716 198.804 50.0876 199.866 51.5816 199.866C52.9856 199.866 53.6876 199.272 54.0656 198.318L55.6316 198.516C55.2176 199.974 53.8316 201.216 51.6176 201.216ZM51.6356 193.332C50.1056 193.332 49.0616 194.25 48.9896 195.798H54.1556C54.1196 194.61 53.2736 193.332 51.6356 193.332ZM57.6358 204.114H56.8438V202.782H57.4738C58.4638 202.782 58.9138 202.674 59.3638 201.18L59.4178 201L56.1778 192.18H57.8698L60.1558 198.948L62.3878 192.18H63.9718L60.7678 201.378C60.1378 203.178 59.6338 204.114 57.6358 204.114ZM70.0766 194.898L68.5826 194.844C68.6906 193.026 70.2926 192.018 72.2726 192.018C74.7746 192.018 75.8006 192.99 75.7646 195.366L75.7286 197.598C75.7106 198.984 75.8006 199.83 75.9086 201H74.4326L74.3786 199.758C73.8386 200.64 72.9746 201.216 71.4086 201.216C69.3566 201.216 68.2946 199.866 68.2946 198.354C68.2946 197.4 68.7806 196.752 69.4826 196.356C70.3286 195.888 71.3906 195.708 72.5246 195.582L74.2346 195.402V195.078C74.2346 193.638 73.3706 193.26 72.2006 193.26C70.8146 193.26 70.1666 193.926 70.0766 194.898ZM74.3426 197.184V196.662L72.5066 196.842C70.7786 197.004 69.9146 197.418 69.9146 198.408C69.9146 199.344 70.6526 199.884 71.6966 199.884C72.9386 199.884 74.3426 199.218 74.3426 197.184ZM82.3463 192.144V193.764C82.0223 193.728 81.7523 193.71 81.5003 193.71C80.0963 193.71 79.3943 194.484 79.3943 196.464V201H77.8643V192.18H79.3583V193.746C79.8083 192.738 80.7263 192.162 81.8963 192.126C82.0403 192.126 82.1843 192.126 82.3463 192.144ZM87.1219 201.216C84.2419 201.216 82.8559 199.2 82.8559 196.626C82.8559 193.872 84.6379 192.036 87.1399 192.036C89.9119 192.036 91.4959 194.232 91.2799 197.076H84.4759C84.4759 198.804 85.5919 199.866 87.0859 199.866C88.4899 199.866 89.1919 199.272 89.5699 198.318L91.1359 198.516C90.7219 199.974 89.3359 201.216 87.1219 201.216ZM87.1399 193.332C85.6099 193.332 84.5659 194.25 84.4939 195.798H89.6599C89.6239 194.61 88.7779 193.332 87.1399 193.332ZM97.6335 196.626C97.6335 198.93 98.7315 199.884 100.171 199.884C101.611 199.884 102.709 198.93 102.709 196.626C102.709 194.322 101.611 193.368 100.171 193.368C98.7315 193.368 97.6335 194.322 97.6335 196.626ZM96.0135 196.626C96.0135 193.458 98.0115 192.036 100.171 192.036C102.331 192.036 104.329 193.458 104.329 196.626C104.329 199.794 102.331 201.216 100.171 201.216C98.0115 201.216 96.0135 199.794 96.0135 196.626ZM106.35 192.18V191.532C106.35 189.66 106.746 189.048 108.78 189.048H109.572V190.344H108.816C108.024 190.344 107.88 190.578 107.88 191.514V192.18H109.572V193.44H107.88V201H106.35V193.44H105.108V192.18H106.35ZM111.642 192.18V189.75H113.172V192.18H114.864V193.44H113.172V198.534C113.172 199.47 113.226 199.704 114.108 199.704H114.864V201H113.766C112.038 201 111.642 200.622 111.642 198.75V193.44H110.22V192.18H111.642ZM120.134 201.216C117.254 201.216 115.868 199.2 115.868 196.626C115.868 193.872 117.65 192.036 120.152 192.036C122.924 192.036 124.508 194.232 124.292 197.076H117.488C117.488 198.804 118.604 199.866 120.098 199.866C121.502 199.866 122.204 199.272 122.582 198.318L124.148 198.516C123.734 199.974 122.348 201.216 120.134 201.216ZM120.152 193.332C118.622 193.332 117.578 194.25 117.506 195.798H122.672C122.636 194.61 121.79 193.332 120.152 193.332ZM127.375 192.18V193.404C127.879 192.63 128.761 192.036 130.273 192.036C131.461 192.036 132.289 192.486 132.757 193.242C133.099 193.8 133.243 194.538 133.243 195.582V201H131.713V195.996C131.713 195.06 131.605 194.502 131.389 194.124C131.065 193.584 130.525 193.368 129.751 193.368C128.275 193.368 127.375 194.376 127.375 196.302V201H125.845V192.18H127.375ZM140.404 194.898L138.91 194.844C139.018 193.026 140.62 192.018 142.6 192.018C145.102 192.018 146.128 192.99 146.092 195.366L146.056 197.598C146.038 198.984 146.128 199.83 146.236 201H144.76L144.706 199.758C144.166 200.64 143.302 201.216 141.736 201.216C139.684 201.216 138.622 199.866 138.622 198.354C138.622 197.4 139.108 196.752 139.81 196.356C140.656 195.888 141.718 195.708 142.852 195.582L144.562 195.402V195.078C144.562 193.638 143.698 193.26 142.528 193.26C141.142 193.26 140.494 193.926 140.404 194.898ZM144.67 197.184V196.662L142.834 196.842C141.106 197.004 140.242 197.418 140.242 198.408C140.242 199.344 140.98 199.884 142.024 199.884C143.266 199.884 144.67 199.218 144.67 197.184ZM154.924 194.574L153.34 194.718C153.106 193.692 152.26 193.314 151.144 193.314C150.19 193.314 149.254 193.656 149.254 194.394C149.254 195.078 149.776 195.366 150.712 195.564L151.774 195.78C153.43 196.122 154.978 196.716 154.978 198.462C154.978 200.226 153.376 201.216 151.306 201.216C148.948 201.216 147.652 199.74 147.49 198.354L149.092 198.21C149.326 199.272 150.01 199.938 151.342 199.938C152.566 199.938 153.43 199.398 153.43 198.624C153.43 197.814 152.53 197.418 151.504 197.202L150.352 196.968C149.074 196.716 147.724 196.158 147.724 194.484C147.724 192.936 149.416 192.036 151.306 192.036C153.286 192.036 154.582 193.062 154.924 194.574ZM156.66 189.048H158.19V195.906L161.808 192.18H163.68L160.512 195.438L163.968 201H162.186L159.468 196.518L158.19 197.832V201H156.66V189.048ZM168.502 201.216C165.622 201.216 164.236 199.2 164.236 196.626C164.236 193.872 166.018 192.036 168.52 192.036C171.292 192.036 172.876 194.232 172.66 197.076H165.856C165.856 198.804 166.972 199.866 168.466 199.866C169.87 199.866 170.572 199.272 170.95 198.318L172.516 198.516C172.102 199.974 170.716 201.216 168.502 201.216ZM168.52 193.332C166.99 193.332 165.946 194.25 165.874 195.798H171.04C171.004 194.61 170.158 193.332 168.52 193.332ZM181.77 189.048V201H180.294L180.24 199.794C179.682 200.64 178.854 201.216 177.378 201.216C175.254 201.216 173.706 199.488 173.706 196.608C173.706 193.764 175.308 192.036 177.558 192.036C178.836 192.036 179.754 192.576 180.24 193.332V189.048H181.77ZM177.774 199.884C179.124 199.884 180.312 198.894 180.312 196.608C180.312 194.322 179.178 193.368 177.774 193.368C176.172 193.368 175.326 194.574 175.326 196.608C175.326 198.66 176.154 199.884 177.774 199.884ZM188.152 192.18V191.532C188.152 189.66 188.548 189.048 190.582 189.048H191.374V190.344H190.618C189.826 190.344 189.682 190.578 189.682 191.514V192.18H191.374V193.44H189.682V201H188.152V193.44H186.91V192.18H188.152ZM193.682 196.626C193.682 198.93 194.78 199.884 196.22 199.884C197.66 199.884 198.758 198.93 198.758 196.626C198.758 194.322 197.66 193.368 196.22 193.368C194.78 193.368 193.682 194.322 193.682 196.626ZM192.062 196.626C192.062 193.458 194.06 192.036 196.22 192.036C198.38 192.036 200.378 193.458 200.378 196.626C200.378 199.794 198.38 201.216 196.22 201.216C194.06 201.216 192.062 199.794 192.062 196.626ZM206.503 192.144V193.764C206.179 193.728 205.909 193.71 205.657 193.71C204.253 193.71 203.551 194.484 203.551 196.464V201H202.021V192.18H203.515V193.746C203.965 192.738 204.883 192.162 206.053 192.126C206.197 192.126 206.341 192.126 206.503 192.144ZM212.854 194.898L211.36 194.844C211.468 193.026 213.07 192.018 215.05 192.018C217.552 192.018 218.578 192.99 218.542 195.366L218.506 197.598C218.488 198.984 218.578 199.83 218.686 201H217.21L217.156 199.758C216.616 200.64 215.752 201.216 214.186 201.216C212.134 201.216 211.072 199.866 211.072 198.354C211.072 197.4 211.558 196.752 212.26 196.356C213.106 195.888 214.168 195.708 215.302 195.582L217.012 195.402V195.078C217.012 193.638 216.148 193.26 214.978 193.26C213.592 193.26 212.944 193.926 212.854 194.898ZM217.12 197.184V196.662L215.284 196.842C213.556 197.004 212.692 197.418 212.692 198.408C212.692 199.344 213.43 199.884 214.474 199.884C215.716 199.884 217.12 199.218 217.12 197.184ZM231.149 194.574L229.565 194.718C229.331 193.692 228.485 193.314 227.369 193.314C226.415 193.314 225.479 193.656 225.479 194.394C225.479 195.078 226.001 195.366 226.937 195.564L227.999 195.78C229.655 196.122 231.203 196.716 231.203 198.462C231.203 200.226 229.601 201.216 227.531 201.216C225.173 201.216 223.877 199.74 223.715 198.354L225.317 198.21C225.551 199.272 226.235 199.938 227.567 199.938C228.791 199.938 229.655 199.398 229.655 198.624C229.655 197.814 228.755 197.418 227.729 197.202L226.577 196.968C225.299 196.716 223.949 196.158 223.949 194.484C223.949 192.936 225.641 192.036 227.531 192.036C229.511 192.036 230.807 193.062 231.149 194.574ZM233.579 192.18V189.75H235.109V192.18H236.801V193.44H235.109V198.534C235.109 199.47 235.163 199.704 236.045 199.704H236.801V201H235.703C233.975 201 233.579 200.622 233.579 198.75V193.44H232.157V192.18H233.579ZM238.783 204.114H237.991V202.782H238.621C239.611 202.782 240.061 202.674 240.511 201.18L240.565 201L237.325 192.18H239.017L241.303 198.948L243.535 192.18H245.119L241.915 201.378C241.285 203.178 240.781 204.114 238.783 204.114ZM247.682 189.048V201H246.152V189.048H247.682ZM253.582 201.216C250.702 201.216 249.316 199.2 249.316 196.626C249.316 193.872 251.098 192.036 253.6 192.036C256.372 192.036 257.956 194.232 257.74 197.076H250.936C250.936 198.804 252.052 199.866 253.546 199.866C254.95 199.866 255.652 199.272 256.03 198.318L257.596 198.516C257.182 199.974 255.796 201.216 253.582 201.216ZM253.6 193.332C252.07 193.332 251.026 194.25 250.954 195.798H256.12C256.084 194.61 255.238 193.332 253.6 193.332ZM264.363 194.898L262.869 194.844C262.977 193.026 264.579 192.018 266.559 192.018C269.061 192.018 270.087 192.99 270.051 195.366L270.015 197.598C269.997 198.984 270.087 199.83 270.195 201H268.719L268.665 199.758C268.125 200.64 267.261 201.216 265.695 201.216C263.643 201.216 262.581 199.866 262.581 198.354C262.581 197.4 263.067 196.752 263.769 196.356C264.615 195.888 265.677 195.708 266.811 195.582L268.521 195.402V195.078C268.521 193.638 267.657 193.26 266.487 193.26C265.101 193.26 264.453 193.926 264.363 194.898ZM268.629 197.184V196.662L266.793 196.842C265.065 197.004 264.201 197.418 264.201 198.408C264.201 199.344 264.939 199.884 265.983 199.884C267.225 199.884 268.629 199.218 268.629 197.184ZM279.621 189.048V201H278.145L278.091 199.794C277.533 200.64 276.705 201.216 275.229 201.216C273.105 201.216 271.557 199.488 271.557 196.608C271.557 193.764 273.159 192.036 275.409 192.036C276.687 192.036 277.605 192.576 278.091 193.332V189.048H279.621ZM275.625 199.884C276.975 199.884 278.163 198.894 278.163 196.608C278.163 194.322 277.029 193.368 275.625 193.368C274.023 193.368 273.177 194.574 273.177 196.608C273.177 198.66 274.005 199.884 275.625 199.884ZM282.336 192.18L284.784 198.894L287.214 192.18H288.798L285.396 201H284.046L280.644 192.18H282.336ZM289.826 192.18H291.356V201H289.826V192.18ZM289.826 189.048H291.356V190.884H289.826V189.048ZM297.274 192.036C299.47 192.036 300.784 193.584 300.982 194.952L299.434 195.168C299.218 194.07 298.354 193.386 297.166 193.386C295.762 193.386 294.61 194.43 294.61 196.59C294.61 198.786 295.78 199.866 297.166 199.866C298.462 199.866 299.29 199.074 299.506 198.102L301.072 198.3C300.784 199.848 299.236 201.216 297.13 201.216C294.502 201.216 292.99 199.254 292.99 196.608C292.99 194.016 294.556 192.036 297.274 192.036ZM306.287 201.216C303.407 201.216 302.021 199.2 302.021 196.626C302.021 193.872 303.803 192.036 306.305 192.036C309.077 192.036 310.661 194.232 310.445 197.076H303.641C303.641 198.804 304.757 199.866 306.251 199.866C307.655 199.866 308.357 199.272 308.735 198.318L310.301 198.516C309.887 199.974 308.501 201.216 306.287 201.216ZM306.305 193.332C304.775 193.332 303.731 194.25 303.659 195.798H308.825C308.789 194.61 307.943 193.332 306.305 193.332Z" fill="#1B1B1B"/>
</svg>
