<svg width="325" height="231" viewBox="0 0 325 231" fill="none" xmlns="http://www.w3.org/2000/svg">
<rect width="325" height="231" fill="#EEEEEE"/>
<path d="M78.64 65.39C78.64 55.27 72.37 48.78 62.58 48.78C53.01 48.78 46.3 55.38 46.3 65.39C46.3 75.29 52.9 82.11 62.47 82.11C72.15 82.11 78.64 75.29 78.64 65.39ZM61.59 108.18C73.03 108.18 79.3 97.4 79.85 80.46C76.44 86.18 70.06 90.58 60.27 90.58C46.52 90.58 36.4 80.46 36.4 65.83C36.4 52.19 46.63 40.64 62.47 40.64C80.95 40.64 89.42 53.29 89.42 75.84C89.42 96.63 82.16 116.32 60.71 116.32C46.19 116.32 39.15 107.41 37.61 98.17L47.73 98.06C48.94 104.66 54 108.18 61.59 108.18ZM124.332 108.18C133.242 108.18 140.832 102.24 140.832 91.02C140.832 78.92 132.252 73.97 124.112 73.97C116.742 73.97 111.462 78.15 109.812 81.78L100.462 81.34L105.302 41.96H147.872V50.98H112.892L110.252 71.33C114.212 67.59 120.152 65.83 126.312 65.83C139.292 65.83 150.732 74.85 150.732 90.91C150.732 107.63 138.082 116.32 124.222 116.32C107.062 116.32 99.2521 105.43 97.8221 94.21L107.392 93.44C108.822 102.46 113.882 108.18 124.332 108.18ZM173.552 84.42C162.222 84.42 156.722 75.62 156.722 62.75C156.722 49.77 162.222 41.19 173.552 41.19C184.772 41.19 190.272 49.77 190.272 62.75C190.272 75.62 184.772 84.42 173.552 84.42ZM173.552 78.59C179.492 78.59 182.682 73.09 182.682 62.75C182.682 52.3 179.492 47.02 173.552 47.02C167.502 47.02 164.312 52.3 164.312 62.75C164.312 73.09 167.502 78.59 173.552 78.59ZM169.042 115H179.382L230.532 41.96H220.192L169.042 115ZM226.132 115.77C214.802 115.77 209.302 106.97 209.302 94.1C209.302 81.12 214.802 72.54 226.132 72.54C237.352 72.54 242.852 81.12 242.852 94.1C242.852 106.97 237.352 115.77 226.132 115.77ZM226.132 109.94C232.072 109.94 235.262 104.44 235.262 94.1C235.262 83.65 232.072 78.37 226.132 78.37C220.082 78.37 216.892 83.65 216.892 94.1C216.892 104.44 220.082 109.94 226.132 109.94Z" fill="#1B1B1B"/>
<path d="M33.736 172.598C33.736 174.39 34.59 175.132 35.71 175.132C36.83 175.132 37.684 174.39 37.684 172.598C37.684 170.806 36.83 170.064 35.71 170.064C34.59 170.064 33.736 170.806 33.736 172.598ZM32.476 172.598C32.476 170.134 34.03 169.028 35.71 169.028C37.39 169.028 38.944 170.134 38.944 172.598C38.944 175.062 37.39 176.168 35.71 176.168C34.03 176.168 32.476 175.062 32.476 172.598ZM40.5158 169.14V168.636C40.5158 167.18 40.8238 166.704 42.4058 166.704H43.0218V167.712H42.4338C41.8178 167.712 41.7058 167.894 41.7058 168.622V169.14H43.0218V170.12H41.7058V176H40.5158V170.12H39.5498V169.14H40.5158ZM52.3282 171.002L51.0962 171.114C50.9142 170.316 50.2562 170.022 49.3882 170.022C48.6462 170.022 47.9182 170.288 47.9182 170.862C47.9182 171.394 48.3242 171.618 49.0522 171.772L49.8782 171.94C51.1662 172.206 52.3702 172.668 52.3702 174.026C52.3702 175.398 51.1242 176.168 49.5142 176.168C47.6802 176.168 46.6722 175.02 46.5462 173.942L47.7922 173.83C47.9742 174.656 48.5062 175.174 49.5422 175.174C50.4942 175.174 51.1662 174.754 51.1662 174.152C51.1662 173.522 50.4662 173.214 49.6682 173.046L48.7722 172.864C47.7782 172.668 46.7282 172.234 46.7282 170.932C46.7282 169.728 48.0442 169.028 49.5142 169.028C51.0542 169.028 52.0622 169.826 52.3282 171.002ZM58.0468 176V175.02C57.6688 175.664 57.0668 176.154 55.8908 176.154C55.0508 176.154 54.4628 175.846 54.0988 175.356C53.7628 174.908 53.6228 174.25 53.6228 173.396V169.14H54.8128V173.018C54.8128 173.718 54.8828 174.166 55.0368 174.474C55.2608 174.936 55.7088 175.118 56.3248 175.118C57.4028 175.118 58.0468 174.32 58.0468 172.878V169.14H59.2368V176H58.0468ZM64.4623 169.112V170.372C64.2103 170.344 64.0003 170.33 63.8043 170.33C62.7123 170.33 62.1663 170.932 62.1663 172.472V176H60.9763V169.14H62.1383V170.358C62.4883 169.574 63.2023 169.126 64.1123 169.098C64.2243 169.098 64.3363 169.098 64.4623 169.112ZM65.8354 169.14L67.7394 174.362L69.6294 169.14H70.8614L68.2154 176H67.1654L64.5194 169.14H65.8354ZM74.4898 176.168C72.2498 176.168 71.1718 174.6 71.1718 172.598C71.1718 170.456 72.5578 169.028 74.5038 169.028C76.6598 169.028 77.8918 170.736 77.7238 172.948H72.4318C72.4318 174.292 73.2998 175.118 74.4618 175.118C75.5538 175.118 76.0998 174.656 76.3938 173.914L77.6118 174.068C77.2898 175.202 76.2118 176.168 74.4898 176.168ZM74.5038 170.036C73.3138 170.036 72.5018 170.75 72.4458 171.954H76.4638C76.4358 171.03 75.7778 170.036 74.5038 170.036ZM79.1706 178.422H78.5546V177.386H79.0446C79.8146 177.386 80.1646 177.302 80.5146 176.14L80.5566 176L78.0366 169.14H79.3526L81.1306 174.404L82.8666 169.14H84.0986L81.6066 176.294C81.1166 177.694 80.7246 178.422 79.1706 178.422ZM87.7313 176.168C85.4913 176.168 84.4133 174.6 84.4133 172.598C84.4133 170.456 85.7993 169.028 87.7453 169.028C89.9013 169.028 91.1333 170.736 90.9653 172.948H85.6733C85.6733 174.292 86.5413 175.118 87.7033 175.118C88.7953 175.118 89.3413 174.656 89.6353 173.914L90.8533 174.068C90.5313 175.202 89.4533 176.168 87.7313 176.168ZM87.7453 170.036C86.5553 170.036 85.7433 170.75 85.6873 171.954H89.7053C89.6773 171.03 89.0193 170.036 87.7453 170.036ZM98.0511 166.704V176H96.9031L96.8611 175.062C96.4271 175.72 95.7831 176.168 94.6351 176.168C92.9831 176.168 91.7791 174.824 91.7791 172.584C91.7791 170.372 93.0251 169.028 94.7751 169.028C95.7691 169.028 96.4831 169.448 96.8611 170.036V166.704H98.0511ZM94.9431 175.132C95.9931 175.132 96.9171 174.362 96.9171 172.584C96.9171 170.806 96.0351 170.064 94.9431 170.064C93.6971 170.064 93.0391 171.002 93.0391 172.584C93.0391 174.18 93.6831 175.132 94.9431 175.132ZM102.511 169.084C102.511 167.292 104.401 166.536 105.927 166.536C107.621 166.536 109.133 167.32 109.497 169.014L108.209 169.196C107.901 168.034 106.823 167.684 105.871 167.684C105.143 167.684 103.869 167.978 103.869 169.042C103.869 169.868 104.527 170.232 105.409 170.428L106.501 170.666C107.943 170.988 109.665 171.492 109.665 173.382C109.665 175.23 107.957 176.168 106.081 176.168C103.855 176.168 102.455 174.95 102.203 173.186L103.491 173.004C103.743 174.292 104.611 175.02 106.109 175.02C107.495 175.02 108.307 174.432 108.307 173.508C108.307 172.514 107.453 172.136 106.277 171.884L105.101 171.632C103.813 171.352 102.511 170.666 102.511 169.084ZM111.257 169.14V167.25H112.447V169.14H113.763V170.12H112.447V174.082C112.447 174.81 112.489 174.992 113.175 174.992H113.763V176H112.909C111.565 176 111.257 175.706 111.257 174.25V170.12H110.151V169.14H111.257ZM115.803 172.598C115.803 174.39 116.657 175.132 117.777 175.132C118.897 175.132 119.751 174.39 119.751 172.598C119.751 170.806 118.897 170.064 117.777 170.064C116.657 170.064 115.803 170.806 115.803 172.598ZM114.543 172.598C114.543 170.134 116.097 169.028 117.777 169.028C119.457 169.028 121.011 170.134 121.011 172.598C121.011 175.062 119.457 176.168 117.777 176.168C116.097 176.168 114.543 175.062 114.543 172.598ZM125.775 169.112V170.372C125.523 170.344 125.313 170.33 125.117 170.33C124.025 170.33 123.479 170.932 123.479 172.472V176H122.289V169.14H123.451V170.358C123.801 169.574 124.515 169.126 125.425 169.098C125.537 169.098 125.649 169.098 125.775 169.112ZM129.49 176.168C127.25 176.168 126.172 174.6 126.172 172.598C126.172 170.456 127.558 169.028 129.504 169.028C131.66 169.028 132.892 170.736 132.724 172.948H127.432C127.432 174.292 128.3 175.118 129.462 175.118C130.554 175.118 131.1 174.656 131.394 173.914L132.612 174.068C132.29 175.202 131.212 176.168 129.49 176.168ZM129.504 170.036C128.314 170.036 127.502 170.75 127.446 171.954H131.464C131.436 171.03 130.778 170.036 129.504 170.036ZM135.929 176L139.429 166.704H140.969L144.511 176H143.055L142.313 173.984H138.029L137.315 176H135.929ZM140.157 168.076L138.449 172.822H141.893L140.157 168.076ZM150.481 171.002L149.249 171.114C149.067 170.316 148.409 170.022 147.541 170.022C146.799 170.022 146.071 170.288 146.071 170.862C146.071 171.394 146.477 171.618 147.205 171.772L148.031 171.94C149.319 172.206 150.523 172.668 150.523 174.026C150.523 175.398 149.277 176.168 147.667 176.168C145.833 176.168 144.825 175.02 144.699 173.942L145.945 173.83C146.127 174.656 146.659 175.174 147.695 175.174C148.647 175.174 149.319 174.754 149.319 174.152C149.319 173.522 148.619 173.214 147.821 173.046L146.925 172.864C145.931 172.668 144.881 172.234 144.881 170.932C144.881 169.728 146.197 169.028 147.667 169.028C149.207 169.028 150.215 169.826 150.481 171.002ZM157.067 171.002L155.835 171.114C155.653 170.316 154.995 170.022 154.127 170.022C153.385 170.022 152.657 170.288 152.657 170.862C152.657 171.394 153.063 171.618 153.791 171.772L154.617 171.94C155.905 172.206 157.109 172.668 157.109 174.026C157.109 175.398 155.863 176.168 154.253 176.168C152.419 176.168 151.411 175.02 151.285 173.942L152.531 173.83C152.713 174.656 153.245 175.174 154.281 175.174C155.233 175.174 155.905 174.754 155.905 174.152C155.905 173.522 155.205 173.214 154.407 173.046L153.511 172.864C152.517 172.668 151.467 172.234 151.467 170.932C151.467 169.728 152.783 169.028 154.253 169.028C155.793 169.028 156.801 169.826 157.067 171.002ZM159.216 172.598C159.216 174.39 160.07 175.132 161.19 175.132C162.31 175.132 163.164 174.39 163.164 172.598C163.164 170.806 162.31 170.064 161.19 170.064C160.07 170.064 159.216 170.806 159.216 172.598ZM157.956 172.598C157.956 170.134 159.51 169.028 161.19 169.028C162.87 169.028 164.424 170.134 164.424 172.598C164.424 175.062 162.87 176.168 161.19 176.168C159.51 176.168 157.956 175.062 157.956 172.598ZM168.681 169.028C170.389 169.028 171.411 170.232 171.565 171.296L170.361 171.464C170.193 170.61 169.521 170.078 168.597 170.078C167.505 170.078 166.609 170.89 166.609 172.57C166.609 174.278 167.519 175.118 168.597 175.118C169.605 175.118 170.249 174.502 170.417 173.746L171.635 173.9C171.411 175.104 170.207 176.168 168.569 176.168C166.525 176.168 165.349 174.642 165.349 172.584C165.349 170.568 166.567 169.028 168.681 169.028ZM172.767 169.14H173.957V176H172.767V169.14ZM172.767 166.704H173.957V168.132H172.767V166.704ZM176.697 171.254L175.535 171.212C175.619 169.798 176.865 169.014 178.405 169.014C180.351 169.014 181.149 169.77 181.121 171.618L181.093 173.354C181.079 174.432 181.149 175.09 181.233 176H180.085L180.043 175.034C179.623 175.72 178.951 176.168 177.733 176.168C176.137 176.168 175.311 175.118 175.311 173.942C175.311 173.2 175.689 172.696 176.235 172.388C176.893 172.024 177.719 171.884 178.601 171.786L179.931 171.646V171.394C179.931 170.274 179.259 169.98 178.349 169.98C177.271 169.98 176.767 170.498 176.697 171.254ZM180.015 173.032V172.626L178.587 172.766C177.243 172.892 176.571 173.214 176.571 173.984C176.571 174.712 177.145 175.132 177.957 175.132C178.923 175.132 180.015 174.614 180.015 173.032ZM183.09 169.14V167.25H184.28V169.14H185.596V170.12H184.28V174.082C184.28 174.81 184.322 174.992 185.008 174.992H185.596V176H184.742C183.398 176 183.09 175.706 183.09 174.25V170.12H181.984V169.14H183.09ZM189.695 176.168C187.455 176.168 186.377 174.6 186.377 172.598C186.377 170.456 187.763 169.028 189.709 169.028C191.865 169.028 193.097 170.736 192.929 172.948H187.637C187.637 174.292 188.505 175.118 189.667 175.118C190.759 175.118 191.305 174.656 191.599 173.914L192.817 174.068C192.495 175.202 191.417 176.168 189.695 176.168ZM189.709 170.036C188.519 170.036 187.707 170.75 187.651 171.954H191.669C191.641 171.03 190.983 170.036 189.709 170.036ZM199.4 171.002L198.168 171.114C197.986 170.316 197.328 170.022 196.46 170.022C195.718 170.022 194.99 170.288 194.99 170.862C194.99 171.394 195.396 171.618 196.124 171.772L196.95 171.94C198.238 172.206 199.442 172.668 199.442 174.026C199.442 175.398 198.196 176.168 196.586 176.168C194.752 176.168 193.744 175.02 193.618 173.942L194.864 173.83C195.046 174.656 195.578 175.174 196.614 175.174C197.566 175.174 198.238 174.754 198.238 174.152C198.238 173.522 197.538 173.214 196.74 173.046L195.844 172.864C194.85 172.668 193.8 172.234 193.8 170.932C193.8 169.728 195.116 169.028 196.586 169.028C198.126 169.028 199.134 169.826 199.4 171.002ZM208.923 171.002L207.691 171.114C207.509 170.316 206.851 170.022 205.983 170.022C205.241 170.022 204.513 170.288 204.513 170.862C204.513 171.394 204.919 171.618 205.647 171.772L206.473 171.94C207.761 172.206 208.965 172.668 208.965 174.026C208.965 175.398 207.719 176.168 206.109 176.168C204.275 176.168 203.267 175.02 203.141 173.942L204.387 173.83C204.569 174.656 205.101 175.174 206.137 175.174C207.089 175.174 207.761 174.754 207.761 174.152C207.761 173.522 207.061 173.214 206.263 173.046L205.367 172.864C204.373 172.668 203.323 172.234 203.323 170.932C203.323 169.728 204.639 169.028 206.109 169.028C207.649 169.028 208.657 169.826 208.923 171.002ZM211.281 171.254L210.119 171.212C210.203 169.798 211.449 169.014 212.989 169.014C214.935 169.014 215.733 169.77 215.705 171.618L215.677 173.354C215.663 174.432 215.733 175.09 215.817 176H214.669L214.627 175.034C214.207 175.72 213.535 176.168 212.317 176.168C210.721 176.168 209.895 175.118 209.895 173.942C209.895 173.2 210.273 172.696 210.819 172.388C211.477 172.024 212.303 171.884 213.185 171.786L214.515 171.646V171.394C214.515 170.274 213.843 169.98 212.933 169.98C211.855 169.98 211.351 170.498 211.281 171.254ZM214.599 173.032V172.626L213.171 172.766C211.827 172.892 211.155 173.214 211.155 173.984C211.155 174.712 211.729 175.132 212.541 175.132C213.507 175.132 214.599 174.614 214.599 173.032ZM217.338 169.14H218.528V176H217.338V169.14ZM217.338 166.704H218.528V168.132H217.338V166.704ZM226.071 166.704V176H224.923L224.881 175.062C224.447 175.72 223.803 176.168 222.655 176.168C221.003 176.168 219.799 174.824 219.799 172.584C219.799 170.372 221.045 169.028 222.795 169.028C223.789 169.028 224.503 169.448 224.881 170.036V166.704H226.071ZM222.963 175.132C224.013 175.132 224.937 174.362 224.937 172.584C224.937 170.806 224.055 170.064 222.963 170.064C221.717 170.064 221.059 171.002 221.059 172.584C221.059 174.18 221.703 175.132 222.963 175.132ZM231.077 169.14V167.25H232.267V169.14H233.583V170.12H232.267V174.082C232.267 174.81 232.309 174.992 232.995 174.992H233.583V176H232.729C231.385 176 231.077 175.706 231.077 174.25V170.12H229.971V169.14H231.077ZM236.015 166.704V170.092C236.407 169.49 237.093 169.028 238.269 169.028C239.193 169.028 239.837 169.378 240.201 169.966C240.467 170.4 240.579 170.974 240.579 171.786V176H239.389V172.108C239.389 171.38 239.305 170.946 239.137 170.652C238.885 170.232 238.465 170.064 237.863 170.064C236.715 170.064 236.015 170.848 236.015 172.346V176H234.825V166.704H236.015ZM245.061 176.168C242.821 176.168 241.743 174.6 241.743 172.598C241.743 170.456 243.129 169.028 245.075 169.028C247.231 169.028 248.463 170.736 248.295 172.948H243.003C243.003 174.292 243.871 175.118 245.033 175.118C246.125 175.118 246.671 174.656 246.965 173.914L248.183 174.068C247.861 175.202 246.783 176.168 245.061 176.168ZM245.075 170.036C243.885 170.036 243.073 170.75 243.017 171.954H247.035C247.007 171.03 246.349 170.036 245.075 170.036ZM249.741 178.422H249.125V177.386H249.615C250.385 177.386 250.735 177.302 251.085 176.14L251.127 176L248.607 169.14H249.923L251.701 174.404L253.437 169.14H254.669L252.177 176.294C251.687 177.694 251.295 178.422 249.741 178.422ZM259.418 171.254L258.256 171.212C258.34 169.798 259.586 169.014 261.126 169.014C263.072 169.014 263.87 169.77 263.842 171.618L263.814 173.354C263.8 174.432 263.87 175.09 263.954 176H262.806L262.764 175.034C262.344 175.72 261.672 176.168 260.454 176.168C258.858 176.168 258.032 175.118 258.032 173.942C258.032 173.2 258.41 172.696 258.956 172.388C259.614 172.024 260.44 171.884 261.322 171.786L262.652 171.646V171.394C262.652 170.274 261.98 169.98 261.07 169.98C259.992 169.98 259.488 170.498 259.418 171.254ZM262.736 173.032V172.626L261.308 172.766C259.964 172.892 259.292 173.214 259.292 173.984C259.292 174.712 259.866 175.132 260.678 175.132C261.644 175.132 262.736 174.614 262.736 173.032ZM268.961 169.112V170.372C268.709 170.344 268.499 170.33 268.303 170.33C267.211 170.33 266.665 170.932 266.665 172.472V176H265.475V169.14H266.637V170.358C266.987 169.574 267.701 169.126 268.611 169.098C268.723 169.098 268.835 169.098 268.961 169.112ZM272.675 176.168C270.435 176.168 269.357 174.6 269.357 172.598C269.357 170.456 270.743 169.028 272.689 169.028C274.845 169.028 276.077 170.736 275.909 172.948H270.617C270.617 174.292 271.485 175.118 272.647 175.118C273.739 175.118 274.285 174.656 274.579 173.914L275.797 174.068C275.475 175.202 274.397 176.168 272.675 176.168ZM272.689 170.036C271.499 170.036 270.687 170.75 270.631 171.954H274.649C274.621 171.03 273.963 170.036 272.689 170.036ZM33.736 190.598C33.736 192.39 34.59 193.132 35.71 193.132C36.83 193.132 37.684 192.39 37.684 190.598C37.684 188.806 36.83 188.064 35.71 188.064C34.59 188.064 33.736 188.806 33.736 190.598ZM32.476 190.598C32.476 188.134 34.03 187.028 35.71 187.028C37.39 187.028 38.944 188.134 38.944 190.598C38.944 193.062 37.39 194.168 35.71 194.168C34.03 194.168 32.476 193.062 32.476 190.598ZM40.5158 187.14V186.636C40.5158 185.18 40.8238 184.704 42.4058 184.704H43.0218V185.712H42.4338C41.8178 185.712 41.7058 185.894 41.7058 186.622V187.14H43.0218V188.12H41.7058V194H40.5158V188.12H39.5498V187.14H40.5158ZM44.6318 187.14V185.25H45.8218V187.14H47.1378V188.12H45.8218V192.082C45.8218 192.81 45.8638 192.992 46.5498 192.992H47.1378V194H46.2838C44.9398 194 44.6318 193.706 44.6318 192.25V188.12H43.5258V187.14H44.6318ZM51.2367 194.168C48.9967 194.168 47.9187 192.6 47.9187 190.598C47.9187 188.456 49.3047 187.028 51.2507 187.028C53.4067 187.028 54.6387 188.736 54.4707 190.948H49.1787C49.1787 192.292 50.0467 193.118 51.2087 193.118C52.3007 193.118 52.8467 192.656 53.1407 191.914L54.3587 192.068C54.0367 193.202 52.9587 194.168 51.2367 194.168ZM51.2507 188.036C50.0607 188.036 49.2487 188.75 49.1927 189.954H53.2107C53.1827 189.03 52.5247 188.036 51.2507 188.036ZM56.8682 187.14V188.092C57.2602 187.49 57.9462 187.028 59.1222 187.028C60.0462 187.028 60.6902 187.378 61.0542 187.966C61.3202 188.4 61.4322 188.974 61.4322 189.786V194H60.2422V190.108C60.2422 189.38 60.1582 188.946 59.9902 188.652C59.7382 188.232 59.3182 188.064 58.7162 188.064C57.5682 188.064 56.8682 188.848 56.8682 190.346V194H55.6782V187.14H56.8682ZM67.0019 189.254L65.8399 189.212C65.9239 187.798 67.1699 187.014 68.7099 187.014C70.6559 187.014 71.4539 187.77 71.4259 189.618L71.3979 191.354C71.3839 192.432 71.4539 193.09 71.5379 194H70.3899L70.3479 193.034C69.9279 193.72 69.2559 194.168 68.0379 194.168C66.4419 194.168 65.6159 193.118 65.6159 191.942C65.6159 191.2 65.9939 190.696 66.5399 190.388C67.1979 190.024 68.0239 189.884 68.9059 189.786L70.2359 189.646V189.394C70.2359 188.274 69.5639 187.98 68.6539 187.98C67.5759 187.98 67.0719 188.498 67.0019 189.254ZM70.3199 191.032V190.626L68.8919 190.766C67.5479 190.892 66.8759 191.214 66.8759 191.984C66.8759 192.712 67.4499 193.132 68.2619 193.132C69.2279 193.132 70.3199 192.614 70.3199 191.032ZM78.2949 189.002L77.0629 189.114C76.8809 188.316 76.2229 188.022 75.3549 188.022C74.6129 188.022 73.8849 188.288 73.8849 188.862C73.8849 189.394 74.2909 189.618 75.0189 189.772L75.8449 189.94C77.1329 190.206 78.3369 190.668 78.3369 192.026C78.3369 193.398 77.0909 194.168 75.4809 194.168C73.6469 194.168 72.6389 193.02 72.5129 191.942L73.7589 191.83C73.9409 192.656 74.4729 193.174 75.5089 193.174C76.4609 193.174 77.1329 192.754 77.1329 192.152C77.1329 191.522 76.4329 191.214 75.6349 191.046L74.7389 190.864C73.7449 190.668 72.6949 190.234 72.6949 188.932C72.6949 187.728 74.0109 187.028 75.4809 187.028C77.0209 187.028 78.0289 187.826 78.2949 189.002ZM79.6455 184.704H80.8355V190.038L83.6495 187.14H85.1055L82.6415 189.674L85.3295 194H83.9435L81.8295 190.514L80.8355 191.536V194H79.6455V184.704ZM88.8556 194.168C86.6156 194.168 85.5376 192.6 85.5376 190.598C85.5376 188.456 86.9236 187.028 88.8696 187.028C91.0256 187.028 92.2576 188.736 92.0896 190.948H86.7976C86.7976 192.292 87.6656 193.118 88.8276 193.118C89.9196 193.118 90.4656 192.656 90.7596 191.914L91.9776 192.068C91.6556 193.202 90.5776 194.168 88.8556 194.168ZM88.8696 188.036C87.6796 188.036 86.8676 188.75 86.8116 189.954H90.8296C90.8016 189.03 90.1436 188.036 88.8696 188.036ZM99.1755 184.704V194H98.0275L97.9855 193.062C97.5515 193.72 96.9075 194.168 95.7595 194.168C94.1075 194.168 92.9035 192.824 92.9035 190.584C92.9035 188.372 94.1495 187.028 95.8995 187.028C96.8935 187.028 97.6075 187.448 97.9855 188.036V184.704H99.1755ZM96.0675 193.132C97.1175 193.132 98.0415 192.362 98.0415 190.584C98.0415 188.806 97.1595 188.064 96.0675 188.064C94.8215 188.064 94.1635 189.002 94.1635 190.584C94.1635 192.18 94.8075 193.132 96.0675 193.132ZM104.139 187.14V186.636C104.139 185.18 104.447 184.704 106.029 184.704H106.645V185.712H106.057C105.441 185.712 105.329 185.894 105.329 186.622V187.14H106.645V188.12H105.329V194H104.139V188.12H103.173V187.14H104.139ZM108.441 190.598C108.441 192.39 109.295 193.132 110.415 193.132C111.535 193.132 112.389 192.39 112.389 190.598C112.389 188.806 111.535 188.064 110.415 188.064C109.295 188.064 108.441 188.806 108.441 190.598ZM107.181 190.598C107.181 188.134 108.735 187.028 110.415 187.028C112.095 187.028 113.649 188.134 113.649 190.598C113.649 193.062 112.095 194.168 110.415 194.168C108.735 194.168 107.181 193.062 107.181 190.598ZM118.413 187.112V188.372C118.161 188.344 117.951 188.33 117.755 188.33C116.663 188.33 116.117 188.932 116.117 190.472V194H114.927V187.14H116.089V188.358C116.439 187.574 117.153 187.126 118.063 187.098C118.175 187.098 118.287 187.098 118.413 187.112ZM123.352 189.254L122.19 189.212C122.274 187.798 123.52 187.014 125.06 187.014C127.006 187.014 127.804 187.77 127.776 189.618L127.748 191.354C127.734 192.432 127.804 193.09 127.888 194H126.74L126.698 193.034C126.278 193.72 125.606 194.168 124.388 194.168C122.792 194.168 121.966 193.118 121.966 191.942C121.966 191.2 122.344 190.696 122.89 190.388C123.548 190.024 124.374 189.884 125.256 189.786L126.586 189.646V189.394C126.586 188.274 125.914 187.98 125.004 187.98C123.926 187.98 123.422 188.498 123.352 189.254ZM126.67 191.032V190.626L125.242 190.766C123.898 190.892 123.226 191.214 123.226 191.984C123.226 192.712 123.8 193.132 124.612 193.132C125.578 193.132 126.67 192.614 126.67 191.032ZM137.581 189.002L136.349 189.114C136.167 188.316 135.509 188.022 134.641 188.022C133.899 188.022 133.171 188.288 133.171 188.862C133.171 189.394 133.577 189.618 134.305 189.772L135.131 189.94C136.419 190.206 137.623 190.668 137.623 192.026C137.623 193.398 136.377 194.168 134.767 194.168C132.933 194.168 131.925 193.02 131.799 191.942L133.045 191.83C133.227 192.656 133.759 193.174 134.795 193.174C135.747 193.174 136.419 192.754 136.419 192.152C136.419 191.522 135.719 191.214 134.921 191.046L134.025 190.864C133.031 190.668 131.981 190.234 131.981 188.932C131.981 187.728 133.297 187.028 134.767 187.028C136.307 187.028 137.315 187.826 137.581 189.002ZM139.471 187.14V185.25H140.661V187.14H141.977V188.12H140.661V192.082C140.661 192.81 140.703 192.992 141.389 192.992H141.977V194H141.123C139.779 194 139.471 193.706 139.471 192.25V188.12H138.365V187.14H139.471ZM143.519 196.422H142.903V195.386H143.393C144.163 195.386 144.513 195.302 144.863 194.14L144.905 194L142.385 187.14H143.701L145.479 192.404L147.215 187.14H148.447L145.955 194.294C145.465 195.694 145.073 196.422 143.519 196.422ZM150.441 184.704V194H149.251V184.704H150.441ZM155.029 194.168C152.789 194.168 151.711 192.6 151.711 190.598C151.711 188.456 153.097 187.028 155.043 187.028C157.199 187.028 158.431 188.736 158.263 190.948H152.971C152.971 192.292 153.839 193.118 155.001 193.118C156.093 193.118 156.639 192.656 156.933 191.914L158.151 192.068C157.829 193.202 156.751 194.168 155.029 194.168ZM155.043 188.036C153.853 188.036 153.041 188.75 152.985 189.954H157.003C156.975 189.03 156.317 188.036 155.043 188.036ZM163.415 189.254L162.253 189.212C162.337 187.798 163.583 187.014 165.123 187.014C167.069 187.014 167.867 187.77 167.839 189.618L167.811 191.354C167.797 192.432 167.867 193.09 167.951 194H166.803L166.761 193.034C166.341 193.72 165.669 194.168 164.451 194.168C162.855 194.168 162.029 193.118 162.029 191.942C162.029 191.2 162.407 190.696 162.953 190.388C163.611 190.024 164.437 189.884 165.319 189.786L166.649 189.646V189.394C166.649 188.274 165.977 187.98 165.067 187.98C163.989 187.98 163.485 188.498 163.415 189.254ZM166.733 191.032V190.626L165.305 190.766C163.961 190.892 163.289 191.214 163.289 191.984C163.289 192.712 163.863 193.132 164.675 193.132C165.641 193.132 166.733 192.614 166.733 191.032ZM175.282 184.704V194H174.134L174.092 193.062C173.658 193.72 173.014 194.168 171.866 194.168C170.214 194.168 169.01 192.824 169.01 190.584C169.01 188.372 170.256 187.028 172.006 187.028C173 187.028 173.714 187.448 174.092 188.036V184.704H175.282ZM172.174 193.132C173.224 193.132 174.148 192.362 174.148 190.584C174.148 188.806 173.266 188.064 172.174 188.064C170.928 188.064 170.27 189.002 170.27 190.584C170.27 192.18 170.914 193.132 172.174 193.132ZM177.393 187.14L179.297 192.362L181.187 187.14H182.419L179.773 194H178.723L176.077 187.14H177.393ZM183.219 187.14H184.409V194H183.219V187.14ZM183.219 184.704H184.409V186.132H183.219V184.704ZM189.012 187.028C190.72 187.028 191.742 188.232 191.896 189.296L190.692 189.464C190.524 188.61 189.852 188.078 188.928 188.078C187.836 188.078 186.94 188.89 186.94 190.57C186.94 192.278 187.85 193.118 188.928 193.118C189.936 193.118 190.58 192.502 190.748 191.746L191.966 191.9C191.742 193.104 190.538 194.168 188.9 194.168C186.856 194.168 185.68 192.642 185.68 190.584C185.68 188.568 186.898 187.028 189.012 187.028ZM196.022 194.168C193.782 194.168 192.704 192.6 192.704 190.598C192.704 188.456 194.09 187.028 196.036 187.028C198.192 187.028 199.424 188.736 199.256 190.948H193.964C193.964 192.292 194.832 193.118 195.994 193.118C197.086 193.118 197.632 192.656 197.926 191.914L199.144 192.068C198.822 193.202 197.744 194.168 196.022 194.168ZM196.036 188.036C194.846 188.036 194.034 188.75 193.978 189.954H197.996C197.968 189.03 197.31 188.036 196.036 188.036Z" fill="#1B1B1B"/>
</svg>
