<svg width="325" height="231" viewBox="0 0 325 231" fill="none" xmlns="http://www.w3.org/2000/svg">
<rect width="325" height="231" fill="#EEEEEE"/>
<path d="M33.1 51.09V41.96H84.47V51.09C66.1 65.94 54.77 87.28 53.01 115H41.79C43.44 88.38 55.21 67.04 73.58 51.09H33.1ZM129.962 65.39C129.962 55.27 123.692 48.78 113.902 48.78C104.332 48.78 97.6219 55.38 97.6219 65.39C97.6219 75.29 104.222 82.11 113.792 82.11C123.472 82.11 129.962 75.29 129.962 65.39ZM112.912 108.18C124.352 108.18 130.622 97.4 131.172 80.46C127.762 86.18 121.382 90.58 111.592 90.58C97.8419 90.58 87.7219 80.46 87.7219 65.83C87.7219 52.19 97.9519 40.64 113.792 40.64C132.272 40.64 140.742 53.29 140.742 75.84C140.742 96.63 133.482 116.32 112.032 116.32C97.5119 116.32 90.4719 107.41 88.9319 98.17L99.0519 98.06C100.262 104.66 105.322 108.18 112.912 108.18ZM163.884 84.42C152.554 84.42 147.054 75.62 147.054 62.75C147.054 49.77 152.554 41.19 163.884 41.19C175.104 41.19 180.604 49.77 180.604 62.75C180.604 75.62 175.104 84.42 163.884 84.42ZM163.884 78.59C169.824 78.59 173.014 73.09 173.014 62.75C173.014 52.3 169.824 47.02 163.884 47.02C157.834 47.02 154.644 52.3 154.644 62.75C154.644 73.09 157.834 78.59 163.884 78.59ZM159.374 115H169.714L220.864 41.96H210.524L159.374 115ZM216.464 115.77C205.134 115.77 199.634 106.97 199.634 94.1C199.634 81.12 205.134 72.54 216.464 72.54C227.684 72.54 233.184 81.12 233.184 94.1C233.184 106.97 227.684 115.77 216.464 115.77ZM216.464 109.94C222.404 109.94 225.594 104.44 225.594 94.1C225.594 83.65 222.404 78.37 216.464 78.37C210.414 78.37 207.224 83.65 207.224 94.1C207.224 104.44 210.414 109.94 216.464 109.94Z" fill="#1B1B1B"/>
<path d="M38.174 171.002L36.942 171.114C36.76 170.316 36.102 170.022 35.234 170.022C34.492 170.022 33.764 170.288 33.764 170.862C33.764 171.394 34.17 171.618 34.898 171.772L35.724 171.94C37.012 172.206 38.216 172.668 38.216 174.026C38.216 175.398 36.97 176.168 35.36 176.168C33.526 176.168 32.518 175.02 32.392 173.942L33.638 173.83C33.82 174.656 34.352 175.174 35.388 175.174C36.34 175.174 37.012 174.754 37.012 174.152C37.012 173.522 36.312 173.214 35.514 173.046L34.618 172.864C33.624 172.668 32.574 172.234 32.574 170.932C32.574 169.728 33.89 169.028 35.36 169.028C36.9 169.028 37.908 169.826 38.174 171.002ZM40.5326 171.254L39.3706 171.212C39.4546 169.798 40.7006 169.014 42.2406 169.014C44.1866 169.014 44.9846 169.77 44.9566 171.618L44.9286 173.354C44.9146 174.432 44.9846 175.09 45.0686 176H43.9206L43.8786 175.034C43.4586 175.72 42.7866 176.168 41.5686 176.168C39.9726 176.168 39.1466 175.118 39.1466 173.942C39.1466 173.2 39.5246 172.696 40.0706 172.388C40.7286 172.024 41.5546 171.884 42.4366 171.786L43.7666 171.646V171.394C43.7666 170.274 43.0946 169.98 42.1846 169.98C41.1066 169.98 40.6026 170.498 40.5326 171.254ZM43.8506 173.032V172.626L42.4226 172.766C41.0786 172.892 40.4066 173.214 40.4066 173.984C40.4066 174.712 40.9806 175.132 41.7926 175.132C42.7586 175.132 43.8506 174.614 43.8506 173.032ZM46.5896 169.14H47.7796V176H46.5896V169.14ZM46.5896 166.704H47.7796V168.132H46.5896V166.704ZM55.3221 166.704V176H54.1741L54.1321 175.062C53.6981 175.72 53.0541 176.168 51.9061 176.168C50.2541 176.168 49.0501 174.824 49.0501 172.584C49.0501 170.372 50.2961 169.028 52.0461 169.028C53.0401 169.028 53.7541 169.448 54.1321 170.036V166.704H55.3221ZM52.2141 175.132C53.2641 175.132 54.1881 174.362 54.1881 172.584C54.1881 170.806 53.3061 170.064 52.2141 170.064C50.9681 170.064 50.3101 171.002 50.3101 172.584C50.3101 174.18 50.9541 175.132 52.2141 175.132ZM60.3279 169.14V167.25H61.5179V169.14H62.8339V170.12H61.5179V174.082C61.5179 174.81 61.5599 174.992 62.2459 174.992H62.8339V176H61.9799C60.6359 176 60.3279 175.706 60.3279 174.25V170.12H59.2219V169.14H60.3279ZM65.2665 166.704V170.092C65.6585 169.49 66.3445 169.028 67.5205 169.028C68.4445 169.028 69.0885 169.378 69.4525 169.966C69.7185 170.4 69.8305 170.974 69.8305 171.786V176H68.6405V172.108C68.6405 171.38 68.5565 170.946 68.3885 170.652C68.1365 170.232 67.7165 170.064 67.1145 170.064C65.9665 170.064 65.2665 170.848 65.2665 172.346V176H64.0765V166.704H65.2665ZM74.312 176.168C72.072 176.168 70.994 174.6 70.994 172.598C70.994 170.456 72.38 169.028 74.326 169.028C76.482 169.028 77.714 170.736 77.546 172.948H72.254C72.254 174.292 73.122 175.118 74.284 175.118C75.376 175.118 75.922 174.656 76.216 173.914L77.434 174.068C77.112 175.202 76.034 176.168 74.312 176.168ZM74.326 170.036C73.136 170.036 72.324 170.75 72.268 171.954H76.286C76.258 171.03 75.6 170.036 74.326 170.036ZM78.9929 178.422H78.3769V177.386H78.8669C79.6369 177.386 79.9869 177.302 80.3369 176.14L80.3789 176L77.8589 169.14H79.1749L80.9529 174.404L82.6889 169.14H83.9209L81.4289 176.294C80.9389 177.694 80.5469 178.422 78.9929 178.422ZM88.669 171.254L87.507 171.212C87.591 169.798 88.837 169.014 90.377 169.014C92.323 169.014 93.121 169.77 93.093 171.618L93.065 173.354C93.051 174.432 93.121 175.09 93.205 176H92.057L92.015 175.034C91.595 175.72 90.923 176.168 89.705 176.168C88.109 176.168 87.283 175.118 87.283 173.942C87.283 173.2 87.661 172.696 88.207 172.388C88.865 172.024 89.691 171.884 90.573 171.786L91.903 171.646V171.394C91.903 170.274 91.231 169.98 90.321 169.98C89.243 169.98 88.739 170.498 88.669 171.254ZM91.987 173.032V172.626L90.559 172.766C89.215 172.892 88.543 173.214 88.543 173.984C88.543 174.712 89.117 175.132 89.929 175.132C90.895 175.132 91.987 174.614 91.987 173.032ZM98.2121 169.112V170.372C97.9601 170.344 97.7501 170.33 97.5541 170.33C96.4621 170.33 95.9161 170.932 95.9161 172.472V176H94.7261V169.14H95.8881V170.358C96.2381 169.574 96.9521 169.126 97.8621 169.098C97.9741 169.098 98.0861 169.098 98.2121 169.112ZM101.927 176.168C99.6865 176.168 98.6085 174.6 98.6085 172.598C98.6085 170.456 99.9945 169.028 101.94 169.028C104.097 169.028 105.328 170.736 105.161 172.948H99.8685C99.8685 174.292 100.736 175.118 101.899 175.118C102.99 175.118 103.536 174.656 103.83 173.914L105.048 174.068C104.726 175.202 103.649 176.168 101.927 176.168ZM101.94 170.036C100.75 170.036 99.9385 170.75 99.8825 171.954H103.901C103.873 171.03 103.214 170.036 101.94 170.036ZM110.312 171.254L109.15 171.212C109.234 169.798 110.48 169.014 112.02 169.014C113.966 169.014 114.764 169.77 114.736 171.618L114.708 173.354C114.694 174.432 114.764 175.09 114.848 176H113.7L113.658 175.034C113.238 175.72 112.566 176.168 111.348 176.168C109.752 176.168 108.926 175.118 108.926 173.942C108.926 173.2 109.304 172.696 109.85 172.388C110.508 172.024 111.334 171.884 112.216 171.786L113.546 171.646V171.394C113.546 170.274 112.874 169.98 111.964 169.98C110.886 169.98 110.382 170.498 110.312 171.254ZM113.63 173.032V172.626L112.202 172.766C110.858 172.892 110.186 173.214 110.186 173.984C110.186 174.712 110.76 175.132 111.572 175.132C112.538 175.132 113.63 174.614 113.63 173.032ZM121.605 171.002L120.373 171.114C120.191 170.316 119.533 170.022 118.665 170.022C117.923 170.022 117.195 170.288 117.195 170.862C117.195 171.394 117.601 171.618 118.329 171.772L119.155 171.94C120.443 172.206 121.647 172.668 121.647 174.026C121.647 175.398 120.401 176.168 118.791 176.168C116.957 176.168 115.949 175.02 115.823 173.942L117.069 173.83C117.251 174.656 117.783 175.174 118.819 175.174C119.771 175.174 120.443 174.754 120.443 174.152C120.443 173.522 119.743 173.214 118.945 173.046L118.049 172.864C117.055 172.668 116.005 172.234 116.005 170.932C116.005 169.728 117.321 169.028 118.791 169.028C120.331 169.028 121.339 169.826 121.605 171.002ZM122.956 166.704H124.146V172.038L126.96 169.14H128.416L125.952 171.674L128.64 176H127.254L125.14 172.514L124.146 173.536V176H122.956V166.704ZM132.166 176.168C129.926 176.168 128.848 174.6 128.848 172.598C128.848 170.456 130.234 169.028 132.18 169.028C134.336 169.028 135.568 170.736 135.4 172.948H130.108C130.108 174.292 130.976 175.118 132.138 175.118C133.23 175.118 133.776 174.656 134.07 173.914L135.288 174.068C134.966 175.202 133.888 176.168 132.166 176.168ZM132.18 170.036C130.99 170.036 130.178 170.75 130.122 171.954H134.14C134.112 171.03 133.454 170.036 132.18 170.036ZM142.486 166.704V176H141.338L141.296 175.062C140.862 175.72 140.218 176.168 139.07 176.168C137.418 176.168 136.214 174.824 136.214 172.584C136.214 170.372 137.46 169.028 139.21 169.028C140.204 169.028 140.918 169.448 141.296 170.036V166.704H142.486ZM139.378 175.132C140.428 175.132 141.352 174.362 141.352 172.584C141.352 170.806 140.47 170.064 139.378 170.064C138.132 170.064 137.474 171.002 137.474 172.584C137.474 174.18 138.118 175.132 139.378 175.132ZM147.45 169.14V168.636C147.45 167.18 147.758 166.704 149.34 166.704H149.956V167.712H149.368C148.752 167.712 148.64 167.894 148.64 168.622V169.14H149.956V170.12H148.64V176H147.45V170.12H146.484V169.14H147.45ZM151.751 172.598C151.751 174.39 152.605 175.132 153.725 175.132C154.845 175.132 155.699 174.39 155.699 172.598C155.699 170.806 154.845 170.064 153.725 170.064C152.605 170.064 151.751 170.806 151.751 172.598ZM150.491 172.598C150.491 170.134 152.045 169.028 153.725 169.028C155.405 169.028 156.959 170.134 156.959 172.598C156.959 175.062 155.405 176.168 153.725 176.168C152.045 176.168 150.491 175.062 150.491 172.598ZM161.723 169.112V170.372C161.471 170.344 161.261 170.33 161.065 170.33C159.973 170.33 159.427 170.932 159.427 172.472V176H158.237V169.14H159.399V170.358C159.749 169.574 160.463 169.126 161.373 169.098C161.485 169.098 161.597 169.098 161.723 169.112ZM166.662 171.254L165.5 171.212C165.584 169.798 166.83 169.014 168.37 169.014C170.316 169.014 171.114 169.77 171.086 171.618L171.058 173.354C171.044 174.432 171.114 175.09 171.198 176H170.05L170.008 175.034C169.588 175.72 168.916 176.168 167.698 176.168C166.102 176.168 165.276 175.118 165.276 173.942C165.276 173.2 165.654 172.696 166.2 172.388C166.858 172.024 167.684 171.884 168.566 171.786L169.896 171.646V171.394C169.896 170.274 169.224 169.98 168.314 169.98C167.236 169.98 166.732 170.498 166.662 171.254ZM169.98 173.032V172.626L168.552 172.766C167.208 172.892 166.536 173.214 166.536 173.984C166.536 174.712 167.11 175.132 167.922 175.132C168.888 175.132 169.98 174.614 169.98 173.032ZM180.891 171.002L179.659 171.114C179.477 170.316 178.819 170.022 177.951 170.022C177.209 170.022 176.481 170.288 176.481 170.862C176.481 171.394 176.887 171.618 177.615 171.772L178.441 171.94C179.729 172.206 180.933 172.668 180.933 174.026C180.933 175.398 179.687 176.168 178.077 176.168C176.243 176.168 175.235 175.02 175.109 173.942L176.355 173.83C176.537 174.656 177.069 175.174 178.105 175.174C179.057 175.174 179.729 174.754 179.729 174.152C179.729 173.522 179.029 173.214 178.231 173.046L177.335 172.864C176.341 172.668 175.291 172.234 175.291 170.932C175.291 169.728 176.607 169.028 178.077 169.028C179.617 169.028 180.625 169.826 180.891 171.002ZM182.242 169.14H183.432V176H182.242V169.14ZM182.242 166.704H183.432V168.132H182.242V166.704ZM185.164 176V169.14H186.354V170.092C186.718 169.476 187.348 169.028 188.482 169.028C189.574 169.028 190.12 169.504 190.442 170.218C190.96 169.434 191.716 169.028 192.85 169.028C193.578 169.028 194.124 169.294 194.488 169.672C194.908 170.12 195.09 170.82 195.09 171.786V176H193.9V172.122C193.9 171.282 193.788 170.75 193.508 170.456C193.256 170.19 192.892 170.064 192.416 170.064C191.38 170.064 190.722 170.862 190.722 172.304V176H189.532V172.122C189.532 171.282 189.42 170.75 189.14 170.456C188.888 170.19 188.524 170.064 188.048 170.064C187.012 170.064 186.354 170.862 186.354 172.304V176H185.164ZM196.714 169.14H197.904V176H196.714V169.14ZM196.714 166.704H197.904V168.132H196.714V166.704ZM200.826 166.704V176H199.636V166.704H200.826ZM203.567 171.254L202.405 171.212C202.489 169.798 203.735 169.014 205.275 169.014C207.221 169.014 208.019 169.77 207.991 171.618L207.963 173.354C207.949 174.432 208.019 175.09 208.103 176H206.955L206.913 175.034C206.493 175.72 205.821 176.168 204.603 176.168C203.007 176.168 202.181 175.118 202.181 173.942C202.181 173.2 202.559 172.696 203.105 172.388C203.763 172.024 204.589 171.884 205.471 171.786L206.801 171.646V171.394C206.801 170.274 206.129 169.98 205.219 169.98C204.141 169.98 203.637 170.498 203.567 171.254ZM206.885 173.032V172.626L205.457 172.766C204.113 172.892 203.441 173.214 203.441 173.984C203.441 174.712 204.015 175.132 204.827 175.132C205.793 175.132 206.885 174.614 206.885 173.032ZM213.11 169.112V170.372C212.858 170.344 212.648 170.33 212.452 170.33C211.36 170.33 210.814 170.932 210.814 172.472V176H209.624V169.14H210.786V170.358C211.136 169.574 211.85 169.126 212.76 169.098C212.872 169.098 212.984 169.098 213.11 169.112ZM218.792 175.16V178.422H217.602V169.14H218.764L218.792 170.134C219.226 169.476 219.87 169.028 221.018 169.028C222.67 169.028 223.874 170.372 223.874 172.612C223.874 174.824 222.628 176.168 220.878 176.168C219.884 176.168 219.17 175.748 218.792 175.16ZM220.71 170.064C219.66 170.064 218.736 170.834 218.736 172.612C218.736 174.39 219.618 175.132 220.71 175.132C221.956 175.132 222.614 174.194 222.614 172.612C222.614 171.016 221.97 170.064 220.71 170.064ZM228.631 169.112V170.372C228.379 170.344 228.169 170.33 227.973 170.33C226.881 170.33 226.335 170.932 226.335 172.472V176H225.145V169.14H226.307V170.358C226.657 169.574 227.371 169.126 228.281 169.098C228.393 169.098 228.505 169.098 228.631 169.112ZM230.288 172.598C230.288 174.39 231.142 175.132 232.262 175.132C233.382 175.132 234.236 174.39 234.236 172.598C234.236 170.806 233.382 170.064 232.262 170.064C231.142 170.064 230.288 170.806 230.288 172.598ZM229.028 172.598C229.028 170.134 230.582 169.028 232.262 169.028C233.942 169.028 235.496 170.134 235.496 172.598C235.496 175.062 233.942 176.168 232.262 176.168C230.582 176.168 229.028 175.062 229.028 172.598ZM242.693 166.704V176H241.545L241.503 175.062C241.069 175.72 240.425 176.168 239.277 176.168C237.625 176.168 236.421 174.824 236.421 172.584C236.421 170.372 237.667 169.028 239.417 169.028C240.411 169.028 241.125 169.448 241.503 170.036V166.704H242.693ZM239.585 175.132C240.635 175.132 241.559 174.362 241.559 172.584C241.559 170.806 240.677 170.064 239.585 170.064C238.339 170.064 237.681 171.002 237.681 172.584C237.681 174.18 238.325 175.132 239.585 175.132ZM248.795 176V175.02C248.417 175.664 247.815 176.154 246.639 176.154C245.799 176.154 245.211 175.846 244.847 175.356C244.511 174.908 244.371 174.25 244.371 173.396V169.14H245.561V173.018C245.561 173.718 245.631 174.166 245.785 174.474C246.009 174.936 246.457 175.118 247.073 175.118C248.151 175.118 248.795 174.32 248.795 172.878V169.14H249.985V176H248.795ZM254.594 169.028C256.302 169.028 257.324 170.232 257.478 171.296L256.274 171.464C256.106 170.61 255.434 170.078 254.51 170.078C253.418 170.078 252.522 170.89 252.522 172.57C252.522 174.278 253.432 175.118 254.51 175.118C255.518 175.118 256.162 174.502 256.33 173.746L257.548 173.9C257.324 175.104 256.12 176.168 254.482 176.168C252.438 176.168 251.262 174.642 251.262 172.584C251.262 170.568 252.48 169.028 254.594 169.028ZM259.158 169.14V167.25H260.348V169.14H261.664V170.12H260.348V174.082C260.348 174.81 260.39 174.992 261.076 174.992H261.664V176H260.81C259.466 176 259.158 175.706 259.158 174.25V170.12H258.052V169.14H259.158ZM266.177 169.14V167.25H267.367V169.14H268.683V170.12H267.367V174.082C267.367 174.81 267.409 174.992 268.095 174.992H268.683V176H267.829C266.485 176 266.177 175.706 266.177 174.25V170.12H265.071V169.14H266.177ZM270.723 172.598C270.723 174.39 271.577 175.132 272.697 175.132C273.817 175.132 274.671 174.39 274.671 172.598C274.671 170.806 273.817 170.064 272.697 170.064C271.577 170.064 270.723 170.806 270.723 172.598ZM269.463 172.598C269.463 170.134 271.017 169.028 272.697 169.028C274.377 169.028 275.931 170.134 275.931 172.598C275.931 175.062 274.377 176.168 272.697 176.168C271.017 176.168 269.463 175.062 269.463 172.598ZM33.274 187.14V185.25H34.464V187.14H35.78V188.12H34.464V192.082C34.464 192.81 34.506 192.992 35.192 192.992H35.78V194H34.926C33.582 194 33.274 193.706 33.274 192.25V188.12H32.168V187.14H33.274ZM38.2126 184.704V188.092C38.6046 187.49 39.2906 187.028 40.4666 187.028C41.3906 187.028 42.0346 187.378 42.3986 187.966C42.6646 188.4 42.7766 188.974 42.7766 189.786V194H41.5866V190.108C41.5866 189.38 41.5026 188.946 41.3346 188.652C41.0826 188.232 40.6626 188.064 40.0606 188.064C38.9126 188.064 38.2126 188.848 38.2126 190.346V194H37.0226V184.704H38.2126ZM47.2581 194.168C45.0181 194.168 43.9401 192.6 43.9401 190.598C43.9401 188.456 45.3261 187.028 47.2721 187.028C49.4281 187.028 50.6601 188.736 50.4921 190.948H45.2001C45.2001 192.292 46.0681 193.118 47.2301 193.118C48.3221 193.118 48.8681 192.656 49.1621 191.914L50.3801 192.068C50.0581 193.202 48.9801 194.168 47.2581 194.168ZM47.2721 188.036C46.0821 188.036 45.2701 188.75 45.2141 189.954H49.2321C49.2041 189.03 48.5461 188.036 47.2721 188.036ZM55.4338 190.598C55.4338 192.39 56.2878 193.132 57.4078 193.132C58.5278 193.132 59.3818 192.39 59.3818 190.598C59.3818 188.806 58.5278 188.064 57.4078 188.064C56.2878 188.064 55.4338 188.806 55.4338 190.598ZM54.1738 190.598C54.1738 188.134 55.7278 187.028 57.4078 187.028C59.0878 187.028 60.6418 188.134 60.6418 190.598C60.6418 193.062 59.0878 194.168 57.4078 194.168C55.7278 194.168 54.1738 193.062 54.1738 190.598ZM63.1096 187.14V188.092C63.5016 187.49 64.1876 187.028 65.3636 187.028C66.2876 187.028 66.9316 187.378 67.2956 187.966C67.5616 188.4 67.6736 188.974 67.6736 189.786V194H66.4836V190.108C66.4836 189.38 66.3996 188.946 66.2316 188.652C65.9796 188.232 65.5596 188.064 64.9576 188.064C63.8096 188.064 63.1096 188.848 63.1096 190.346V194H61.9196V187.14H63.1096ZM72.1552 194.168C69.9152 194.168 68.8372 192.6 68.8372 190.598C68.8372 188.456 70.2232 187.028 72.1692 187.028C74.3252 187.028 75.5572 188.736 75.3892 190.948H70.0972C70.0972 192.292 70.9652 193.118 72.1272 193.118C73.2192 193.118 73.7652 192.656 74.0592 191.914L75.2772 192.068C74.9552 193.202 73.8772 194.168 72.1552 194.168ZM72.1692 188.036C70.9792 188.036 70.1672 188.75 70.1112 189.954H74.1292C74.1012 189.03 73.4432 188.036 72.1692 188.036ZM79.8688 187.14V185.25H81.0588V187.14H82.3748V188.12H81.0588V192.082C81.0588 192.81 81.1008 192.992 81.7868 192.992H82.3748V194H81.5208C80.1768 194 79.8688 193.706 79.8688 192.25V188.12H78.7628V187.14H79.8688ZM84.8075 184.704V188.092C85.1995 187.49 85.8855 187.028 87.0615 187.028C87.9855 187.028 88.6295 187.378 88.9935 187.966C89.2595 188.4 89.3715 188.974 89.3715 189.786V194H88.1815V190.108C88.1815 189.38 88.0975 188.946 87.9295 188.652C87.6775 188.232 87.2575 188.064 86.6555 188.064C85.5075 188.064 84.8075 188.848 84.8075 190.346V194H83.6175V184.704H84.8075ZM93.853 194.168C91.613 194.168 90.535 192.6 90.535 190.598C90.535 188.456 91.921 187.028 93.867 187.028C96.023 187.028 97.255 188.736 97.087 190.948H91.795C91.795 192.292 92.663 193.118 93.825 193.118C94.917 193.118 95.463 192.656 95.757 191.914L96.975 192.068C96.653 193.202 95.575 194.168 93.853 194.168ZM93.867 188.036C92.677 188.036 91.865 188.75 91.809 189.954H95.827C95.799 189.03 95.141 188.036 93.867 188.036ZM98.5338 196.422H97.9178V195.386H98.4078C99.1778 195.386 99.5278 195.302 99.8778 194.14L99.9198 194L97.3998 187.14H98.7158L100.494 192.404L102.23 187.14H103.462L100.97 194.294C100.48 195.694 100.088 196.422 98.5338 196.422ZM108.21 189.254L107.048 189.212C107.132 187.798 108.378 187.014 109.918 187.014C111.864 187.014 112.662 187.77 112.634 189.618L112.606 191.354C112.592 192.432 112.662 193.09 112.746 194H111.598L111.556 193.034C111.136 193.72 110.464 194.168 109.246 194.168C107.65 194.168 106.824 193.118 106.824 191.942C106.824 191.2 107.202 190.696 107.748 190.388C108.406 190.024 109.232 189.884 110.114 189.786L111.444 189.646V189.394C111.444 188.274 110.772 187.98 109.862 187.98C108.784 187.98 108.28 188.498 108.21 189.254ZM111.528 191.032V190.626L110.1 190.766C108.756 190.892 108.084 191.214 108.084 191.984C108.084 192.712 108.658 193.132 109.47 193.132C110.436 193.132 111.528 192.614 111.528 191.032ZM117.753 187.112V188.372C117.501 188.344 117.291 188.33 117.095 188.33C116.003 188.33 115.457 188.932 115.457 190.472V194H114.267V187.14H115.429V188.358C115.779 187.574 116.493 187.126 117.403 187.098C117.515 187.098 117.627 187.098 117.753 187.112ZM121.467 194.168C119.227 194.168 118.149 192.6 118.149 190.598C118.149 188.456 119.535 187.028 121.481 187.028C123.637 187.028 124.869 188.736 124.701 190.948H119.409C119.409 192.292 120.277 193.118 121.439 193.118C122.531 193.118 123.077 192.656 123.371 191.914L124.589 192.068C124.267 193.202 123.189 194.168 121.467 194.168ZM121.481 188.036C120.291 188.036 119.479 188.75 119.423 189.954H123.441C123.413 189.03 122.755 188.036 121.481 188.036ZM129.181 187.14V185.25H130.371V187.14H131.687V188.12H130.371V192.082C130.371 192.81 130.413 192.992 131.099 192.992H131.687V194H130.833C129.489 194 129.181 193.706 129.181 192.25V188.12H128.075V187.14H129.181ZM136.416 187.112V188.372C136.164 188.344 135.954 188.33 135.758 188.33C134.666 188.33 134.12 188.932 134.12 190.472V194H132.93V187.14H134.092V188.358C134.442 187.574 135.156 187.126 136.066 187.098C136.178 187.098 136.29 187.098 136.416 187.112ZM137.705 196.422H137.089V195.386H137.579C138.349 195.386 138.699 195.302 139.049 194.14L139.091 194L136.571 187.14H137.887L139.665 192.404L141.401 187.14H142.633L140.141 194.294C139.651 195.694 139.259 196.422 137.705 196.422ZM143.437 187.14H144.627V194H143.437V187.14ZM143.437 184.704H144.627V186.132H143.437V184.704ZM147.549 187.14V188.092C147.941 187.49 148.627 187.028 149.803 187.028C150.727 187.028 151.371 187.378 151.735 187.966C152.001 188.4 152.113 188.974 152.113 189.786V194H150.923V190.108C150.923 189.38 150.839 188.946 150.671 188.652C150.419 188.232 149.999 188.064 149.397 188.064C148.249 188.064 147.549 188.848 147.549 190.346V194H146.359V187.14H147.549ZM158.303 193.398V192.782C157.869 193.44 157.281 193.888 156.133 193.888C154.481 193.888 153.277 192.628 153.277 190.444C153.277 188.288 154.523 187.028 156.273 187.028C157.267 187.028 157.925 187.448 158.303 188.036L158.331 187.14H159.493V193.132C159.493 194.56 159.283 195.148 158.891 195.582C158.373 196.17 157.505 196.506 156.469 196.506C154.873 196.506 153.809 195.778 153.585 194.406L154.845 194.364C155.013 194.994 155.391 195.47 156.483 195.47C157.113 195.47 157.603 195.288 157.911 194.952C158.163 194.672 158.303 194.35 158.303 193.398ZM156.441 192.852C157.491 192.852 158.359 192.166 158.359 190.444C158.359 188.722 157.533 188.064 156.441 188.064C155.195 188.064 154.537 188.918 154.537 190.444C154.537 191.984 155.181 192.852 156.441 192.852ZM164.962 190.598C164.962 192.39 165.816 193.132 166.936 193.132C168.056 193.132 168.91 192.39 168.91 190.598C168.91 188.806 168.056 188.064 166.936 188.064C165.816 188.064 164.962 188.806 164.962 190.598ZM163.702 190.598C163.702 188.134 165.256 187.028 166.936 187.028C168.616 187.028 170.17 188.134 170.17 190.598C170.17 193.062 168.616 194.168 166.936 194.168C165.256 194.168 163.702 193.062 163.702 190.598ZM172.638 187.14V188.092C173.03 187.49 173.716 187.028 174.892 187.028C175.816 187.028 176.46 187.378 176.824 187.966C177.09 188.4 177.202 188.974 177.202 189.786V194H176.012V190.108C176.012 189.38 175.928 188.946 175.76 188.652C175.508 188.232 175.088 188.064 174.486 188.064C173.338 188.064 172.638 188.848 172.638 190.346V194H171.448V187.14H172.638Z" fill="#1B1B1B"/>
</svg>
