<svg width="325" height="239" viewBox="0 0 325 239" fill="none" xmlns="http://www.w3.org/2000/svg">
<rect width="325" height="239" fill="#EEEEEE"/>
<path d="M88.87 83.65V91.57L36.4 114.34V104.44L77.21 87.61L36.4 70.45V60.44L88.87 83.65ZM107.323 91.57C107.323 101.69 113.593 108.18 123.383 108.18C132.953 108.18 139.663 101.58 139.663 91.57C139.663 81.67 133.063 74.85 123.493 74.85C113.813 74.85 107.323 81.67 107.323 91.57ZM124.373 48.78C112.933 48.78 106.663 59.56 106.113 76.5C109.523 70.78 115.903 66.38 125.693 66.38C139.443 66.38 149.563 76.5 149.563 91.13C149.563 104.77 139.333 116.32 123.493 116.32C105.013 116.32 96.5434 103.67 96.5434 81.12C96.5434 60.33 104.023 40.64 125.473 40.64C139.993 40.64 146.813 49.55 148.353 58.79L138.233 58.9C137.023 52.3 131.963 48.78 124.373 48.78ZM187.213 116.32C167.523 116.32 158.393 101.25 158.393 78.15C158.393 55.16 167.523 40.64 187.213 40.64C206.903 40.64 216.143 55.16 216.143 78.15C216.143 101.25 206.903 116.32 187.213 116.32ZM187.213 108.18C198.873 108.18 206.243 98.39 206.243 78.15C206.243 57.91 198.873 48.78 187.213 48.78C175.553 48.78 168.293 57.91 168.293 78.15C168.293 98.39 175.553 108.18 187.213 108.18ZM239.268 84.42C227.938 84.42 222.438 75.62 222.438 62.75C222.438 49.77 227.938 41.19 239.268 41.19C250.488 41.19 255.988 49.77 255.988 62.75C255.988 75.62 250.488 84.42 239.268 84.42ZM239.268 78.59C245.208 78.59 248.398 73.09 248.398 62.75C248.398 52.3 245.208 47.02 239.268 47.02C233.218 47.02 230.028 52.3 230.028 62.75C230.028 73.09 233.218 78.59 239.268 78.59ZM234.758 115H245.098L296.248 41.96H285.908L234.758 115ZM291.848 115.77C280.518 115.77 275.018 106.97 275.018 94.1C275.018 81.12 280.518 72.54 291.848 72.54C303.068 72.54 308.568 81.12 308.568 94.1C308.568 106.97 303.068 115.77 291.848 115.77ZM291.848 109.94C297.788 109.94 300.978 104.44 300.978 94.1C300.978 83.65 297.788 78.37 291.848 78.37C285.798 78.37 282.608 83.65 282.608 94.1C282.608 104.44 285.798 109.94 291.848 109.94Z" fill="#1B1B1B"/>
<path d="M34.232 174.626C34.232 176.93 35.33 177.884 36.77 177.884C38.21 177.884 39.308 176.93 39.308 174.626C39.308 172.322 38.21 171.368 36.77 171.368C35.33 171.368 34.232 172.322 34.232 174.626ZM32.612 174.626C32.612 171.458 34.61 170.036 36.77 170.036C38.93 170.036 40.928 171.458 40.928 174.626C40.928 177.794 38.93 179.216 36.77 179.216C34.61 179.216 32.612 177.794 32.612 174.626ZM42.9489 170.18V169.532C42.9489 167.66 43.3449 167.048 45.3789 167.048H46.1709V168.344H45.4149C44.6229 168.344 44.4789 168.578 44.4789 169.514V170.18H46.1709V171.44H44.4789V179H42.9489V171.44H41.7069V170.18H42.9489ZM52.9343 177.92V182.114H51.4043V170.18H52.8983L52.9343 171.458C53.4923 170.612 54.3203 170.036 55.7963 170.036C57.9203 170.036 59.4683 171.764 59.4683 174.644C59.4683 177.488 57.8663 179.216 55.6163 179.216C54.3383 179.216 53.4203 178.676 52.9343 177.92ZM55.4003 171.368C54.0503 171.368 52.8623 172.358 52.8623 174.644C52.8623 176.93 53.9963 177.884 55.4003 177.884C57.0023 177.884 57.8483 176.678 57.8483 174.644C57.8483 172.592 57.0203 171.368 55.4003 171.368ZM66.7192 179V177.74C66.2332 178.568 65.4592 179.198 63.9472 179.198C62.8672 179.198 62.1112 178.802 61.6432 178.172C61.2112 177.596 61.0312 176.75 61.0312 175.652V170.18H62.5612V175.166C62.5612 176.066 62.6512 176.642 62.8492 177.038C63.1372 177.632 63.7132 177.866 64.5052 177.866C65.8912 177.866 66.7192 176.84 66.7192 174.986V170.18H68.2492V179H66.7192ZM74.9677 170.144V171.764C74.6437 171.728 74.3737 171.71 74.1217 171.71C72.7177 171.71 72.0157 172.484 72.0157 174.464V179H70.4857V170.18H71.9797V171.746C72.4297 170.738 73.3477 170.162 74.5177 170.126C74.6617 170.126 74.8057 170.126 74.9677 170.144ZM79.7613 170.036C81.9573 170.036 83.2713 171.584 83.4693 172.952L81.9213 173.168C81.7053 172.07 80.8413 171.386 79.6533 171.386C78.2493 171.386 77.0973 172.43 77.0973 174.59C77.0973 176.786 78.2673 177.866 79.6533 177.866C80.9493 177.866 81.7773 177.074 81.9933 176.102L83.5593 176.3C83.2713 177.848 81.7233 179.216 79.6173 179.216C76.9893 179.216 75.4773 177.254 75.4773 174.608C75.4773 172.016 77.0433 170.036 79.7613 170.036ZM86.5444 167.048V171.404C87.0484 170.63 87.9304 170.036 89.4424 170.036C90.6304 170.036 91.4584 170.486 91.9264 171.242C92.2684 171.8 92.4124 172.538 92.4124 173.582V179H90.8824V173.996C90.8824 173.06 90.7744 172.502 90.5584 172.124C90.2344 171.584 89.6944 171.368 88.9204 171.368C87.4444 171.368 86.5444 172.376 86.5444 174.302V179H85.0144V167.048H86.5444ZM95.7983 172.898L94.3043 172.844C94.4123 171.026 96.0143 170.018 97.9943 170.018C100.496 170.018 101.522 170.99 101.486 173.366L101.45 175.598C101.432 176.984 101.522 177.83 101.63 179H100.154L100.1 177.758C99.5603 178.64 98.6963 179.216 97.1303 179.216C95.0783 179.216 94.0163 177.866 94.0163 176.354C94.0163 175.4 94.5023 174.752 95.2043 174.356C96.0503 173.888 97.1123 173.708 98.2463 173.582L99.9563 173.402V173.078C99.9563 171.638 99.0923 171.26 97.9223 171.26C96.5363 171.26 95.8883 171.926 95.7983 172.898ZM100.064 175.184V174.662L98.2283 174.842C96.5003 175.004 95.6363 175.418 95.6363 176.408C95.6363 177.344 96.3743 177.884 97.4183 177.884C98.6603 177.884 100.064 177.218 100.064 175.184ZM110.318 172.574L108.734 172.718C108.5 171.692 107.654 171.314 106.538 171.314C105.584 171.314 104.648 171.656 104.648 172.394C104.648 173.078 105.17 173.366 106.106 173.564L107.168 173.78C108.824 174.122 110.372 174.716 110.372 176.462C110.372 178.226 108.77 179.216 106.7 179.216C104.342 179.216 103.046 177.74 102.884 176.354L104.486 176.21C104.72 177.272 105.404 177.938 106.736 177.938C107.96 177.938 108.824 177.398 108.824 176.624C108.824 175.814 107.924 175.418 106.898 175.202L105.746 174.968C104.468 174.716 103.118 174.158 103.118 172.484C103.118 170.936 104.81 170.036 106.7 170.036C108.68 170.036 109.976 171.062 110.318 172.574ZM112.054 170.18H113.584V179H112.054V170.18ZM112.054 167.048H113.584V168.884H112.054V167.048ZM117.342 170.18V171.404C117.846 170.63 118.728 170.036 120.24 170.036C121.428 170.036 122.256 170.486 122.724 171.242C123.066 171.8 123.21 172.538 123.21 173.582V179H121.68V173.996C121.68 173.06 121.572 172.502 121.356 172.124C121.032 171.584 120.492 171.368 119.718 171.368C118.242 171.368 117.342 172.376 117.342 174.302V179H115.812V170.18H117.342ZM131.168 178.226V177.434C130.61 178.28 129.854 178.856 128.378 178.856C126.254 178.856 124.706 177.236 124.706 174.428C124.706 171.656 126.308 170.036 128.558 170.036C129.836 170.036 130.682 170.576 131.168 171.332L131.204 170.18H132.698V177.884C132.698 179.72 132.428 180.476 131.924 181.034C131.258 181.79 130.142 182.222 128.81 182.222C126.758 182.222 125.39 181.286 125.102 179.522L126.722 179.468C126.938 180.278 127.424 180.89 128.828 180.89C129.638 180.89 130.268 180.656 130.664 180.224C130.988 179.864 131.168 179.45 131.168 178.226ZM128.774 177.524C130.124 177.524 131.24 176.642 131.24 174.428C131.24 172.214 130.178 171.368 128.774 171.368C127.172 171.368 126.326 172.466 126.326 174.428C126.326 176.408 127.154 177.524 128.774 177.524ZM146.174 167.048V179H144.698L144.644 177.794C144.086 178.64 143.258 179.216 141.782 179.216C139.658 179.216 138.11 177.488 138.11 174.608C138.11 171.764 139.712 170.036 141.962 170.036C143.24 170.036 144.158 170.576 144.644 171.332V167.048H146.174ZM142.178 177.884C143.528 177.884 144.716 176.894 144.716 174.608C144.716 172.322 143.582 171.368 142.178 171.368C140.576 171.368 139.73 172.574 139.73 174.608C139.73 176.66 140.558 177.884 142.178 177.884ZM152.074 179.216C149.194 179.216 147.808 177.2 147.808 174.626C147.808 171.872 149.59 170.036 152.092 170.036C154.864 170.036 156.448 172.232 156.232 175.076H149.428C149.428 176.804 150.544 177.866 152.038 177.866C153.442 177.866 154.144 177.272 154.522 176.318L156.088 176.516C155.674 177.974 154.288 179.216 152.074 179.216ZM152.092 171.332C150.562 171.332 149.518 172.25 149.446 173.798H154.612C154.576 172.61 153.73 171.332 152.092 171.332ZM161.563 170.036C163.759 170.036 165.073 171.584 165.271 172.952L163.723 173.168C163.507 172.07 162.643 171.386 161.455 171.386C160.051 171.386 158.899 172.43 158.899 174.59C158.899 176.786 160.069 177.866 161.455 177.866C162.751 177.866 163.579 177.074 163.795 176.102L165.361 176.3C165.073 177.848 163.525 179.216 161.419 179.216C158.791 179.216 157.279 177.254 157.279 174.608C157.279 172.016 158.845 170.036 161.563 170.036ZM166.816 170.18H168.346V179H166.816V170.18ZM166.816 167.048H168.346V168.884H166.816V167.048ZM177.305 172.574L175.721 172.718C175.487 171.692 174.641 171.314 173.525 171.314C172.571 171.314 171.635 171.656 171.635 172.394C171.635 173.078 172.157 173.366 173.093 173.564L174.155 173.78C175.811 174.122 177.359 174.716 177.359 176.462C177.359 178.226 175.757 179.216 173.687 179.216C171.329 179.216 170.033 177.74 169.871 176.354L171.473 176.21C171.707 177.272 172.391 177.938 173.723 177.938C174.947 177.938 175.811 177.398 175.811 176.624C175.811 175.814 174.911 175.418 173.885 175.202L172.733 174.968C171.455 174.716 170.105 174.158 170.105 172.484C170.105 170.936 171.797 170.036 173.687 170.036C175.667 170.036 176.963 171.062 177.305 172.574ZM179.042 170.18H180.572V179H179.042V170.18ZM179.042 167.048H180.572V168.884H179.042V167.048ZM183.825 174.626C183.825 176.93 184.923 177.884 186.363 177.884C187.803 177.884 188.901 176.93 188.901 174.626C188.901 172.322 187.803 171.368 186.363 171.368C184.923 171.368 183.825 172.322 183.825 174.626ZM182.205 174.626C182.205 171.458 184.203 170.036 186.363 170.036C188.523 170.036 190.521 171.458 190.521 174.626C190.521 177.794 188.523 179.216 186.363 179.216C184.203 179.216 182.205 177.794 182.205 174.626ZM193.694 170.18V171.404C194.198 170.63 195.08 170.036 196.592 170.036C197.78 170.036 198.608 170.486 199.076 171.242C199.418 171.8 199.562 172.538 199.562 173.582V179H198.032V173.996C198.032 173.06 197.924 172.502 197.708 172.124C197.384 171.584 196.844 171.368 196.07 171.368C194.594 171.368 193.694 172.376 193.694 174.302V179H192.164V170.18H193.694ZM208.384 172.574L206.8 172.718C206.566 171.692 205.72 171.314 204.604 171.314C203.65 171.314 202.714 171.656 202.714 172.394C202.714 173.078 203.236 173.366 204.172 173.564L205.234 173.78C206.89 174.122 208.438 174.716 208.438 176.462C208.438 178.226 206.836 179.216 204.766 179.216C202.408 179.216 201.112 177.74 200.95 176.354L202.552 176.21C202.786 177.272 203.47 177.938 204.802 177.938C206.026 177.938 206.89 177.398 206.89 176.624C206.89 175.814 205.99 175.418 204.964 175.202L203.812 174.968C202.534 174.716 201.184 174.158 201.184 172.484C201.184 170.936 202.876 170.036 204.766 170.036C206.746 170.036 208.042 171.062 208.384 172.574ZM215.192 172.898L213.698 172.844C213.806 171.026 215.408 170.018 217.388 170.018C219.89 170.018 220.916 170.99 220.88 173.366L220.844 175.598C220.826 176.984 220.916 177.83 221.024 179H219.548L219.494 177.758C218.954 178.64 218.09 179.216 216.524 179.216C214.472 179.216 213.41 177.866 213.41 176.354C213.41 175.4 213.896 174.752 214.598 174.356C215.444 173.888 216.506 173.708 217.64 173.582L219.35 173.402V173.078C219.35 171.638 218.486 171.26 217.316 171.26C215.93 171.26 215.282 171.926 215.192 172.898ZM219.458 175.184V174.662L217.622 174.842C215.894 175.004 215.03 175.418 215.03 176.408C215.03 177.344 215.768 177.884 216.812 177.884C218.054 177.884 219.458 177.218 219.458 175.184ZM227.461 170.144V171.764C227.137 171.728 226.867 171.71 226.615 171.71C225.211 171.71 224.509 172.484 224.509 174.464V179H222.979V170.18H224.473V171.746C224.923 170.738 225.841 170.162 227.011 170.126C227.155 170.126 227.299 170.126 227.461 170.144ZM232.237 179.216C229.357 179.216 227.971 177.2 227.971 174.626C227.971 171.872 229.753 170.036 232.255 170.036C235.027 170.036 236.611 172.232 236.395 175.076H229.591C229.591 176.804 230.707 177.866 232.201 177.866C233.605 177.866 234.307 177.272 234.685 176.318L236.251 176.516C235.837 177.974 234.451 179.216 232.237 179.216ZM232.255 171.332C230.725 171.332 229.681 172.25 229.609 173.798H234.775C234.739 172.61 233.893 171.332 232.255 171.332ZM241.723 179V170.18H243.253V171.404C243.721 170.612 244.531 170.036 245.989 170.036C247.393 170.036 248.095 170.648 248.509 171.566C249.175 170.558 250.147 170.036 251.605 170.036C252.541 170.036 253.243 170.378 253.711 170.864C254.251 171.44 254.485 172.34 254.485 173.582V179H252.955V174.014C252.955 172.934 252.811 172.25 252.451 171.872C252.127 171.53 251.659 171.368 251.047 171.368C249.715 171.368 248.869 172.394 248.869 174.248V179H247.339V174.014C247.339 172.934 247.195 172.25 246.835 171.872C246.511 171.53 246.043 171.368 245.431 171.368C244.099 171.368 243.253 172.394 243.253 174.248V179H241.723ZM257.868 172.898L256.374 172.844C256.482 171.026 258.084 170.018 260.064 170.018C262.566 170.018 263.592 170.99 263.556 173.366L263.52 175.598C263.502 176.984 263.592 177.83 263.7 179H262.224L262.17 177.758C261.63 178.64 260.766 179.216 259.2 179.216C257.148 179.216 256.086 177.866 256.086 176.354C256.086 175.4 256.572 174.752 257.274 174.356C258.12 173.888 259.182 173.708 260.316 173.582L262.026 173.402V173.078C262.026 171.638 261.162 171.26 259.992 171.26C258.606 171.26 257.958 171.926 257.868 172.898ZM262.134 175.184V174.662L260.298 174.842C258.57 175.004 257.706 175.418 257.706 176.408C257.706 177.344 258.444 177.884 259.488 177.884C260.73 177.884 262.134 177.218 262.134 175.184ZM273.126 167.048V179H271.65L271.596 177.794C271.038 178.64 270.21 179.216 268.734 179.216C266.61 179.216 265.062 177.488 265.062 174.608C265.062 171.764 266.664 170.036 268.914 170.036C270.192 170.036 271.11 170.576 271.596 171.332V167.048H273.126ZM269.13 177.884C270.48 177.884 271.668 176.894 271.668 174.608C271.668 172.322 270.534 171.368 269.13 171.368C267.528 171.368 266.682 172.574 266.682 174.608C266.682 176.66 267.51 177.884 269.13 177.884ZM279.027 179.216C276.147 179.216 274.761 177.2 274.761 174.626C274.761 171.872 276.543 170.036 279.045 170.036C281.817 170.036 283.401 172.232 283.185 175.076H276.381C276.381 176.804 277.497 177.866 278.991 177.866C280.395 177.866 281.097 177.272 281.475 176.318L283.041 176.516C282.627 177.974 281.241 179.216 279.027 179.216ZM279.045 171.332C277.515 171.332 276.471 172.25 276.399 173.798H281.565C281.529 172.61 280.683 171.332 279.045 171.332ZM288.512 170.18H290.042V179H288.512V170.18ZM288.512 167.048H290.042V168.884H288.512V167.048ZM293.8 170.18V171.404C294.304 170.63 295.186 170.036 296.698 170.036C297.886 170.036 298.714 170.486 299.182 171.242C299.524 171.8 299.668 172.538 299.668 173.582V179H298.138V173.996C298.138 173.06 298.03 172.502 297.814 172.124C297.49 171.584 296.95 171.368 296.176 171.368C294.7 171.368 293.8 172.376 293.8 174.302V179H292.27V170.18H293.8ZM33.638 192.18V189.75H35.168V192.18H36.86V193.44H35.168V198.534C35.168 199.47 35.222 199.704 36.104 199.704H36.86V201H35.762C34.034 201 33.638 200.622 33.638 198.75V193.44H32.216V192.18H33.638ZM39.9876 189.048V193.404C40.4916 192.63 41.3736 192.036 42.8856 192.036C44.0736 192.036 44.9016 192.486 45.3696 193.242C45.7116 193.8 45.8556 194.538 45.8556 195.582V201H44.3256V195.996C44.3256 195.06 44.2176 194.502 44.0016 194.124C43.6776 193.584 43.1376 193.368 42.3636 193.368C40.8876 193.368 39.9876 194.376 39.9876 196.302V201H38.4576V189.048H39.9876ZM51.6176 201.216C48.7376 201.216 47.3516 199.2 47.3516 196.626C47.3516 193.872 49.1336 192.036 51.6356 192.036C54.4076 192.036 55.9916 194.232 55.7756 197.076H48.9716C48.9716 198.804 50.0876 199.866 51.5816 199.866C52.9856 199.866 53.6876 199.272 54.0656 198.318L55.6316 198.516C55.2176 199.974 53.8316 201.216 51.6176 201.216ZM51.6356 193.332C50.1056 193.332 49.0616 194.25 48.9896 195.798H54.1556C54.1196 194.61 53.2736 193.332 51.6356 193.332ZM61.4812 192.18V191.532C61.4812 189.66 61.8772 189.048 63.9112 189.048H64.7032V190.344H63.9472C63.1552 190.344 63.0112 190.578 63.0112 191.514V192.18H64.7032V193.44H63.0112V201H61.4812V193.44H60.2392V192.18H61.4812ZM66.3412 192.18H67.8712V201H66.3412V192.18ZM66.3412 189.048H67.8712V190.884H66.3412V189.048ZM70.531 192.18V189.75H72.061V192.18H73.753V193.44H72.061V198.534C72.061 199.47 72.115 199.704 72.997 199.704H73.753V201H72.655C70.927 201 70.531 200.622 70.531 198.75V193.44H69.109V192.18H70.531ZM75.967 192.18V189.75H77.497V192.18H79.189V193.44H77.497V198.534C77.497 199.47 77.551 199.704 78.433 199.704H79.189V201H78.091C76.363 201 75.967 200.622 75.967 198.75V193.44H74.545V192.18H75.967ZM80.7822 192.18H82.3122V201H80.7822V192.18ZM80.7822 189.048H82.3122V190.884H80.7822V189.048ZM86.0698 192.18V193.404C86.5738 192.63 87.4558 192.036 88.9678 192.036C90.1558 192.036 90.9838 192.486 91.4518 193.242C91.7938 193.8 91.9378 194.538 91.9378 195.582V201H90.4078V195.996C90.4078 195.06 90.2998 194.502 90.0838 194.124C89.7598 193.584 89.2198 193.368 88.4458 193.368C86.9698 193.368 86.0698 194.376 86.0698 196.302V201H84.5398V192.18H86.0698ZM99.8957 200.226V199.434C99.3377 200.28 98.5817 200.856 97.1057 200.856C94.9817 200.856 93.4337 199.236 93.4337 196.428C93.4337 193.656 95.0357 192.036 97.2857 192.036C98.5637 192.036 99.4097 192.576 99.8957 193.332L99.9317 192.18H101.426V199.884C101.426 201.72 101.156 202.476 100.652 203.034C99.9857 203.79 98.8697 204.222 97.5377 204.222C95.4857 204.222 94.1177 203.286 93.8297 201.522L95.4497 201.468C95.6657 202.278 96.1517 202.89 97.5557 202.89C98.3657 202.89 98.9957 202.656 99.3917 202.224C99.7157 201.864 99.8957 201.45 99.8957 200.226ZM97.5017 199.524C98.8517 199.524 99.9677 198.642 99.9677 196.428C99.9677 194.214 98.9057 193.368 97.5017 193.368C95.8997 193.368 95.0537 194.466 95.0537 196.428C95.0537 198.408 95.8817 199.524 97.5017 199.524ZM111.913 192.144V193.764C111.589 193.728 111.319 193.71 111.067 193.71C109.663 193.71 108.961 194.484 108.961 196.464V201H107.431V192.18H108.925V193.746C109.375 192.738 110.293 192.162 111.463 192.126C111.607 192.126 111.751 192.126 111.913 192.144ZM114.043 196.626C114.043 198.93 115.141 199.884 116.581 199.884C118.021 199.884 119.119 198.93 119.119 196.626C119.119 194.322 118.021 193.368 116.581 193.368C115.141 193.368 114.043 194.322 114.043 196.626ZM112.423 196.626C112.423 193.458 114.421 192.036 116.581 192.036C118.741 192.036 120.739 193.458 120.739 196.626C120.739 199.794 118.741 201.216 116.581 201.216C114.421 201.216 112.423 199.794 112.423 196.626ZM123.549 196.626C123.549 198.93 124.647 199.884 126.087 199.884C127.527 199.884 128.625 198.93 128.625 196.626C128.625 194.322 127.527 193.368 126.087 193.368C124.647 193.368 123.549 194.322 123.549 196.626ZM121.929 196.626C121.929 193.458 123.927 192.036 126.087 192.036C128.247 192.036 130.245 193.458 130.245 196.626C130.245 199.794 128.247 201.216 126.087 201.216C123.927 201.216 121.929 199.794 121.929 196.626ZM131.887 201V192.18H133.417V193.404C133.885 192.612 134.695 192.036 136.153 192.036C137.557 192.036 138.259 192.648 138.673 193.566C139.339 192.558 140.311 192.036 141.769 192.036C142.705 192.036 143.407 192.378 143.875 192.864C144.415 193.44 144.649 194.34 144.649 195.582V201H143.119V196.014C143.119 194.934 142.975 194.25 142.615 193.872C142.291 193.53 141.823 193.368 141.211 193.368C139.879 193.368 139.033 194.394 139.033 196.248V201H137.503V196.014C137.503 194.934 137.359 194.25 136.999 193.872C136.675 193.53 136.207 193.368 135.595 193.368C134.263 193.368 133.417 194.394 133.417 196.248V201H131.887Z" fill="#1B1B1B"/>
</svg>
