<svg width="325" height="239" viewBox="0 0 325 239" fill="none" xmlns="http://www.w3.org/2000/svg">
<rect width="325" height="239" fill="#EEEEEE"/>
<path d="M33.1 51.09V41.96H84.47V51.09C66.1 65.94 54.77 87.28 53.01 115H41.79C43.44 88.38 55.21 67.04 73.58 51.09H33.1ZM114.342 108.18C123.252 108.18 130.842 102.24 130.842 91.02C130.842 78.92 122.262 73.97 114.122 73.97C106.752 73.97 101.472 78.15 99.8219 81.78L90.4719 81.34L95.3119 41.96H137.882V50.98H102.902L100.262 71.33C104.222 67.59 110.162 65.83 116.322 65.83C129.302 65.83 140.742 74.85 140.742 90.91C140.742 107.63 128.092 116.32 114.232 116.32C97.0719 116.32 89.2619 105.43 87.8319 94.21L97.4019 93.44C98.8319 102.46 103.892 108.18 114.342 108.18ZM163.562 84.42C152.232 84.42 146.732 75.62 146.732 62.75C146.732 49.77 152.232 41.19 163.562 41.19C174.782 41.19 180.282 49.77 180.282 62.75C180.282 75.62 174.782 84.42 163.562 84.42ZM163.562 78.59C169.502 78.59 172.692 73.09 172.692 62.75C172.692 52.3 169.502 47.02 163.562 47.02C157.512 47.02 154.322 52.3 154.322 62.75C154.322 73.09 157.512 78.59 163.562 78.59ZM159.052 115H169.392L220.542 41.96H210.202L159.052 115ZM216.142 115.77C204.812 115.77 199.312 106.97 199.312 94.1C199.312 81.12 204.812 72.54 216.142 72.54C227.362 72.54 232.862 81.12 232.862 94.1C232.862 106.97 227.362 115.77 216.142 115.77ZM216.142 109.94C222.082 109.94 225.272 104.44 225.272 94.1C225.272 83.65 222.082 78.37 216.142 78.37C210.092 78.37 206.902 83.65 206.902 94.1C206.902 104.44 210.092 109.94 216.142 109.94Z" fill="#1B1B1B"/>
<path d="M34.232 174.626C34.232 176.93 35.33 177.884 36.77 177.884C38.21 177.884 39.308 176.93 39.308 174.626C39.308 172.322 38.21 171.368 36.77 171.368C35.33 171.368 34.232 172.322 34.232 174.626ZM32.612 174.626C32.612 171.458 34.61 170.036 36.77 170.036C38.93 170.036 40.928 171.458 40.928 174.626C40.928 177.794 38.93 179.216 36.77 179.216C34.61 179.216 32.612 177.794 32.612 174.626ZM42.5709 179V167.048H44.1009V171.458C44.6589 170.612 45.4869 170.036 46.9629 170.036C49.0869 170.036 50.6349 171.764 50.6349 174.644C50.6349 177.488 49.0329 179.216 46.7829 179.216C45.5049 179.216 44.5869 178.676 44.1009 177.92L44.0289 179H42.5709ZM46.5669 171.368C45.2169 171.368 44.0289 172.358 44.0289 174.644C44.0289 176.93 45.1629 177.884 46.5669 177.884C48.1689 177.884 49.0149 176.678 49.0149 174.644C49.0149 172.592 48.1869 171.368 46.5669 171.368ZM59.0018 172.574L57.4178 172.718C57.1838 171.692 56.3378 171.314 55.2218 171.314C54.2678 171.314 53.3318 171.656 53.3318 172.394C53.3318 173.078 53.8538 173.366 54.7898 173.564L55.8518 173.78C57.5078 174.122 59.0558 174.716 59.0558 176.462C59.0558 178.226 57.4538 179.216 55.3838 179.216C53.0258 179.216 51.7298 177.74 51.5678 176.354L53.1698 176.21C53.4038 177.272 54.0878 177.938 55.4198 177.938C56.6438 177.938 57.5078 177.398 57.5078 176.624C57.5078 175.814 56.6078 175.418 55.5818 175.202L54.4298 174.968C53.1518 174.716 51.8018 174.158 51.8018 172.484C51.8018 170.936 53.4938 170.036 55.3838 170.036C57.3638 170.036 58.6598 171.062 59.0018 172.574ZM64.4103 179.216C61.5303 179.216 60.1443 177.2 60.1443 174.626C60.1443 171.872 61.9263 170.036 64.4283 170.036C67.2003 170.036 68.7843 172.232 68.5683 175.076H61.7643C61.7643 176.804 62.8803 177.866 64.3743 177.866C65.7783 177.866 66.4803 177.272 66.8583 176.318L68.4243 176.516C68.0103 177.974 66.6243 179.216 64.4103 179.216ZM64.4283 171.332C62.8983 171.332 61.8543 172.25 61.7823 173.798H66.9483C66.9123 172.61 66.0663 171.332 64.4283 171.332ZM74.6028 170.144V171.764C74.2788 171.728 74.0088 171.71 73.7568 171.71C72.3528 171.71 71.6508 172.484 71.6508 174.464V179H70.1208V170.18H71.6148V171.746C72.0648 170.738 72.9828 170.162 74.1528 170.126C74.2968 170.126 74.4408 170.126 74.6028 170.144ZM76.3682 170.18L78.8162 176.894L81.2462 170.18H82.8302L79.4282 179H78.0782L74.6762 170.18H76.3682ZM87.4953 179.216C84.6153 179.216 83.2293 177.2 83.2293 174.626C83.2293 171.872 85.0113 170.036 87.5133 170.036C90.2853 170.036 91.8693 172.232 91.6533 175.076H84.8493C84.8493 176.804 85.9653 177.866 87.4593 177.866C88.8633 177.866 89.5653 177.272 89.9433 176.318L91.5093 176.516C91.0953 177.974 89.7093 179.216 87.4953 179.216ZM87.5133 171.332C85.9833 171.332 84.9393 172.25 84.8673 173.798H90.0333C89.9973 172.61 89.1513 171.332 87.5133 171.332ZM100.764 167.048V179H99.2877L99.2337 177.794C98.6757 178.64 97.8477 179.216 96.3717 179.216C94.2477 179.216 92.6997 177.488 92.6997 174.608C92.6997 171.764 94.3017 170.036 96.5517 170.036C97.8297 170.036 98.7477 170.576 99.2337 171.332V167.048H100.764ZM96.7677 177.884C98.1177 177.884 99.3057 176.894 99.3057 174.608C99.3057 172.322 98.1717 171.368 96.7677 171.368C95.1657 171.368 94.3197 172.574 94.3197 174.608C94.3197 176.66 95.1477 177.884 96.7677 177.884ZM107.92 170.18V167.75H109.45V170.18H111.142V171.44H109.45V176.534C109.45 177.47 109.504 177.704 110.386 177.704H111.142V179H110.044C108.316 179 107.92 178.622 107.92 176.75V171.44H106.498V170.18H107.92ZM114.27 167.048V171.404C114.774 170.63 115.656 170.036 117.168 170.036C118.356 170.036 119.184 170.486 119.652 171.242C119.994 171.8 120.138 172.538 120.138 173.582V179H118.608V173.996C118.608 173.06 118.5 172.502 118.284 172.124C117.96 171.584 117.42 171.368 116.646 171.368C115.17 171.368 114.27 172.376 114.27 174.302V179H112.74V167.048H114.27ZM123.524 172.898L122.03 172.844C122.138 171.026 123.74 170.018 125.72 170.018C128.222 170.018 129.248 170.99 129.212 173.366L129.176 175.598C129.158 176.984 129.248 177.83 129.356 179H127.88L127.826 177.758C127.286 178.64 126.422 179.216 124.856 179.216C122.804 179.216 121.742 177.866 121.742 176.354C121.742 175.4 122.228 174.752 122.93 174.356C123.776 173.888 124.838 173.708 125.972 173.582L127.682 173.402V173.078C127.682 171.638 126.818 171.26 125.648 171.26C124.262 171.26 123.614 171.926 123.524 172.898ZM127.79 175.184V174.662L125.954 174.842C124.226 175.004 123.362 175.418 123.362 176.408C123.362 177.344 124.1 177.884 125.144 177.884C126.386 177.884 127.79 177.218 127.79 175.184ZM131.744 170.18V167.75H133.274V170.18H134.966V171.44H133.274V176.534C133.274 177.47 133.328 177.704 134.21 177.704H134.966V179H133.868C132.14 179 131.744 178.622 131.744 176.75V171.44H130.322V170.18H131.744ZM144.028 170.036C146.224 170.036 147.538 171.584 147.736 172.952L146.188 173.168C145.972 172.07 145.108 171.386 143.92 171.386C142.516 171.386 141.364 172.43 141.364 174.59C141.364 176.786 142.534 177.866 143.92 177.866C145.216 177.866 146.044 177.074 146.26 176.102L147.826 176.3C147.538 177.848 145.99 179.216 143.884 179.216C141.256 179.216 139.744 177.254 139.744 174.608C139.744 172.016 141.31 170.036 144.028 170.036ZM154.897 179V177.74C154.411 178.568 153.637 179.198 152.125 179.198C151.045 179.198 150.289 178.802 149.821 178.172C149.389 177.596 149.209 176.75 149.209 175.652V170.18H150.739V175.166C150.739 176.066 150.829 176.642 151.027 177.038C151.315 177.632 151.891 177.866 152.683 177.866C154.069 177.866 154.897 176.84 154.897 174.986V170.18H156.427V179H154.897ZM165.396 172.574L163.812 172.718C163.578 171.692 162.732 171.314 161.616 171.314C160.662 171.314 159.726 171.656 159.726 172.394C159.726 173.078 160.248 173.366 161.184 173.564L162.246 173.78C163.902 174.122 165.45 174.716 165.45 176.462C165.45 178.226 163.848 179.216 161.778 179.216C159.42 179.216 158.124 177.74 157.962 176.354L159.564 176.21C159.798 177.272 160.482 177.938 161.814 177.938C163.038 177.938 163.902 177.398 163.902 176.624C163.902 175.814 163.002 175.418 161.976 175.202L160.824 174.968C159.546 174.716 158.196 174.158 158.196 172.484C158.196 170.936 159.888 170.036 161.778 170.036C163.758 170.036 165.054 171.062 165.396 172.574ZM167.826 170.18V167.75H169.356V170.18H171.048V171.44H169.356V176.534C169.356 177.47 169.41 177.704 170.292 177.704H171.048V179H169.95C168.222 179 167.826 178.622 167.826 176.75V171.44H166.404V170.18H167.826ZM173.678 174.626C173.678 176.93 174.776 177.884 176.216 177.884C177.656 177.884 178.754 176.93 178.754 174.626C178.754 172.322 177.656 171.368 176.216 171.368C174.776 171.368 173.678 172.322 173.678 174.626ZM172.058 174.626C172.058 171.458 174.056 170.036 176.216 170.036C178.376 170.036 180.374 171.458 180.374 174.626C180.374 177.794 178.376 179.216 176.216 179.216C174.056 179.216 172.058 177.794 172.058 174.626ZM182.017 179V170.18H183.547V171.404C184.015 170.612 184.825 170.036 186.283 170.036C187.687 170.036 188.389 170.648 188.803 171.566C189.469 170.558 190.441 170.036 191.899 170.036C192.835 170.036 193.537 170.378 194.005 170.864C194.545 171.44 194.779 172.34 194.779 173.582V179H193.249V174.014C193.249 172.934 193.105 172.25 192.745 171.872C192.421 171.53 191.953 171.368 191.341 171.368C190.009 171.368 189.163 172.394 189.163 174.248V179H187.633V174.014C187.633 172.934 187.489 172.25 187.129 171.872C186.805 171.53 186.337 171.368 185.725 171.368C184.393 171.368 183.547 172.394 183.547 174.248V179H182.017ZM200.538 179.216C197.658 179.216 196.272 177.2 196.272 174.626C196.272 171.872 198.054 170.036 200.556 170.036C203.328 170.036 204.912 172.232 204.696 175.076H197.892C197.892 176.804 199.008 177.866 200.502 177.866C201.906 177.866 202.608 177.272 202.986 176.318L204.552 176.516C204.138 177.974 202.752 179.216 200.538 179.216ZM200.556 171.332C199.026 171.332 197.982 172.25 197.91 173.798H203.076C203.04 172.61 202.194 171.332 200.556 171.332ZM210.731 170.144V171.764C210.407 171.728 210.137 171.71 209.885 171.71C208.481 171.71 207.779 172.484 207.779 174.464V179H206.249V170.18H207.743V171.746C208.193 170.738 209.111 170.162 210.281 170.126C210.425 170.126 210.569 170.126 210.731 170.144ZM218.654 172.574L217.07 172.718C216.836 171.692 215.99 171.314 214.874 171.314C213.92 171.314 212.984 171.656 212.984 172.394C212.984 173.078 213.506 173.366 214.442 173.564L215.504 173.78C217.16 174.122 218.708 174.716 218.708 176.462C218.708 178.226 217.106 179.216 215.036 179.216C212.678 179.216 211.382 177.74 211.22 176.354L212.822 176.21C213.056 177.272 213.74 177.938 215.072 177.938C216.296 177.938 217.16 177.398 217.16 176.624C217.16 175.814 216.26 175.418 215.234 175.202L214.082 174.968C212.804 174.716 211.454 174.158 211.454 172.484C211.454 170.936 213.146 170.036 215.036 170.036C217.016 170.036 218.312 171.062 218.654 172.574ZM225.192 174.626C225.192 176.93 226.29 177.884 227.73 177.884C229.17 177.884 230.268 176.93 230.268 174.626C230.268 172.322 229.17 171.368 227.73 171.368C226.29 171.368 225.192 172.322 225.192 174.626ZM223.572 174.626C223.572 171.458 225.57 170.036 227.73 170.036C229.89 170.036 231.888 171.458 231.888 174.626C231.888 177.794 229.89 179.216 227.73 179.216C225.57 179.216 223.572 177.794 223.572 174.626ZM233.909 170.18V169.532C233.909 167.66 234.305 167.048 236.339 167.048H237.131V168.344H236.375C235.583 168.344 235.439 168.578 235.439 169.514V170.18H237.131V171.44H235.439V179H233.909V171.44H232.667V170.18H233.909ZM239.201 170.18V167.75H240.731V170.18H242.423V171.44H240.731V176.534C240.731 177.47 240.785 177.704 241.667 177.704H242.423V179H241.325C239.597 179 239.201 178.622 239.201 176.75V171.44H237.779V170.18H239.201ZM247.692 179.216C244.812 179.216 243.426 177.2 243.426 174.626C243.426 171.872 245.208 170.036 247.71 170.036C250.482 170.036 252.066 172.232 251.85 175.076H245.046C245.046 176.804 246.162 177.866 247.656 177.866C249.06 177.866 249.762 177.272 250.14 176.318L251.706 176.516C251.292 177.974 249.906 179.216 247.692 179.216ZM247.71 171.332C246.18 171.332 245.136 172.25 245.064 173.798H250.23C250.194 172.61 249.348 171.332 247.71 171.332ZM254.933 170.18V171.404C255.437 170.63 256.319 170.036 257.831 170.036C259.019 170.036 259.847 170.486 260.315 171.242C260.657 171.8 260.801 172.538 260.801 173.582V179H259.271V173.996C259.271 173.06 259.163 172.502 258.947 172.124C258.623 171.584 258.083 171.368 257.309 171.368C255.833 171.368 254.933 172.376 254.933 174.302V179H253.403V170.18H254.933ZM267.098 170.18V167.75H268.628V170.18H270.32V171.44H268.628V176.534C268.628 177.47 268.682 177.704 269.564 177.704H270.32V179H269.222C267.494 179 267.098 178.622 267.098 176.75V171.44H265.676V170.18H267.098ZM276.4 170.144V171.764C276.076 171.728 275.806 171.71 275.554 171.71C274.15 171.71 273.448 172.484 273.448 174.464V179H271.918V170.18H273.412V171.746C273.862 170.738 274.78 170.162 275.95 170.126C276.094 170.126 276.238 170.126 276.4 170.144ZM278.057 182.114H277.265V180.782H277.895C278.885 180.782 279.335 180.674 279.785 179.18L279.839 179L276.599 170.18H278.291L280.577 176.948L282.809 170.18H284.393L281.189 179.378C280.559 181.178 280.055 182.114 278.057 182.114ZM290.949 174.626C290.949 176.93 292.047 177.884 293.487 177.884C294.927 177.884 296.025 176.93 296.025 174.626C296.025 172.322 294.927 171.368 293.487 171.368C292.047 171.368 290.949 172.322 290.949 174.626ZM289.329 174.626C289.329 171.458 291.327 170.036 293.487 170.036C295.647 170.036 297.645 171.458 297.645 174.626C297.645 177.794 295.647 179.216 293.487 179.216C291.327 179.216 289.329 177.794 289.329 174.626ZM300.817 170.18V171.404C301.321 170.63 302.203 170.036 303.715 170.036C304.903 170.036 305.731 170.486 306.199 171.242C306.541 171.8 306.685 172.538 306.685 173.582V179H305.155V173.996C305.155 173.06 305.047 172.502 304.831 172.124C304.507 171.584 303.967 171.368 303.193 171.368C301.717 171.368 300.817 172.376 300.817 174.302V179H299.287V170.18H300.817ZM34.502 194.898L33.008 194.844C33.116 193.026 34.718 192.018 36.698 192.018C39.2 192.018 40.226 192.99 40.19 195.366L40.154 197.598C40.136 198.984 40.226 199.83 40.334 201H38.858L38.804 199.758C38.264 200.64 37.4 201.216 35.834 201.216C33.782 201.216 32.72 199.866 32.72 198.354C32.72 197.4 33.206 196.752 33.908 196.356C34.754 195.888 35.816 195.708 36.95 195.582L38.66 195.402V195.078C38.66 193.638 37.796 193.26 36.626 193.26C35.24 193.26 34.592 193.926 34.502 194.898ZM38.768 197.184V196.662L36.932 196.842C35.204 197.004 34.34 197.418 34.34 198.408C34.34 199.344 35.078 199.884 36.122 199.884C37.364 199.884 38.768 199.218 38.768 197.184ZM43.8197 192.18V193.404C44.3237 192.63 45.2057 192.036 46.7177 192.036C47.9057 192.036 48.7337 192.486 49.2017 193.242C49.5437 193.8 49.6877 194.538 49.6877 195.582V201H48.1577V195.996C48.1577 195.06 48.0497 194.502 47.8337 194.124C47.5097 193.584 46.9697 193.368 46.1957 193.368C44.7197 193.368 43.8197 194.376 43.8197 196.302V201H42.2897V192.18H43.8197ZM52.8036 196.626C52.8036 198.93 53.9016 199.884 55.3416 199.884C56.7816 199.884 57.8796 198.93 57.8796 196.626C57.8796 194.322 56.7816 193.368 55.3416 193.368C53.9016 193.368 52.8036 194.322 52.8036 196.626ZM51.1836 196.626C51.1836 193.458 53.1816 192.036 55.3416 192.036C57.5016 192.036 59.4996 193.458 59.4996 196.626C59.4996 199.794 57.5016 201.216 55.3416 201.216C53.1816 201.216 51.1836 199.794 51.1836 196.626ZM61.5746 192.18V189.75H63.1046V192.18H64.7966V193.44H63.1046V198.534C63.1046 199.47 63.1586 199.704 64.0406 199.704H64.7966V201H63.6986C61.9706 201 61.5746 200.622 61.5746 198.75V193.44H60.1526V192.18H61.5746ZM67.9242 189.048V193.404C68.4282 192.63 69.3102 192.036 70.8222 192.036C72.0102 192.036 72.8382 192.486 73.3062 193.242C73.6482 193.8 73.7922 194.538 73.7922 195.582V201H72.2622V195.996C72.2622 195.06 72.1542 194.502 71.9382 194.124C71.6142 193.584 71.0742 193.368 70.3002 193.368C68.8242 193.368 67.9242 194.376 67.9242 196.302V201H66.3942V189.048H67.9242ZM79.5542 201.216C76.6742 201.216 75.2882 199.2 75.2882 196.626C75.2882 193.872 77.0702 192.036 79.5722 192.036C82.3442 192.036 83.9282 194.232 83.7122 197.076H76.9082C76.9082 198.804 78.0242 199.866 79.5182 199.866C80.9222 199.866 81.6242 199.272 82.0022 198.318L83.5682 198.516C83.1542 199.974 81.7682 201.216 79.5542 201.216ZM79.5722 193.332C78.0422 193.332 76.9982 194.25 76.9262 195.798H82.0922C82.0562 194.61 81.2102 193.332 79.5722 193.332ZM89.7467 192.144V193.764C89.4227 193.728 89.1527 193.71 88.9007 193.71C87.4967 193.71 86.7947 194.484 86.7947 196.464V201H85.2647V192.18H86.7587V193.746C87.2087 192.738 88.1267 192.162 89.2967 192.126C89.4407 192.126 89.5847 192.126 89.7467 192.144ZM98.4912 192.036C100.687 192.036 102.001 193.584 102.199 194.952L100.651 195.168C100.435 194.07 99.5712 193.386 98.3832 193.386C96.9792 193.386 95.8272 194.43 95.8272 196.59C95.8272 198.786 96.9972 199.866 98.3832 199.866C99.6792 199.866 100.507 199.074 100.723 198.102L102.289 198.3C102.001 199.848 100.453 201.216 98.3472 201.216C95.7192 201.216 94.2072 199.254 94.2072 196.608C94.2072 194.016 95.7732 192.036 98.4912 192.036ZM104.858 196.626C104.858 198.93 105.956 199.884 107.396 199.884C108.836 199.884 109.934 198.93 109.934 196.626C109.934 194.322 108.836 193.368 107.396 193.368C105.956 193.368 104.858 194.322 104.858 196.626ZM103.238 196.626C103.238 193.458 105.236 192.036 107.396 192.036C109.556 192.036 111.554 193.458 111.554 196.626C111.554 199.794 109.556 201.216 107.396 201.216C105.236 201.216 103.238 199.794 103.238 196.626ZM114.727 189.048V201H113.197V189.048H114.727ZM117.981 196.626C117.981 198.93 119.079 199.884 120.519 199.884C121.959 199.884 123.057 198.93 123.057 196.626C123.057 194.322 121.959 193.368 120.519 193.368C119.079 193.368 117.981 194.322 117.981 196.626ZM116.361 196.626C116.361 193.458 118.359 192.036 120.519 192.036C122.679 192.036 124.677 193.458 124.677 196.626C124.677 199.794 122.679 201.216 120.519 201.216C118.359 201.216 116.361 199.794 116.361 196.626ZM131.935 201V199.74C131.449 200.568 130.675 201.198 129.163 201.198C128.083 201.198 127.327 200.802 126.859 200.172C126.427 199.596 126.247 198.75 126.247 197.652V192.18H127.777V197.166C127.777 198.066 127.867 198.642 128.065 199.038C128.353 199.632 128.929 199.866 129.721 199.866C131.107 199.866 131.935 198.84 131.935 196.986V192.18H133.465V201H131.935ZM140.184 192.144V193.764C139.86 193.728 139.59 193.71 139.338 193.71C137.934 193.71 137.232 194.484 137.232 196.464V201H135.702V192.18H137.196V193.746C137.646 192.738 138.564 192.162 139.734 192.126C139.878 192.126 140.022 192.126 140.184 192.144ZM146.391 192.18V189.75H147.921V192.18H149.613V193.44H147.921V198.534C147.921 199.47 147.975 199.704 148.857 199.704H149.613V201H148.515C146.787 201 146.391 200.622 146.391 198.75V193.44H144.969V192.18H146.391ZM152.237 196.626C152.237 198.93 153.335 199.884 154.775 199.884C156.215 199.884 157.313 198.93 157.313 196.626C157.313 194.322 156.215 193.368 154.775 193.368C153.335 193.368 152.237 194.322 152.237 196.626ZM150.617 196.626C150.617 193.458 152.615 192.036 154.775 192.036C156.935 192.036 158.933 193.458 158.933 196.626C158.933 199.794 156.935 201.216 154.775 201.216C152.615 201.216 150.617 199.794 150.617 196.626ZM165.377 196.626C165.377 198.93 166.475 199.884 167.915 199.884C169.355 199.884 170.453 198.93 170.453 196.626C170.453 194.322 169.355 193.368 167.915 193.368C166.475 193.368 165.377 194.322 165.377 196.626ZM163.757 196.626C163.757 193.458 165.755 192.036 167.915 192.036C170.075 192.036 172.073 193.458 172.073 196.626C172.073 199.794 170.075 201.216 167.915 201.216C165.755 201.216 163.757 199.794 163.757 196.626ZM178.198 192.144V193.764C177.874 193.728 177.604 193.71 177.352 193.71C175.948 193.71 175.246 194.484 175.246 196.464V201H173.716V192.18H175.21V193.746C175.66 192.738 176.578 192.162 177.748 192.126C177.892 192.126 178.036 192.126 178.198 192.144ZM186.771 189.048V201H185.295L185.241 199.794C184.683 200.64 183.855 201.216 182.379 201.216C180.255 201.216 178.707 199.488 178.707 196.608C178.707 193.764 180.309 192.036 182.559 192.036C183.837 192.036 184.755 192.576 185.241 193.332V189.048H186.771ZM182.775 199.884C184.125 199.884 185.313 198.894 185.313 196.608C185.313 194.322 184.179 193.368 182.775 193.368C181.173 193.368 180.327 194.574 180.327 196.608C180.327 198.66 181.155 199.884 182.775 199.884ZM192.672 201.216C189.792 201.216 188.406 199.2 188.406 196.626C188.406 193.872 190.188 192.036 192.69 192.036C195.462 192.036 197.046 194.232 196.83 197.076H190.026C190.026 198.804 191.142 199.866 192.636 199.866C194.04 199.866 194.742 199.272 195.12 198.318L196.686 198.516C196.272 199.974 194.886 201.216 192.672 201.216ZM192.69 193.332C191.16 193.332 190.116 194.25 190.044 195.798H195.21C195.174 194.61 194.328 193.332 192.69 193.332ZM202.865 192.144V193.764C202.541 193.728 202.271 193.71 202.019 193.71C200.615 193.71 199.913 194.484 199.913 196.464V201H198.383V192.18H199.877V193.746C200.327 192.738 201.245 192.162 202.415 192.126C202.559 192.126 202.703 192.126 202.865 192.144ZM208.351 192.18V189.75H209.881V192.18H211.573V193.44H209.881V198.534C209.881 199.47 209.935 199.704 210.817 199.704H211.573V201H210.475C208.747 201 208.351 200.622 208.351 198.75V193.44H206.929V192.18H208.351ZM214.701 189.048V193.404C215.205 192.63 216.087 192.036 217.599 192.036C218.787 192.036 219.615 192.486 220.083 193.242C220.425 193.8 220.569 194.538 220.569 195.582V201H219.039V195.996C219.039 195.06 218.931 194.502 218.715 194.124C218.391 193.584 217.851 193.368 217.077 193.368C215.601 193.368 214.701 194.376 214.701 196.302V201H213.171V189.048H214.701ZM226.331 201.216C223.451 201.216 222.065 199.2 222.065 196.626C222.065 193.872 223.847 192.036 226.349 192.036C229.121 192.036 230.705 194.232 230.489 197.076H223.685C223.685 198.804 224.801 199.866 226.295 199.866C227.699 199.866 228.401 199.272 228.779 198.318L230.345 198.516C229.931 199.974 228.545 201.216 226.331 201.216ZM226.349 193.332C224.819 193.332 223.775 194.25 223.703 195.798H228.869C228.833 194.61 227.987 193.332 226.349 193.332ZM240.298 192.144V193.764C239.974 193.728 239.704 193.71 239.452 193.71C238.048 193.71 237.346 194.484 237.346 196.464V201H235.816V192.18H237.31V193.746C237.76 192.738 238.678 192.162 239.848 192.126C239.992 192.126 240.136 192.126 240.298 192.144ZM241.578 192.18H243.108V201H241.578V192.18ZM241.578 189.048H243.108V190.884H241.578V189.048ZM251.203 200.226V199.434C250.645 200.28 249.889 200.856 248.413 200.856C246.289 200.856 244.741 199.236 244.741 196.428C244.741 193.656 246.343 192.036 248.593 192.036C249.871 192.036 250.717 192.576 251.203 193.332L251.239 192.18H252.733V199.884C252.733 201.72 252.463 202.476 251.959 203.034C251.293 203.79 250.177 204.222 248.845 204.222C246.793 204.222 245.425 203.286 245.137 201.522L246.757 201.468C246.973 202.278 247.459 202.89 248.863 202.89C249.673 202.89 250.303 202.656 250.699 202.224C251.023 201.864 251.203 201.45 251.203 200.226ZM248.809 199.524C250.159 199.524 251.275 198.642 251.275 196.428C251.275 194.214 250.213 193.368 248.809 193.368C247.207 193.368 246.361 194.466 246.361 196.428C246.361 198.408 247.189 199.524 248.809 199.524ZM256.494 189.048V193.404C256.998 192.63 257.88 192.036 259.392 192.036C260.58 192.036 261.408 192.486 261.876 193.242C262.218 193.8 262.362 194.538 262.362 195.582V201H260.832V195.996C260.832 195.06 260.724 194.502 260.508 194.124C260.184 193.584 259.644 193.368 258.87 193.368C257.394 193.368 256.494 194.376 256.494 196.302V201H254.964V189.048H256.494ZM264.884 192.18V189.75H266.414V192.18H268.106V193.44H266.414V198.534C266.414 199.47 266.468 199.704 267.35 199.704H268.106V201H267.008C265.28 201 264.884 200.622 264.884 198.75V193.44H263.462V192.18H264.884ZM280.211 194.574L278.627 194.718C278.393 193.692 277.547 193.314 276.431 193.314C275.477 193.314 274.541 193.656 274.541 194.394C274.541 195.078 275.063 195.366 275.999 195.564L277.061 195.78C278.717 196.122 280.265 196.716 280.265 198.462C280.265 200.226 278.663 201.216 276.593 201.216C274.235 201.216 272.939 199.74 272.777 198.354L274.379 198.21C274.613 199.272 275.297 199.938 276.629 199.938C277.853 199.938 278.717 199.398 278.717 198.624C278.717 197.814 277.817 197.418 276.791 197.202L275.639 196.968C274.361 196.716 273.011 196.158 273.011 194.484C273.011 192.936 274.703 192.036 276.593 192.036C278.573 192.036 279.869 193.062 280.211 194.574ZM281.947 192.18H283.477V201H281.947V192.18ZM281.947 189.048H283.477V190.884H281.947V189.048ZM285.057 201V199.74L290.259 193.44H285.399V192.18H292.041V193.44L286.839 199.74H292.131V201H285.057ZM297.37 201.216C294.49 201.216 293.104 199.2 293.104 196.626C293.104 193.872 294.886 192.036 297.388 192.036C300.16 192.036 301.744 194.232 301.528 197.076H294.724C294.724 198.804 295.84 199.866 297.334 199.866C298.738 199.866 299.44 199.272 299.818 198.318L301.384 198.516C300.97 199.974 299.584 201.216 297.37 201.216ZM297.388 193.332C295.858 193.332 294.814 194.25 294.742 195.798H299.908C299.872 194.61 299.026 193.332 297.388 193.332Z" fill="#1B1B1B"/>
</svg>
