<svg width="325" height="231" viewBox="0 0 325 231" fill="none" xmlns="http://www.w3.org/2000/svg">
<rect width="325" height="231" fill="#EEEEEE"/>
<path d="M47.73 91.57C47.73 101.69 54 108.18 63.79 108.18C73.36 108.18 80.07 101.58 80.07 91.57C80.07 81.67 73.47 74.85 63.9 74.85C54.22 74.85 47.73 81.67 47.73 91.57ZM64.78 48.78C53.34 48.78 47.07 59.56 46.52 76.5C49.93 70.78 56.31 66.38 66.1 66.38C79.85 66.38 89.97 76.5 89.97 91.13C89.97 104.77 79.74 116.32 63.9 116.32C45.42 116.32 36.95 103.67 36.95 81.12C36.95 60.33 44.43 40.64 65.88 40.64C80.4 40.64 87.22 49.55 88.76 58.79L78.64 58.9C77.43 52.3 72.37 48.78 64.78 48.78ZM124.869 108.18C133.779 108.18 141.369 102.24 141.369 91.02C141.369 78.92 132.789 73.97 124.649 73.97C117.279 73.97 111.999 78.15 110.349 81.78L100.999 81.34L105.839 41.96H148.409V50.98H113.429L110.789 71.33C114.749 67.59 120.689 65.83 126.849 65.83C139.829 65.83 151.269 74.85 151.269 90.91C151.269 107.63 138.619 116.32 124.759 116.32C107.599 116.32 99.7892 105.43 98.3592 94.21L107.929 93.44C109.359 102.46 114.419 108.18 124.869 108.18ZM174.089 84.42C162.759 84.42 157.259 75.62 157.259 62.75C157.259 49.77 162.759 41.19 174.089 41.19C185.309 41.19 190.809 49.77 190.809 62.75C190.809 75.62 185.309 84.42 174.089 84.42ZM174.089 78.59C180.029 78.59 183.219 73.09 183.219 62.75C183.219 52.3 180.029 47.02 174.089 47.02C168.039 47.02 164.849 52.3 164.849 62.75C164.849 73.09 168.039 78.59 174.089 78.59ZM169.579 115H179.919L231.069 41.96H220.729L169.579 115ZM226.669 115.77C215.339 115.77 209.839 106.97 209.839 94.1C209.839 81.12 215.339 72.54 226.669 72.54C237.889 72.54 243.389 81.12 243.389 94.1C243.389 106.97 237.889 115.77 226.669 115.77ZM226.669 109.94C232.609 109.94 235.799 104.44 235.799 94.1C235.799 83.65 232.609 78.37 226.669 78.37C220.619 78.37 217.429 83.65 217.429 94.1C217.429 104.44 220.619 109.94 226.669 109.94Z" fill="#1B1B1B"/>
<path d="M33.736 172.598C33.736 174.39 34.59 175.132 35.71 175.132C36.83 175.132 37.684 174.39 37.684 172.598C37.684 170.806 36.83 170.064 35.71 170.064C34.59 170.064 33.736 170.806 33.736 172.598ZM32.476 172.598C32.476 170.134 34.03 169.028 35.71 169.028C37.39 169.028 38.944 170.134 38.944 172.598C38.944 175.062 37.39 176.168 35.71 176.168C34.03 176.168 32.476 175.062 32.476 172.598ZM40.5158 169.14V168.636C40.5158 167.18 40.8238 166.704 42.4058 166.704H43.0218V167.712H42.4338C41.8178 167.712 41.7058 167.894 41.7058 168.622V169.14H43.0218V170.12H41.7058V176H40.5158V170.12H39.5498V169.14H40.5158ZM48.2822 175.16V178.422H47.0922V169.14H48.2542L48.2822 170.134C48.7162 169.476 49.3602 169.028 50.5082 169.028C52.1602 169.028 53.3642 170.372 53.3642 172.612C53.3642 174.824 52.1182 176.168 50.3682 176.168C49.3742 176.168 48.6602 175.748 48.2822 175.16ZM50.2002 170.064C49.1502 170.064 48.2262 170.834 48.2262 172.612C48.2262 174.39 49.1082 175.132 50.2002 175.132C51.4462 175.132 52.1042 174.194 52.1042 172.612C52.1042 171.016 51.4602 170.064 50.2002 170.064ZM59.0038 176V175.02C58.6258 175.664 58.0238 176.154 56.8478 176.154C56.0078 176.154 55.4198 175.846 55.0558 175.356C54.7198 174.908 54.5798 174.25 54.5798 173.396V169.14H55.7698V173.018C55.7698 173.718 55.8398 174.166 55.9938 174.474C56.2178 174.936 56.6658 175.118 57.2818 175.118C58.3598 175.118 59.0038 174.32 59.0038 172.878V169.14H60.1938V176H59.0038ZM65.4193 169.112V170.372C65.1673 170.344 64.9573 170.33 64.7613 170.33C63.6693 170.33 63.1233 170.932 63.1233 172.472V176H61.9333V169.14H63.0953V170.358C63.4453 169.574 64.1593 169.126 65.0693 169.098C65.1813 169.098 65.2933 169.098 65.4193 169.112ZM69.1477 169.028C70.8557 169.028 71.8777 170.232 72.0317 171.296L70.8277 171.464C70.6597 170.61 69.9877 170.078 69.0637 170.078C67.9717 170.078 67.0757 170.89 67.0757 172.57C67.0757 174.278 67.9857 175.118 69.0637 175.118C70.0717 175.118 70.7157 174.502 70.8837 173.746L72.1017 173.9C71.8777 175.104 70.6737 176.168 69.0357 176.168C66.9917 176.168 65.8157 174.642 65.8157 172.584C65.8157 170.568 67.0337 169.028 69.1477 169.028ZM74.4234 166.704V170.092C74.8154 169.49 75.5014 169.028 76.6774 169.028C77.6014 169.028 78.2454 169.378 78.6094 169.966C78.8754 170.4 78.9874 170.974 78.9874 171.786V176H77.7974V172.108C77.7974 171.38 77.7134 170.946 77.5454 170.652C77.2934 170.232 76.8734 170.064 76.2714 170.064C75.1234 170.064 74.4234 170.848 74.4234 172.346V176H73.2334V166.704H74.4234ZM81.6209 171.254L80.4589 171.212C80.5429 169.798 81.7889 169.014 83.3289 169.014C85.2749 169.014 86.0729 169.77 86.0449 171.618L86.0169 173.354C86.0029 174.432 86.0729 175.09 86.1569 176H85.0089L84.9669 175.034C84.5469 175.72 83.8749 176.168 82.6569 176.168C81.0609 176.168 80.2349 175.118 80.2349 173.942C80.2349 173.2 80.6129 172.696 81.1589 172.388C81.8169 172.024 82.6429 171.884 83.5249 171.786L84.8549 171.646V171.394C84.8549 170.274 84.1829 169.98 83.2729 169.98C82.1949 169.98 81.6909 170.498 81.6209 171.254ZM84.9389 173.032V172.626L83.5109 172.766C82.1669 172.892 81.4949 173.214 81.4949 173.984C81.4949 174.712 82.0689 175.132 82.8809 175.132C83.8469 175.132 84.9389 174.614 84.9389 173.032ZM92.914 171.002L91.682 171.114C91.5 170.316 90.842 170.022 89.974 170.022C89.232 170.022 88.504 170.288 88.504 170.862C88.504 171.394 88.91 171.618 89.638 171.772L90.464 171.94C91.752 172.206 92.956 172.668 92.956 174.026C92.956 175.398 91.71 176.168 90.1 176.168C88.266 176.168 87.258 175.02 87.132 173.942L88.378 173.83C88.56 174.656 89.092 175.174 90.128 175.174C91.08 175.174 91.752 174.754 91.752 174.152C91.752 173.522 91.052 173.214 90.254 173.046L89.358 172.864C88.364 172.668 87.314 172.234 87.314 170.932C87.314 169.728 88.63 169.028 90.1 169.028C91.64 169.028 92.648 169.826 92.914 171.002ZM94.2646 169.14H95.4546V176H94.2646V169.14ZM94.2646 166.704H95.4546V168.132H94.2646V166.704ZM98.3771 169.14V170.092C98.7691 169.49 99.4551 169.028 100.631 169.028C101.555 169.028 102.199 169.378 102.563 169.966C102.829 170.4 102.941 170.974 102.941 171.786V176H101.751V172.108C101.751 171.38 101.667 170.946 101.499 170.652C101.247 170.232 100.827 170.064 100.225 170.064C99.0771 170.064 98.3771 170.848 98.3771 172.346V176H97.1871V169.14H98.3771ZM109.131 175.398V174.782C108.697 175.44 108.109 175.888 106.961 175.888C105.309 175.888 104.105 174.628 104.105 172.444C104.105 170.288 105.351 169.028 107.101 169.028C108.095 169.028 108.753 169.448 109.131 170.036L109.159 169.14H110.321V175.132C110.321 176.56 110.111 177.148 109.719 177.582C109.201 178.17 108.333 178.506 107.297 178.506C105.701 178.506 104.637 177.778 104.413 176.406L105.673 176.364C105.841 176.994 106.219 177.47 107.311 177.47C107.941 177.47 108.431 177.288 108.739 176.952C108.991 176.672 109.131 176.35 109.131 175.398ZM107.269 174.852C108.319 174.852 109.187 174.166 109.187 172.444C109.187 170.722 108.361 170.064 107.269 170.064C106.023 170.064 105.365 170.918 105.365 172.444C105.365 173.984 106.009 174.852 107.269 174.852ZM120.802 166.704V176H119.654L119.612 175.062C119.178 175.72 118.534 176.168 117.386 176.168C115.734 176.168 114.53 174.824 114.53 172.584C114.53 170.372 115.776 169.028 117.526 169.028C118.52 169.028 119.234 169.448 119.612 170.036V166.704H120.802ZM117.694 175.132C118.744 175.132 119.668 174.362 119.668 172.584C119.668 170.806 118.786 170.064 117.694 170.064C116.448 170.064 115.79 171.002 115.79 172.584C115.79 174.18 116.434 175.132 117.694 175.132ZM125.391 176.168C123.151 176.168 122.073 174.6 122.073 172.598C122.073 170.456 123.459 169.028 125.405 169.028C127.561 169.028 128.793 170.736 128.625 172.948H123.333C123.333 174.292 124.201 175.118 125.363 175.118C126.455 175.118 127.001 174.656 127.295 173.914L128.513 174.068C128.191 175.202 127.113 176.168 125.391 176.168ZM125.405 170.036C124.215 170.036 123.403 170.75 123.347 171.954H127.365C127.337 171.03 126.679 170.036 125.405 170.036ZM132.771 169.028C134.479 169.028 135.501 170.232 135.655 171.296L134.451 171.464C134.283 170.61 133.611 170.078 132.687 170.078C131.595 170.078 130.699 170.89 130.699 172.57C130.699 174.278 131.609 175.118 132.687 175.118C133.695 175.118 134.339 174.502 134.507 173.746L135.725 173.9C135.501 175.104 134.297 176.168 132.659 176.168C130.615 176.168 129.439 174.642 129.439 172.584C129.439 170.568 130.657 169.028 132.771 169.028ZM136.857 169.14H138.047V176H136.857V169.14ZM136.857 166.704H138.047V168.132H136.857V166.704ZM145.015 171.002L143.783 171.114C143.601 170.316 142.943 170.022 142.075 170.022C141.333 170.022 140.605 170.288 140.605 170.862C140.605 171.394 141.011 171.618 141.739 171.772L142.565 171.94C143.853 172.206 145.057 172.668 145.057 174.026C145.057 175.398 143.811 176.168 142.201 176.168C140.367 176.168 139.359 175.02 139.233 173.942L140.479 173.83C140.661 174.656 141.193 175.174 142.229 175.174C143.181 175.174 143.853 174.754 143.853 174.152C143.853 173.522 143.153 173.214 142.355 173.046L141.459 172.864C140.465 172.668 139.415 172.234 139.415 170.932C139.415 169.728 140.731 169.028 142.201 169.028C143.741 169.028 144.749 169.826 145.015 171.002ZM146.366 169.14H147.556V176H146.366V169.14ZM146.366 166.704H147.556V168.132H146.366V166.704ZM150.086 172.598C150.086 174.39 150.94 175.132 152.06 175.132C153.18 175.132 154.034 174.39 154.034 172.598C154.034 170.806 153.18 170.064 152.06 170.064C150.94 170.064 150.086 170.806 150.086 172.598ZM148.826 172.598C148.826 170.134 150.38 169.028 152.06 169.028C153.74 169.028 155.294 170.134 155.294 172.598C155.294 175.062 153.74 176.168 152.06 176.168C150.38 176.168 148.826 175.062 148.826 172.598ZM157.762 169.14V170.092C158.154 169.49 158.84 169.028 160.016 169.028C160.94 169.028 161.584 169.378 161.948 169.966C162.214 170.4 162.326 170.974 162.326 171.786V176H161.136V172.108C161.136 171.38 161.052 170.946 160.884 170.652C160.632 170.232 160.212 170.064 159.61 170.064C158.462 170.064 157.762 170.848 157.762 172.346V176H156.572V169.14H157.762ZM169.188 171.002L167.956 171.114C167.774 170.316 167.116 170.022 166.248 170.022C165.506 170.022 164.778 170.288 164.778 170.862C164.778 171.394 165.184 171.618 165.912 171.772L166.738 171.94C168.026 172.206 169.23 172.668 169.23 174.026C169.23 175.398 167.984 176.168 166.374 176.168C164.54 176.168 163.532 175.02 163.406 173.942L164.652 173.83C164.834 174.656 165.366 175.174 166.402 175.174C167.354 175.174 168.026 174.754 168.026 174.152C168.026 173.522 167.326 173.214 166.528 173.046L165.632 172.864C164.638 172.668 163.588 172.234 163.588 170.932C163.588 169.728 164.904 169.028 166.374 169.028C167.914 169.028 168.922 169.826 169.188 171.002ZM174.482 171.254L173.32 171.212C173.404 169.798 174.65 169.014 176.19 169.014C178.136 169.014 178.934 169.77 178.906 171.618L178.878 173.354C178.864 174.432 178.934 175.09 179.018 176H177.87L177.828 175.034C177.408 175.72 176.736 176.168 175.518 176.168C173.922 176.168 173.096 175.118 173.096 173.942C173.096 173.2 173.474 172.696 174.02 172.388C174.678 172.024 175.504 171.884 176.386 171.786L177.716 171.646V171.394C177.716 170.274 177.044 169.98 176.134 169.98C175.056 169.98 174.552 170.498 174.482 171.254ZM177.8 173.032V172.626L176.372 172.766C175.028 172.892 174.356 173.214 174.356 173.984C174.356 174.712 174.93 175.132 175.742 175.132C176.708 175.132 177.8 174.614 177.8 173.032ZM184.026 169.112V170.372C183.774 170.344 183.564 170.33 183.368 170.33C182.276 170.33 181.73 170.932 181.73 172.472V176H180.54V169.14H181.702V170.358C182.052 169.574 182.766 169.126 183.676 169.098C183.788 169.098 183.9 169.098 184.026 169.112ZM187.74 176.168C185.5 176.168 184.422 174.6 184.422 172.598C184.422 170.456 185.808 169.028 187.754 169.028C189.91 169.028 191.142 170.736 190.974 172.948H185.682C185.682 174.292 186.55 175.118 187.712 175.118C188.804 175.118 189.35 174.656 189.644 173.914L190.862 174.068C190.54 175.202 189.462 176.168 187.74 176.168ZM187.754 170.036C186.564 170.036 185.752 170.75 185.696 171.954H189.714C189.686 171.03 189.028 170.036 187.754 170.036ZM195.118 176V169.14H196.308V170.092C196.672 169.476 197.302 169.028 198.436 169.028C199.528 169.028 200.074 169.504 200.396 170.218C200.914 169.434 201.67 169.028 202.804 169.028C203.532 169.028 204.078 169.294 204.442 169.672C204.862 170.12 205.044 170.82 205.044 171.786V176H203.854V172.122C203.854 171.282 203.742 170.75 203.462 170.456C203.21 170.19 202.846 170.064 202.37 170.064C201.334 170.064 200.676 170.862 200.676 172.304V176H199.486V172.122C199.486 171.282 199.374 170.75 199.094 170.456C198.842 170.19 198.478 170.064 198.002 170.064C196.966 170.064 196.308 170.862 196.308 172.304V176H195.118ZM207.675 171.254L206.513 171.212C206.597 169.798 207.843 169.014 209.383 169.014C211.329 169.014 212.127 169.77 212.099 171.618L212.071 173.354C212.057 174.432 212.127 175.09 212.211 176H211.063L211.021 175.034C210.601 175.72 209.929 176.168 208.711 176.168C207.115 176.168 206.289 175.118 206.289 173.942C206.289 173.2 206.667 172.696 207.213 172.388C207.871 172.024 208.697 171.884 209.579 171.786L210.909 171.646V171.394C210.909 170.274 210.237 169.98 209.327 169.98C208.249 169.98 207.745 170.498 207.675 171.254ZM210.993 173.032V172.626L209.565 172.766C208.221 172.892 207.549 173.214 207.549 173.984C207.549 174.712 208.123 175.132 208.935 175.132C209.901 175.132 210.993 174.614 210.993 173.032ZM219.542 166.704V176H218.394L218.352 175.062C217.918 175.72 217.274 176.168 216.126 176.168C214.474 176.168 213.27 174.824 213.27 172.584C213.27 170.372 214.516 169.028 216.266 169.028C217.26 169.028 217.974 169.448 218.352 170.036V166.704H219.542ZM216.434 175.132C217.484 175.132 218.408 174.362 218.408 172.584C218.408 170.806 217.526 170.064 216.434 170.064C215.188 170.064 214.53 171.002 214.53 172.584C214.53 174.18 215.174 175.132 216.434 175.132ZM224.132 176.168C221.892 176.168 220.814 174.6 220.814 172.598C220.814 170.456 222.2 169.028 224.146 169.028C226.302 169.028 227.534 170.736 227.366 172.948H222.074C222.074 174.292 222.942 175.118 224.104 175.118C225.196 175.118 225.742 174.656 226.036 173.914L227.254 174.068C226.932 175.202 225.854 176.168 224.132 176.168ZM224.146 170.036C222.956 170.036 222.144 170.75 222.088 171.954H226.106C226.078 171.03 225.42 170.036 224.146 170.036ZM231.509 169.14H232.699V176H231.509V169.14ZM231.509 166.704H232.699V168.132H231.509V166.704ZM235.622 169.14V170.092C236.014 169.49 236.7 169.028 237.876 169.028C238.8 169.028 239.444 169.378 239.808 169.966C240.074 170.4 240.186 170.974 240.186 171.786V176H238.996V172.108C238.996 171.38 238.912 170.946 238.744 170.652C238.492 170.232 238.072 170.064 237.47 170.064C236.322 170.064 235.622 170.848 235.622 172.346V176H234.432V169.14H235.622ZM245.084 169.14V167.25H246.274V169.14H247.59V170.12H246.274V174.082C246.274 174.81 246.316 174.992 247.002 174.992H247.59V176H246.736C245.392 176 245.084 175.706 245.084 174.25V170.12H243.978V169.14H245.084ZM250.022 166.704V170.092C250.414 169.49 251.1 169.028 252.276 169.028C253.2 169.028 253.844 169.378 254.208 169.966C254.474 170.4 254.586 170.974 254.586 171.786V176H253.396V172.108C253.396 171.38 253.312 170.946 253.144 170.652C252.892 170.232 252.472 170.064 251.87 170.064C250.722 170.064 250.022 170.848 250.022 172.346V176H248.832V166.704H250.022ZM259.068 176.168C256.828 176.168 255.75 174.6 255.75 172.598C255.75 170.456 257.136 169.028 259.082 169.028C261.238 169.028 262.47 170.736 262.302 172.948H257.01C257.01 174.292 257.878 175.118 259.04 175.118C260.132 175.118 260.678 174.656 260.972 173.914L262.19 174.068C261.868 175.202 260.79 176.168 259.068 176.168ZM259.082 170.036C257.892 170.036 257.08 170.75 257.024 171.954H261.042C261.014 171.03 260.356 170.036 259.082 170.036ZM33.232 187.14V186.636C33.232 185.18 33.54 184.704 35.122 184.704H35.738V185.712H35.15C34.534 185.712 34.422 185.894 34.422 186.622V187.14H35.738V188.12H34.422V194H33.232V188.12H32.266V187.14H33.232ZM37.012 187.14H38.202V194H37.012V187.14ZM37.012 184.704H38.202V186.132H37.012V184.704ZM40.2707 187.14V185.25H41.4607V187.14H42.7767V188.12H41.4607V192.082C41.4607 192.81 41.5027 192.992 42.1887 192.992H42.7767V194H41.9227C40.5787 194 40.2707 193.706 40.2707 192.25V188.12H39.1647V187.14H40.2707ZM44.4987 187.14V185.25H45.6887V187.14H47.0047V188.12H45.6887V192.082C45.6887 192.81 45.7307 192.992 46.4167 192.992H47.0047V194H46.1507C44.8067 194 44.4987 193.706 44.4987 192.25V188.12H43.3927V187.14H44.4987ZM48.2439 187.14H49.4339V194H48.2439V187.14ZM48.2439 184.704H49.4339V186.132H48.2439V184.704ZM52.3564 187.14V188.092C52.7484 187.49 53.4344 187.028 54.6104 187.028C55.5344 187.028 56.1784 187.378 56.5424 187.966C56.8084 188.4 56.9204 188.974 56.9204 189.786V194H55.7304V190.108C55.7304 189.38 55.6464 188.946 55.4784 188.652C55.2264 188.232 54.8064 188.064 54.2044 188.064C53.0564 188.064 52.3564 188.848 52.3564 190.346V194H51.1664V187.14H52.3564ZM63.11 193.398V192.782C62.676 193.44 62.088 193.888 60.94 193.888C59.288 193.888 58.084 192.628 58.084 190.444C58.084 188.288 59.33 187.028 61.08 187.028C62.074 187.028 62.732 187.448 63.11 188.036L63.138 187.14H64.3V193.132C64.3 194.56 64.09 195.148 63.698 195.582C63.18 196.17 62.312 196.506 61.276 196.506C59.68 196.506 58.616 195.778 58.392 194.406L59.652 194.364C59.82 194.994 60.198 195.47 61.29 195.47C61.92 195.47 62.41 195.288 62.718 194.952C62.97 194.672 63.11 194.35 63.11 193.398ZM61.248 192.852C62.298 192.852 63.166 192.166 63.166 190.444C63.166 188.722 62.34 188.064 61.248 188.064C60.002 188.064 59.344 188.918 59.344 190.444C59.344 191.984 59.988 192.852 61.248 192.852ZM72.457 187.112V188.372C72.205 188.344 71.995 188.33 71.799 188.33C70.707 188.33 70.161 188.932 70.161 190.472V194H68.971V187.14H70.133V188.358C70.483 187.574 71.197 187.126 72.107 187.098C72.219 187.098 72.331 187.098 72.457 187.112ZM74.1134 190.598C74.1134 192.39 74.9674 193.132 76.0874 193.132C77.2074 193.132 78.0614 192.39 78.0614 190.598C78.0614 188.806 77.2074 188.064 76.0874 188.064C74.9674 188.064 74.1134 188.806 74.1134 190.598ZM72.8534 190.598C72.8534 188.134 74.4074 187.028 76.0874 187.028C77.7674 187.028 79.3214 188.134 79.3214 190.598C79.3214 193.062 77.7674 194.168 76.0874 194.168C74.4074 194.168 72.8534 193.062 72.8534 190.598ZM81.5066 190.598C81.5066 192.39 82.3606 193.132 83.4806 193.132C84.6006 193.132 85.4546 192.39 85.4546 190.598C85.4546 188.806 84.6006 188.064 83.4806 188.064C82.3606 188.064 81.5066 188.806 81.5066 190.598ZM80.2466 190.598C80.2466 188.134 81.8006 187.028 83.4806 187.028C85.1606 187.028 86.7146 188.134 86.7146 190.598C86.7146 193.062 85.1606 194.168 83.4806 194.168C81.8006 194.168 80.2466 193.062 80.2466 190.598ZM87.9925 194V187.14H89.1825V188.092C89.5465 187.476 90.1765 187.028 91.3105 187.028C92.4025 187.028 92.9485 187.504 93.2705 188.218C93.7885 187.434 94.5445 187.028 95.6785 187.028C96.4065 187.028 96.9525 187.294 97.3165 187.672C97.7365 188.12 97.9185 188.82 97.9185 189.786V194H96.7285V190.122C96.7285 189.282 96.6165 188.75 96.3365 188.456C96.0845 188.19 95.7205 188.064 95.2445 188.064C94.2085 188.064 93.5505 188.862 93.5505 190.304V194H92.3605V190.122C92.3605 189.282 92.2485 188.75 91.9685 188.456C91.7165 188.19 91.3525 188.064 90.8765 188.064C89.8405 188.064 89.1825 188.862 89.1825 190.304V194H87.9925Z" fill="#1B1B1B"/>
</svg>
