<svg width="325" height="231" viewBox="0 0 325 231" fill="none" xmlns="http://www.w3.org/2000/svg">
<rect width="325" height="231" fill="#EEEEEE"/>
<path d="M33.1 51.09V41.96H84.47V51.09C66.1 65.94 54.77 87.28 53.01 115H41.79C43.44 88.38 55.21 67.04 73.58 51.09H33.1ZM114.342 108.18C123.252 108.18 130.842 102.24 130.842 91.02C130.842 78.92 122.262 73.97 114.122 73.97C106.752 73.97 101.472 78.15 99.8219 81.78L90.4719 81.34L95.3119 41.96H137.882V50.98H102.902L100.262 71.33C104.222 67.59 110.162 65.83 116.322 65.83C129.302 65.83 140.742 74.85 140.742 90.91C140.742 107.63 128.092 116.32 114.232 116.32C97.0719 116.32 89.2619 105.43 87.8319 94.21L97.4019 93.44C98.8319 102.46 103.892 108.18 114.342 108.18ZM163.562 84.42C152.232 84.42 146.732 75.62 146.732 62.75C146.732 49.77 152.232 41.19 163.562 41.19C174.782 41.19 180.282 49.77 180.282 62.75C180.282 75.62 174.782 84.42 163.562 84.42ZM163.562 78.59C169.502 78.59 172.692 73.09 172.692 62.75C172.692 52.3 169.502 47.02 163.562 47.02C157.512 47.02 154.322 52.3 154.322 62.75C154.322 73.09 157.512 78.59 163.562 78.59ZM159.052 115H169.392L220.542 41.96H210.202L159.052 115ZM216.142 115.77C204.812 115.77 199.312 106.97 199.312 94.1C199.312 81.12 204.812 72.54 216.142 72.54C227.362 72.54 232.862 81.12 232.862 94.1C232.862 106.97 227.362 115.77 216.142 115.77ZM216.142 109.94C222.082 109.94 225.272 104.44 225.272 94.1C225.272 83.65 222.082 78.37 216.142 78.37C210.092 78.37 206.902 83.65 206.902 94.1C206.902 104.44 210.092 109.94 216.142 109.94Z" fill="#1B1B1B"/>
<path d="M33.736 172.598C33.736 174.39 34.59 175.132 35.71 175.132C36.83 175.132 37.684 174.39 37.684 172.598C37.684 170.806 36.83 170.064 35.71 170.064C34.59 170.064 33.736 170.806 33.736 172.598ZM32.476 172.598C32.476 170.134 34.03 169.028 35.71 169.028C37.39 169.028 38.944 170.134 38.944 172.598C38.944 175.062 37.39 176.168 35.71 176.168C34.03 176.168 32.476 175.062 32.476 172.598ZM40.2218 176V166.704H41.4118V170.134C41.8458 169.476 42.4898 169.028 43.6378 169.028C45.2898 169.028 46.4938 170.372 46.4938 172.612C46.4938 174.824 45.2478 176.168 43.4978 176.168C42.5038 176.168 41.7898 175.748 41.4118 175.16L41.3558 176H40.2218ZM43.3298 170.064C42.2798 170.064 41.3558 170.834 41.3558 172.612C41.3558 174.39 42.2378 175.132 43.3298 175.132C44.5758 175.132 45.2338 174.194 45.2338 172.612C45.2338 171.016 44.5898 170.064 43.3298 170.064ZM53.0014 171.002L51.7694 171.114C51.5874 170.316 50.9294 170.022 50.0614 170.022C49.3194 170.022 48.5914 170.288 48.5914 170.862C48.5914 171.394 48.9974 171.618 49.7254 171.772L50.5514 171.94C51.8394 172.206 53.0434 172.668 53.0434 174.026C53.0434 175.398 51.7974 176.168 50.1874 176.168C48.3534 176.168 47.3454 175.02 47.2194 173.942L48.4654 173.83C48.6474 174.656 49.1794 175.174 50.2154 175.174C51.1674 175.174 51.8394 174.754 51.8394 174.152C51.8394 173.522 51.1394 173.214 50.3414 173.046L49.4454 172.864C48.4514 172.668 47.4014 172.234 47.4014 170.932C47.4014 169.728 48.7174 169.028 50.1874 169.028C51.7274 169.028 52.7354 169.826 53.0014 171.002ZM57.208 176.168C54.968 176.168 53.89 174.6 53.89 172.598C53.89 170.456 55.276 169.028 57.222 169.028C59.378 169.028 60.61 170.736 60.442 172.948H55.15C55.15 174.292 56.018 175.118 57.18 175.118C58.272 175.118 58.818 174.656 59.112 173.914L60.33 174.068C60.008 175.202 58.93 176.168 57.208 176.168ZM57.222 170.036C56.032 170.036 55.22 170.75 55.164 171.954H59.182C59.154 171.03 58.496 170.036 57.222 170.036ZM65.1355 169.112V170.372C64.8835 170.344 64.6735 170.33 64.4775 170.33C63.3855 170.33 62.8395 170.932 62.8395 172.472V176H61.6495V169.14H62.8115V170.358C63.1615 169.574 63.8755 169.126 64.7855 169.098C64.8975 169.098 65.0095 169.098 65.1355 169.112ZM66.5086 169.14L68.4126 174.362L70.3026 169.14H71.5346L68.8886 176H67.8386L65.1926 169.14H66.5086ZM75.163 176.168C72.923 176.168 71.845 174.6 71.845 172.598C71.845 170.456 73.231 169.028 75.177 169.028C77.333 169.028 78.565 170.736 78.397 172.948H73.105C73.105 174.292 73.973 175.118 75.135 175.118C76.227 175.118 76.773 174.656 77.067 173.914L78.285 174.068C77.963 175.202 76.885 176.168 75.163 176.168ZM75.177 170.036C73.987 170.036 73.175 170.75 73.119 171.954H77.137C77.109 171.03 76.451 170.036 75.177 170.036ZM85.4828 166.704V176H84.3348L84.2928 175.062C83.8588 175.72 83.2148 176.168 82.0668 176.168C80.4148 176.168 79.2108 174.824 79.2108 172.584C79.2108 170.372 80.4568 169.028 82.2068 169.028C83.2008 169.028 83.9148 169.448 84.2928 170.036V166.704H85.4828ZM82.3748 175.132C83.4248 175.132 84.3488 174.362 84.3488 172.584C84.3488 170.806 83.4668 170.064 82.3748 170.064C81.1288 170.064 80.4708 171.002 80.4708 172.584C80.4708 174.18 81.1148 175.132 82.3748 175.132ZM91.0492 169.14V167.25H92.2392V169.14H93.5552V170.12H92.2392V174.082C92.2392 174.81 92.2812 174.992 92.9672 174.992H93.5552V176H92.7012C91.3572 176 91.0492 175.706 91.0492 174.25V170.12H89.9432V169.14H91.0492ZM95.9878 166.704V170.092C96.3798 169.49 97.0658 169.028 98.2418 169.028C99.1658 169.028 99.8098 169.378 100.174 169.966C100.44 170.4 100.552 170.974 100.552 171.786V176H99.3618V172.108C99.3618 171.38 99.2778 170.946 99.1098 170.652C98.8578 170.232 98.4378 170.064 97.8358 170.064C96.6878 170.064 95.9878 170.848 95.9878 172.346V176H94.7978V166.704H95.9878ZM103.185 171.254L102.023 171.212C102.107 169.798 103.353 169.014 104.893 169.014C106.839 169.014 107.637 169.77 107.609 171.618L107.581 173.354C107.567 174.432 107.637 175.09 107.721 176H106.573L106.531 175.034C106.111 175.72 105.439 176.168 104.221 176.168C102.625 176.168 101.799 175.118 101.799 173.942C101.799 173.2 102.177 172.696 102.723 172.388C103.381 172.024 104.207 171.884 105.089 171.786L106.419 171.646V171.394C106.419 170.274 105.747 169.98 104.837 169.98C103.759 169.98 103.255 170.498 103.185 171.254ZM106.503 173.032V172.626L105.075 172.766C103.731 172.892 103.059 173.214 103.059 173.984C103.059 174.712 103.633 175.132 104.445 175.132C105.411 175.132 106.503 174.614 106.503 173.032ZM109.578 169.14V167.25H110.768V169.14H112.084V170.12H110.768V174.082C110.768 174.81 110.81 174.992 111.496 174.992H112.084V176H111.23C109.886 176 109.578 175.706 109.578 174.25V170.12H108.472V169.14H109.578ZM119.133 169.028C120.841 169.028 121.863 170.232 122.017 171.296L120.813 171.464C120.645 170.61 119.973 170.078 119.049 170.078C117.957 170.078 117.061 170.89 117.061 172.57C117.061 174.278 117.971 175.118 119.049 175.118C120.057 175.118 120.701 174.502 120.869 173.746L122.087 173.9C121.863 175.104 120.659 176.168 119.021 176.168C116.977 176.168 115.801 174.642 115.801 172.584C115.801 170.568 117.019 169.028 119.133 169.028ZM127.587 176V175.02C127.209 175.664 126.607 176.154 125.431 176.154C124.591 176.154 124.003 175.846 123.639 175.356C123.303 174.908 123.163 174.25 123.163 173.396V169.14H124.353V173.018C124.353 173.718 124.423 174.166 124.577 174.474C124.801 174.936 125.249 175.118 125.865 175.118C126.943 175.118 127.587 174.32 127.587 172.878V169.14H128.777V176H127.587ZM135.752 171.002L134.52 171.114C134.338 170.316 133.68 170.022 132.812 170.022C132.07 170.022 131.342 170.288 131.342 170.862C131.342 171.394 131.748 171.618 132.476 171.772L133.302 171.94C134.59 172.206 135.794 172.668 135.794 174.026C135.794 175.398 134.548 176.168 132.938 176.168C131.104 176.168 130.096 175.02 129.97 173.942L131.216 173.83C131.398 174.656 131.93 175.174 132.966 175.174C133.918 175.174 134.59 174.754 134.59 174.152C134.59 173.522 133.89 173.214 133.092 173.046L132.196 172.864C131.202 172.668 130.152 172.234 130.152 170.932C130.152 169.728 131.468 169.028 132.938 169.028C134.478 169.028 135.486 169.826 135.752 171.002ZM137.642 169.14V167.25H138.832V169.14H140.148V170.12H138.832V174.082C138.832 174.81 138.874 174.992 139.56 174.992H140.148V176H139.294C137.95 176 137.642 175.706 137.642 174.25V170.12H136.536V169.14H137.642ZM142.194 172.598C142.194 174.39 143.048 175.132 144.168 175.132C145.288 175.132 146.142 174.39 146.142 172.598C146.142 170.806 145.288 170.064 144.168 170.064C143.048 170.064 142.194 170.806 142.194 172.598ZM140.934 172.598C140.934 170.134 142.488 169.028 144.168 169.028C145.848 169.028 147.402 170.134 147.402 172.598C147.402 175.062 145.848 176.168 144.168 176.168C142.488 176.168 140.934 175.062 140.934 172.598ZM148.68 176V169.14H149.87V170.092C150.234 169.476 150.864 169.028 151.998 169.028C153.09 169.028 153.636 169.504 153.958 170.218C154.476 169.434 155.232 169.028 156.366 169.028C157.094 169.028 157.64 169.294 158.004 169.672C158.424 170.12 158.606 170.82 158.606 171.786V176H157.416V172.122C157.416 171.282 157.304 170.75 157.024 170.456C156.772 170.19 156.408 170.064 155.932 170.064C154.896 170.064 154.238 170.862 154.238 172.304V176H153.048V172.122C153.048 171.282 152.936 170.75 152.656 170.456C152.404 170.19 152.04 170.064 151.564 170.064C150.528 170.064 149.87 170.862 149.87 172.304V176H148.68ZM163.085 176.168C160.845 176.168 159.767 174.6 159.767 172.598C159.767 170.456 161.153 169.028 163.099 169.028C165.255 169.028 166.487 170.736 166.319 172.948H161.027C161.027 174.292 161.895 175.118 163.057 175.118C164.149 175.118 164.695 174.656 164.989 173.914L166.207 174.068C165.885 175.202 164.807 176.168 163.085 176.168ZM163.099 170.036C161.909 170.036 161.097 170.75 161.041 171.954H165.059C165.031 171.03 164.373 170.036 163.099 170.036ZM171.013 169.112V170.372C170.761 170.344 170.551 170.33 170.355 170.33C169.263 170.33 168.717 170.932 168.717 172.472V176H167.527V169.14H168.689V170.358C169.039 169.574 169.753 169.126 170.663 169.098C170.775 169.098 170.887 169.098 171.013 169.112ZM177.175 171.002L175.943 171.114C175.761 170.316 175.103 170.022 174.235 170.022C173.493 170.022 172.765 170.288 172.765 170.862C172.765 171.394 173.171 171.618 173.899 171.772L174.725 171.94C176.013 172.206 177.217 172.668 177.217 174.026C177.217 175.398 175.971 176.168 174.361 176.168C172.527 176.168 171.519 175.02 171.393 173.942L172.639 173.83C172.821 174.656 173.353 175.174 174.389 175.174C175.341 175.174 176.013 174.754 176.013 174.152C176.013 173.522 175.313 173.214 174.515 173.046L173.619 172.864C172.625 172.668 171.575 172.234 171.575 170.932C171.575 169.728 172.891 169.028 174.361 169.028C175.901 169.028 176.909 169.826 177.175 171.002ZM182.26 172.598C182.26 174.39 183.114 175.132 184.234 175.132C185.354 175.132 186.208 174.39 186.208 172.598C186.208 170.806 185.354 170.064 184.234 170.064C183.114 170.064 182.26 170.806 182.26 172.598ZM181 172.598C181 170.134 182.554 169.028 184.234 169.028C185.914 169.028 187.468 170.134 187.468 172.598C187.468 175.062 185.914 176.168 184.234 176.168C182.554 176.168 181 175.062 181 172.598ZM189.04 169.14V168.636C189.04 167.18 189.348 166.704 190.93 166.704H191.546V167.712H190.958C190.342 167.712 190.23 167.894 190.23 168.622V169.14H191.546V170.12H190.23V176H189.04V170.12H188.074V169.14H189.04ZM193.156 169.14V167.25H194.346V169.14H195.662V170.12H194.346V174.082C194.346 174.81 194.388 174.992 195.074 174.992H195.662V176H194.808C193.464 176 193.156 175.706 193.156 174.25V170.12H192.05V169.14H193.156ZM199.761 176.168C197.521 176.168 196.443 174.6 196.443 172.598C196.443 170.456 197.829 169.028 199.775 169.028C201.931 169.028 203.163 170.736 202.995 172.948H197.703C197.703 174.292 198.571 175.118 199.733 175.118C200.825 175.118 201.371 174.656 201.665 173.914L202.883 174.068C202.561 175.202 201.483 176.168 199.761 176.168ZM199.775 170.036C198.585 170.036 197.773 170.75 197.717 171.954H201.735C201.707 171.03 201.049 170.036 199.775 170.036ZM205.392 169.14V170.092C205.784 169.49 206.47 169.028 207.646 169.028C208.57 169.028 209.214 169.378 209.578 169.966C209.844 170.4 209.956 170.974 209.956 171.786V176H208.766V172.108C208.766 171.38 208.682 170.946 208.514 170.652C208.262 170.232 207.842 170.064 207.24 170.064C206.092 170.064 205.392 170.848 205.392 172.346V176H204.202V169.14H205.392ZM214.854 169.14V167.25H216.044V169.14H217.36V170.12H216.044V174.082C216.044 174.81 216.086 174.992 216.772 174.992H217.36V176H216.506C215.162 176 214.854 175.706 214.854 174.25V170.12H213.748V169.14H214.854ZM222.089 169.112V170.372C221.837 170.344 221.627 170.33 221.431 170.33C220.339 170.33 219.793 170.932 219.793 172.472V176H218.603V169.14H219.765V170.358C220.115 169.574 220.829 169.126 221.739 169.098C221.851 169.098 221.963 169.098 222.089 169.112ZM223.378 178.422H222.762V177.386H223.252C224.022 177.386 224.372 177.302 224.722 176.14L224.764 176L222.244 169.14H223.56L225.338 174.404L227.074 169.14H228.306L225.814 176.294C225.324 177.694 224.932 178.422 223.378 178.422ZM233.404 172.598C233.404 174.39 234.258 175.132 235.378 175.132C236.498 175.132 237.352 174.39 237.352 172.598C237.352 170.806 236.498 170.064 235.378 170.064C234.258 170.064 233.404 170.806 233.404 172.598ZM232.144 172.598C232.144 170.134 233.698 169.028 235.378 169.028C237.058 169.028 238.612 170.134 238.612 172.598C238.612 175.062 237.058 176.168 235.378 176.168C233.698 176.168 232.144 175.062 232.144 172.598ZM241.08 169.14V170.092C241.472 169.49 242.158 169.028 243.334 169.028C244.258 169.028 244.902 169.378 245.266 169.966C245.532 170.4 245.644 170.974 245.644 171.786V176H244.454V172.108C244.454 171.38 244.37 170.946 244.202 170.652C243.95 170.232 243.53 170.064 242.928 170.064C241.78 170.064 241.08 170.848 241.08 172.346V176H239.89V169.14H241.08ZM33.946 189.254L32.784 189.212C32.868 187.798 34.114 187.014 35.654 187.014C37.6 187.014 38.398 187.77 38.37 189.618L38.342 191.354C38.328 192.432 38.398 193.09 38.482 194H37.334L37.292 193.034C36.872 193.72 36.2 194.168 34.982 194.168C33.386 194.168 32.56 193.118 32.56 191.942C32.56 191.2 32.938 190.696 33.484 190.388C34.142 190.024 34.968 189.884 35.85 189.786L37.18 189.646V189.394C37.18 188.274 36.508 187.98 35.598 187.98C34.52 187.98 34.016 188.498 33.946 189.254ZM37.264 191.032V190.626L35.836 190.766C34.492 190.892 33.82 191.214 33.82 191.984C33.82 192.712 34.394 193.132 35.206 193.132C36.172 193.132 37.264 192.614 37.264 191.032ZM41.1931 187.14V188.092C41.5851 187.49 42.2711 187.028 43.4471 187.028C44.3711 187.028 45.0151 187.378 45.3791 187.966C45.6451 188.4 45.7571 188.974 45.7571 189.786V194H44.5671V190.108C44.5671 189.38 44.4831 188.946 44.3151 188.652C44.0631 188.232 43.6431 188.064 43.0411 188.064C41.8931 188.064 41.1931 188.848 41.1931 190.346V194H40.0031V187.14H41.1931ZM48.1806 190.598C48.1806 192.39 49.0346 193.132 50.1546 193.132C51.2746 193.132 52.1286 192.39 52.1286 190.598C52.1286 188.806 51.2746 188.064 50.1546 188.064C49.0346 188.064 48.1806 188.806 48.1806 190.598ZM46.9206 190.598C46.9206 188.134 48.4746 187.028 50.1546 187.028C51.8346 187.028 53.3886 188.134 53.3886 190.598C53.3886 193.062 51.8346 194.168 50.1546 194.168C48.4746 194.168 46.9206 193.062 46.9206 190.598ZM55.0024 187.14V185.25H56.1924V187.14H57.5084V188.12H56.1924V192.082C56.1924 192.81 56.2344 192.992 56.9204 192.992H57.5084V194H56.6544C55.3104 194 55.0024 193.706 55.0024 192.25V188.12H53.8964V187.14H55.0024ZM59.941 184.704V188.092C60.333 187.49 61.019 187.028 62.195 187.028C63.119 187.028 63.763 187.378 64.127 187.966C64.393 188.4 64.505 188.974 64.505 189.786V194H63.315V190.108C63.315 189.38 63.231 188.946 63.063 188.652C62.811 188.232 62.391 188.064 61.789 188.064C60.641 188.064 59.941 188.848 59.941 190.346V194H58.751V184.704H59.941ZM68.9866 194.168C66.7466 194.168 65.6686 192.6 65.6686 190.598C65.6686 188.456 67.0546 187.028 69.0006 187.028C71.1566 187.028 72.3886 188.736 72.2206 190.948H66.9286C66.9286 192.292 67.7966 193.118 68.9586 193.118C70.0506 193.118 70.5966 192.656 70.8906 191.914L72.1086 192.068C71.7866 193.202 70.7086 194.168 68.9866 194.168ZM69.0006 188.036C67.8106 188.036 66.9986 188.75 66.9426 189.954H70.9606C70.9326 189.03 70.2746 188.036 69.0006 188.036ZM76.9141 187.112V188.372C76.6621 188.344 76.4521 188.33 76.2561 188.33C75.1641 188.33 74.6181 188.932 74.6181 190.472V194H73.4281V187.14H74.5901V188.358C74.9401 187.574 75.6541 187.126 76.5641 187.098C76.6761 187.098 76.7881 187.098 76.9141 187.112ZM83.7153 187.028C85.4233 187.028 86.4453 188.232 86.5993 189.296L85.3953 189.464C85.2273 188.61 84.5553 188.078 83.6313 188.078C82.5393 188.078 81.6433 188.89 81.6433 190.57C81.6433 192.278 82.5533 193.118 83.6313 193.118C84.6393 193.118 85.2833 192.502 85.4513 191.746L86.6693 191.9C86.4453 193.104 85.2413 194.168 83.6033 194.168C81.5593 194.168 80.3833 192.642 80.3833 190.584C80.3833 188.568 81.6013 187.028 83.7153 187.028ZM88.6674 190.598C88.6674 192.39 89.5214 193.132 90.6414 193.132C91.7614 193.132 92.6154 192.39 92.6154 190.598C92.6154 188.806 91.7614 188.064 90.6414 188.064C89.5214 188.064 88.6674 188.806 88.6674 190.598ZM87.4074 190.598C87.4074 188.134 88.9614 187.028 90.6414 187.028C92.3214 187.028 93.8754 188.134 93.8754 190.598C93.8754 193.062 92.3214 194.168 90.6414 194.168C88.9614 194.168 87.4074 193.062 87.4074 190.598ZM96.3432 184.704V194H95.1532V184.704H96.3432ZM98.8737 190.598C98.8737 192.39 99.7277 193.132 100.848 193.132C101.968 193.132 102.822 192.39 102.822 190.598C102.822 188.806 101.968 188.064 100.848 188.064C99.7277 188.064 98.8737 188.806 98.8737 190.598ZM97.6137 190.598C97.6137 188.134 99.1677 187.028 100.848 187.028C102.528 187.028 104.082 188.134 104.082 190.598C104.082 193.062 102.528 194.168 100.848 194.168C99.1677 194.168 97.6137 193.062 97.6137 190.598ZM109.728 194V193.02C109.35 193.664 108.748 194.154 107.572 194.154C106.732 194.154 106.144 193.846 105.78 193.356C105.444 192.908 105.304 192.25 105.304 191.396V187.14H106.494V191.018C106.494 191.718 106.564 192.166 106.718 192.474C106.942 192.936 107.39 193.118 108.006 193.118C109.084 193.118 109.728 192.32 109.728 190.878V187.14H110.918V194H109.728ZM116.143 187.112V188.372C115.891 188.344 115.681 188.33 115.485 188.33C114.393 188.33 113.847 188.932 113.847 190.472V194H112.657V187.14H113.819V188.358C114.169 187.574 114.883 187.126 115.793 187.098C115.905 187.098 116.017 187.098 116.143 187.112ZM120.971 187.14V185.25H122.161V187.14H123.477V188.12H122.161V192.082C122.161 192.81 122.203 192.992 122.889 192.992H123.477V194H122.623C121.279 194 120.971 193.706 120.971 192.25V188.12H119.865V187.14H120.971ZM125.517 190.598C125.517 192.39 126.371 193.132 127.491 193.132C128.611 193.132 129.465 192.39 129.465 190.598C129.465 188.806 128.611 188.064 127.491 188.064C126.371 188.064 125.517 188.806 125.517 190.598ZM124.257 190.598C124.257 188.134 125.811 187.028 127.491 187.028C129.171 187.028 130.725 188.134 130.725 190.598C130.725 193.062 129.171 194.168 127.491 194.168C125.811 194.168 124.257 193.062 124.257 190.598ZM135.737 190.598C135.737 192.39 136.591 193.132 137.711 193.132C138.831 193.132 139.685 192.39 139.685 190.598C139.685 188.806 138.831 188.064 137.711 188.064C136.591 188.064 135.737 188.806 135.737 190.598ZM134.477 190.598C134.477 188.134 136.031 187.028 137.711 187.028C139.391 187.028 140.945 188.134 140.945 190.598C140.945 193.062 139.391 194.168 137.711 194.168C136.031 194.168 134.477 193.062 134.477 190.598ZM145.709 187.112V188.372C145.457 188.344 145.247 188.33 145.051 188.33C143.959 188.33 143.413 188.932 143.413 190.472V194H142.223V187.14H143.385V188.358C143.735 187.574 144.449 187.126 145.359 187.098C145.471 187.098 145.583 187.098 145.709 187.112ZM152.378 184.704V194H151.23L151.188 193.062C150.754 193.72 150.11 194.168 148.962 194.168C147.31 194.168 146.106 192.824 146.106 190.584C146.106 188.372 147.352 187.028 149.102 187.028C150.096 187.028 150.81 187.448 151.188 188.036V184.704H152.378ZM149.27 193.132C150.32 193.132 151.244 192.362 151.244 190.584C151.244 188.806 150.362 188.064 149.27 188.064C148.024 188.064 147.366 189.002 147.366 190.584C147.366 192.18 148.01 193.132 149.27 193.132ZM156.967 194.168C154.727 194.168 153.649 192.6 153.649 190.598C153.649 188.456 155.035 187.028 156.981 187.028C159.137 187.028 160.369 188.736 160.201 190.948H154.909C154.909 192.292 155.777 193.118 156.939 193.118C158.031 193.118 158.577 192.656 158.871 191.914L160.089 192.068C159.767 193.202 158.689 194.168 156.967 194.168ZM156.981 188.036C155.791 188.036 154.979 188.75 154.923 189.954H158.941C158.913 189.03 158.255 188.036 156.981 188.036ZM164.895 187.112V188.372C164.643 188.344 164.433 188.33 164.237 188.33C163.145 188.33 162.599 188.932 162.599 190.472V194H161.409V187.14H162.571V188.358C162.921 187.574 163.635 187.126 164.545 187.098C164.657 187.098 164.769 187.098 164.895 187.112ZM169.162 187.14V185.25H170.352V187.14H171.668V188.12H170.352V192.082C170.352 192.81 170.394 192.992 171.08 192.992H171.668V194H170.814C169.47 194 169.162 193.706 169.162 192.25V188.12H168.056V187.14H169.162ZM174.101 184.704V188.092C174.493 187.49 175.179 187.028 176.355 187.028C177.279 187.028 177.923 187.378 178.287 187.966C178.553 188.4 178.665 188.974 178.665 189.786V194H177.475V190.108C177.475 189.38 177.391 188.946 177.223 188.652C176.971 188.232 176.551 188.064 175.949 188.064C174.801 188.064 174.101 188.848 174.101 190.346V194H172.911V184.704H174.101ZM183.146 194.168C180.906 194.168 179.828 192.6 179.828 190.598C179.828 188.456 181.214 187.028 183.16 187.028C185.316 187.028 186.548 188.736 186.38 190.948H181.088C181.088 192.292 181.956 193.118 183.118 193.118C184.21 193.118 184.756 192.656 185.05 191.914L186.268 192.068C185.946 193.202 184.868 194.168 183.146 194.168ZM183.16 188.036C181.97 188.036 181.158 188.75 181.102 189.954H185.12C185.092 189.03 184.434 188.036 183.16 188.036ZM194.01 187.112V188.372C193.758 188.344 193.548 188.33 193.352 188.33C192.26 188.33 191.714 188.932 191.714 190.472V194H190.524V187.14H191.686V188.358C192.036 187.574 192.75 187.126 193.66 187.098C193.772 187.098 193.884 187.098 194.01 187.112ZM195.005 187.14H196.195V194H195.005V187.14ZM195.005 184.704H196.195V186.132H195.005V184.704ZM202.491 193.398V192.782C202.057 193.44 201.469 193.888 200.321 193.888C198.669 193.888 197.465 192.628 197.465 190.444C197.465 188.288 198.711 187.028 200.461 187.028C201.455 187.028 202.113 187.448 202.491 188.036L202.519 187.14H203.681V193.132C203.681 194.56 203.471 195.148 203.079 195.582C202.561 196.17 201.693 196.506 200.657 196.506C199.061 196.506 197.997 195.778 197.773 194.406L199.033 194.364C199.201 194.994 199.579 195.47 200.671 195.47C201.301 195.47 201.791 195.288 202.099 194.952C202.351 194.672 202.491 194.35 202.491 193.398ZM200.629 192.852C201.679 192.852 202.547 192.166 202.547 190.444C202.547 188.722 201.721 188.064 200.629 188.064C199.383 188.064 198.725 188.918 198.725 190.444C198.725 191.984 199.369 192.852 200.629 192.852ZM206.606 184.704V188.092C206.998 187.49 207.684 187.028 208.86 187.028C209.784 187.028 210.428 187.378 210.792 187.966C211.058 188.4 211.17 188.974 211.17 189.786V194H209.98V190.108C209.98 189.38 209.896 188.946 209.728 188.652C209.476 188.232 209.056 188.064 208.454 188.064C207.306 188.064 206.606 188.848 206.606 190.346V194H205.416V184.704H206.606ZM213.132 187.14V185.25H214.322V187.14H215.638V188.12H214.322V192.082C214.322 192.81 214.364 192.992 215.05 192.992H215.638V194H214.784C213.44 194 213.132 193.706 213.132 192.25V188.12H212.026V187.14H213.132ZM225.053 189.002L223.821 189.114C223.639 188.316 222.981 188.022 222.113 188.022C221.371 188.022 220.643 188.288 220.643 188.862C220.643 189.394 221.049 189.618 221.777 189.772L222.603 189.94C223.891 190.206 225.095 190.668 225.095 192.026C225.095 193.398 223.849 194.168 222.239 194.168C220.405 194.168 219.397 193.02 219.271 191.942L220.517 191.83C220.699 192.656 221.231 193.174 222.267 193.174C223.219 193.174 223.891 192.754 223.891 192.152C223.891 191.522 223.191 191.214 222.393 191.046L221.497 190.864C220.503 190.668 219.453 190.234 219.453 188.932C219.453 187.728 220.769 187.028 222.239 187.028C223.779 187.028 224.787 187.826 225.053 189.002ZM226.403 187.14H227.593V194H226.403V187.14ZM226.403 184.704H227.593V186.132H226.403V184.704ZM228.822 194V193.02L232.868 188.12H229.088V187.14H234.254V188.12L230.208 193.02H234.324V194H228.822ZM238.399 194.168C236.159 194.168 235.081 192.6 235.081 190.598C235.081 188.456 236.467 187.028 238.413 187.028C240.569 187.028 241.801 188.736 241.633 190.948H236.341C236.341 192.292 237.209 193.118 238.371 193.118C239.463 193.118 240.009 192.656 240.303 191.914L241.521 192.068C241.199 193.202 240.121 194.168 238.399 194.168ZM238.413 188.036C237.223 188.036 236.411 188.75 236.355 189.954H240.373C240.345 189.03 239.687 188.036 238.413 188.036Z" fill="#1B1B1B"/>
</svg>
