<svg width="325" height="292" viewBox="0 0 325 292" fill="none" xmlns="http://www.w3.org/2000/svg">
<rect width="325" height="292" fill="#EEEEEE"/>
<path d="M59.72 115H50.37V58.13H33.21V51.75C43.88 51.42 49.27 50.1 53.34 41.96H59.72V115ZM102.268 116.32C82.5777 116.32 73.4477 101.25 73.4477 78.15C73.4477 55.16 82.5777 40.64 102.268 40.64C121.958 40.64 131.198 55.16 131.198 78.15C131.198 101.25 121.958 116.32 102.268 116.32ZM102.268 108.18C113.928 108.18 121.298 98.39 121.298 78.15C121.298 57.91 113.928 48.78 102.268 48.78C90.6077 48.78 83.3477 57.91 83.3477 78.15C83.3477 98.39 90.6077 108.18 102.268 108.18ZM171.373 115H162.023V91.9H138.923V83.1H162.023V60.66H171.373V83.1H194.473V91.9H171.373V115Z" fill="#1B1B1B"/>
<path d="M35.15 146.048V158H33.44V146.048H35.15ZM39.1439 149.18V150.404C39.6479 149.63 40.5299 149.036 42.0419 149.036C43.2299 149.036 44.0579 149.486 44.5259 150.242C44.8679 150.8 45.0119 151.538 45.0119 152.582V158H43.4819V152.996C43.4819 152.06 43.3739 151.502 43.1579 151.124C42.8339 150.584 42.2939 150.368 41.5199 150.368C40.0439 150.368 39.1439 151.376 39.1439 153.302V158H37.6139V149.18H39.1439ZM51.9439 154.13H46.6159V152.69H51.9439V154.13ZM60.5972 151.574L59.0132 151.718C58.7792 150.692 57.9332 150.314 56.8172 150.314C55.8632 150.314 54.9272 150.656 54.9272 151.394C54.9272 152.078 55.4492 152.366 56.3852 152.564L57.4472 152.78C59.1032 153.122 60.6512 153.716 60.6512 155.462C60.6512 157.226 59.0492 158.216 56.9792 158.216C54.6212 158.216 53.3252 156.74 53.1632 155.354L54.7652 155.21C54.9992 156.272 55.6832 156.938 57.0152 156.938C58.2392 156.938 59.1032 156.398 59.1032 155.624C59.1032 154.814 58.2032 154.418 57.1772 154.202L56.0252 153.968C54.7472 153.716 53.3972 153.158 53.3972 151.484C53.3972 149.936 55.0892 149.036 56.9792 149.036C58.9592 149.036 60.2552 150.062 60.5972 151.574ZM63.0272 149.18V146.75H64.5572V149.18H66.2492V150.44H64.5572V155.534C64.5572 156.47 64.6112 156.704 65.4932 156.704H66.2492V158H65.1512C63.4232 158 63.0272 157.622 63.0272 155.75V150.44H61.6052V149.18H63.0272ZM68.8792 153.626C68.8792 155.93 69.9772 156.884 71.4172 156.884C72.8572 156.884 73.9552 155.93 73.9552 153.626C73.9552 151.322 72.8572 150.368 71.4172 150.368C69.9772 150.368 68.8792 151.322 68.8792 153.626ZM67.2592 153.626C67.2592 150.458 69.2572 149.036 71.4172 149.036C73.5772 149.036 75.5752 150.458 75.5752 153.626C75.5752 156.794 73.5772 158.216 71.4172 158.216C69.2572 158.216 67.2592 156.794 67.2592 153.626ZM81.7001 149.144V150.764C81.3761 150.728 81.1061 150.71 80.8541 150.71C79.4501 150.71 78.7481 151.484 78.7481 153.464V158H77.2181V149.18H78.7121V150.746C79.1621 149.738 80.0801 149.162 81.2501 149.126C81.3941 149.126 81.5381 149.126 81.7001 149.144ZM86.4757 158.216C83.5957 158.216 82.2097 156.2 82.2097 153.626C82.2097 150.872 83.9917 149.036 86.4937 149.036C89.2657 149.036 90.8497 151.232 90.6337 154.076H83.8297C83.8297 155.804 84.9457 156.866 86.4397 156.866C87.8437 156.866 88.5457 156.272 88.9237 155.318L90.4897 155.516C90.0757 156.974 88.6897 158.216 86.4757 158.216ZM86.4937 150.332C84.9637 150.332 83.9197 151.25 83.8477 152.798H89.0137C88.9777 151.61 88.1317 150.332 86.4937 150.332ZM102.693 151.574L101.109 151.718C100.875 150.692 100.029 150.314 98.9133 150.314C97.9593 150.314 97.0233 150.656 97.0233 151.394C97.0233 152.078 97.5453 152.366 98.4813 152.564L99.5433 152.78C101.199 153.122 102.747 153.716 102.747 155.462C102.747 157.226 101.145 158.216 99.0753 158.216C96.7173 158.216 95.4213 156.74 95.2593 155.354L96.8613 155.21C97.0953 156.272 97.7793 156.938 99.1113 156.938C100.335 156.938 101.199 156.398 101.199 155.624C101.199 154.814 100.299 154.418 99.2733 154.202L98.1213 153.968C96.8433 153.716 95.4933 153.158 95.4933 151.484C95.4933 149.936 97.1853 149.036 99.0753 149.036C101.055 149.036 102.351 150.062 102.693 151.574ZM108.102 158.216C105.222 158.216 103.836 156.2 103.836 153.626C103.836 150.872 105.618 149.036 108.12 149.036C110.892 149.036 112.476 151.232 112.26 154.076H105.456C105.456 155.804 106.572 156.866 108.066 156.866C109.47 156.866 110.172 156.272 110.55 155.318L112.116 155.516C111.702 156.974 110.316 158.216 108.102 158.216ZM108.12 150.332C106.59 150.332 105.546 151.25 105.474 152.798H110.64C110.604 151.61 109.758 150.332 108.12 150.332ZM118.294 149.144V150.764C117.97 150.728 117.7 150.71 117.448 150.71C116.044 150.71 115.342 151.484 115.342 153.464V158H113.812V149.18H115.306V150.746C115.756 149.738 116.674 149.162 117.844 149.126C117.988 149.126 118.132 149.126 118.294 149.144ZM120.06 149.18L122.508 155.894L124.938 149.18H126.522L123.12 158H121.77L118.368 149.18H120.06ZM127.55 149.18H129.08V158H127.55V149.18ZM127.55 146.048H129.08V147.884H127.55V146.048ZM134.997 149.036C137.193 149.036 138.507 150.584 138.705 151.952L137.157 152.168C136.941 151.07 136.077 150.386 134.889 150.386C133.485 150.386 132.333 151.43 132.333 153.59C132.333 155.786 133.503 156.866 134.889 156.866C136.185 156.866 137.013 156.074 137.229 155.102L138.795 155.3C138.507 156.848 136.959 158.216 134.853 158.216C132.225 158.216 130.713 156.254 130.713 153.608C130.713 151.016 132.279 149.036 134.997 149.036ZM144.01 158.216C141.13 158.216 139.744 156.2 139.744 153.626C139.744 150.872 141.526 149.036 144.028 149.036C146.8 149.036 148.384 151.232 148.168 154.076H141.364C141.364 155.804 142.48 156.866 143.974 156.866C145.378 156.866 146.08 156.272 146.458 155.318L148.024 155.516C147.61 156.974 146.224 158.216 144.01 158.216ZM144.028 150.332C142.498 150.332 141.454 151.25 141.382 152.798H146.548C146.512 151.61 145.666 150.332 144.028 150.332ZM156.488 151.574L154.904 151.718C154.67 150.692 153.824 150.314 152.708 150.314C151.754 150.314 150.818 150.656 150.818 151.394C150.818 152.078 151.34 152.366 152.276 152.564L153.338 152.78C154.994 153.122 156.542 153.716 156.542 155.462C156.542 157.226 154.94 158.216 152.87 158.216C150.512 158.216 149.216 156.74 149.054 155.354L150.656 155.21C150.89 156.272 151.574 156.938 152.906 156.938C154.13 156.938 154.994 156.398 154.994 155.624C154.994 154.814 154.094 154.418 153.068 154.202L151.916 153.968C150.638 153.716 149.288 153.158 149.288 151.484C149.288 149.936 150.98 149.036 152.87 149.036C154.85 149.036 156.146 150.062 156.488 151.574Z" fill="#1B1B1B"/>
<path d="M34.618 235.18L36.004 230.14H37.236L38.622 235.18L39.966 230.14H41.24L39.224 237H38.146L36.592 231.512L35.094 237H34.016L32 230.14H33.274L34.618 235.18ZM44.8962 237.168C42.6562 237.168 41.5782 235.6 41.5782 233.598C41.5782 231.456 42.9642 230.028 44.9102 230.028C47.0662 230.028 48.2982 231.736 48.1302 233.948H42.8382C42.8382 235.292 43.7062 236.118 44.8682 236.118C45.9602 236.118 46.5062 235.656 46.8002 234.914L48.0182 235.068C47.6962 236.202 46.6182 237.168 44.8962 237.168ZM44.9102 231.036C43.7202 231.036 42.9082 231.75 42.8522 232.954H46.8702C46.8422 232.03 46.1842 231.036 44.9102 231.036ZM52.8237 230.112V231.372C52.5717 231.344 52.3617 231.33 52.1657 231.33C51.0737 231.33 50.5277 231.932 50.5277 233.472V237H49.3377V230.14H50.4997V231.358C50.8497 230.574 51.5637 230.126 52.4737 230.098C52.5857 230.098 52.6977 230.098 52.8237 230.112ZM56.5381 237.168C54.2981 237.168 53.2201 235.6 53.2201 233.598C53.2201 231.456 54.6061 230.028 56.5521 230.028C58.7081 230.028 59.9401 231.736 59.7721 233.948H54.4801C54.4801 235.292 55.3481 236.118 56.5101 236.118C57.6021 236.118 58.1481 235.656 58.4421 234.914L59.6601 235.068C59.3381 236.202 58.2601 237.168 56.5381 237.168ZM56.5521 231.036C55.3621 231.036 54.5501 231.75 54.4941 232.954H58.5121C58.4841 232.03 57.8261 231.036 56.5521 231.036ZM69.1517 232.002L67.9197 232.114C67.7377 231.316 67.0797 231.022 66.2117 231.022C65.4697 231.022 64.7417 231.288 64.7417 231.862C64.7417 232.394 65.1477 232.618 65.8757 232.772L66.7017 232.94C67.9897 233.206 69.1937 233.668 69.1937 235.026C69.1937 236.398 67.9477 237.168 66.3377 237.168C64.5037 237.168 63.4957 236.02 63.3697 234.942L64.6157 234.83C64.7977 235.656 65.3297 236.174 66.3657 236.174C67.3177 236.174 67.9897 235.754 67.9897 235.152C67.9897 234.522 67.2897 234.214 66.4917 234.046L65.5957 233.864C64.6017 233.668 63.5517 233.234 63.5517 231.932C63.5517 230.728 64.8677 230.028 66.3377 230.028C67.8777 230.028 68.8857 230.826 69.1517 232.002ZM74.8703 237V236.02C74.4923 236.664 73.8903 237.154 72.7143 237.154C71.8743 237.154 71.2863 236.846 70.9223 236.356C70.5863 235.908 70.4463 235.25 70.4463 234.396V230.14H71.6363V234.018C71.6363 234.718 71.7063 235.166 71.8603 235.474C72.0843 235.936 72.5323 236.118 73.1483 236.118C74.2263 236.118 74.8703 235.32 74.8703 233.878V230.14H76.0603V237H74.8703ZM80.6698 230.028C82.3778 230.028 83.3998 231.232 83.5538 232.296L82.3498 232.464C82.1818 231.61 81.5098 231.078 80.5858 231.078C79.4938 231.078 78.5978 231.89 78.5978 233.57C78.5978 235.278 79.5078 236.118 80.5858 236.118C81.5938 236.118 82.2378 235.502 82.4058 234.746L83.6238 234.9C83.3998 236.104 82.1958 237.168 80.5578 237.168C78.5138 237.168 77.3378 235.642 77.3378 233.584C77.3378 231.568 78.5558 230.028 80.6698 230.028ZM87.6939 230.028C89.4019 230.028 90.4239 231.232 90.5779 232.296L89.3739 232.464C89.2059 231.61 88.5339 231.078 87.6099 231.078C86.5179 231.078 85.6219 231.89 85.6219 233.57C85.6219 235.278 86.5319 236.118 87.6099 236.118C88.6179 236.118 89.2619 235.502 89.4299 234.746L90.6479 234.9C90.4239 236.104 89.2199 237.168 87.5819 237.168C85.5379 237.168 84.3619 235.642 84.3619 233.584C84.3619 231.568 85.5799 230.028 87.6939 230.028ZM94.7039 237.168C92.4639 237.168 91.3859 235.6 91.3859 233.598C91.3859 231.456 92.7719 230.028 94.7179 230.028C96.8739 230.028 98.1059 231.736 97.9379 233.948H92.6459C92.6459 235.292 93.5139 236.118 94.6759 236.118C95.7679 236.118 96.3139 235.656 96.6079 234.914L97.8259 235.068C97.5039 236.202 96.4259 237.168 94.7039 237.168ZM94.7179 231.036C93.5279 231.036 92.7159 231.75 92.6599 232.954H96.6779C96.6499 232.03 95.9919 231.036 94.7179 231.036ZM104.409 232.002L103.177 232.114C102.995 231.316 102.337 231.022 101.469 231.022C100.727 231.022 99.9988 231.288 99.9988 231.862C99.9988 232.394 100.405 232.618 101.133 232.772L101.959 232.94C103.247 233.206 104.451 233.668 104.451 235.026C104.451 236.398 103.205 237.168 101.595 237.168C99.7608 237.168 98.7528 236.02 98.6268 234.942L99.8728 234.83C100.055 235.656 100.587 236.174 101.623 236.174C102.575 236.174 103.247 235.754 103.247 235.152C103.247 234.522 102.547 234.214 101.749 234.046L100.853 233.864C99.8588 233.668 98.8088 233.234 98.8088 231.932C98.8088 230.728 100.125 230.028 101.595 230.028C103.135 230.028 104.143 230.826 104.409 232.002ZM110.995 232.002L109.763 232.114C109.581 231.316 108.923 231.022 108.055 231.022C107.313 231.022 106.585 231.288 106.585 231.862C106.585 232.394 106.991 232.618 107.719 232.772L108.545 232.94C109.833 233.206 111.037 233.668 111.037 235.026C111.037 236.398 109.791 237.168 108.181 237.168C106.347 237.168 105.339 236.02 105.213 234.942L106.459 234.83C106.641 235.656 107.173 236.174 108.209 236.174C109.161 236.174 109.833 235.754 109.833 235.152C109.833 234.522 109.133 234.214 108.335 234.046L107.439 233.864C106.445 233.668 105.395 233.234 105.395 231.932C105.395 230.728 106.711 230.028 108.181 230.028C109.721 230.028 110.729 230.826 110.995 232.002ZM112.64 230.14V229.636C112.64 228.18 112.948 227.704 114.53 227.704H115.146V228.712H114.558C113.942 228.712 113.83 228.894 113.83 229.622V230.14H115.146V231.12H113.83V237H112.64V231.12H111.674V230.14H112.64ZM120.648 237V236.02C120.27 236.664 119.668 237.154 118.492 237.154C117.652 237.154 117.064 236.846 116.7 236.356C116.364 235.908 116.224 235.25 116.224 234.396V230.14H117.414V234.018C117.414 234.718 117.484 235.166 117.638 235.474C117.862 235.936 118.31 236.118 118.926 236.118C120.004 236.118 120.648 235.32 120.648 233.878V230.14H121.838V237H120.648ZM124.768 227.704V237H123.578V227.704H124.768ZM127.69 227.704V237H126.5V227.704H127.69ZM129.717 239.422H129.101V238.386H129.591C130.361 238.386 130.711 238.302 131.061 237.14L131.103 237L128.583 230.14H129.899L131.677 235.404L133.413 230.14H134.645L132.153 237.294C131.663 238.694 131.271 239.422 129.717 239.422ZM139.575 227.704V237H138.385V227.704H139.575ZM142.315 232.254L141.153 232.212C141.237 230.798 142.483 230.014 144.023 230.014C145.969 230.014 146.767 230.77 146.739 232.618L146.711 234.354C146.697 235.432 146.767 236.09 146.851 237H145.703L145.661 236.034C145.241 236.72 144.569 237.168 143.351 237.168C141.755 237.168 140.929 236.118 140.929 234.942C140.929 234.2 141.307 233.696 141.853 233.388C142.511 233.024 143.337 232.884 144.219 232.786L145.549 232.646V232.394C145.549 231.274 144.877 230.98 143.967 230.98C142.889 230.98 142.385 231.498 142.315 232.254ZM145.633 234.032V233.626L144.205 233.766C142.861 233.892 142.189 234.214 142.189 234.984C142.189 235.712 142.763 236.132 143.575 236.132C144.541 236.132 145.633 235.614 145.633 234.032ZM152.74 237V236.02C152.362 236.664 151.76 237.154 150.584 237.154C149.744 237.154 149.156 236.846 148.792 236.356C148.456 235.908 148.316 235.25 148.316 234.396V230.14H149.506V234.018C149.506 234.718 149.576 235.166 149.73 235.474C149.954 235.936 150.402 236.118 151.018 236.118C152.096 236.118 152.74 235.32 152.74 233.878V230.14H153.93V237H152.74ZM156.86 230.14V231.092C157.252 230.49 157.938 230.028 159.114 230.028C160.038 230.028 160.682 230.378 161.046 230.966C161.312 231.4 161.424 231.974 161.424 232.786V237H160.234V233.108C160.234 232.38 160.15 231.946 159.982 231.652C159.73 231.232 159.31 231.064 158.708 231.064C157.56 231.064 156.86 231.848 156.86 233.346V237H155.67V230.14H156.86ZM165.919 230.028C167.627 230.028 168.649 231.232 168.803 232.296L167.599 232.464C167.431 231.61 166.759 231.078 165.835 231.078C164.743 231.078 163.847 231.89 163.847 233.57C163.847 235.278 164.757 236.118 165.835 236.118C166.843 236.118 167.487 235.502 167.655 234.746L168.873 234.9C168.649 236.104 167.445 237.168 165.807 237.168C163.763 237.168 162.587 235.642 162.587 233.584C162.587 231.568 163.805 230.028 165.919 230.028ZM171.195 227.704V231.092C171.587 230.49 172.273 230.028 173.449 230.028C174.373 230.028 175.017 230.378 175.381 230.966C175.647 231.4 175.759 231.974 175.759 232.786V237H174.569V233.108C174.569 232.38 174.485 231.946 174.317 231.652C174.065 231.232 173.645 231.064 173.043 231.064C171.895 231.064 171.195 231.848 171.195 233.346V237H170.005V227.704H171.195ZM180.241 237.168C178.001 237.168 176.923 235.6 176.923 233.598C176.923 231.456 178.309 230.028 180.255 230.028C182.411 230.028 183.643 231.736 183.475 233.948H178.183C178.183 235.292 179.051 236.118 180.213 236.118C181.305 236.118 181.851 235.656 182.145 234.914L183.363 235.068C183.041 236.202 181.963 237.168 180.241 237.168ZM180.255 231.036C179.065 231.036 178.253 231.75 178.197 232.954H182.215C182.187 232.03 181.529 231.036 180.255 231.036ZM190.561 227.704V237H189.413L189.371 236.062C188.937 236.72 188.293 237.168 187.145 237.168C185.493 237.168 184.289 235.824 184.289 233.584C184.289 231.372 185.535 230.028 187.285 230.028C188.279 230.028 188.993 230.448 189.371 231.036V227.704H190.561ZM187.453 236.132C188.503 236.132 189.427 235.362 189.427 233.584C189.427 231.806 188.545 231.064 187.453 231.064C186.207 231.064 185.549 232.002 185.549 233.584C185.549 235.18 186.193 236.132 187.453 236.132ZM196.238 232.254L195.076 232.212C195.16 230.798 196.406 230.014 197.946 230.014C199.892 230.014 200.69 230.77 200.662 232.618L200.634 234.354C200.62 235.432 200.69 236.09 200.774 237H199.626L199.584 236.034C199.164 236.72 198.492 237.168 197.274 237.168C195.678 237.168 194.852 236.118 194.852 234.942C194.852 234.2 195.23 233.696 195.776 233.388C196.434 233.024 197.26 232.884 198.142 232.786L199.472 232.646V232.394C199.472 231.274 198.8 230.98 197.89 230.98C196.812 230.98 196.308 231.498 196.238 232.254ZM199.556 234.032V233.626L198.128 233.766C196.784 233.892 196.112 234.214 196.112 234.984C196.112 235.712 196.686 236.132 197.498 236.132C198.464 236.132 199.556 235.614 199.556 234.032ZM203.485 230.14V231.092C203.877 230.49 204.563 230.028 205.739 230.028C206.663 230.028 207.307 230.378 207.671 230.966C207.937 231.4 208.049 231.974 208.049 232.786V237H206.859V233.108C206.859 232.38 206.775 231.946 206.607 231.652C206.355 231.232 205.935 231.064 205.333 231.064C204.185 231.064 203.485 231.848 203.485 233.346V237H202.295V230.14H203.485ZM215.485 227.704V237H214.337L214.295 236.062C213.861 236.72 213.217 237.168 212.069 237.168C210.417 237.168 209.213 235.824 209.213 233.584C209.213 231.372 210.459 230.028 212.209 230.028C213.203 230.028 213.917 230.448 214.295 231.036V227.704H215.485ZM212.377 236.132C213.427 236.132 214.351 235.362 214.351 233.584C214.351 231.806 213.469 231.064 212.377 231.064C211.131 231.064 210.473 232.002 210.473 233.584C210.473 235.18 211.117 236.132 212.377 236.132ZM225.965 227.704V237H224.817L224.775 236.062C224.341 236.72 223.697 237.168 222.549 237.168C220.897 237.168 219.693 235.824 219.693 233.584C219.693 231.372 220.939 230.028 222.689 230.028C223.683 230.028 224.397 230.448 224.775 231.036V227.704H225.965ZM222.857 236.132C223.907 236.132 224.831 235.362 224.831 233.584C224.831 231.806 223.949 231.064 222.857 231.064C221.611 231.064 220.953 232.002 220.953 233.584C220.953 235.18 221.597 236.132 222.857 236.132ZM230.554 237.168C228.314 237.168 227.236 235.6 227.236 233.598C227.236 231.456 228.622 230.028 230.568 230.028C232.724 230.028 233.956 231.736 233.788 233.948H228.496C228.496 235.292 229.364 236.118 230.526 236.118C231.618 236.118 232.164 235.656 232.458 234.914L233.676 235.068C233.354 236.202 232.276 237.168 230.554 237.168ZM230.568 231.036C229.378 231.036 228.566 231.75 228.51 232.954H232.528C232.5 232.03 231.842 231.036 230.568 231.036ZM235.319 230.14L237.223 235.362L239.113 230.14H240.345L237.699 237H236.649L234.003 230.14H235.319ZM243.973 237.168C241.733 237.168 240.655 235.6 240.655 233.598C240.655 231.456 242.041 230.028 243.987 230.028C246.143 230.028 247.375 231.736 247.207 233.948H241.915C241.915 235.292 242.783 236.118 243.945 236.118C245.037 236.118 245.583 235.656 245.877 234.914L247.095 235.068C246.773 236.202 245.695 237.168 243.973 237.168ZM243.987 231.036C242.797 231.036 241.985 231.75 241.929 232.954H245.947C245.919 232.03 245.261 231.036 243.987 231.036ZM249.605 227.704V237H248.415V227.704H249.605ZM252.135 233.598C252.135 235.39 252.989 236.132 254.109 236.132C255.229 236.132 256.083 235.39 256.083 233.598C256.083 231.806 255.229 231.064 254.109 231.064C252.989 231.064 252.135 231.806 252.135 233.598ZM250.875 233.598C250.875 231.134 252.429 230.028 254.109 230.028C255.789 230.028 257.343 231.134 257.343 233.598C257.343 236.062 255.789 237.168 254.109 237.168C252.429 237.168 250.875 236.062 250.875 233.598ZM259.811 236.16V239.422H258.621V230.14H259.783L259.811 231.134C260.245 230.476 260.889 230.028 262.037 230.028C263.689 230.028 264.893 231.372 264.893 233.612C264.893 235.824 263.647 237.168 261.897 237.168C260.903 237.168 260.189 236.748 259.811 236.16ZM261.729 231.064C260.679 231.064 259.755 231.834 259.755 233.612C259.755 235.39 260.637 236.132 261.729 236.132C262.975 236.132 263.633 235.194 263.633 233.612C263.633 232.016 262.989 231.064 261.729 231.064ZM269.13 237.168C266.89 237.168 265.812 235.6 265.812 233.598C265.812 231.456 267.198 230.028 269.144 230.028C271.3 230.028 272.532 231.736 272.364 233.948H267.072C267.072 235.292 267.94 236.118 269.102 236.118C270.194 236.118 270.74 235.656 271.034 234.914L272.252 235.068C271.93 236.202 270.852 237.168 269.13 237.168ZM269.144 231.036C267.954 231.036 267.142 231.75 267.086 232.954H271.104C271.076 232.03 270.418 231.036 269.144 231.036ZM279.45 227.704V237H278.302L278.26 236.062C277.826 236.72 277.182 237.168 276.034 237.168C274.382 237.168 273.178 235.824 273.178 233.584C273.178 231.372 274.424 230.028 276.174 230.028C277.168 230.028 277.882 230.448 278.26 231.036V227.704H279.45ZM276.342 236.132C277.392 236.132 278.316 235.362 278.316 233.584C278.316 231.806 277.434 231.064 276.342 231.064C275.096 231.064 274.438 232.002 274.438 233.584C274.438 235.18 275.082 236.132 276.342 236.132ZM281.086 237V235.502H282.584V237.098L281.786 238.806H281.03L281.716 237H281.086ZM34.618 253.18L36.004 248.14H37.236L38.622 253.18L39.966 248.14H41.24L39.224 255H38.146L36.592 249.512L35.094 255H34.016L32 248.14H33.274L34.618 253.18ZM42.0402 248.14H43.2302V255H42.0402V248.14ZM42.0402 245.704H43.2302V247.132H42.0402V245.704ZM45.2987 248.14V246.25H46.4887V248.14H47.8047V249.12H46.4887V253.082C46.4887 253.81 46.5307 253.992 47.2167 253.992H47.8047V255H46.9507C45.6067 255 45.2987 254.706 45.2987 253.25V249.12H44.1927V248.14H45.2987ZM50.2373 245.704V249.092C50.6293 248.49 51.3153 248.028 52.4913 248.028C53.4153 248.028 54.0593 248.378 54.4233 248.966C54.6893 249.4 54.8013 249.974 54.8013 250.786V255H53.6113V251.108C53.6113 250.38 53.5273 249.946 53.3593 249.652C53.1073 249.232 52.6873 249.064 52.0853 249.064C50.9373 249.064 50.2373 249.848 50.2373 251.346V255H49.0473V245.704H50.2373ZM59.363 248.14H60.553V255H59.363V248.14ZM59.363 245.704H60.553V247.132H59.363V245.704ZM63.4755 248.14V249.092C63.8675 248.49 64.5535 248.028 65.7295 248.028C66.6535 248.028 67.2975 248.378 67.6615 248.966C67.9275 249.4 68.0395 249.974 68.0395 250.786V255H66.8495V251.108C66.8495 250.38 66.7655 249.946 66.5975 249.652C66.3455 249.232 65.9255 249.064 65.3235 249.064C64.1755 249.064 63.4755 249.848 63.4755 251.346V255H62.2855V248.14H63.4755ZM70.001 248.14V246.25H71.191V248.14H72.507V249.12H71.191V253.082C71.191 253.81 71.233 253.992 71.919 253.992H72.507V255H71.653C70.309 255 70.001 254.706 70.001 253.25V249.12H68.895V248.14H70.001ZM76.6056 255.168C74.3656 255.168 73.2876 253.6 73.2876 251.598C73.2876 249.456 74.6736 248.028 76.6196 248.028C78.7756 248.028 80.0076 249.736 79.8396 251.948H74.5476C74.5476 253.292 75.4156 254.118 76.5776 254.118C77.6696 254.118 78.2156 253.656 78.5096 252.914L79.7276 253.068C79.4056 254.202 78.3276 255.168 76.6056 255.168ZM76.6196 249.036C75.4296 249.036 74.6176 249.75 74.5616 250.954H78.5796C78.5516 250.03 77.8936 249.036 76.6196 249.036ZM85.6795 254.398V253.782C85.2455 254.44 84.6575 254.888 83.5095 254.888C81.8575 254.888 80.6535 253.628 80.6535 251.444C80.6535 249.288 81.8995 248.028 83.6495 248.028C84.6435 248.028 85.3015 248.448 85.6795 249.036L85.7075 248.14H86.8695V254.132C86.8695 255.56 86.6595 256.148 86.2675 256.582C85.7495 257.17 84.8815 257.506 83.8455 257.506C82.2495 257.506 81.1855 256.778 80.9615 255.406L82.2215 255.364C82.3895 255.994 82.7675 256.47 83.8595 256.47C84.4895 256.47 84.9795 256.288 85.2875 255.952C85.5395 255.672 85.6795 255.35 85.6795 254.398ZM83.8175 253.852C84.8675 253.852 85.7355 253.166 85.7355 251.444C85.7355 249.722 84.9095 249.064 83.8175 249.064C82.5715 249.064 81.9135 249.918 81.9135 251.444C81.9135 252.984 82.5575 253.852 83.8175 253.852ZM92.0904 248.112V249.372C91.8384 249.344 91.6284 249.33 91.4324 249.33C90.3404 249.33 89.7944 249.932 89.7944 251.472V255H88.6044V248.14H89.7664V249.358C90.1164 248.574 90.8304 248.126 91.7404 248.098C91.8524 248.098 91.9644 248.098 92.0904 248.112ZM93.8611 250.254L92.6991 250.212C92.7831 248.798 94.0291 248.014 95.5691 248.014C97.5151 248.014 98.3131 248.77 98.2851 250.618L98.2571 252.354C98.2431 253.432 98.3131 254.09 98.3971 255H97.2491L97.2071 254.034C96.7871 254.72 96.1151 255.168 94.8971 255.168C93.3011 255.168 92.4751 254.118 92.4751 252.942C92.4751 252.2 92.8531 251.696 93.3991 251.388C94.0571 251.024 94.8831 250.884 95.7651 250.786L97.0951 250.646V250.394C97.0951 249.274 96.4231 248.98 95.5131 248.98C94.4351 248.98 93.9311 249.498 93.8611 250.254ZM97.1791 252.032V251.626L95.7511 251.766C94.4071 251.892 93.7351 252.214 93.7351 252.984C93.7351 253.712 94.3091 254.132 95.1211 254.132C96.0871 254.132 97.1791 253.614 97.1791 252.032ZM100.254 248.14V246.25H101.444V248.14H102.76V249.12H101.444V253.082C101.444 253.81 101.486 253.992 102.172 253.992H102.76V255H101.906C100.562 255 100.254 254.706 100.254 253.25V249.12H99.1482V248.14H100.254ZM104.003 248.14H105.193V255H104.003V248.14ZM104.003 245.704H105.193V247.132H104.003V245.704ZM107.723 251.598C107.723 253.39 108.577 254.132 109.697 254.132C110.817 254.132 111.671 253.39 111.671 251.598C111.671 249.806 110.817 249.064 109.697 249.064C108.577 249.064 107.723 249.806 107.723 251.598ZM106.463 251.598C106.463 249.134 108.017 248.028 109.697 248.028C111.377 248.028 112.931 249.134 112.931 251.598C112.931 254.062 111.377 255.168 109.697 255.168C108.017 255.168 106.463 254.062 106.463 251.598ZM115.399 248.14V249.092C115.791 248.49 116.477 248.028 117.653 248.028C118.577 248.028 119.221 248.378 119.585 248.966C119.851 249.4 119.963 249.974 119.963 250.786V255H118.773V251.108C118.773 250.38 118.689 249.946 118.521 249.652C118.269 249.232 117.849 249.064 117.247 249.064C116.099 249.064 115.399 249.848 115.399 251.346V255H114.209V248.14H115.399ZM125.323 251.598C125.323 253.39 126.177 254.132 127.297 254.132C128.417 254.132 129.271 253.39 129.271 251.598C129.271 249.806 128.417 249.064 127.297 249.064C126.177 249.064 125.323 249.806 125.323 251.598ZM124.063 251.598C124.063 249.134 125.617 248.028 127.297 248.028C128.977 248.028 130.531 249.134 130.531 251.598C130.531 254.062 128.977 255.168 127.297 255.168C125.617 255.168 124.063 254.062 124.063 251.598ZM132.103 248.14V247.636C132.103 246.18 132.411 245.704 133.993 245.704H134.609V246.712H134.021C133.405 246.712 133.293 246.894 133.293 247.622V248.14H134.609V249.12H133.293V255H132.103V249.12H131.137V248.14H132.103ZM141.535 255.168C139.295 255.168 138.217 253.6 138.217 251.598C138.217 249.456 139.603 248.028 141.549 248.028C143.705 248.028 144.937 249.736 144.769 251.948H139.477C139.477 253.292 140.345 254.118 141.507 254.118C142.599 254.118 143.145 253.656 143.439 252.914L144.657 253.068C144.335 254.202 143.257 255.168 141.535 255.168ZM141.549 249.036C140.359 249.036 139.547 249.75 139.491 250.954H143.509C143.481 250.03 142.823 249.036 141.549 249.036ZM150.016 251.99H145.872V250.87H150.016V251.99ZM154.517 248.028C156.225 248.028 157.247 249.232 157.401 250.296L156.197 250.464C156.029 249.61 155.357 249.078 154.433 249.078C153.341 249.078 152.445 249.89 152.445 251.57C152.445 253.278 153.355 254.118 154.433 254.118C155.441 254.118 156.085 253.502 156.253 252.746L157.471 252.9C157.247 254.104 156.043 255.168 154.405 255.168C152.361 255.168 151.185 253.642 151.185 251.584C151.185 249.568 152.403 248.028 154.517 248.028ZM159.469 251.598C159.469 253.39 160.323 254.132 161.443 254.132C162.563 254.132 163.417 253.39 163.417 251.598C163.417 249.806 162.563 249.064 161.443 249.064C160.323 249.064 159.469 249.806 159.469 251.598ZM158.209 251.598C158.209 249.134 159.763 248.028 161.443 248.028C163.123 248.028 164.677 249.134 164.677 251.598C164.677 254.062 163.123 255.168 161.443 255.168C159.763 255.168 158.209 254.062 158.209 251.598ZM165.955 255V248.14H167.145V249.092C167.509 248.476 168.139 248.028 169.273 248.028C170.365 248.028 170.911 248.504 171.233 249.218C171.751 248.434 172.507 248.028 173.641 248.028C174.369 248.028 174.915 248.294 175.279 248.672C175.699 249.12 175.881 249.82 175.881 250.786V255H174.691V251.122C174.691 250.282 174.579 249.75 174.299 249.456C174.047 249.19 173.683 249.064 173.207 249.064C172.171 249.064 171.513 249.862 171.513 251.304V255H170.323V251.122C170.323 250.282 170.211 249.75 169.931 249.456C169.679 249.19 169.315 249.064 168.839 249.064C167.803 249.064 167.145 249.862 167.145 251.304V255H165.955ZM181.449 250.254L180.287 250.212C180.371 248.798 181.617 248.014 183.157 248.014C185.103 248.014 185.901 248.77 185.873 250.618L185.845 252.354C185.831 253.432 185.901 254.09 185.985 255H184.837L184.795 254.034C184.375 254.72 183.703 255.168 182.485 255.168C180.889 255.168 180.063 254.118 180.063 252.942C180.063 252.2 180.441 251.696 180.987 251.388C181.645 251.024 182.471 250.884 183.353 250.786L184.683 250.646V250.394C184.683 249.274 184.011 248.98 183.101 248.98C182.023 248.98 181.519 249.498 181.449 250.254ZM184.767 252.032V251.626L183.339 251.766C181.995 251.892 181.323 252.214 181.323 252.984C181.323 253.712 181.897 254.132 182.709 254.132C183.675 254.132 184.767 253.614 184.767 252.032ZM188.696 248.14V249.092C189.088 248.49 189.774 248.028 190.95 248.028C191.874 248.028 192.518 248.378 192.882 248.966C193.148 249.4 193.26 249.974 193.26 250.786V255H192.07V251.108C192.07 250.38 191.986 249.946 191.818 249.652C191.566 249.232 191.146 249.064 190.544 249.064C189.396 249.064 188.696 249.848 188.696 251.346V255H187.506V248.14H188.696ZM200.695 245.704V255H199.547L199.505 254.062C199.071 254.72 198.427 255.168 197.279 255.168C195.627 255.168 194.423 253.824 194.423 251.584C194.423 249.372 195.669 248.028 197.419 248.028C198.413 248.028 199.127 248.448 199.505 249.036V245.704H200.695ZM197.587 254.132C198.637 254.132 199.561 253.362 199.561 251.584C199.561 249.806 198.679 249.064 197.587 249.064C196.341 249.064 195.683 250.002 195.683 251.584C195.683 253.18 196.327 254.132 197.587 254.132ZM210.601 250.002L209.369 250.114C209.187 249.316 208.529 249.022 207.661 249.022C206.919 249.022 206.191 249.288 206.191 249.862C206.191 250.394 206.597 250.618 207.325 250.772L208.151 250.94C209.439 251.206 210.643 251.668 210.643 253.026C210.643 254.398 209.397 255.168 207.787 255.168C205.953 255.168 204.945 254.02 204.819 252.942L206.065 252.83C206.247 253.656 206.779 254.174 207.815 254.174C208.767 254.174 209.439 253.754 209.439 253.152C209.439 252.522 208.739 252.214 207.941 252.046L207.045 251.864C206.051 251.668 205.001 251.234 205.001 249.932C205.001 248.728 206.317 248.028 207.787 248.028C209.327 248.028 210.335 248.826 210.601 250.002ZM212.491 248.14V246.25H213.681V248.14H214.997V249.12H213.681V253.082C213.681 253.81 213.723 253.992 214.409 253.992H214.997V255H214.143C212.799 255 212.491 254.706 212.491 253.25V249.12H211.385V248.14H212.491ZM217.042 251.598C217.042 253.39 217.896 254.132 219.016 254.132C220.136 254.132 220.99 253.39 220.99 251.598C220.99 249.806 220.136 249.064 219.016 249.064C217.896 249.064 217.042 249.806 217.042 251.598ZM215.782 251.598C215.782 249.134 217.336 248.028 219.016 248.028C220.696 248.028 222.25 249.134 222.25 251.598C222.25 254.062 220.696 255.168 219.016 255.168C217.336 255.168 215.782 254.062 215.782 251.598ZM227.014 248.112V249.372C226.762 249.344 226.552 249.33 226.356 249.33C225.264 249.33 224.718 249.932 224.718 251.472V255H223.528V248.14H224.69V249.358C225.04 248.574 225.754 248.126 226.664 248.098C226.776 248.098 226.888 248.098 227.014 248.112ZM230.729 255.168C228.489 255.168 227.411 253.6 227.411 251.598C227.411 249.456 228.797 248.028 230.743 248.028C232.899 248.028 234.131 249.736 233.963 251.948H228.671C228.671 253.292 229.539 254.118 230.701 254.118C231.793 254.118 232.339 253.656 232.633 252.914L233.851 253.068C233.529 254.202 232.451 255.168 230.729 255.168ZM230.743 249.036C229.553 249.036 228.741 249.75 228.685 250.954H232.703C232.675 250.03 232.017 249.036 230.743 249.036ZM243.916 245.704V255H242.768L242.726 254.062C242.292 254.72 241.648 255.168 240.5 255.168C238.848 255.168 237.644 253.824 237.644 251.584C237.644 249.372 238.89 248.028 240.64 248.028C241.634 248.028 242.348 248.448 242.726 249.036V245.704H243.916ZM240.808 254.132C241.858 254.132 242.782 253.362 242.782 251.584C242.782 249.806 241.9 249.064 240.808 249.064C239.562 249.064 238.904 250.002 238.904 251.584C238.904 253.18 239.548 254.132 240.808 254.132ZM246.658 250.254L245.496 250.212C245.58 248.798 246.826 248.014 248.366 248.014C250.312 248.014 251.11 248.77 251.082 250.618L251.054 252.354C251.04 253.432 251.11 254.09 251.194 255H250.046L250.004 254.034C249.584 254.72 248.912 255.168 247.694 255.168C246.098 255.168 245.272 254.118 245.272 252.942C245.272 252.2 245.65 251.696 246.196 251.388C246.854 251.024 247.68 250.884 248.562 250.786L249.892 250.646V250.394C249.892 249.274 249.22 248.98 248.31 248.98C247.232 248.98 246.728 249.498 246.658 250.254ZM249.976 252.032V251.626L248.548 251.766C247.204 251.892 246.532 252.214 246.532 252.984C246.532 253.712 247.106 254.132 247.918 254.132C248.884 254.132 249.976 253.614 249.976 252.032ZM253.051 248.14V246.25H254.241V248.14H255.557V249.12H254.241V253.082C254.241 253.81 254.283 253.992 254.969 253.992H255.557V255H254.703C253.359 255 253.051 254.706 253.051 253.25V249.12H251.945V248.14H253.051ZM257.808 250.254L256.646 250.212C256.73 248.798 257.976 248.014 259.516 248.014C261.462 248.014 262.26 248.77 262.232 250.618L262.204 252.354C262.19 253.432 262.26 254.09 262.344 255H261.196L261.154 254.034C260.734 254.72 260.062 255.168 258.844 255.168C257.248 255.168 256.422 254.118 256.422 252.942C256.422 252.2 256.8 251.696 257.346 251.388C258.004 251.024 258.83 250.884 259.712 250.786L261.042 250.646V250.394C261.042 249.274 260.37 248.98 259.46 248.98C258.382 248.98 257.878 249.498 257.808 250.254ZM261.126 252.032V251.626L259.698 251.766C258.354 251.892 257.682 252.214 257.682 252.984C257.682 253.712 258.256 254.132 259.068 254.132C260.034 254.132 261.126 253.614 261.126 252.032ZM267.095 248.14V247.636C267.095 246.18 267.403 245.704 268.985 245.704H269.601V246.712H269.013C268.397 246.712 268.285 246.894 268.285 247.622V248.14H269.601V249.12H268.285V255H267.095V249.12H266.129V248.14H267.095ZM273.454 255.168C271.214 255.168 270.136 253.6 270.136 251.598C270.136 249.456 271.522 248.028 273.468 248.028C275.624 248.028 276.856 249.736 276.688 251.948H271.396C271.396 253.292 272.264 254.118 273.426 254.118C274.518 254.118 275.064 253.656 275.358 252.914L276.576 253.068C276.254 254.202 275.176 255.168 273.454 255.168ZM273.468 249.036C272.278 249.036 271.466 249.75 271.41 250.954H275.428C275.4 250.03 274.742 249.036 273.468 249.036ZM280.82 255.168C278.58 255.168 277.502 253.6 277.502 251.598C277.502 249.456 278.888 248.028 280.834 248.028C282.99 248.028 284.222 249.736 284.054 251.948H278.762C278.762 253.292 279.63 254.118 280.792 254.118C281.884 254.118 282.43 253.656 282.724 252.914L283.942 253.068C283.62 254.202 282.542 255.168 280.82 255.168ZM280.834 249.036C279.644 249.036 278.832 249.75 278.776 250.954H282.794C282.766 250.03 282.108 249.036 280.834 249.036ZM291.14 245.704V255H289.992L289.95 254.062C289.516 254.72 288.872 255.168 287.724 255.168C286.072 255.168 284.868 253.824 284.868 251.584C284.868 249.372 286.114 248.028 287.864 248.028C288.858 248.028 289.572 248.448 289.95 249.036V245.704H291.14ZM288.032 254.132C289.082 254.132 290.006 253.362 290.006 251.584C290.006 249.806 289.124 249.064 288.032 249.064C286.786 249.064 286.128 250.002 286.128 251.584C286.128 253.18 286.772 254.132 288.032 254.132ZM298.11 250.002L296.878 250.114C296.696 249.316 296.038 249.022 295.17 249.022C294.428 249.022 293.7 249.288 293.7 249.862C293.7 250.394 294.106 250.618 294.834 250.772L295.66 250.94C296.948 251.206 298.152 251.668 298.152 253.026C298.152 254.398 296.906 255.168 295.296 255.168C293.462 255.168 292.454 254.02 292.328 252.942L293.574 252.83C293.756 253.656 294.288 254.174 295.324 254.174C296.276 254.174 296.948 253.754 296.948 253.152C296.948 252.522 296.248 252.214 295.45 252.046L294.554 251.864C293.56 251.668 292.51 251.234 292.51 249.932C292.51 248.728 293.826 248.028 295.296 248.028C296.836 248.028 297.844 248.826 298.11 250.002Z" fill="#1B1B1B"/>
</svg>
