<svg width="325" height="292" viewBox="0 0 325 292" fill="none" xmlns="http://www.w3.org/2000/svg">
<rect width="325" height="292" fill="#EEEEEE"/>
<path d="M33.1 51.09V41.96H84.47V51.09C66.1 65.94 54.77 87.28 53.01 115H41.79C43.44 88.38 55.21 67.04 73.58 51.09H33.1ZM114.342 108.18C123.252 108.18 130.842 102.24 130.842 91.02C130.842 78.92 122.262 73.97 114.122 73.97C106.752 73.97 101.472 78.15 99.8219 81.78L90.4719 81.34L95.3119 41.96H137.882V50.98H102.902L100.262 71.33C104.222 67.59 110.162 65.83 116.322 65.83C129.302 65.83 140.742 74.85 140.742 90.91C140.742 107.63 128.092 116.32 114.232 116.32C97.0719 116.32 89.2619 105.43 87.8319 94.21L97.4019 93.44C98.8319 102.46 103.892 108.18 114.342 108.18ZM151.682 41.96H161.032V83.87L183.142 61.1H194.582L175.222 81.01L196.342 115H185.452L168.842 87.61L161.032 95.64V115H151.682V41.96Z" fill="#1B1B1B"/>
<path d="M41.864 154.31L43.52 154.544C42.98 156.884 40.982 158.216 38.354 158.216C34.862 158.216 32.846 155.696 32.846 152.006C32.846 148.244 35.06 145.832 38.48 145.832C41 145.832 42.926 147.236 43.448 149.504L41.792 149.738C41.432 148.334 40.334 147.308 38.408 147.308C36.266 147.308 34.592 148.91 34.592 152.006C34.592 155.012 36.194 156.74 38.444 156.74C40.37 156.74 41.486 155.768 41.864 154.31ZM46.6146 146.048V150.404C47.1186 149.63 48.0006 149.036 49.5126 149.036C50.7006 149.036 51.5286 149.486 51.9966 150.242C52.3386 150.8 52.4826 151.538 52.4826 152.582V158H50.9526V152.996C50.9526 152.06 50.8446 151.502 50.6286 151.124C50.3046 150.584 49.7646 150.368 48.9906 150.368C47.5146 150.368 46.6146 151.376 46.6146 153.302V158H45.0846V146.048H46.6146ZM58.2446 158.216C55.3646 158.216 53.9786 156.2 53.9786 153.626C53.9786 150.872 55.7606 149.036 58.2626 149.036C61.0346 149.036 62.6186 151.232 62.4026 154.076H55.5986C55.5986 155.804 56.7146 156.866 58.2086 156.866C59.6126 156.866 60.3146 156.272 60.6926 155.318L62.2586 155.516C61.8446 156.974 60.4586 158.216 58.2446 158.216ZM58.2626 150.332C56.7326 150.332 55.6886 151.25 55.6166 152.798H60.7826C60.7466 151.61 59.9006 150.332 58.2626 150.332ZM67.733 149.036C69.929 149.036 71.243 150.584 71.441 151.952L69.893 152.168C69.677 151.07 68.813 150.386 67.625 150.386C66.221 150.386 65.069 151.43 65.069 153.59C65.069 155.786 66.239 156.866 67.625 156.866C68.921 156.866 69.749 156.074 69.965 155.102L71.531 155.3C71.243 156.848 69.695 158.216 67.589 158.216C64.961 158.216 63.449 156.254 63.449 153.608C63.449 151.016 65.015 149.036 67.733 149.036ZM72.986 146.048H74.516V152.906L78.134 149.18H80.006L76.838 152.438L80.294 158H78.512L75.794 153.518L74.516 154.832V158H72.986V146.048ZM82.1816 153.626C82.1816 155.93 83.2796 156.884 84.7196 156.884C86.1596 156.884 87.2576 155.93 87.2576 153.626C87.2576 151.322 86.1596 150.368 84.7196 150.368C83.2796 150.368 82.1816 151.322 82.1816 153.626ZM80.5616 153.626C80.5616 150.458 82.5596 149.036 84.7196 149.036C86.8796 149.036 88.8776 150.458 88.8776 153.626C88.8776 156.794 86.8796 158.216 84.7196 158.216C82.5596 158.216 80.5616 156.794 80.5616 153.626ZM96.1365 158V156.74C95.6505 157.568 94.8765 158.198 93.3645 158.198C92.2845 158.198 91.5285 157.802 91.0605 157.172C90.6285 156.596 90.4485 155.75 90.4485 154.652V149.18H91.9785V154.166C91.9785 155.066 92.0685 155.642 92.2665 156.038C92.5545 156.632 93.1305 156.866 93.9225 156.866C95.3085 156.866 96.1365 155.84 96.1365 153.986V149.18H97.6665V158H96.1365ZM100.335 149.18V146.75H101.865V149.18H103.557V150.44H101.865V155.534C101.865 156.47 101.919 156.704 102.801 156.704H103.557V158H102.459C100.731 158 100.335 157.622 100.335 155.75V150.44H98.913V149.18H100.335ZM111.887 151.574L110.303 151.718C110.069 150.692 109.223 150.314 108.107 150.314C107.153 150.314 106.217 150.656 106.217 151.394C106.217 152.078 106.739 152.366 107.675 152.564L108.737 152.78C110.393 153.122 111.941 153.716 111.941 155.462C111.941 157.226 110.339 158.216 108.269 158.216C105.911 158.216 104.615 156.74 104.453 155.354L106.055 155.21C106.289 156.272 106.973 156.938 108.305 156.938C109.529 156.938 110.393 156.398 110.393 155.624C110.393 154.814 109.493 154.418 108.467 154.202L107.315 153.968C106.037 153.716 104.687 153.158 104.687 151.484C104.687 149.936 106.379 149.036 108.269 149.036C110.249 149.036 111.545 150.062 111.887 151.574Z" fill="#1B1B1B"/>
<path d="M34.618 235.18L36.004 230.14H37.236L38.622 235.18L39.966 230.14H41.24L39.224 237H38.146L36.592 231.512L35.094 237H34.016L32 230.14H33.274L34.618 235.18ZM44.8962 237.168C42.6562 237.168 41.5782 235.6 41.5782 233.598C41.5782 231.456 42.9642 230.028 44.9102 230.028C47.0662 230.028 48.2982 231.736 48.1302 233.948H42.8382C42.8382 235.292 43.7062 236.118 44.8682 236.118C45.9602 236.118 46.5062 235.656 46.8002 234.914L48.0182 235.068C47.6962 236.202 46.6182 237.168 44.8962 237.168ZM44.9102 231.036C43.7202 231.036 42.9082 231.75 42.8522 232.954H46.8702C46.8422 232.03 46.1842 231.036 44.9102 231.036ZM52.8237 230.112V231.372C52.5717 231.344 52.3617 231.33 52.1657 231.33C51.0737 231.33 50.5277 231.932 50.5277 233.472V237H49.3377V230.14H50.4997V231.358C50.8497 230.574 51.5637 230.126 52.4737 230.098C52.5857 230.098 52.6977 230.098 52.8237 230.112ZM56.5381 237.168C54.2981 237.168 53.2201 235.6 53.2201 233.598C53.2201 231.456 54.6061 230.028 56.5521 230.028C58.7081 230.028 59.9401 231.736 59.7721 233.948H54.4801C54.4801 235.292 55.3481 236.118 56.5101 236.118C57.6021 236.118 58.1481 235.656 58.4421 234.914L59.6601 235.068C59.3381 236.202 58.2601 237.168 56.5381 237.168ZM56.5521 231.036C55.3621 231.036 54.5501 231.75 54.4941 232.954H58.5121C58.4841 232.03 57.8261 231.036 56.5521 231.036ZM69.1517 232.002L67.9197 232.114C67.7377 231.316 67.0797 231.022 66.2117 231.022C65.4697 231.022 64.7417 231.288 64.7417 231.862C64.7417 232.394 65.1477 232.618 65.8757 232.772L66.7017 232.94C67.9897 233.206 69.1937 233.668 69.1937 235.026C69.1937 236.398 67.9477 237.168 66.3377 237.168C64.5037 237.168 63.4957 236.02 63.3697 234.942L64.6157 234.83C64.7977 235.656 65.3297 236.174 66.3657 236.174C67.3177 236.174 67.9897 235.754 67.9897 235.152C67.9897 234.522 67.2897 234.214 66.4917 234.046L65.5957 233.864C64.6017 233.668 63.5517 233.234 63.5517 231.932C63.5517 230.728 64.8677 230.028 66.3377 230.028C67.8777 230.028 68.8857 230.826 69.1517 232.002ZM71.0417 230.14V228.25H72.2317V230.14H73.5477V231.12H72.2317V235.082C72.2317 235.81 72.2737 235.992 72.9597 235.992H73.5477V237H72.6937C71.3497 237 71.0417 236.706 71.0417 235.25V231.12H69.9357V230.14H71.0417ZM75.8033 232.254L74.6413 232.212C74.7253 230.798 75.9713 230.014 77.5113 230.014C79.4573 230.014 80.2553 230.77 80.2273 232.618L80.1993 234.354C80.1853 235.432 80.2553 236.09 80.3393 237H79.1913L79.1493 236.034C78.7293 236.72 78.0573 237.168 76.8393 237.168C75.2433 237.168 74.4173 236.118 74.4173 234.942C74.4173 234.2 74.7953 233.696 75.3413 233.388C75.9993 233.024 76.8253 232.884 77.7073 232.786L79.0373 232.646V232.394C79.0373 231.274 78.3653 230.98 77.4553 230.98C76.3773 230.98 75.8733 231.498 75.8033 232.254ZM79.1213 234.032V233.626L77.6933 233.766C76.3493 233.892 75.6773 234.214 75.6773 234.984C75.6773 235.712 76.2513 236.132 77.0633 236.132C78.0293 236.132 79.1213 235.614 79.1213 234.032ZM85.3463 230.112V231.372C85.0943 231.344 84.8843 231.33 84.6883 231.33C83.5963 231.33 83.0503 231.932 83.0503 233.472V237H81.8603V230.14H83.0223V231.358C83.3723 230.574 84.0863 230.126 84.9963 230.098C85.1083 230.098 85.2203 230.098 85.3463 230.112ZM86.6774 230.14V228.25H87.8674V230.14H89.1834V231.12H87.8674V235.082C87.8674 235.81 87.9094 235.992 88.5954 235.992H89.1834V237H88.3294C86.9854 237 86.6774 236.706 86.6774 235.25V231.12H85.5714V230.14H86.6774ZM93.282 237.168C91.042 237.168 89.964 235.6 89.964 233.598C89.964 231.456 91.35 230.028 93.296 230.028C95.452 230.028 96.684 231.736 96.516 233.948H91.224C91.224 235.292 92.092 236.118 93.254 236.118C94.346 236.118 94.892 235.656 95.186 234.914L96.404 235.068C96.082 236.202 95.004 237.168 93.282 237.168ZM93.296 231.036C92.106 231.036 91.294 231.75 91.238 232.954H95.256C95.228 232.03 94.57 231.036 93.296 231.036ZM103.602 227.704V237H102.454L102.412 236.062C101.978 236.72 101.334 237.168 100.186 237.168C98.5339 237.168 97.3299 235.824 97.3299 233.584C97.3299 231.372 98.5759 230.028 100.326 230.028C101.32 230.028 102.034 230.448 102.412 231.036V227.704H103.602ZM100.494 236.132C101.544 236.132 102.468 235.362 102.468 233.584C102.468 231.806 101.586 231.064 100.494 231.064C99.2479 231.064 98.5899 232.002 98.5899 233.584C98.5899 235.18 99.2339 236.132 100.494 236.132ZM109.07 233.598C109.07 235.39 109.924 236.132 111.044 236.132C112.164 236.132 113.018 235.39 113.018 233.598C113.018 231.806 112.164 231.064 111.044 231.064C109.924 231.064 109.07 231.806 109.07 233.598ZM107.81 233.598C107.81 231.134 109.364 230.028 111.044 230.028C112.724 230.028 114.278 231.134 114.278 233.598C114.278 236.062 112.724 237.168 111.044 237.168C109.364 237.168 107.81 236.062 107.81 233.598ZM116.746 230.14V231.092C117.138 230.49 117.824 230.028 119 230.028C119.924 230.028 120.568 230.378 120.932 230.966C121.198 231.4 121.31 231.974 121.31 232.786V237H120.12V233.108C120.12 232.38 120.036 231.946 119.868 231.652C119.616 231.232 119.196 231.064 118.594 231.064C117.446 231.064 116.746 231.848 116.746 233.346V237H115.556V230.14H116.746ZM124.125 227.704V237H122.935V227.704H124.125ZM125.858 230.14H127.048V237H125.858V230.14ZM125.858 227.704H127.048V229.132H125.858V227.704ZM129.97 230.14V231.092C130.362 230.49 131.048 230.028 132.224 230.028C133.148 230.028 133.792 230.378 134.156 230.966C134.422 231.4 134.534 231.974 134.534 232.786V237H133.344V233.108C133.344 232.38 133.26 231.946 133.092 231.652C132.84 231.232 132.42 231.064 131.818 231.064C130.67 231.064 129.97 231.848 129.97 233.346V237H128.78V230.14H129.97ZM139.016 237.168C136.776 237.168 135.698 235.6 135.698 233.598C135.698 231.456 137.084 230.028 139.03 230.028C141.186 230.028 142.418 231.736 142.25 233.948H136.958C136.958 235.292 137.826 236.118 138.988 236.118C140.08 236.118 140.626 235.656 140.92 234.914L142.138 235.068C141.816 236.202 140.738 237.168 139.016 237.168ZM139.03 231.036C137.84 231.036 137.028 231.75 136.972 232.954H140.99C140.962 232.03 140.304 231.036 139.03 231.036ZM146.729 230.14V228.25H147.919V230.14H149.235V231.12H147.919V235.082C147.919 235.81 147.961 235.992 148.647 235.992H149.235V237H148.381C147.037 237 146.729 236.706 146.729 235.25V231.12H145.623V230.14H146.729ZM151.276 233.598C151.276 235.39 152.13 236.132 153.25 236.132C154.37 236.132 155.224 235.39 155.224 233.598C155.224 231.806 154.37 231.064 153.25 231.064C152.13 231.064 151.276 231.806 151.276 233.598ZM150.016 233.598C150.016 231.134 151.57 230.028 153.25 230.028C154.93 230.028 156.484 231.134 156.484 233.598C156.484 236.062 154.93 237.168 153.25 237.168C151.57 237.168 150.016 236.062 150.016 233.598ZM161.496 233.598C161.496 235.39 162.35 236.132 163.47 236.132C164.59 236.132 165.444 235.39 165.444 233.598C165.444 231.806 164.59 231.064 163.47 231.064C162.35 231.064 161.496 231.806 161.496 233.598ZM160.236 233.598C160.236 231.134 161.79 230.028 163.47 230.028C165.15 230.028 166.704 231.134 166.704 233.598C166.704 236.062 165.15 237.168 163.47 237.168C161.79 237.168 160.236 236.062 160.236 233.598ZM171.468 230.112V231.372C171.216 231.344 171.006 231.33 170.81 231.33C169.718 231.33 169.172 231.932 169.172 233.472V237H167.982V230.14H169.144V231.358C169.494 230.574 170.208 230.126 171.118 230.098C171.23 230.098 171.342 230.098 171.468 230.112ZM178.136 227.704V237H176.988L176.946 236.062C176.512 236.72 175.868 237.168 174.72 237.168C173.068 237.168 171.864 235.824 171.864 233.584C171.864 231.372 173.11 230.028 174.86 230.028C175.854 230.028 176.568 230.448 176.946 231.036V227.704H178.136ZM175.028 236.132C176.078 236.132 177.002 235.362 177.002 233.584C177.002 231.806 176.12 231.064 175.028 231.064C173.782 231.064 173.124 232.002 173.124 233.584C173.124 235.18 173.768 236.132 175.028 236.132ZM182.726 237.168C180.486 237.168 179.408 235.6 179.408 233.598C179.408 231.456 180.794 230.028 182.74 230.028C184.896 230.028 186.128 231.736 185.96 233.948H180.668C180.668 235.292 181.536 236.118 182.698 236.118C183.79 236.118 184.336 235.656 184.63 234.914L185.848 235.068C185.526 236.202 184.448 237.168 182.726 237.168ZM182.74 231.036C181.55 231.036 180.738 231.75 180.682 232.954H184.7C184.672 232.03 184.014 231.036 182.74 231.036ZM190.653 230.112V231.372C190.401 231.344 190.191 231.33 189.995 231.33C188.903 231.33 188.357 231.932 188.357 233.472V237H187.167V230.14H188.329V231.358C188.679 230.574 189.393 230.126 190.303 230.098C190.415 230.098 190.527 230.098 190.653 230.112ZM194.584 230.14H195.774V237H194.584V230.14ZM194.584 227.704H195.774V229.132H194.584V227.704ZM198.697 230.14V231.092C199.089 230.49 199.775 230.028 200.951 230.028C201.875 230.028 202.519 230.378 202.883 230.966C203.149 231.4 203.261 231.974 203.261 232.786V237H202.071V233.108C202.071 232.38 201.987 231.946 201.819 231.652C201.567 231.232 201.147 231.064 200.545 231.064C199.397 231.064 198.697 231.848 198.697 233.346V237H197.507V230.14H198.697ZM208.652 233.99H204.508V232.87H208.652V233.99ZM215.383 232.002L214.151 232.114C213.969 231.316 213.311 231.022 212.443 231.022C211.701 231.022 210.973 231.288 210.973 231.862C210.973 232.394 211.379 232.618 212.107 232.772L212.933 232.94C214.221 233.206 215.425 233.668 215.425 235.026C215.425 236.398 214.179 237.168 212.569 237.168C210.735 237.168 209.727 236.02 209.601 234.942L210.847 234.83C211.029 235.656 211.561 236.174 212.597 236.174C213.549 236.174 214.221 235.754 214.221 235.152C214.221 234.522 213.521 234.214 212.723 234.046L211.827 233.864C210.833 233.668 209.783 233.234 209.783 231.932C209.783 230.728 211.099 230.028 212.569 230.028C214.109 230.028 215.117 230.826 215.383 232.002ZM217.273 230.14V228.25H218.463V230.14H219.779V231.12H218.463V235.082C218.463 235.81 218.505 235.992 219.191 235.992H219.779V237H218.925C217.581 237 217.273 236.706 217.273 235.25V231.12H216.167V230.14H217.273ZM221.824 233.598C221.824 235.39 222.678 236.132 223.798 236.132C224.918 236.132 225.772 235.39 225.772 233.598C225.772 231.806 224.918 231.064 223.798 231.064C222.678 231.064 221.824 231.806 221.824 233.598ZM220.564 233.598C220.564 231.134 222.118 230.028 223.798 230.028C225.478 230.028 227.032 231.134 227.032 233.598C227.032 236.062 225.478 237.168 223.798 237.168C222.118 237.168 220.564 236.062 220.564 233.598ZM231.796 230.112V231.372C231.544 231.344 231.334 231.33 231.138 231.33C230.046 231.33 229.5 231.932 229.5 233.472V237H228.31V230.14H229.472V231.358C229.822 230.574 230.536 230.126 231.446 230.098C231.558 230.098 231.67 230.098 231.796 230.112ZM235.511 237.168C233.271 237.168 232.193 235.6 232.193 233.598C232.193 231.456 233.579 230.028 235.525 230.028C237.681 230.028 238.913 231.736 238.745 233.948H233.453C233.453 235.292 234.321 236.118 235.483 236.118C236.575 236.118 237.121 235.656 237.415 234.914L238.633 235.068C238.311 236.202 237.233 237.168 235.511 237.168ZM235.525 231.036C234.335 231.036 233.523 231.75 233.467 232.954H237.485C237.457 232.03 236.799 231.036 235.525 231.036Z" fill="#1B1B1B"/>
</svg>
