<svg width="325" height="292" viewBox="0 0 325 292" fill="none" xmlns="http://www.w3.org/2000/svg">
<rect width="325" height="292" fill="#EEEEEE"/>
<path d="M59.72 115H50.37V58.13H33.21V51.75C43.88 51.42 49.27 50.1 53.34 41.96H59.72V115ZM71.7676 115V103.23H83.5376V115.77L77.2676 129.19H71.3276L76.7176 115H71.7676ZM117.669 40.64C132.849 40.64 142.419 48.56 142.419 59.34C142.419 65.28 139.559 72.21 132.189 76.06C141.869 80.02 144.729 87.83 144.729 94.43C144.729 108.4 132.959 116.32 117.669 116.32C102.379 116.32 90.6094 108.4 90.6094 94.43C90.6094 87.83 93.4694 80.02 103.149 76.06C95.7794 72.21 92.9194 65.28 92.9194 59.34C92.9194 48.56 102.489 40.64 117.669 40.64ZM117.669 80.35C107.219 80.35 100.509 85.85 100.509 94.43C100.509 103.01 107.219 108.18 117.669 108.18C128.119 108.18 134.829 103.01 134.829 94.43C134.829 85.85 128.119 80.35 117.669 80.35ZM133.069 60.33C133.069 53.07 126.909 48.78 117.669 48.78C108.429 48.78 102.269 53.07 102.269 60.33C102.269 67.7 108.429 72.87 117.669 72.87C126.909 72.87 133.069 67.7 133.069 60.33ZM199.293 115H188.293L167.833 51.53V115H157.383V41.96H174.873L193.793 102.68L212.713 41.96H230.203V115H219.753V51.53L199.293 115Z" fill="#1B1B1B"/>
<path d="M32.18 146.048H34.052L37.418 156.236L40.712 146.048H42.494L38.39 158H36.338L32.18 146.048ZM43.6959 149.18H45.2259V158H43.6959V149.18ZM43.6959 146.048H45.2259V147.884H43.6959V146.048ZM51.1254 158.216C48.2454 158.216 46.8594 156.2 46.8594 153.626C46.8594 150.872 48.6414 149.036 51.1434 149.036C53.9154 149.036 55.4994 151.232 55.2834 154.076H48.4794C48.4794 155.804 49.5954 156.866 51.0894 156.866C52.4934 156.866 53.1954 156.272 53.5734 155.318L55.1394 155.516C54.7254 156.974 53.3394 158.216 51.1254 158.216ZM51.1434 150.332C49.6134 150.332 48.5694 151.25 48.4974 152.798H53.6634C53.6274 151.61 52.7814 150.332 51.1434 150.332ZM58.9432 155.66L60.7252 149.18H62.3092L64.0912 155.66L65.8192 149.18H67.4572L64.8652 158H63.4792L61.4812 150.944L59.5552 158H58.1692L55.5772 149.18H57.2152L58.9432 155.66ZM72.158 158.216C69.278 158.216 67.892 156.2 67.892 153.626C67.892 150.872 69.674 149.036 72.176 149.036C74.948 149.036 76.532 151.232 76.316 154.076H69.512C69.512 155.804 70.628 156.866 72.122 156.866C73.526 156.866 74.228 156.272 74.606 155.318L76.172 155.516C75.758 156.974 74.372 158.216 72.158 158.216ZM72.176 150.332C70.646 150.332 69.602 151.25 69.53 152.798H74.696C74.66 151.61 73.814 150.332 72.176 150.332ZM85.4264 146.048V158H83.9504L83.8964 156.794C83.3384 157.64 82.5104 158.216 81.0344 158.216C78.9104 158.216 77.3624 156.488 77.3624 153.608C77.3624 150.764 78.9644 149.036 81.2144 149.036C82.4924 149.036 83.4104 149.576 83.8964 150.332V146.048H85.4264ZM81.4304 156.884C82.7804 156.884 83.9684 155.894 83.9684 153.608C83.9684 151.322 82.8344 150.368 81.4304 150.368C79.8284 150.368 78.9824 151.574 78.9824 153.608C78.9824 155.66 79.8104 156.884 81.4304 156.884ZM91.6644 146.048H95.1924C98.1444 146.048 100.232 146.804 100.232 149.81C100.232 152.816 98.1444 153.572 95.1924 153.572H93.3744V158H91.6644V146.048ZM95.3184 147.56H93.3744V152.06H95.3184C97.1004 152.06 98.4864 151.79 98.4864 149.81C98.4864 147.83 97.1004 147.56 95.3184 147.56ZM105.928 149.144V150.764C105.604 150.728 105.334 150.71 105.082 150.71C103.678 150.71 102.976 151.484 102.976 153.464V158H101.446V149.18H102.94V150.746C103.39 149.738 104.308 149.162 105.478 149.126C105.622 149.126 105.766 149.126 105.928 149.144ZM108.057 153.626C108.057 155.93 109.155 156.884 110.595 156.884C112.035 156.884 113.133 155.93 113.133 153.626C113.133 151.322 112.035 150.368 110.595 150.368C109.155 150.368 108.057 151.322 108.057 153.626ZM106.437 153.626C106.437 150.458 108.435 149.036 110.595 149.036C112.755 149.036 114.753 150.458 114.753 153.626C114.753 156.794 112.755 158.216 110.595 158.216C108.435 158.216 106.437 156.794 106.437 153.626ZM124.007 146.048V158H122.531L122.477 156.794C121.919 157.64 121.091 158.216 119.615 158.216C117.491 158.216 115.943 156.488 115.943 153.608C115.943 150.764 117.545 149.036 119.795 149.036C121.073 149.036 121.991 149.576 122.477 150.332V146.048H124.007ZM120.011 156.884C121.361 156.884 122.549 155.894 122.549 153.608C122.549 151.322 121.415 150.368 120.011 150.368C118.409 150.368 117.563 151.574 117.563 153.608C117.563 155.66 118.391 156.884 120.011 156.884ZM131.852 158V156.74C131.366 157.568 130.592 158.198 129.08 158.198C128 158.198 127.244 157.802 126.776 157.172C126.344 156.596 126.164 155.75 126.164 154.652V149.18H127.694V154.166C127.694 155.066 127.784 155.642 127.982 156.038C128.27 156.632 128.846 156.866 129.638 156.866C131.024 156.866 131.852 155.84 131.852 153.986V149.18H133.382V158H131.852ZM139.308 149.036C141.504 149.036 142.818 150.584 143.016 151.952L141.468 152.168C141.252 151.07 140.388 150.386 139.2 150.386C137.796 150.386 136.644 151.43 136.644 153.59C136.644 155.786 137.814 156.866 139.2 156.866C140.496 156.866 141.324 156.074 141.54 155.102L143.106 155.3C142.818 156.848 141.27 158.216 139.164 158.216C136.536 158.216 135.024 156.254 135.024 153.608C135.024 151.016 136.59 149.036 139.308 149.036ZM145.176 149.18V146.75H146.706V149.18H148.398V150.44H146.706V155.534C146.706 156.47 146.76 156.704 147.642 156.704H148.398V158H147.3C145.572 158 145.176 157.622 145.176 155.75V150.44H143.754V149.18H145.176ZM156.725 151.574L155.141 151.718C154.907 150.692 154.061 150.314 152.945 150.314C151.991 150.314 151.055 150.656 151.055 151.394C151.055 152.078 151.577 152.366 152.513 152.564L153.575 152.78C155.231 153.122 156.779 153.716 156.779 155.462C156.779 157.226 155.177 158.216 153.107 158.216C150.749 158.216 149.453 156.74 149.291 155.354L150.893 155.21C151.127 156.272 151.811 156.938 153.143 156.938C154.367 156.938 155.231 156.398 155.231 155.624C155.231 154.814 154.331 154.418 153.305 154.202L152.153 153.968C150.875 153.716 149.525 153.158 149.525 151.484C149.525 149.936 151.217 149.036 153.107 149.036C155.087 149.036 156.383 150.062 156.725 151.574Z" fill="#1B1B1B"/>
<path d="M34.618 235.18L36.004 230.14H37.236L38.622 235.18L39.966 230.14H41.24L39.224 237H38.146L36.592 231.512L35.094 237H34.016L32 230.14H33.274L34.618 235.18ZM44.8962 237.168C42.6562 237.168 41.5782 235.6 41.5782 233.598C41.5782 231.456 42.9642 230.028 44.9102 230.028C47.0662 230.028 48.2982 231.736 48.1302 233.948H42.8382C42.8382 235.292 43.7062 236.118 44.8682 236.118C45.9602 236.118 46.5062 235.656 46.8002 234.914L48.0182 235.068C47.6962 236.202 46.6182 237.168 44.8962 237.168ZM44.9102 231.036C43.7202 231.036 42.9082 231.75 42.8522 232.954H46.8702C46.8422 232.03 46.1842 231.036 44.9102 231.036ZM52.8237 230.112V231.372C52.5717 231.344 52.3617 231.33 52.1657 231.33C51.0737 231.33 50.5277 231.932 50.5277 233.472V237H49.3377V230.14H50.4997V231.358C50.8497 230.574 51.5637 230.126 52.4737 230.098C52.5857 230.098 52.6977 230.098 52.8237 230.112ZM56.5381 237.168C54.2981 237.168 53.2201 235.6 53.2201 233.598C53.2201 231.456 54.6061 230.028 56.5521 230.028C58.7081 230.028 59.9401 231.736 59.7721 233.948H54.4801C54.4801 235.292 55.3481 236.118 56.5101 236.118C57.6021 236.118 58.1481 235.656 58.4421 234.914L59.6601 235.068C59.3381 236.202 58.2601 237.168 56.5381 237.168ZM56.5521 231.036C55.3621 231.036 54.5501 231.75 54.4941 232.954H58.5121C58.4841 232.03 57.8261 231.036 56.5521 231.036ZM67.4017 230.112V231.372C67.1497 231.344 66.9397 231.33 66.7437 231.33C65.6517 231.33 65.1057 231.932 65.1057 233.472V237H63.9157V230.14H65.0777V231.358C65.4277 230.574 66.1417 230.126 67.0517 230.098C67.1637 230.098 67.2757 230.098 67.4017 230.112ZM71.1161 237.168C68.8761 237.168 67.7981 235.6 67.7981 233.598C67.7981 231.456 69.1841 230.028 71.1301 230.028C73.2861 230.028 74.5181 231.736 74.3501 233.948H69.0581C69.0581 235.292 69.9261 236.118 71.0881 236.118C72.1801 236.118 72.7261 235.656 73.0201 234.914L74.2381 235.068C73.9161 236.202 72.8381 237.168 71.1161 237.168ZM71.1301 231.036C69.9401 231.036 69.1281 231.75 69.0721 232.954H73.0901C73.0621 232.03 72.4041 231.036 71.1301 231.036ZM78.496 230.028C80.204 230.028 81.226 231.232 81.38 232.296L80.176 232.464C80.008 231.61 79.336 231.078 78.412 231.078C77.32 231.078 76.424 231.89 76.424 233.57C76.424 235.278 77.334 236.118 78.412 236.118C79.42 236.118 80.064 235.502 80.232 234.746L81.45 234.9C81.226 236.104 80.022 237.168 78.384 237.168C76.34 237.168 75.164 235.642 75.164 233.584C75.164 231.568 76.382 230.028 78.496 230.028ZM83.448 233.598C83.448 235.39 84.302 236.132 85.422 236.132C86.542 236.132 87.396 235.39 87.396 233.598C87.396 231.806 86.542 231.064 85.422 231.064C84.302 231.064 83.448 231.806 83.448 233.598ZM82.188 233.598C82.188 231.134 83.742 230.028 85.422 230.028C87.102 230.028 88.656 231.134 88.656 233.598C88.656 236.062 87.102 237.168 85.422 237.168C83.742 237.168 82.188 236.062 82.188 233.598ZM89.9339 237V230.14H91.1239V231.092C91.4879 230.476 92.1179 230.028 93.2519 230.028C94.3439 230.028 94.8899 230.504 95.2119 231.218C95.7299 230.434 96.4859 230.028 97.6199 230.028C98.3479 230.028 98.8939 230.294 99.2579 230.672C99.6779 231.12 99.8599 231.82 99.8599 232.786V237H98.6699V233.122C98.6699 232.282 98.5579 231.75 98.2779 231.456C98.0259 231.19 97.6619 231.064 97.1859 231.064C96.1499 231.064 95.4919 231.862 95.4919 233.304V237H94.3019V233.122C94.3019 232.282 94.1899 231.75 93.9099 231.456C93.6579 231.19 93.2939 231.064 92.8179 231.064C91.7819 231.064 91.1239 231.862 91.1239 233.304V237H89.9339ZM101.483 237V230.14H102.673V231.092C103.037 230.476 103.667 230.028 104.801 230.028C105.893 230.028 106.439 230.504 106.761 231.218C107.279 230.434 108.035 230.028 109.169 230.028C109.897 230.028 110.443 230.294 110.807 230.672C111.227 231.12 111.409 231.82 111.409 232.786V237H110.219V233.122C110.219 232.282 110.107 231.75 109.827 231.456C109.575 231.19 109.211 231.064 108.735 231.064C107.699 231.064 107.041 231.862 107.041 233.304V237H105.851V233.122C105.851 232.282 105.739 231.75 105.459 231.456C105.207 231.19 104.843 231.064 104.367 231.064C103.331 231.064 102.673 231.862 102.673 233.304V237H101.483ZM115.889 237.168C113.649 237.168 112.571 235.6 112.571 233.598C112.571 231.456 113.957 230.028 115.903 230.028C118.059 230.028 119.291 231.736 119.123 233.948H113.831C113.831 235.292 114.699 236.118 115.861 236.118C116.953 236.118 117.499 235.656 117.793 234.914L119.011 235.068C118.689 236.202 117.611 237.168 115.889 237.168ZM115.903 231.036C114.713 231.036 113.901 231.75 113.845 232.954H117.863C117.835 232.03 117.177 231.036 115.903 231.036ZM121.52 230.14V231.092C121.912 230.49 122.598 230.028 123.774 230.028C124.698 230.028 125.342 230.378 125.706 230.966C125.972 231.4 126.084 231.974 126.084 232.786V237H124.894V233.108C124.894 232.38 124.81 231.946 124.642 231.652C124.39 231.232 123.97 231.064 123.368 231.064C122.22 231.064 121.52 231.848 121.52 233.346V237H120.33V230.14H121.52ZM133.52 227.704V237H132.372L132.33 236.062C131.896 236.72 131.252 237.168 130.104 237.168C128.452 237.168 127.248 235.824 127.248 233.584C127.248 231.372 128.494 230.028 130.244 230.028C131.238 230.028 131.952 230.448 132.33 231.036V227.704H133.52ZM130.412 236.132C131.462 236.132 132.386 235.362 132.386 233.584C132.386 231.806 131.504 231.064 130.412 231.064C129.166 231.064 128.508 232.002 128.508 233.584C128.508 235.18 129.152 236.132 130.412 236.132ZM138.109 237.168C135.869 237.168 134.791 235.6 134.791 233.598C134.791 231.456 136.177 230.028 138.123 230.028C140.279 230.028 141.511 231.736 141.343 233.948H136.051C136.051 235.292 136.919 236.118 138.081 236.118C139.173 236.118 139.719 235.656 140.013 234.914L141.231 235.068C140.909 236.202 139.831 237.168 138.109 237.168ZM138.123 231.036C136.933 231.036 136.121 231.75 136.065 232.954H140.083C140.055 232.03 139.397 231.036 138.123 231.036ZM148.429 227.704V237H147.281L147.239 236.062C146.805 236.72 146.161 237.168 145.013 237.168C143.361 237.168 142.157 235.824 142.157 233.584C142.157 231.372 143.403 230.028 145.153 230.028C146.147 230.028 146.861 230.448 147.239 231.036V227.704H148.429ZM145.321 236.132C146.371 236.132 147.295 235.362 147.295 233.584C147.295 231.806 146.413 231.064 145.321 231.064C144.075 231.064 143.417 232.002 143.417 233.584C143.417 235.18 144.061 236.132 145.321 236.132ZM153.435 230.14V228.25H154.625V230.14H155.941V231.12H154.625V235.082C154.625 235.81 154.667 235.992 155.353 235.992H155.941V237H155.087C153.743 237 153.435 236.706 153.435 235.25V231.12H152.329V230.14H153.435ZM157.982 233.598C157.982 235.39 158.836 236.132 159.956 236.132C161.076 236.132 161.93 235.39 161.93 233.598C161.93 231.806 161.076 231.064 159.956 231.064C158.836 231.064 157.982 231.806 157.982 233.598ZM156.722 233.598C156.722 231.134 158.276 230.028 159.956 230.028C161.636 230.028 163.19 231.134 163.19 233.598C163.19 236.062 161.636 237.168 159.956 237.168C158.276 237.168 156.722 236.062 156.722 233.598ZM170.274 230.028C171.982 230.028 173.004 231.232 173.158 232.296L171.954 232.464C171.786 231.61 171.114 231.078 170.19 231.078C169.098 231.078 168.202 231.89 168.202 233.57C168.202 235.278 169.112 236.118 170.19 236.118C171.198 236.118 171.842 235.502 172.01 234.746L173.228 234.9C173.004 236.104 171.8 237.168 170.162 237.168C168.118 237.168 166.942 235.642 166.942 233.584C166.942 231.568 168.16 230.028 170.274 230.028ZM178.727 237V236.02C178.349 236.664 177.747 237.154 176.571 237.154C175.731 237.154 175.143 236.846 174.779 236.356C174.443 235.908 174.303 235.25 174.303 234.396V230.14H175.493V234.018C175.493 234.718 175.563 235.166 175.717 235.474C175.941 235.936 176.389 236.118 177.005 236.118C178.083 236.118 178.727 235.32 178.727 233.878V230.14H179.917V237H178.727ZM186.893 232.002L185.661 232.114C185.479 231.316 184.821 231.022 183.953 231.022C183.211 231.022 182.483 231.288 182.483 231.862C182.483 232.394 182.889 232.618 183.617 232.772L184.443 232.94C185.731 233.206 186.935 233.668 186.935 235.026C186.935 236.398 185.689 237.168 184.079 237.168C182.245 237.168 181.237 236.02 181.111 234.942L182.357 234.83C182.539 235.656 183.071 236.174 184.107 236.174C185.059 236.174 185.731 235.754 185.731 235.152C185.731 234.522 185.031 234.214 184.233 234.046L183.337 233.864C182.343 233.668 181.293 233.234 181.293 231.932C181.293 230.728 182.609 230.028 184.079 230.028C185.619 230.028 186.627 230.826 186.893 232.002ZM188.783 230.14V228.25H189.973V230.14H191.289V231.12H189.973V235.082C189.973 235.81 190.015 235.992 190.701 235.992H191.289V237H190.435C189.091 237 188.783 236.706 188.783 235.25V231.12H187.677V230.14H188.783ZM193.334 233.598C193.334 235.39 194.188 236.132 195.308 236.132C196.428 236.132 197.282 235.39 197.282 233.598C197.282 231.806 196.428 231.064 195.308 231.064C194.188 231.064 193.334 231.806 193.334 233.598ZM192.074 233.598C192.074 231.134 193.628 230.028 195.308 230.028C196.988 230.028 198.542 231.134 198.542 233.598C198.542 236.062 196.988 237.168 195.308 237.168C193.628 237.168 192.074 236.062 192.074 233.598ZM199.82 237V230.14H201.01V231.092C201.374 230.476 202.004 230.028 203.138 230.028C204.23 230.028 204.776 230.504 205.098 231.218C205.616 230.434 206.372 230.028 207.506 230.028C208.234 230.028 208.78 230.294 209.144 230.672C209.564 231.12 209.746 231.82 209.746 232.786V237H208.556V233.122C208.556 232.282 208.444 231.75 208.164 231.456C207.912 231.19 207.548 231.064 207.072 231.064C206.036 231.064 205.378 231.862 205.378 233.304V237H204.188V233.122C204.188 232.282 204.076 231.75 203.796 231.456C203.544 231.19 203.18 231.064 202.704 231.064C201.668 231.064 201.01 231.862 201.01 233.304V237H199.82ZM214.226 237.168C211.986 237.168 210.908 235.6 210.908 233.598C210.908 231.456 212.294 230.028 214.24 230.028C216.396 230.028 217.628 231.736 217.46 233.948H212.168C212.168 235.292 213.036 236.118 214.198 236.118C215.29 236.118 215.836 235.656 216.13 234.914L217.348 235.068C217.026 236.202 215.948 237.168 214.226 237.168ZM214.24 231.036C213.05 231.036 212.238 231.75 212.182 232.954H216.2C216.172 232.03 215.514 231.036 214.24 231.036ZM222.153 230.112V231.372C221.901 231.344 221.691 231.33 221.495 231.33C220.403 231.33 219.857 231.932 219.857 233.472V237H218.667V230.14H219.829V231.358C220.179 230.574 220.893 230.126 221.803 230.098C221.915 230.098 222.027 230.098 222.153 230.112ZM228.316 232.002L227.084 232.114C226.902 231.316 226.244 231.022 225.376 231.022C224.634 231.022 223.906 231.288 223.906 231.862C223.906 232.394 224.312 232.618 225.04 232.772L225.866 232.94C227.154 233.206 228.358 233.668 228.358 235.026C228.358 236.398 227.112 237.168 225.502 237.168C223.668 237.168 222.66 236.02 222.534 234.942L223.78 234.83C223.962 235.656 224.494 236.174 225.53 236.174C226.482 236.174 227.154 235.754 227.154 235.152C227.154 234.522 226.454 234.214 225.656 234.046L224.76 233.864C223.766 233.668 222.716 233.234 222.716 231.932C222.716 230.728 224.032 230.028 225.502 230.028C227.042 230.028 228.05 230.826 228.316 232.002ZM229.432 237V235.502H230.93V237.098L230.132 238.806H229.376L230.062 237H229.432ZM236.506 232.254L235.344 232.212C235.428 230.798 236.674 230.014 238.214 230.014C240.16 230.014 240.958 230.77 240.93 232.618L240.902 234.354C240.888 235.432 240.958 236.09 241.042 237H239.894L239.852 236.034C239.432 236.72 238.76 237.168 237.542 237.168C235.946 237.168 235.12 236.118 235.12 234.942C235.12 234.2 235.498 233.696 236.044 233.388C236.702 233.024 237.528 232.884 238.41 232.786L239.74 232.646V232.394C239.74 231.274 239.068 230.98 238.158 230.98C237.08 230.98 236.576 231.498 236.506 232.254ZM239.824 234.032V233.626L238.396 233.766C237.052 233.892 236.38 234.214 236.38 234.984C236.38 235.712 236.954 236.132 237.766 236.132C238.732 236.132 239.824 235.614 239.824 234.032ZM243.753 230.14V231.092C244.145 230.49 244.831 230.028 246.007 230.028C246.931 230.028 247.575 230.378 247.939 230.966C248.205 231.4 248.317 231.974 248.317 232.786V237H247.127V233.108C247.127 232.38 247.043 231.946 246.875 231.652C246.623 231.232 246.203 231.064 245.601 231.064C244.453 231.064 243.753 231.848 243.753 233.346V237H242.563V230.14H243.753ZM255.752 227.704V237H254.604L254.562 236.062C254.128 236.72 253.484 237.168 252.336 237.168C250.684 237.168 249.48 235.824 249.48 233.584C249.48 231.372 250.726 230.028 252.476 230.028C253.47 230.028 254.184 230.448 254.562 231.036V227.704H255.752ZM252.644 236.132C253.694 236.132 254.618 235.362 254.618 233.584C254.618 231.806 253.736 231.064 252.644 231.064C251.398 231.064 250.74 232.002 250.74 233.584C250.74 235.18 251.384 236.132 252.644 236.132ZM268.594 232.002L267.362 232.114C267.18 231.316 266.522 231.022 265.654 231.022C264.912 231.022 264.184 231.288 264.184 231.862C264.184 232.394 264.59 232.618 265.318 232.772L266.144 232.94C267.432 233.206 268.636 233.668 268.636 235.026C268.636 236.398 267.39 237.168 265.78 237.168C263.946 237.168 262.938 236.02 262.812 234.942L264.058 234.83C264.24 235.656 264.772 236.174 265.808 236.174C266.76 236.174 267.432 235.754 267.432 235.152C267.432 234.522 266.732 234.214 265.934 234.046L265.038 233.864C264.044 233.668 262.994 233.234 262.994 231.932C262.994 230.728 264.31 230.028 265.78 230.028C267.32 230.028 268.328 230.826 268.594 232.002ZM270.484 230.14V228.25H271.674V230.14H272.99V231.12H271.674V235.082C271.674 235.81 271.716 235.992 272.402 235.992H272.99V237H272.136C270.792 237 270.484 236.706 270.484 235.25V231.12H269.378V230.14H270.484ZM275.036 233.598C275.036 235.39 275.89 236.132 277.01 236.132C278.13 236.132 278.984 235.39 278.984 233.598C278.984 231.806 278.13 231.064 277.01 231.064C275.89 231.064 275.036 231.806 275.036 233.598ZM273.776 233.598C273.776 231.134 275.33 230.028 277.01 230.028C278.69 230.028 280.244 231.134 280.244 233.598C280.244 236.062 278.69 237.168 277.01 237.168C275.33 237.168 273.776 236.062 273.776 233.598ZM284.501 230.028C286.209 230.028 287.231 231.232 287.385 232.296L286.181 232.464C286.013 231.61 285.341 231.078 284.417 231.078C283.325 231.078 282.429 231.89 282.429 233.57C282.429 235.278 283.339 236.118 284.417 236.118C285.425 236.118 286.069 235.502 286.237 234.746L287.455 234.9C287.231 236.104 286.027 237.168 284.389 237.168C282.345 237.168 281.169 235.642 281.169 233.584C281.169 231.568 282.387 230.028 284.501 230.028ZM288.587 227.704H289.777V233.038L292.591 230.14H294.047L291.583 232.674L294.271 237H292.885L290.771 233.514L289.777 234.536V237H288.587V227.704ZM33.946 250.254L32.784 250.212C32.868 248.798 34.114 248.014 35.654 248.014C37.6 248.014 38.398 248.77 38.37 250.618L38.342 252.354C38.328 253.432 38.398 254.09 38.482 255H37.334L37.292 254.034C36.872 254.72 36.2 255.168 34.982 255.168C33.386 255.168 32.56 254.118 32.56 252.942C32.56 252.2 32.938 251.696 33.484 251.388C34.142 251.024 34.968 250.884 35.85 250.786L37.18 250.646V250.394C37.18 249.274 36.508 248.98 35.598 248.98C34.52 248.98 34.016 249.498 33.946 250.254ZM37.264 252.032V251.626L35.836 251.766C34.492 251.892 33.82 252.214 33.82 252.984C33.82 253.712 34.394 254.132 35.206 254.132C36.172 254.132 37.264 253.614 37.264 252.032ZM40.3401 248.14L42.2441 253.362L44.1341 248.14H45.3661L42.7201 255H41.6701L39.0241 248.14H40.3401ZM47.0918 250.254L45.9298 250.212C46.0138 248.798 47.2598 248.014 48.7998 248.014C50.7458 248.014 51.5438 248.77 51.5158 250.618L51.4878 252.354C51.4738 253.432 51.5438 254.09 51.6278 255H50.4798L50.4378 254.034C50.0178 254.72 49.3458 255.168 48.1278 255.168C46.5318 255.168 45.7058 254.118 45.7058 252.942C45.7058 252.2 46.0838 251.696 46.6298 251.388C47.2878 251.024 48.1138 250.884 48.9958 250.786L50.3258 250.646V250.394C50.3258 249.274 49.6538 248.98 48.7438 248.98C47.6658 248.98 47.1618 249.498 47.0918 250.254ZM50.4098 252.032V251.626L48.9818 251.766C47.6378 251.892 46.9658 252.214 46.9658 252.984C46.9658 253.712 47.5398 254.132 48.3518 254.132C49.3178 254.132 50.4098 253.614 50.4098 252.032ZM53.1489 248.14H54.3389V255H53.1489V248.14ZM53.1489 245.704H54.3389V247.132H53.1489V245.704ZM57.2614 245.704V255H56.0714V245.704H57.2614ZM60.0019 250.254L58.8399 250.212C58.9239 248.798 60.1699 248.014 61.7099 248.014C63.6559 248.014 64.4539 248.77 64.4259 250.618L64.3979 252.354C64.3839 253.432 64.4539 254.09 64.5379 255H63.3899L63.3479 254.034C62.9279 254.72 62.2559 255.168 61.0379 255.168C59.4419 255.168 58.6159 254.118 58.6159 252.942C58.6159 252.2 58.9939 251.696 59.5399 251.388C60.1979 251.024 61.0239 250.884 61.9059 250.786L63.2359 250.646V250.394C63.2359 249.274 62.5639 248.98 61.6539 248.98C60.5759 248.98 60.0719 249.498 60.0019 250.254ZM63.3199 252.032V251.626L61.8919 251.766C60.5479 251.892 59.8759 252.214 59.8759 252.984C59.8759 253.712 60.4499 254.132 61.2619 254.132C62.2279 254.132 63.3199 253.614 63.3199 252.032ZM66.0589 255V245.704H67.2489V249.134C67.6829 248.476 68.3269 248.028 69.4749 248.028C71.1269 248.028 72.3309 249.372 72.3309 251.612C72.3309 253.824 71.0849 255.168 69.3349 255.168C68.3409 255.168 67.6269 254.748 67.2489 254.16L67.1929 255H66.0589ZM69.1669 249.064C68.1169 249.064 67.1929 249.834 67.1929 251.612C67.1929 253.39 68.0749 254.132 69.1669 254.132C70.4129 254.132 71.0709 253.194 71.0709 251.612C71.0709 250.016 70.4269 249.064 69.1669 249.064ZM73.6025 248.14H74.7925V255H73.6025V248.14ZM73.6025 245.704H74.7925V247.132H73.6025V245.704ZM77.715 245.704V255H76.525V245.704H77.715ZM79.4475 248.14H80.6375V255H79.4475V248.14ZM79.4475 245.704H80.6375V247.132H79.4475V245.704ZM82.706 248.14V246.25H83.896V248.14H85.212V249.12H83.896V253.082C83.896 253.81 83.938 253.992 84.624 253.992H85.212V255H84.358C83.014 255 82.706 254.706 82.706 253.25V249.12H81.6V248.14H82.706ZM86.7486 257.422H86.1326V256.386H86.6226C87.3926 256.386 87.7426 256.302 88.0926 255.14L88.1346 255L85.6146 248.14H86.9306L88.7086 253.404L90.4446 248.14H91.6766L89.1846 255.294C88.6946 256.694 88.3026 257.422 86.7486 257.422ZM97.0968 253.18L98.4828 248.14H99.7148L101.101 253.18L102.445 248.14H103.719L101.703 255H100.625L99.0708 249.512L97.5728 255H96.4948L94.4788 248.14H95.7528L97.0968 253.18ZM105.486 250.254L104.324 250.212C104.408 248.798 105.654 248.014 107.194 248.014C109.14 248.014 109.938 248.77 109.91 250.618L109.882 252.354C109.868 253.432 109.938 254.09 110.022 255H108.874L108.832 254.034C108.412 254.72 107.74 255.168 106.522 255.168C104.926 255.168 104.1 254.118 104.1 252.942C104.1 252.2 104.478 251.696 105.024 251.388C105.682 251.024 106.508 250.884 107.39 250.786L108.72 250.646V250.394C108.72 249.274 108.048 248.98 107.138 248.98C106.06 248.98 105.556 249.498 105.486 250.254ZM108.804 252.032V251.626L107.376 251.766C106.032 251.892 105.36 252.214 105.36 252.984C105.36 253.712 105.934 254.132 106.746 254.132C107.712 254.132 108.804 253.614 108.804 252.032ZM116.779 250.002L115.547 250.114C115.365 249.316 114.707 249.022 113.839 249.022C113.097 249.022 112.369 249.288 112.369 249.862C112.369 250.394 112.775 250.618 113.503 250.772L114.329 250.94C115.617 251.206 116.821 251.668 116.821 253.026C116.821 254.398 115.575 255.168 113.965 255.168C112.131 255.168 111.123 254.02 110.997 252.942L112.243 252.83C112.425 253.656 112.957 254.174 113.993 254.174C114.945 254.174 115.617 253.754 115.617 253.152C115.617 252.522 114.917 252.214 114.119 252.046L113.223 251.864C112.229 251.668 111.179 251.234 111.179 249.932C111.179 248.728 112.495 248.028 113.965 248.028C115.505 248.028 116.513 248.826 116.779 250.002ZM123.936 248.028C125.644 248.028 126.666 249.232 126.82 250.296L125.616 250.464C125.448 249.61 124.776 249.078 123.852 249.078C122.76 249.078 121.864 249.89 121.864 251.57C121.864 253.278 122.774 254.118 123.852 254.118C124.86 254.118 125.504 253.502 125.672 252.746L126.89 252.9C126.666 254.104 125.462 255.168 123.824 255.168C121.78 255.168 120.604 253.642 120.604 251.584C120.604 249.568 121.822 248.028 123.936 248.028ZM129.212 245.704V249.092C129.604 248.49 130.29 248.028 131.466 248.028C132.39 248.028 133.034 248.378 133.398 248.966C133.664 249.4 133.776 249.974 133.776 250.786V255H132.586V251.108C132.586 250.38 132.502 249.946 132.334 249.652C132.082 249.232 131.662 249.064 131.06 249.064C129.912 249.064 129.212 249.848 129.212 251.346V255H128.022V245.704H129.212ZM138.257 255.168C136.017 255.168 134.939 253.6 134.939 251.598C134.939 249.456 136.325 248.028 138.271 248.028C140.427 248.028 141.659 249.736 141.491 251.948H136.199C136.199 253.292 137.067 254.118 138.229 254.118C139.321 254.118 139.867 253.656 140.161 252.914L141.379 253.068C141.057 254.202 139.979 255.168 138.257 255.168ZM138.271 249.036C137.081 249.036 136.269 249.75 136.213 250.954H140.231C140.203 250.03 139.545 249.036 138.271 249.036ZM145.637 248.028C147.345 248.028 148.367 249.232 148.521 250.296L147.317 250.464C147.149 249.61 146.477 249.078 145.553 249.078C144.461 249.078 143.565 249.89 143.565 251.57C143.565 253.278 144.475 254.118 145.553 254.118C146.561 254.118 147.205 253.502 147.373 252.746L148.591 252.9C148.367 254.104 147.163 255.168 145.525 255.168C143.481 255.168 142.305 253.642 142.305 251.584C142.305 249.568 143.523 248.028 145.637 248.028ZM149.723 245.704H150.913V251.038L153.727 248.14H155.183L152.719 250.674L155.407 255H154.021L151.907 251.514L150.913 252.536V255H149.723V245.704ZM158.933 255.168C156.693 255.168 155.615 253.6 155.615 251.598C155.615 249.456 157.001 248.028 158.947 248.028C161.103 248.028 162.335 249.736 162.167 251.948H156.875C156.875 253.292 157.743 254.118 158.905 254.118C159.997 254.118 160.543 253.656 160.837 252.914L162.055 253.068C161.733 254.202 160.655 255.168 158.933 255.168ZM158.947 249.036C157.757 249.036 156.945 249.75 156.889 250.954H160.907C160.879 250.03 160.221 249.036 158.947 249.036ZM169.253 245.704V255H168.105L168.063 254.062C167.629 254.72 166.985 255.168 165.837 255.168C164.185 255.168 162.981 253.824 162.981 251.584C162.981 249.372 164.227 248.028 165.977 248.028C166.971 248.028 167.685 248.448 168.063 249.036V245.704H169.253ZM166.145 254.132C167.195 254.132 168.119 253.362 168.119 251.584C168.119 249.806 167.237 249.064 166.145 249.064C164.899 249.064 164.241 250.002 164.241 251.584C164.241 253.18 164.885 254.132 166.145 254.132ZM174.216 248.14V247.636C174.216 246.18 174.524 245.704 176.106 245.704H176.722V246.712H176.134C175.518 246.712 175.406 246.894 175.406 247.622V248.14H176.722V249.12H175.406V255H174.216V249.12H173.25V248.14H174.216ZM178.518 251.598C178.518 253.39 179.372 254.132 180.492 254.132C181.612 254.132 182.466 253.39 182.466 251.598C182.466 249.806 181.612 249.064 180.492 249.064C179.372 249.064 178.518 249.806 178.518 251.598ZM177.258 251.598C177.258 249.134 178.812 248.028 180.492 248.028C182.172 248.028 183.726 249.134 183.726 251.598C183.726 254.062 182.172 255.168 180.492 255.168C178.812 255.168 177.258 254.062 177.258 251.598ZM188.49 248.112V249.372C188.238 249.344 188.028 249.33 187.832 249.33C186.74 249.33 186.194 249.932 186.194 251.472V255H185.004V248.14H186.166V249.358C186.516 248.574 187.23 248.126 188.14 248.098C188.252 248.098 188.364 248.098 188.49 248.112ZM195.011 255H193.821V247.762H191.637V246.95C192.995 246.908 193.681 246.74 194.199 245.704H195.011V255ZM205.518 255H204.118L201.514 246.922V255H200.184V245.704H202.41L204.818 253.432L207.226 245.704H209.452V255H208.122V246.922L205.518 255ZM211.374 248.14H212.564V255H211.374V248.14ZM211.374 245.704H212.564V247.132H211.374V245.704ZM215.487 245.704V255H214.297V245.704H215.487ZM218.409 245.704V255H217.219V245.704H218.409ZM220.142 248.14H221.332V255H220.142V248.14ZM220.142 245.704H221.332V247.132H220.142V245.704ZM223.862 251.598C223.862 253.39 224.716 254.132 225.836 254.132C226.956 254.132 227.81 253.39 227.81 251.598C227.81 249.806 226.956 249.064 225.836 249.064C224.716 249.064 223.862 249.806 223.862 251.598ZM222.602 251.598C222.602 249.134 224.156 248.028 225.836 248.028C227.516 248.028 229.07 249.134 229.07 251.598C229.07 254.062 227.516 255.168 225.836 255.168C224.156 255.168 222.602 254.062 222.602 251.598ZM231.538 248.14V249.092C231.93 248.49 232.616 248.028 233.792 248.028C234.716 248.028 235.36 248.378 235.724 248.966C235.99 249.4 236.102 249.974 236.102 250.786V255H234.912V251.108C234.912 250.38 234.828 249.946 234.66 249.652C234.408 249.232 233.988 249.064 233.386 249.064C232.238 249.064 231.538 249.848 231.538 251.346V255H230.348V248.14H231.538ZM245.9 250.002L244.668 250.114C244.486 249.316 243.828 249.022 242.96 249.022C242.218 249.022 241.49 249.288 241.49 249.862C241.49 250.394 241.896 250.618 242.624 250.772L243.45 250.94C244.738 251.206 245.942 251.668 245.942 253.026C245.942 254.398 244.696 255.168 243.086 255.168C241.252 255.168 240.244 254.02 240.118 252.942L241.364 252.83C241.546 253.656 242.078 254.174 243.114 254.174C244.066 254.174 244.738 253.754 244.738 253.152C244.738 252.522 244.038 252.214 243.24 252.046L242.344 251.864C241.35 251.668 240.3 251.234 240.3 249.932C240.3 248.728 241.616 248.028 243.086 248.028C244.626 248.028 245.634 248.826 245.9 250.002ZM247.25 248.14H248.44V255H247.25V248.14ZM247.25 245.704H248.44V247.132H247.25V245.704ZM249.669 255V254.02L253.715 249.12H249.935V248.14H255.101V249.12L251.055 254.02H255.171V255H249.669ZM259.246 255.168C257.006 255.168 255.928 253.6 255.928 251.598C255.928 249.456 257.314 248.028 259.26 248.028C261.416 248.028 262.648 249.736 262.48 251.948H257.188C257.188 253.292 258.056 254.118 259.218 254.118C260.31 254.118 260.856 253.656 261.15 252.914L262.368 253.068C262.046 254.202 260.968 255.168 259.246 255.168ZM259.26 249.036C258.07 249.036 257.258 249.75 257.202 250.954H261.22C261.192 250.03 260.534 249.036 259.26 249.036ZM268.951 250.002L267.719 250.114C267.537 249.316 266.879 249.022 266.011 249.022C265.269 249.022 264.541 249.288 264.541 249.862C264.541 250.394 264.947 250.618 265.675 250.772L266.501 250.94C267.789 251.206 268.993 251.668 268.993 253.026C268.993 254.398 267.747 255.168 266.137 255.168C264.303 255.168 263.295 254.02 263.169 252.942L264.415 252.83C264.597 253.656 265.129 254.174 266.165 254.174C267.117 254.174 267.789 253.754 267.789 253.152C267.789 252.522 267.089 252.214 266.291 252.046L265.395 251.864C264.401 251.668 263.351 251.234 263.351 249.932C263.351 248.728 264.667 248.028 266.137 248.028C267.677 248.028 268.685 248.826 268.951 250.002Z" fill="#1B1B1B"/>
</svg>
