<svg width="325" height="292" viewBox="0 0 325 292" fill="none" xmlns="http://www.w3.org/2000/svg">
<rect width="325" height="292" fill="#EEEEEE"/>
<path d="M62.91 40.64C76.55 40.64 86.45 47.57 86.45 60.11C86.45 77.27 68.3 91.13 48.39 106.31H88.43V115H35.08V106.64C61.26 87.28 76.55 74.41 76.55 61.32C76.55 53.62 71.49 48.78 62.69 48.78C54.66 48.78 46.96 53.07 46.74 65.28L37.17 65.06C36.95 50.87 47.18 40.64 62.91 40.64ZM98.5337 41.96H107.884V83.87L129.994 61.1H141.434L122.074 81.01L143.194 115H132.304L115.694 87.61L107.884 95.64V115H98.5337V41.96Z" fill="#1B1B1B"/>
<path d="M35.942 158V147.56H32V146.048H41.594V147.56H37.652V158H35.942ZM42.6237 149.18H44.1537V158H42.6237V149.18ZM42.6237 146.048H44.1537V147.884H42.6237V146.048ZM46.3812 158V149.18H47.9112V150.404C48.3792 149.612 49.1892 149.036 50.6472 149.036C52.0512 149.036 52.7532 149.648 53.1672 150.566C53.8332 149.558 54.8052 149.036 56.2632 149.036C57.1992 149.036 57.9012 149.378 58.3692 149.864C58.9092 150.44 59.1432 151.34 59.1432 152.582V158H57.6132V153.014C57.6132 151.934 57.4692 151.25 57.1092 150.872C56.7852 150.53 56.3172 150.368 55.7052 150.368C54.3732 150.368 53.5272 151.394 53.5272 153.248V158H51.9972V153.014C51.9972 151.934 51.8532 151.25 51.4932 150.872C51.1692 150.53 50.7012 150.368 50.0892 150.368C48.7572 150.368 47.9112 151.394 47.9112 153.248V158H46.3812ZM64.9025 158.216C62.0225 158.216 60.6365 156.2 60.6365 153.626C60.6365 150.872 62.4185 149.036 64.9205 149.036C67.6925 149.036 69.2765 151.232 69.0605 154.076H62.2565C62.2565 155.804 63.3725 156.866 64.8665 156.866C66.2705 156.866 66.9725 156.272 67.3505 155.318L68.9165 155.516C68.5025 156.974 67.1165 158.216 64.9025 158.216ZM64.9205 150.332C63.3905 150.332 62.3465 151.25 62.2745 152.798H67.4405C67.4045 151.61 66.5585 150.332 64.9205 150.332ZM77.3801 151.574L75.7961 151.718C75.5621 150.692 74.7161 150.314 73.6001 150.314C72.6461 150.314 71.7101 150.656 71.7101 151.394C71.7101 152.078 72.2321 152.366 73.1681 152.564L74.2301 152.78C75.8861 153.122 77.4341 153.716 77.4341 155.462C77.4341 157.226 75.8321 158.216 73.7621 158.216C71.4041 158.216 70.1081 156.74 69.9461 155.354L71.5481 155.21C71.7821 156.272 72.4661 156.938 73.7981 156.938C75.0221 156.938 75.8861 156.398 75.8861 155.624C75.8861 154.814 74.9861 154.418 73.9601 154.202L72.8081 153.968C71.5301 153.716 70.1801 153.158 70.1801 151.484C70.1801 149.936 71.8721 149.036 73.7621 149.036C75.7421 149.036 77.0381 150.062 77.3801 151.574ZM84.4216 156.92V161.114H82.8916V149.18H84.3856L84.4216 150.458C84.9796 149.612 85.8076 149.036 87.2836 149.036C89.4076 149.036 90.9556 150.764 90.9556 153.644C90.9556 156.488 89.3536 158.216 87.1036 158.216C85.8256 158.216 84.9076 157.676 84.4216 156.92ZM86.8876 150.368C85.5376 150.368 84.3496 151.358 84.3496 153.644C84.3496 155.93 85.4836 156.884 86.8876 156.884C88.4896 156.884 89.3356 155.678 89.3356 153.644C89.3356 151.592 88.5076 150.368 86.8876 150.368ZM96.4032 158.216C93.5232 158.216 92.1372 156.2 92.1372 153.626C92.1372 150.872 93.9192 149.036 96.4212 149.036C99.1932 149.036 100.777 151.232 100.561 154.076H93.7572C93.7572 155.804 94.8732 156.866 96.3672 156.866C97.7712 156.866 98.4732 156.272 98.8512 155.318L100.417 155.516C100.003 156.974 98.6172 158.216 96.4032 158.216ZM96.4212 150.332C94.8912 150.332 93.8472 151.25 93.7752 152.798H98.9412C98.9052 151.61 98.0592 150.332 96.4212 150.332ZM106.596 149.144V150.764C106.272 150.728 106.002 150.71 105.75 150.71C104.346 150.71 103.644 151.484 103.644 153.464V158H102.114V149.18H103.608V150.746C104.058 149.738 104.976 149.162 106.146 149.126C106.29 149.126 106.434 149.126 106.596 149.144ZM119.12 146.048V158H117.644L117.59 156.794C117.032 157.64 116.204 158.216 114.728 158.216C112.604 158.216 111.056 156.488 111.056 153.608C111.056 150.764 112.658 149.036 114.908 149.036C116.186 149.036 117.104 149.576 117.59 150.332V146.048H119.12ZM115.124 156.884C116.474 156.884 117.662 155.894 117.662 153.608C117.662 151.322 116.528 150.368 115.124 150.368C113.522 150.368 112.676 151.574 112.676 153.608C112.676 155.66 113.504 156.884 115.124 156.884ZM122.645 151.898L121.151 151.844C121.259 150.026 122.861 149.018 124.841 149.018C127.343 149.018 128.369 149.99 128.333 152.366L128.297 154.598C128.279 155.984 128.369 156.83 128.477 158H127.001L126.947 156.758C126.407 157.64 125.543 158.216 123.977 158.216C121.925 158.216 120.863 156.866 120.863 155.354C120.863 154.4 121.349 153.752 122.051 153.356C122.897 152.888 123.959 152.708 125.093 152.582L126.803 152.402V152.078C126.803 150.638 125.939 150.26 124.769 150.26C123.383 150.26 122.735 150.926 122.645 151.898ZM126.911 154.184V153.662L125.075 153.842C123.347 154.004 122.483 154.418 122.483 155.408C122.483 156.344 123.221 156.884 124.265 156.884C125.507 156.884 126.911 156.218 126.911 154.184ZM130.758 161.114H129.966V159.782H130.596C131.586 159.782 132.036 159.674 132.486 158.18L132.54 158L129.3 149.18H130.992L133.278 155.948L135.51 149.18H137.094L133.89 158.378C133.26 160.178 132.756 161.114 130.758 161.114Z" fill="#1B1B1B"/>
<path d="M33.274 230.14V228.25H34.464V230.14H35.78V231.12H34.464V235.082C34.464 235.81 34.506 235.992 35.192 235.992H35.78V237H34.926C33.582 237 33.274 236.706 33.274 235.25V231.12H32.168V230.14H33.274ZM38.2126 227.704V231.092C38.6046 230.49 39.2906 230.028 40.4666 230.028C41.3906 230.028 42.0346 230.378 42.3986 230.966C42.6646 231.4 42.7766 231.974 42.7766 232.786V237H41.5866V233.108C41.5866 232.38 41.5026 231.946 41.3346 231.652C41.0826 231.232 40.6626 231.064 40.0606 231.064C38.9126 231.064 38.2126 231.848 38.2126 233.346V237H37.0226V227.704H38.2126ZM47.2581 237.168C45.0181 237.168 43.9401 235.6 43.9401 233.598C43.9401 231.456 45.3261 230.028 47.2721 230.028C49.4281 230.028 50.6601 231.736 50.4921 233.948H45.2001C45.2001 235.292 46.0681 236.118 47.2301 236.118C48.3221 236.118 48.8681 235.656 49.1621 234.914L50.3801 235.068C50.0581 236.202 48.9801 237.168 47.2581 237.168ZM47.2721 231.036C46.0821 231.036 45.2701 231.75 45.2141 232.954H49.2321C49.2041 232.03 48.5461 231.036 47.2721 231.036ZM55.8258 236.16V239.422H54.6358V230.14H55.7978L55.8258 231.134C56.2598 230.476 56.9038 230.028 58.0518 230.028C59.7038 230.028 60.9078 231.372 60.9078 233.612C60.9078 235.824 59.6618 237.168 57.9118 237.168C56.9178 237.168 56.2038 236.748 55.8258 236.16ZM57.7438 231.064C56.6938 231.064 55.7698 231.834 55.7698 233.612C55.7698 235.39 56.6518 236.132 57.7438 236.132C58.9898 236.132 59.6478 235.194 59.6478 233.612C59.6478 232.016 59.0038 231.064 57.7438 231.064ZM63.3694 227.704V237H62.1794V227.704H63.3694ZM66.1099 232.254L64.9479 232.212C65.0319 230.798 66.2779 230.014 67.8179 230.014C69.7639 230.014 70.5619 230.77 70.5339 232.618L70.5059 234.354C70.4919 235.432 70.5619 236.09 70.6459 237H69.4979L69.4559 236.034C69.0359 236.72 68.3639 237.168 67.1459 237.168C65.5499 237.168 64.7239 236.118 64.7239 234.942C64.7239 234.2 65.1019 233.696 65.6479 233.388C66.3059 233.024 67.1319 232.884 68.0139 232.786L69.3439 232.646V232.394C69.3439 231.274 68.6719 230.98 67.7619 230.98C66.6839 230.98 66.1799 231.498 66.1099 232.254ZM69.4279 234.032V233.626L67.9999 233.766C66.6559 233.892 65.9839 234.214 65.9839 234.984C65.9839 235.712 66.5579 236.132 67.3699 236.132C68.3359 236.132 69.4279 235.614 69.4279 234.032ZM72.503 230.14V228.25H73.693V230.14H75.009V231.12H73.693V235.082C73.693 235.81 73.735 235.992 74.421 235.992H75.009V237H74.155C72.811 237 72.503 236.706 72.503 235.25V231.12H71.397V230.14H72.503ZM76.689 230.14V229.636C76.689 228.18 76.997 227.704 78.579 227.704H79.195V228.712H78.607C77.991 228.712 77.879 228.894 77.879 229.622V230.14H79.195V231.12H77.879V237H76.689V231.12H75.723V230.14H76.689ZM80.9871 233.598C80.9871 235.39 81.8411 236.132 82.9611 236.132C84.0811 236.132 84.9351 235.39 84.9351 233.598C84.9351 231.806 84.0811 231.064 82.9611 231.064C81.8411 231.064 80.9871 231.806 80.9871 233.598ZM79.7271 233.598C79.7271 231.134 81.2811 230.028 82.9611 230.028C84.6411 230.028 86.1951 231.134 86.1951 233.598C86.1951 236.062 84.6411 237.168 82.9611 237.168C81.2811 237.168 79.7271 236.062 79.7271 233.598ZM90.9589 230.112V231.372C90.7069 231.344 90.4969 231.33 90.3009 231.33C89.2089 231.33 88.6629 231.932 88.6629 233.472V237H87.4729V230.14H88.6349V231.358C88.9849 230.574 89.6989 230.126 90.6089 230.098C90.7209 230.098 90.8329 230.098 90.9589 230.112ZM91.954 237V230.14H93.144V231.092C93.508 230.476 94.138 230.028 95.272 230.028C96.364 230.028 96.91 230.504 97.232 231.218C97.75 230.434 98.506 230.028 99.64 230.028C100.368 230.028 100.914 230.294 101.278 230.672C101.698 231.12 101.88 231.82 101.88 232.786V237H100.69V233.122C100.69 232.282 100.578 231.75 100.298 231.456C100.046 231.19 99.682 231.064 99.206 231.064C98.17 231.064 97.512 231.862 97.512 233.304V237H96.322V233.122C96.322 232.282 96.21 231.75 95.93 231.456C95.678 231.19 95.314 231.064 94.838 231.064C93.802 231.064 93.144 231.862 93.144 233.304V237H91.954ZM106.44 230.14H107.63V237H106.44V230.14ZM106.44 227.704H107.63V229.132H106.44V227.704ZM114.598 232.002L113.366 232.114C113.184 231.316 112.526 231.022 111.658 231.022C110.916 231.022 110.188 231.288 110.188 231.862C110.188 232.394 110.594 232.618 111.322 232.772L112.148 232.94C113.436 233.206 114.64 233.668 114.64 235.026C114.64 236.398 113.394 237.168 111.784 237.168C109.95 237.168 108.942 236.02 108.816 234.942L110.062 234.83C110.244 235.656 110.776 236.174 111.812 236.174C112.764 236.174 113.436 235.754 113.436 235.152C113.436 234.522 112.736 234.214 111.938 234.046L111.042 233.864C110.048 233.668 108.998 233.234 108.998 231.932C108.998 230.728 110.314 230.028 111.784 230.028C113.324 230.028 114.332 230.826 114.598 232.002ZM123.253 237V236.02C122.875 236.664 122.273 237.154 121.097 237.154C120.257 237.154 119.669 236.846 119.305 236.356C118.969 235.908 118.829 235.25 118.829 234.396V230.14H120.019V234.018C120.019 234.718 120.089 235.166 120.243 235.474C120.467 235.936 120.915 236.118 121.531 236.118C122.609 236.118 123.253 235.32 123.253 233.878V230.14H124.443V237H123.253ZM131.418 232.002L130.186 232.114C130.004 231.316 129.346 231.022 128.478 231.022C127.736 231.022 127.008 231.288 127.008 231.862C127.008 232.394 127.414 232.618 128.142 232.772L128.968 232.94C130.256 233.206 131.46 233.668 131.46 235.026C131.46 236.398 130.214 237.168 128.604 237.168C126.77 237.168 125.762 236.02 125.636 234.942L126.882 234.83C127.064 235.656 127.596 236.174 128.632 236.174C129.584 236.174 130.256 235.754 130.256 235.152C130.256 234.522 129.556 234.214 128.758 234.046L127.862 233.864C126.868 233.668 125.818 233.234 125.818 231.932C125.818 230.728 127.134 230.028 128.604 230.028C130.144 230.028 131.152 230.826 131.418 232.002ZM135.625 237.168C133.385 237.168 132.307 235.6 132.307 233.598C132.307 231.456 133.693 230.028 135.639 230.028C137.795 230.028 139.027 231.736 138.859 233.948H133.567C133.567 235.292 134.435 236.118 135.597 236.118C136.689 236.118 137.235 235.656 137.529 234.914L138.747 235.068C138.425 236.202 137.347 237.168 135.625 237.168ZM135.639 231.036C134.449 231.036 133.637 231.75 133.581 232.954H137.599C137.571 232.03 136.913 231.036 135.639 231.036ZM145.945 227.704V237H144.797L144.755 236.062C144.321 236.72 143.677 237.168 142.529 237.168C140.877 237.168 139.673 235.824 139.673 233.584C139.673 231.372 140.919 230.028 142.669 230.028C143.663 230.028 144.377 230.448 144.755 231.036V227.704H145.945ZM142.837 236.132C143.887 236.132 144.811 235.362 144.811 233.584C144.811 231.806 143.929 231.064 142.837 231.064C141.591 231.064 140.933 232.002 140.933 233.584C140.933 235.18 141.577 236.132 142.837 236.132ZM150.615 237V227.704H151.805V231.134C152.239 230.476 152.883 230.028 154.031 230.028C155.683 230.028 156.887 231.372 156.887 233.612C156.887 235.824 155.641 237.168 153.891 237.168C152.897 237.168 152.183 236.748 151.805 236.16L151.749 237H150.615ZM153.723 231.064C152.673 231.064 151.749 231.834 151.749 233.612C151.749 235.39 152.631 236.132 153.723 236.132C154.969 236.132 155.627 235.194 155.627 233.612C155.627 232.016 154.983 231.064 153.723 231.064ZM158.425 239.422H157.809V238.386H158.299C159.069 238.386 159.419 238.302 159.769 237.14L159.811 237L157.291 230.14H158.607L160.385 235.404L162.121 230.14H163.353L160.861 237.294C160.371 238.694 159.979 239.422 158.425 239.422ZM172.329 232.002L171.097 232.114C170.915 231.316 170.257 231.022 169.389 231.022C168.647 231.022 167.919 231.288 167.919 231.862C167.919 232.394 168.325 232.618 169.053 232.772L169.879 232.94C171.167 233.206 172.371 233.668 172.371 235.026C172.371 236.398 171.125 237.168 169.515 237.168C167.681 237.168 166.673 236.02 166.547 234.942L167.793 234.83C167.975 235.656 168.507 236.174 169.543 236.174C170.495 236.174 171.167 235.754 171.167 235.152C171.167 234.522 170.467 234.214 169.669 234.046L168.773 233.864C167.779 233.668 166.729 233.234 166.729 231.932C166.729 230.728 168.045 230.028 169.515 230.028C171.055 230.028 172.063 230.826 172.329 232.002ZM174.219 230.14V228.25H175.409V230.14H176.725V231.12H175.409V235.082C175.409 235.81 175.451 235.992 176.137 235.992H176.725V237H175.871C174.527 237 174.219 236.706 174.219 235.25V231.12H173.113V230.14H174.219ZM178.981 232.254L177.819 232.212C177.903 230.798 179.149 230.014 180.689 230.014C182.635 230.014 183.433 230.77 183.405 232.618L183.377 234.354C183.363 235.432 183.433 236.09 183.517 237H182.369L182.327 236.034C181.907 236.72 181.235 237.168 180.017 237.168C178.421 237.168 177.595 236.118 177.595 234.942C177.595 234.2 177.973 233.696 178.519 233.388C179.177 233.024 180.003 232.884 180.885 232.786L182.215 232.646V232.394C182.215 231.274 181.543 230.98 180.633 230.98C179.555 230.98 179.051 231.498 178.981 232.254ZM182.299 234.032V233.626L180.871 233.766C179.527 233.892 178.855 234.214 178.855 234.984C178.855 235.712 179.429 236.132 180.241 236.132C181.207 236.132 182.299 235.614 182.299 234.032ZM185.332 230.14V229.636C185.332 228.18 185.64 227.704 187.222 227.704H187.838V228.712H187.25C186.634 228.712 186.522 228.894 186.522 229.622V230.14H187.838V231.12H186.522V237H185.332V231.12H184.366V230.14H185.332ZM189.406 230.14V229.636C189.406 228.18 189.714 227.704 191.296 227.704H191.912V228.712H191.324C190.708 228.712 190.596 228.894 190.596 229.622V230.14H191.912V231.12H190.596V237H189.406V231.12H188.44V230.14H189.406ZM195.982 230.14H197.172V237H195.982V230.14ZM195.982 227.704H197.172V229.132H195.982V227.704ZM200.095 230.14V231.092C200.487 230.49 201.173 230.028 202.349 230.028C203.273 230.028 203.917 230.378 204.281 230.966C204.547 231.4 204.659 231.974 204.659 232.786V237H203.469V233.108C203.469 232.38 203.385 231.946 203.217 231.652C202.965 231.232 202.545 231.064 201.943 231.064C200.795 231.064 200.095 231.848 200.095 233.346V237H198.905V230.14H200.095ZM211.95 236.132C213.196 236.132 214.078 235.516 214.078 234.396C214.078 233.066 212.874 232.632 211.362 232.632H211.166V231.568H211.32C212.958 231.568 213.826 231.106 213.826 230.014C213.826 229.062 213 228.572 211.992 228.572C210.732 228.572 210.046 229.3 209.948 230.35L208.716 230.252C208.856 228.67 210.074 227.536 212.02 227.536C213.63 227.536 215.086 228.18 215.086 229.902C215.086 230.854 214.54 231.652 213.546 232.044C214.946 232.492 215.338 233.416 215.338 234.382C215.338 236.258 213.686 237.168 211.936 237.168C209.724 237.168 208.702 235.796 208.576 234.326L209.794 234.228C209.934 235.376 210.62 236.132 211.95 236.132ZM219.733 236.132C220.867 236.132 221.833 235.376 221.833 233.948C221.833 232.408 220.741 231.778 219.705 231.778C218.767 231.778 218.095 232.31 217.885 232.772L216.695 232.716L217.311 227.704H222.729V228.852H218.277L217.941 231.442C218.445 230.966 219.201 230.742 219.985 230.742C221.637 230.742 223.093 231.89 223.093 233.934C223.093 236.062 221.483 237.168 219.719 237.168C217.535 237.168 216.541 235.782 216.359 234.354L217.577 234.256C217.759 235.404 218.403 236.132 219.733 236.132ZM228.461 229.328L225.087 233.556H228.461V229.328ZM231.387 233.556V234.676H229.651V237H228.461V234.676H223.771V233.556L228.447 227.704H229.651V233.556H231.387ZM240.639 232.002L239.407 232.114C239.225 231.316 238.567 231.022 237.699 231.022C236.957 231.022 236.229 231.288 236.229 231.862C236.229 232.394 236.635 232.618 237.363 232.772L238.189 232.94C239.477 233.206 240.681 233.668 240.681 235.026C240.681 236.398 239.435 237.168 237.825 237.168C235.991 237.168 234.983 236.02 234.857 234.942L236.103 234.83C236.285 235.656 236.817 236.174 237.853 236.174C238.805 236.174 239.477 235.754 239.477 235.152C239.477 234.522 238.777 234.214 237.979 234.046L237.083 233.864C236.089 233.668 235.039 233.234 235.039 231.932C235.039 230.728 236.355 230.028 237.825 230.028C239.365 230.028 240.373 230.826 240.639 232.002ZM242.529 230.14V228.25H243.719V230.14H245.035V231.12H243.719V235.082C243.719 235.81 243.761 235.992 244.447 235.992H245.035V237H244.181C242.837 237 242.529 236.706 242.529 235.25V231.12H241.423V230.14H242.529ZM247.08 233.598C247.08 235.39 247.934 236.132 249.054 236.132C250.174 236.132 251.028 235.39 251.028 233.598C251.028 231.806 250.174 231.064 249.054 231.064C247.934 231.064 247.08 231.806 247.08 233.598ZM245.82 233.598C245.82 231.134 247.374 230.028 249.054 230.028C250.734 230.028 252.288 231.134 252.288 233.598C252.288 236.062 250.734 237.168 249.054 237.168C247.374 237.168 245.82 236.062 245.82 233.598ZM257.052 230.112V231.372C256.8 231.344 256.59 231.33 256.394 231.33C255.302 231.33 254.756 231.932 254.756 233.472V237H253.566V230.14H254.728V231.358C255.078 230.574 255.792 230.126 256.702 230.098C256.814 230.098 256.926 230.098 257.052 230.112ZM260.766 237.168C258.526 237.168 257.448 235.6 257.448 233.598C257.448 231.456 258.834 230.028 260.78 230.028C262.936 230.028 264.168 231.736 264 233.948H258.708C258.708 235.292 259.576 236.118 260.738 236.118C261.83 236.118 262.376 235.656 262.67 234.914L263.888 235.068C263.566 236.202 262.488 237.168 260.766 237.168ZM260.78 231.036C259.59 231.036 258.778 231.75 258.722 232.954H262.74C262.712 232.03 262.054 231.036 260.78 231.036ZM270.471 232.002L269.239 232.114C269.057 231.316 268.399 231.022 267.531 231.022C266.789 231.022 266.061 231.288 266.061 231.862C266.061 232.394 266.467 232.618 267.195 232.772L268.021 232.94C269.309 233.206 270.513 233.668 270.513 235.026C270.513 236.398 269.267 237.168 267.657 237.168C265.823 237.168 264.815 236.02 264.689 234.942L265.935 234.83C266.117 235.656 266.649 236.174 267.685 236.174C268.637 236.174 269.309 235.754 269.309 235.152C269.309 234.522 268.609 234.214 267.811 234.046L266.915 233.864C265.921 233.668 264.871 233.234 264.871 231.932C264.871 230.728 266.187 230.028 267.657 230.028C269.197 230.028 270.205 230.826 270.471 232.002ZM33.946 250.254L32.784 250.212C32.868 248.798 34.114 248.014 35.654 248.014C37.6 248.014 38.398 248.77 38.37 250.618L38.342 252.354C38.328 253.432 38.398 254.09 38.482 255H37.334L37.292 254.034C36.872 254.72 36.2 255.168 34.982 255.168C33.386 255.168 32.56 254.118 32.56 252.942C32.56 252.2 32.938 251.696 33.484 251.388C34.142 251.024 34.968 250.884 35.85 250.786L37.18 250.646V250.394C37.18 249.274 36.508 248.98 35.598 248.98C34.52 248.98 34.016 249.498 33.946 250.254ZM37.264 252.032V251.626L35.836 251.766C34.492 251.892 33.82 252.214 33.82 252.984C33.82 253.712 34.394 254.132 35.206 254.132C36.172 254.132 37.264 253.614 37.264 252.032ZM42.8731 248.028C44.5811 248.028 45.6031 249.232 45.7571 250.296L44.5531 250.464C44.3851 249.61 43.7131 249.078 42.7891 249.078C41.6971 249.078 40.8011 249.89 40.8011 251.57C40.8011 253.278 41.7111 254.118 42.7891 254.118C43.7971 254.118 44.4411 253.502 44.6091 252.746L45.8271 252.9C45.6031 254.104 44.3991 255.168 42.7611 255.168C40.7171 255.168 39.5411 253.642 39.5411 251.584C39.5411 249.568 40.7591 248.028 42.8731 248.028ZM50.4448 248.112V249.372C50.1928 249.344 49.9828 249.33 49.7868 249.33C48.6948 249.33 48.1488 249.932 48.1488 251.472V255H46.9588V248.14H48.1208V249.358C48.4708 248.574 49.1848 248.126 50.0948 248.098C50.2068 248.098 50.3188 248.098 50.4448 248.112ZM52.1012 251.598C52.1012 253.39 52.9552 254.132 54.0752 254.132C55.1952 254.132 56.0492 253.39 56.0492 251.598C56.0492 249.806 55.1952 249.064 54.0752 249.064C52.9552 249.064 52.1012 249.806 52.1012 251.598ZM50.8412 251.598C50.8412 249.134 52.3952 248.028 54.0752 248.028C55.7552 248.028 57.3092 249.134 57.3092 251.598C57.3092 254.062 55.7552 255.168 54.0752 255.168C52.3952 255.168 50.8412 254.062 50.8412 251.598ZM63.823 250.002L62.591 250.114C62.409 249.316 61.751 249.022 60.883 249.022C60.141 249.022 59.413 249.288 59.413 249.862C59.413 250.394 59.819 250.618 60.547 250.772L61.373 250.94C62.661 251.206 63.865 251.668 63.865 253.026C63.865 254.398 62.619 255.168 61.009 255.168C59.175 255.168 58.167 254.02 58.041 252.942L59.287 252.83C59.469 253.656 60.001 254.174 61.037 254.174C61.989 254.174 62.661 253.754 62.661 253.152C62.661 252.522 61.961 252.214 61.163 252.046L60.267 251.864C59.273 251.668 58.223 251.234 58.223 249.932C58.223 248.728 59.539 248.028 61.009 248.028C62.549 248.028 63.557 248.826 63.823 250.002ZM70.4095 250.002L69.1775 250.114C68.9955 249.316 68.3375 249.022 67.4695 249.022C66.7275 249.022 65.9995 249.288 65.9995 249.862C65.9995 250.394 66.4055 250.618 67.1335 250.772L67.9595 250.94C69.2475 251.206 70.4515 251.668 70.4515 253.026C70.4515 254.398 69.2055 255.168 67.5955 255.168C65.7615 255.168 64.7535 254.02 64.6275 252.942L65.8735 252.83C66.0555 253.656 66.5875 254.174 67.6235 254.174C68.5755 254.174 69.2475 253.754 69.2475 253.152C69.2475 252.522 68.5475 252.214 67.7495 252.046L66.8535 251.864C65.8595 251.668 64.8095 251.234 64.8095 249.932C64.8095 248.728 66.1255 248.028 67.5955 248.028C69.1355 248.028 70.1435 248.826 70.4095 250.002ZM77.2863 255H76.0963V247.762H73.9123V246.95C75.2703 246.908 75.9563 246.74 76.4743 245.704H77.2863V255ZM83.3174 247.328L79.9434 251.556H83.3174V247.328ZM86.2434 251.556V252.676H84.5074V255H83.3174V252.676H78.6274V251.556L83.3034 245.704H84.5074V251.556H86.2434ZM93.1287 248.028C94.8367 248.028 95.8587 249.232 96.0127 250.296L94.8087 250.464C94.6407 249.61 93.9687 249.078 93.0447 249.078C91.9527 249.078 91.0567 249.89 91.0567 251.57C91.0567 253.278 91.9667 254.118 93.0447 254.118C94.0527 254.118 94.6967 253.502 94.8647 252.746L96.0827 252.9C95.8587 254.104 94.6547 255.168 93.0167 255.168C90.9727 255.168 89.7967 253.642 89.7967 251.584C89.7967 249.568 91.0147 248.028 93.1287 248.028ZM98.0808 251.598C98.0808 253.39 98.9348 254.132 100.055 254.132C101.175 254.132 102.029 253.39 102.029 251.598C102.029 249.806 101.175 249.064 100.055 249.064C98.9348 249.064 98.0808 249.806 98.0808 251.598ZM96.8208 251.598C96.8208 249.134 98.3748 248.028 100.055 248.028C101.735 248.028 103.289 249.134 103.289 251.598C103.289 254.062 101.735 255.168 100.055 255.168C98.3748 255.168 96.8208 254.062 96.8208 251.598ZM108.935 255V254.02C108.557 254.664 107.955 255.154 106.779 255.154C105.939 255.154 105.351 254.846 104.987 254.356C104.651 253.908 104.511 253.25 104.511 252.396V248.14H105.701V252.018C105.701 252.718 105.771 253.166 105.925 253.474C106.149 253.936 106.597 254.118 107.213 254.118C108.291 254.118 108.935 253.32 108.935 251.878V248.14H110.125V255H108.935ZM113.054 248.14V249.092C113.446 248.49 114.132 248.028 115.308 248.028C116.232 248.028 116.876 248.378 117.24 248.966C117.506 249.4 117.618 249.974 117.618 250.786V255H116.428V251.108C116.428 250.38 116.344 249.946 116.176 249.652C115.924 249.232 115.504 249.064 114.902 249.064C113.754 249.064 113.054 249.848 113.054 251.346V255H111.864V248.14H113.054ZM119.58 248.14V246.25H120.77V248.14H122.086V249.12H120.77V253.082C120.77 253.81 120.812 253.992 121.498 253.992H122.086V255H121.232C119.888 255 119.58 254.706 119.58 253.25V249.12H118.474V248.14H119.58ZM126.814 248.112V249.372C126.562 249.344 126.352 249.33 126.156 249.33C125.064 249.33 124.518 249.932 124.518 251.472V255H123.328V248.14H124.49V249.358C124.84 248.574 125.554 248.126 126.464 248.098C126.576 248.098 126.688 248.098 126.814 248.112ZM127.809 248.14H128.999V255H127.809V248.14ZM127.809 245.704H128.999V247.132H127.809V245.704ZM133.588 255.168C131.348 255.168 130.27 253.6 130.27 251.598C130.27 249.456 131.656 248.028 133.602 248.028C135.758 248.028 136.99 249.736 136.822 251.948H131.53C131.53 253.292 132.398 254.118 133.56 254.118C134.652 254.118 135.198 253.656 135.492 252.914L136.71 253.068C136.388 254.202 135.31 255.168 133.588 255.168ZM133.602 249.036C132.412 249.036 131.6 249.75 131.544 250.954H135.562C135.534 250.03 134.876 249.036 133.602 249.036ZM143.293 250.002L142.061 250.114C141.879 249.316 141.221 249.022 140.353 249.022C139.611 249.022 138.883 249.288 138.883 249.862C138.883 250.394 139.289 250.618 140.017 250.772L140.843 250.94C142.131 251.206 143.335 251.668 143.335 253.026C143.335 254.398 142.089 255.168 140.479 255.168C138.645 255.168 137.637 254.02 137.511 252.942L138.757 252.83C138.939 253.656 139.471 254.174 140.507 254.174C141.459 254.174 142.131 253.754 142.131 253.152C142.131 252.522 141.431 252.214 140.633 252.046L139.737 251.864C138.743 251.668 137.693 251.234 137.693 249.932C137.693 248.728 139.009 248.028 140.479 248.028C142.019 248.028 143.027 248.826 143.293 250.002Z" fill="#1B1B1B"/>
</svg>
