<svg width="1358" height="510" viewBox="0 0 1358 510" fill="none" xmlns="http://www.w3.org/2000/svg">
<g clip-path="url(#clip0_15070_13839)">
<path d="M391.632 247.051V229.104H404.517V231.779H394.819V236.509H403.977V239.158H394.819V244.375H404.517V247.051H391.632ZM422.164 247.051H417.788L410.278 232.779V247.051H407.091V229.104H411.467L418.977 243.375V229.104H422.164V247.051ZM429.818 247.051V231.779H424.091V229.104H438.733V231.779H433.006V247.051H429.818ZM440.647 247.051V229.104H453.532V231.779H443.834V236.509H452.992V239.158H443.834V244.375H453.532V247.051H440.647ZM466.911 247.051L463.102 239.807C462.778 239.834 462.454 239.834 462.103 239.834H459.347V247.051H456.106V229.104H461.643C467.019 229.104 469.748 230.401 469.748 234.428C469.748 236.78 468.586 238.401 466.344 239.212L470.504 247.051H466.911ZM462.076 231.779H459.347V237.212H462.184C464.912 237.212 466.479 236.645 466.479 234.455C466.479 232.077 464.588 231.779 462.076 231.779ZM476.538 247.051V231.779H470.811V229.104H485.453V231.779H479.726V247.051H476.538ZM483.631 247.051L490.411 229.104H493.761L500.596 247.051H497.111L495.733 243.267H488.25L486.9 247.051H483.631ZM491.978 232.806L489.196 240.618H494.788L491.978 232.806ZM505.618 229.104V247.051H502.43V229.104H505.618ZM524.363 247.051H519.987L512.477 232.779V247.051H509.289V229.104H513.665L521.175 243.375V229.104H524.363V247.051ZM539.013 247.051H535.771L531.233 232.888V247.051H528.045V229.104H533.097L537.446 243.104L541.741 229.104H546.739V247.051H543.551V232.888L539.013 247.051ZM550.39 247.051V229.104H563.275V231.779H553.577V236.509H562.735V239.158H553.577V244.375H563.275V247.051H550.39ZM580.922 247.051H576.546L569.036 232.779V247.051H565.849V229.104H570.225L577.735 243.375V229.104H580.922V247.051ZM588.577 247.051V231.779H582.85V229.104H597.491V231.779H591.764V247.051H588.577Z" fill="#1B1B1B"/>
<path d="M434.573 261.697C437.465 261.697 439.696 263.309 440.337 265.893L438.436 266.162C437.982 264.612 436.701 263.392 434.491 263.392C432.032 263.392 430.111 265.232 430.111 268.787C430.111 272.238 431.908 274.223 434.491 274.223C436.35 274.223 438.581 273.499 438.581 270.626V270.296H434.904V268.559H440.44V275.67H438.891L438.808 273.913C437.899 275.339 436.267 275.918 434.408 275.918C430.4 275.918 428.107 273.024 428.107 268.787C428.107 264.467 430.669 261.697 434.573 261.697ZM447.522 275.918C444.216 275.918 442.626 273.603 442.626 270.647C442.626 267.485 444.671 265.376 447.542 265.376C450.723 265.376 452.541 267.898 452.293 271.164H444.485C444.485 273.148 445.766 274.367 447.48 274.367C449.091 274.367 449.897 273.685 450.331 272.59L452.128 272.817C451.653 274.491 450.062 275.918 447.522 275.918ZM447.542 266.865C445.786 266.865 444.588 267.919 444.506 269.696H450.434C450.393 268.332 449.422 266.865 447.542 266.865ZM456.038 265.542V266.947C456.616 266.058 457.629 265.376 459.364 265.376C460.727 265.376 461.677 265.893 462.215 266.761C462.607 267.402 462.772 268.249 462.772 269.448V275.67H461.016V269.924C461.016 268.849 460.893 268.208 460.645 267.774C460.273 267.154 459.653 266.906 458.765 266.906C457.071 266.906 456.038 268.063 456.038 270.275V275.67H454.282V265.542H456.038ZM469.592 275.918C466.287 275.918 464.696 273.603 464.696 270.647C464.696 267.485 466.741 265.376 469.612 265.376C472.794 265.376 474.611 267.898 474.364 271.164H466.555C466.555 273.148 467.836 274.367 469.55 274.367C471.162 274.367 471.967 273.685 472.401 272.59L474.198 272.817C473.723 274.491 472.133 275.918 469.592 275.918ZM469.612 266.865C467.856 266.865 466.658 267.919 466.576 269.696H472.504C472.463 268.332 471.492 266.865 469.612 266.865ZM481.495 265.5V267.361C481.123 267.319 480.814 267.299 480.524 267.299C478.913 267.299 478.107 268.187 478.107 270.461V275.67H476.351V265.542H478.066V267.34C478.583 266.182 479.636 265.521 480.979 265.48C481.144 265.48 481.309 265.48 481.495 265.5ZM484.315 268.663L482.6 268.601C482.724 266.513 484.563 265.356 486.835 265.356C489.707 265.356 490.884 266.472 490.843 269.2L490.801 271.763C490.781 273.355 490.884 274.326 491.008 275.67H489.314L489.252 274.243C488.632 275.256 487.641 275.918 485.844 275.918C483.489 275.918 482.27 274.367 482.27 272.631C482.27 271.536 482.828 270.792 483.633 270.337C484.604 269.8 485.823 269.593 487.124 269.448L489.087 269.241V268.869C489.087 267.216 488.095 266.782 486.753 266.782C485.162 266.782 484.418 267.547 484.315 268.663ZM489.211 271.288V270.688L487.104 270.895C485.121 271.081 484.129 271.556 484.129 272.693C484.129 273.768 484.976 274.388 486.174 274.388C487.6 274.388 489.211 273.623 489.211 271.288ZM493.954 265.542V262.751H495.71V265.542H497.652V266.989H495.71V272.838C495.71 273.913 495.772 274.181 496.784 274.181H497.652V275.67H496.392C494.409 275.67 493.954 275.235 493.954 273.086V266.989H492.322V265.542H493.954ZM503.906 275.918C500.601 275.918 499.01 273.603 499.01 270.647C499.01 267.485 501.056 265.376 503.927 265.376C507.108 265.376 508.926 267.898 508.678 271.164H500.87C500.87 273.148 502.15 274.367 503.865 274.367C505.476 274.367 506.282 273.685 506.716 272.59L508.513 272.817C508.038 274.491 506.447 275.918 503.906 275.918ZM503.927 266.865C502.171 266.865 500.973 267.919 500.89 269.696H506.819C506.778 268.332 505.807 266.865 503.927 266.865ZM524.75 261.945H526.712V275.67H524.75V269.469H517.437V275.67H515.474V261.945H517.437V267.733H524.75V261.945ZM530.184 279.245H529.275V277.716H529.998C531.134 277.716 531.651 277.592 532.167 275.876L532.229 275.67L528.511 265.542H530.453L533.076 273.313L535.638 265.542H537.456L533.779 276.104C533.056 278.17 532.477 279.245 530.184 279.245ZM540.604 274.429V279.245H538.848V265.542H540.563L540.604 267.009C541.245 266.038 542.195 265.376 543.889 265.376C546.327 265.376 548.103 267.361 548.103 270.668C548.103 273.933 546.265 275.918 543.682 275.918C542.216 275.918 541.162 275.298 540.604 274.429ZM543.434 266.906C541.885 266.906 540.522 268.043 540.522 270.668C540.522 273.293 541.823 274.388 543.434 274.388C545.273 274.388 546.244 273.003 546.244 270.668C546.244 268.311 545.294 266.906 543.434 266.906ZM554.562 275.918C551.257 275.918 549.666 273.603 549.666 270.647C549.666 267.485 551.711 265.376 554.582 265.376C557.764 265.376 559.581 267.898 559.334 271.164H551.525C551.525 273.148 552.806 274.367 554.52 274.367C556.132 274.367 556.937 273.685 557.371 272.59L559.168 272.817C558.693 274.491 557.103 275.918 554.562 275.918ZM554.582 266.865C552.826 266.865 551.628 267.919 551.546 269.696H557.474C557.433 268.332 556.462 266.865 554.582 266.865Z" fill="#727272"/>
<path d="M493.877 475.603C615.644 475.603 714.356 376.836 714.356 255.001C714.356 133.166 615.644 34.3984 493.877 34.3984C372.109 34.3984 273.397 133.166 273.397 255.001C273.397 376.836 372.109 475.603 493.877 475.603Z" stroke="black"/>
<path d="M777.769 247.051V229.104H790.654V231.779H780.956V236.51H790.114V239.158H780.956V244.375H790.654V247.051H777.769ZM801.451 241.618H793.266V238.942H801.451V241.618ZM817.632 241.05L820.685 241.51C819.928 245.078 817.038 247.375 812.824 247.375C807.502 247.375 804.422 243.726 804.422 238.023C804.422 232.293 807.718 228.779 812.986 228.779C817.038 228.779 819.901 231.077 820.631 234.645L817.578 235.104C817.038 232.644 815.255 231.401 812.878 231.401C809.987 231.401 807.718 233.617 807.718 238.023C807.718 242.429 809.933 244.753 812.851 244.753C815.309 244.753 817.065 243.537 817.632 241.05ZM836.805 238.023C836.805 233.563 834.455 231.401 831.403 231.401C828.377 231.401 826 233.563 826 238.023C826 242.483 828.377 244.753 831.403 244.753C834.455 244.753 836.805 242.483 836.805 238.023ZM840.101 238.023C840.101 243.78 836.67 247.375 831.403 247.375C826.054 247.375 822.704 243.672 822.704 238.023C822.704 232.401 826.135 228.779 831.403 228.779C836.697 228.779 840.101 232.293 840.101 238.023ZM854.002 247.051H850.76L846.222 232.888V247.051H843.034V229.104H848.086L852.435 243.105L856.73 229.104H861.728V247.051H858.54V232.888L854.002 247.051ZM876.346 247.051H873.105L868.566 232.888V247.051H865.379V229.104H870.43L874.779 243.105L879.075 229.104H884.072V247.051H880.885V232.888L876.346 247.051ZM887.723 247.051V229.104H900.609V231.779H890.911V236.51H900.068V239.158H890.911V244.375H900.609V247.051H887.723ZM913.988 247.051L910.179 239.807C909.854 239.834 909.53 239.834 909.179 239.834H906.424V247.051H903.182V229.104H908.72C914.096 229.104 916.824 230.401 916.824 234.428C916.824 236.78 915.662 238.402 913.42 239.212L917.58 247.051H913.988ZM909.152 231.779H906.424V237.212H909.26C911.988 237.212 913.555 236.645 913.555 234.455C913.555 232.077 911.664 231.779 909.152 231.779ZM932.308 241.05L935.361 241.51C934.605 245.078 931.714 247.375 927.5 247.375C922.178 247.375 919.099 243.726 919.099 238.023C919.099 232.293 922.394 228.779 927.662 228.779C931.714 228.779 934.578 231.077 935.307 234.645L932.254 235.104C931.714 232.644 929.931 231.401 927.554 231.401C924.663 231.401 922.394 233.617 922.394 238.023C922.394 242.429 924.609 244.753 927.527 244.753C929.985 244.753 931.741 243.537 932.308 241.05ZM937.899 247.051V229.104H950.784V231.779H941.086V236.51H950.244V239.158H941.086V244.375H950.784V247.051H937.899Z" fill="#1B1B1B"/>
<path d="M758.889 261.945V268.766L765.169 261.945H767.607L762.422 267.485L768.206 275.67H765.851L761.1 268.911L758.889 271.288V275.67H756.927V261.945H758.889ZM773.299 275.918C769.994 275.918 768.404 273.603 768.404 270.647C768.404 267.485 770.449 265.376 773.32 265.376C776.501 265.376 778.319 267.898 778.071 271.164H770.263C770.263 273.148 771.544 274.367 773.258 274.367C774.869 274.367 775.675 273.685 776.109 272.59L777.906 272.817C777.431 274.491 775.84 275.918 773.299 275.918ZM773.32 266.865C771.564 266.865 770.366 267.919 770.283 269.696H776.212C776.171 268.332 775.2 266.865 773.32 266.865ZM784.374 275.918C781.069 275.918 779.478 273.603 779.478 270.647C779.478 267.485 781.523 265.376 784.395 265.376C787.576 265.376 789.394 267.898 789.146 271.164H781.338C781.338 273.148 782.618 274.367 784.333 274.367C785.944 274.367 786.75 273.685 787.184 272.59L788.981 272.817C788.506 274.491 786.915 275.918 784.374 275.918ZM784.395 266.865C782.639 266.865 781.441 267.919 781.358 269.696H787.287C787.246 268.332 786.275 266.865 784.395 266.865ZM792.891 274.429V279.245H791.135V265.542H792.849L792.891 267.009C793.531 266.038 794.481 265.376 796.175 265.376C798.613 265.376 800.389 267.361 800.389 270.668C800.389 273.933 798.551 275.918 795.969 275.918C794.502 275.918 793.448 275.298 792.891 274.429ZM795.721 266.906C794.171 266.906 792.808 268.043 792.808 270.668C792.808 273.293 794.109 274.388 795.721 274.388C797.559 274.388 798.53 273.003 798.53 270.668C798.53 268.311 797.58 266.906 795.721 266.906ZM805.627 275.67L810.791 261.945H813.064L818.29 275.67H816.142L815.047 272.693H808.726L807.672 275.67H805.627ZM811.865 263.971L809.345 270.978H814.427L811.865 263.971ZM825.923 275.67V274.223C825.365 275.174 824.477 275.897 822.742 275.897C821.502 275.897 820.635 275.442 820.097 274.719C819.602 274.057 819.395 273.086 819.395 271.825V265.542H821.151V271.267C821.151 272.301 821.254 272.962 821.482 273.417C821.812 274.099 822.473 274.367 823.382 274.367C824.973 274.367 825.923 273.189 825.923 271.06V265.542H827.679V275.67H825.923ZM839.025 261.945V275.67H837.331L837.269 274.285C836.629 275.256 835.679 275.918 833.985 275.918C831.547 275.918 829.771 273.933 829.771 270.626C829.771 267.361 831.609 265.376 834.192 265.376C835.658 265.376 836.712 265.996 837.269 266.865V261.945H839.025ZM834.439 274.388C835.989 274.388 837.352 273.251 837.352 270.626C837.352 268.001 836.051 266.906 834.439 266.906C832.601 266.906 831.63 268.291 831.63 270.626C831.63 272.983 832.58 274.388 834.439 274.388ZM841.789 265.542H843.545V275.67H841.789V265.542ZM841.789 261.945H843.545V264.054H841.789V261.945ZM850.523 275.918C847.218 275.918 845.627 273.603 845.627 270.647C845.627 267.485 847.672 265.376 850.544 265.376C853.725 265.376 855.543 267.898 855.295 271.164H847.486C847.486 273.148 848.767 274.367 850.482 274.367C852.093 274.367 852.898 273.685 853.332 272.59L855.129 272.817C854.654 274.491 853.064 275.918 850.523 275.918ZM850.544 266.865C848.788 266.865 847.589 267.919 847.507 269.696H853.436C853.394 268.332 852.423 266.865 850.544 266.865ZM859.039 265.542V266.947C859.617 266.058 860.629 265.376 862.364 265.376C863.728 265.376 864.678 265.893 865.215 266.761C865.608 267.402 865.773 268.249 865.773 269.448V275.67H864.017V269.924C864.017 268.849 863.893 268.208 863.645 267.774C863.273 267.154 862.654 266.906 861.765 266.906C860.071 266.906 859.039 268.063 859.039 270.275V275.67H857.283V265.542H859.039ZM872.613 265.376C875.133 265.376 876.641 267.154 876.868 268.725L875.092 268.973C874.844 267.712 873.852 266.927 872.489 266.927C870.878 266.927 869.556 268.125 869.556 270.606C869.556 273.127 870.898 274.367 872.489 274.367C873.976 274.367 874.927 273.458 875.174 272.342L876.972 272.569C876.641 274.347 874.865 275.918 872.448 275.918C869.432 275.918 867.696 273.665 867.696 270.626C867.696 267.65 869.494 265.376 872.613 265.376ZM883.163 275.918C879.858 275.918 878.268 273.603 878.268 270.647C878.268 267.485 880.313 265.376 883.184 265.376C886.365 265.376 888.183 267.898 887.935 271.164H880.127C880.127 273.148 881.407 274.367 883.122 274.367C884.733 274.367 885.539 273.685 885.973 272.59L887.77 272.817C887.295 274.491 885.704 275.918 883.163 275.918ZM883.184 266.865C881.428 266.865 880.23 267.919 880.147 269.696H886.076C886.035 268.332 885.064 266.865 883.184 266.865ZM894.731 275.67V261.945H904.171V263.682H896.693V267.733H903.737V269.469H896.693V273.933H904.171V275.67H894.731ZM907.999 265.542V266.947C908.578 266.058 909.59 265.376 911.325 265.376C912.689 265.376 913.639 265.893 914.176 266.761C914.568 267.402 914.734 268.249 914.734 269.448V275.67H912.978V269.924C912.978 268.849 912.854 268.208 912.606 267.774C912.234 267.154 911.614 266.906 910.726 266.906C909.032 266.906 907.999 268.063 907.999 270.275V275.67H906.243V265.542H907.999ZM924.073 274.781V273.871C923.433 274.843 922.565 275.504 920.871 275.504C918.434 275.504 916.657 273.644 916.657 270.42C916.657 267.237 918.496 265.376 921.078 265.376C922.545 265.376 923.515 265.996 924.073 266.865L924.115 265.542H925.829V274.388C925.829 276.496 925.519 277.364 924.941 278.005C924.177 278.873 922.896 279.369 921.367 279.369C919.012 279.369 917.442 278.295 917.112 276.269L918.971 276.207C919.219 277.137 919.776 277.84 921.388 277.84C922.317 277.84 923.04 277.571 923.495 277.075C923.867 276.662 924.073 276.186 924.073 274.781ZM921.326 273.975C922.875 273.975 924.156 272.962 924.156 270.42C924.156 267.877 922.937 266.906 921.326 266.906C919.487 266.906 918.516 268.167 918.516 270.42C918.516 272.693 919.467 273.975 921.326 273.975ZM930.083 268.663L928.368 268.601C928.492 266.513 930.331 265.356 932.603 265.356C935.475 265.356 936.652 266.472 936.611 269.2L936.569 271.763C936.549 273.355 936.652 274.326 936.776 275.67H935.082L935.02 274.243C934.4 275.256 933.409 275.918 931.612 275.918C929.257 275.918 928.038 274.367 928.038 272.631C928.038 271.536 928.596 270.792 929.401 270.337C930.372 269.8 931.591 269.593 932.892 269.448L934.855 269.241V268.869C934.855 267.216 933.863 266.782 932.521 266.782C930.93 266.782 930.186 267.547 930.083 268.663ZM934.979 271.288V270.688L932.872 270.895C930.889 271.081 929.897 271.556 929.897 272.693C929.897 273.768 930.744 274.388 931.942 274.388C933.367 274.388 934.979 273.623 934.979 271.288ZM945.961 274.781V273.871C945.321 274.843 944.453 275.504 942.76 275.504C940.322 275.504 938.545 273.644 938.545 270.42C938.545 267.237 940.384 265.376 942.966 265.376C944.433 265.376 945.404 265.996 945.961 266.865L946.003 265.542H947.717V274.388C947.717 276.496 947.407 277.364 946.829 278.005C946.065 278.873 944.784 279.369 943.255 279.369C940.9 279.369 939.33 278.295 939 276.269L940.859 276.207C941.107 277.137 941.665 277.84 943.276 277.84C944.206 277.84 944.929 277.571 945.383 277.075C945.755 276.662 945.961 276.186 945.961 274.781ZM943.214 273.975C944.763 273.975 946.044 272.962 946.044 270.42C946.044 267.877 944.825 266.906 943.214 266.906C941.375 266.906 940.405 268.167 940.405 270.42C940.405 272.693 941.355 273.975 943.214 273.975ZM954.698 275.918C951.393 275.918 949.802 273.603 949.802 270.647C949.802 267.485 951.847 265.376 954.719 265.376C957.9 265.376 959.718 267.898 959.47 271.164H951.661C951.661 273.148 952.942 274.367 954.657 274.367C956.268 274.367 957.074 273.685 957.507 272.59L959.305 272.817C958.83 274.491 957.239 275.918 954.698 275.918ZM954.719 266.865C952.963 266.865 951.765 267.919 951.682 269.696H957.611C957.569 268.332 956.599 266.865 954.719 266.865ZM970.132 261.945V275.67H968.438L968.376 274.285C967.736 275.256 966.786 275.918 965.092 275.918C962.654 275.918 960.878 273.933 960.878 270.626C960.878 267.361 962.716 265.376 965.299 265.376C966.765 265.376 967.819 265.996 968.376 266.865V261.945H970.132ZM965.546 274.388C967.096 274.388 968.459 273.251 968.459 270.626C968.459 268.001 967.158 266.906 965.546 266.906C963.708 266.906 962.737 268.291 962.737 270.626C962.737 272.983 963.687 274.388 965.546 274.388Z" fill="#727272"/>
<path d="M864.123 475.603C985.89 475.603 1084.6 376.836 1084.6 255.001C1084.6 133.166 985.89 34.3984 864.123 34.3984C742.356 34.3984 643.644 133.166 643.644 255.001C643.644 376.836 742.356 475.603 864.123 475.603Z" stroke="black"/>
</g>
<defs>
<clipPath id="clip0_15070_13839">
<rect width="812" height="442" fill="white" transform="translate(273 34)"/>
</clipPath>
</defs>
</svg>
