<svg width="1022" height="556" viewBox="0 0 1022 556" fill="none" xmlns="http://www.w3.org/2000/svg">
<path d="M149.312 268V245.424H165.53V248.79H153.324V254.74H164.85V258.072H153.324V264.634H165.53V268H149.312ZM187.741 268H182.233L172.781 250.048V268H168.769V245.424H174.277L183.729 263.376V245.424H187.741V268ZM197.374 268V248.79H190.166V245.424H208.594V248.79H201.386V268H197.374ZM211.003 268V245.424H227.221V248.79H215.015V254.74H226.541V258.072H215.015V264.634H227.221V268H211.003ZM244.06 268L239.266 258.888C238.858 258.922 238.45 258.922 238.008 258.922H234.54V268H230.46V245.424H237.43C244.196 245.424 247.63 247.056 247.63 252.122C247.63 255.08 246.168 257.12 243.346 258.14L248.582 268H244.06ZM237.974 248.79H234.54V255.624H238.11C241.544 255.624 243.516 254.91 243.516 252.156C243.516 249.164 241.136 248.79 237.974 248.79ZM256.177 268V248.79H248.969V245.424H267.397V248.79H260.189V268H256.177ZM265.104 268L273.638 245.424H277.854L286.456 268H282.07L280.336 263.24H270.918L269.218 268H265.104ZM275.61 250.082L272.108 259.908H279.146L275.61 250.082ZM292.777 245.424V268H288.765V245.424H292.777ZM316.37 268H310.862L301.41 250.048V268H297.398V245.424H302.906L312.358 263.376V245.424H316.37V268ZM334.809 268H330.729L325.017 250.184V268H321.005V245.424H327.363L332.837 263.036L338.243 245.424H344.533V268H340.521V250.184L334.809 268ZM349.128 268V245.424H365.346V248.79H353.14V254.74H364.666V258.072H353.14V264.634H365.346V268H349.128ZM387.557 268H382.049L372.597 250.048V268H368.585V245.424H374.093L383.545 263.376V245.424H387.557V268ZM397.191 268V248.79H389.983V245.424H408.411V248.79H401.203V268H397.191Z" fill="#1B1B1B"/>
<path d="M203.36 286.424C207 286.424 209.808 288.452 210.614 291.702L208.222 292.04C207.65 290.09 206.038 288.556 203.256 288.556C200.162 288.556 197.744 290.87 197.744 295.342C197.744 299.684 200.006 302.18 203.256 302.18C205.596 302.18 208.404 301.27 208.404 297.656V297.24H203.776V295.056H210.744V304H208.794L208.69 301.79C207.546 303.584 205.492 304.312 203.152 304.312C198.108 304.312 195.222 300.672 195.222 295.342C195.222 289.908 198.446 286.424 203.36 286.424ZM219.657 304.312C215.497 304.312 213.495 301.4 213.495 297.682C213.495 293.704 216.069 291.052 219.683 291.052C223.687 291.052 225.975 294.224 225.663 298.332H215.835C215.835 300.828 217.447 302.362 219.605 302.362C221.633 302.362 222.647 301.504 223.193 300.126L225.455 300.412C224.857 302.518 222.855 304.312 219.657 304.312ZM219.683 292.924C217.473 292.924 215.965 294.25 215.861 296.486H223.323C223.271 294.77 222.049 292.924 219.683 292.924ZM230.376 291.26V293.028C231.104 291.91 232.378 291.052 234.562 291.052C236.278 291.052 237.474 291.702 238.15 292.794C238.644 293.6 238.852 294.666 238.852 296.174V304H236.642V296.772C236.642 295.42 236.486 294.614 236.174 294.068C235.706 293.288 234.926 292.976 233.808 292.976C231.676 292.976 230.376 294.432 230.376 297.214V304H228.166V291.26H230.376ZM247.435 304.312C243.275 304.312 241.273 301.4 241.273 297.682C241.273 293.704 243.847 291.052 247.461 291.052C251.465 291.052 253.753 294.224 253.441 298.332H243.613C243.613 300.828 245.225 302.362 247.383 302.362C249.411 302.362 250.425 301.504 250.971 300.126L253.233 300.412C252.635 302.518 250.633 304.312 247.435 304.312ZM247.461 292.924C245.251 292.924 243.743 294.25 243.639 296.486H251.101C251.049 294.77 249.827 292.924 247.461 292.924ZM262.417 291.208V293.548C261.949 293.496 261.559 293.47 261.195 293.47C259.167 293.47 258.153 294.588 258.153 297.448V304H255.943V291.26H258.101V293.522C258.751 292.066 260.077 291.234 261.767 291.182C261.975 291.182 262.183 291.182 262.417 291.208ZM265.966 295.186L263.808 295.108C263.964 292.482 266.278 291.026 269.138 291.026C272.752 291.026 274.234 292.43 274.182 295.862L274.13 299.086C274.104 301.088 274.234 302.31 274.39 304H272.258L272.18 302.206C271.4 303.48 270.152 304.312 267.89 304.312C264.926 304.312 263.392 302.362 263.392 300.178C263.392 298.8 264.094 297.864 265.108 297.292C266.33 296.616 267.864 296.356 269.502 296.174L271.972 295.914V295.446C271.972 293.366 270.724 292.82 269.034 292.82C267.032 292.82 266.096 293.782 265.966 295.186ZM272.128 298.488V297.734L269.476 297.994C266.98 298.228 265.732 298.826 265.732 300.256C265.732 301.608 266.798 302.388 268.306 302.388C270.1 302.388 272.128 301.426 272.128 298.488ZM278.098 291.26V287.75H280.308V291.26H282.752V293.08H280.308V300.438C280.308 301.79 280.386 302.128 281.66 302.128H282.752V304H281.166C278.67 304 278.098 303.454 278.098 300.75V293.08H276.044V291.26H278.098ZM290.624 304.312C286.464 304.312 284.462 301.4 284.462 297.682C284.462 293.704 287.036 291.052 290.65 291.052C294.654 291.052 296.942 294.224 296.63 298.332H286.802C286.802 300.828 288.414 302.362 290.572 302.362C292.6 302.362 293.614 301.504 294.16 300.126L296.422 300.412C295.824 302.518 293.822 304.312 290.624 304.312ZM290.65 292.924C288.44 292.924 286.932 294.25 286.828 296.486H294.29C294.238 294.77 293.016 292.924 290.65 292.924ZM316.858 286.736H319.328V304H316.858V296.2H307.654V304H305.184V286.736H307.654V294.016H316.858V286.736ZM323.698 308.498H322.554V306.574H323.464C324.894 306.574 325.544 306.418 326.194 304.26L326.272 304L321.592 291.26H324.036L327.338 301.036L330.562 291.26H332.85L328.222 304.546C327.312 307.146 326.584 308.498 323.698 308.498ZM336.813 302.44V308.498H334.603V291.26H336.761L336.813 293.106C337.619 291.884 338.815 291.052 340.947 291.052C344.015 291.052 346.251 293.548 346.251 297.708C346.251 301.816 343.937 304.312 340.687 304.312C338.841 304.312 337.515 303.532 336.813 302.44ZM340.375 292.976C338.425 292.976 336.709 294.406 336.709 297.708C336.709 301.01 338.347 302.388 340.375 302.388C342.689 302.388 343.911 300.646 343.911 297.708C343.911 294.744 342.715 292.976 340.375 292.976ZM354.38 304.312C350.22 304.312 348.218 301.4 348.218 297.682C348.218 293.704 350.792 291.052 354.406 291.052C358.41 291.052 360.698 294.224 360.386 298.332H350.558C350.558 300.828 352.17 302.362 354.328 302.362C356.356 302.362 357.37 301.504 357.916 300.126L360.178 300.412C359.58 302.518 357.578 304.312 354.38 304.312ZM354.406 292.924C352.196 292.924 350.688 294.25 350.584 296.486H358.046C357.994 294.77 356.772 292.924 354.406 292.924Z" fill="#727272"/>
<circle cx="278" cy="278" r="277.5" stroke="black"/>
<path d="M635.312 268V245.424H651.53V248.79H639.324V254.74H650.85V258.072H639.324V264.634H651.53V268H635.312ZM665.119 261.166H654.817V257.8H665.119V261.166ZM685.485 260.452L689.327 261.03C688.375 265.518 684.737 268.408 679.433 268.408C672.735 268.408 668.859 263.818 668.859 256.644C668.859 249.436 673.007 245.016 679.637 245.016C684.737 245.016 688.341 247.906 689.259 252.394L685.417 252.972C684.737 249.878 682.493 248.314 679.501 248.314C675.863 248.314 673.007 251.102 673.007 256.644C673.007 262.186 675.795 265.11 679.467 265.11C682.561 265.11 684.771 263.58 685.485 260.452ZM709.617 256.644C709.617 251.034 706.659 248.314 702.817 248.314C699.009 248.314 696.017 251.034 696.017 256.644C696.017 262.254 699.009 265.11 702.817 265.11C706.659 265.11 709.617 262.254 709.617 256.644ZM713.765 256.644C713.765 263.886 709.447 268.408 702.817 268.408C696.085 268.408 691.869 263.75 691.869 256.644C691.869 249.572 696.187 245.016 702.817 245.016C709.481 245.016 713.765 249.436 713.765 256.644ZM731.261 268H727.181L721.469 250.184V268H717.457V245.424H723.815L729.289 263.036L734.695 245.424H740.985V268H736.973V250.184L731.261 268ZM759.384 268H755.304L749.592 250.184V268H745.58V245.424H751.938L757.412 263.036L762.818 245.424H769.108V268H765.096V250.184L759.384 268ZM773.703 268V245.424H789.921V248.79H777.715V254.74H789.241V258.072H777.715V264.634H789.921V268H773.703ZM806.76 268L801.966 258.888C801.558 258.922 801.15 258.922 800.708 258.922H797.24V268H793.16V245.424H800.13C806.896 245.424 810.33 247.056 810.33 252.122C810.33 255.08 808.868 257.12 806.046 258.14L811.282 268H806.76ZM800.674 248.79H797.24V255.624H800.81C804.244 255.624 806.216 254.91 806.216 252.156C806.216 249.164 803.836 248.79 800.674 248.79ZM829.819 260.452L833.661 261.03C832.709 265.518 829.071 268.408 823.767 268.408C817.069 268.408 813.193 263.818 813.193 256.644C813.193 249.436 817.341 245.016 823.971 245.016C829.071 245.016 832.675 247.906 833.593 252.394L829.751 252.972C829.071 249.878 826.827 248.314 823.835 248.314C820.197 248.314 817.341 251.102 817.341 256.644C817.341 262.186 820.129 265.11 823.801 265.11C826.895 265.11 829.105 263.58 829.819 260.452ZM836.855 268V245.424H853.073V248.79H840.867V254.74H852.393V258.072H840.867V264.634H853.073V268H836.855Z" fill="#1B1B1B"/>
<path d="M611.55 286.736V295.316L619.454 286.736H622.522L615.996 293.704L623.276 304H620.312L614.332 295.498L611.55 298.488V304H609.08V286.736H611.55ZM629.687 304.312C625.527 304.312 623.525 301.4 623.525 297.682C623.525 293.704 626.099 291.052 629.713 291.052C633.717 291.052 636.005 294.224 635.693 298.332H625.865C625.865 300.828 627.477 302.362 629.635 302.362C631.663 302.362 632.677 301.504 633.223 300.126L635.485 300.412C634.887 302.518 632.885 304.312 629.687 304.312ZM629.713 292.924C627.503 292.924 625.995 294.25 625.891 296.486H633.353C633.301 294.77 632.079 292.924 629.713 292.924ZM643.626 304.312C639.466 304.312 637.464 301.4 637.464 297.682C637.464 293.704 640.038 291.052 643.652 291.052C647.656 291.052 649.944 294.224 649.632 298.332H639.804C639.804 300.828 641.416 302.362 643.574 302.362C645.602 302.362 646.616 301.504 647.162 300.126L649.424 300.412C648.826 302.518 646.824 304.312 643.626 304.312ZM643.652 292.924C641.442 292.924 639.934 294.25 639.83 296.486H647.292C647.24 294.77 646.018 292.924 643.652 292.924ZM654.345 302.44V308.498H652.135V291.26H654.293L654.345 293.106C655.151 291.884 656.347 291.052 658.479 291.052C661.547 291.052 663.783 293.548 663.783 297.708C663.783 301.816 661.469 304.312 658.219 304.312C656.373 304.312 655.047 303.532 654.345 302.44ZM657.907 292.976C655.957 292.976 654.241 294.406 654.241 297.708C654.241 301.01 655.879 302.388 657.907 302.388C660.221 302.388 661.443 300.646 661.443 297.708C661.443 294.744 660.247 292.976 657.907 292.976ZM670.375 304L676.875 286.736H679.735L686.313 304H683.609L682.231 300.256H674.275L672.949 304H670.375ZM678.227 289.284L675.055 298.098H681.451L678.227 289.284ZM695.92 304V302.18C695.218 303.376 694.1 304.286 691.916 304.286C690.356 304.286 689.264 303.714 688.588 302.804C687.964 301.972 687.704 300.75 687.704 299.164V291.26H689.914V298.462C689.914 299.762 690.044 300.594 690.33 301.166C690.746 302.024 691.578 302.362 692.722 302.362C694.724 302.362 695.92 300.88 695.92 298.202V291.26H698.13V304H695.92ZM712.411 286.736V304H710.279L710.201 302.258C709.395 303.48 708.199 304.312 706.067 304.312C702.999 304.312 700.763 301.816 700.763 297.656C700.763 293.548 703.077 291.052 706.327 291.052C708.173 291.052 709.499 291.832 710.201 292.924V286.736H712.411ZM706.639 302.388C708.589 302.388 710.305 300.958 710.305 297.656C710.305 294.354 708.667 292.976 706.639 292.976C704.325 292.976 703.103 294.718 703.103 297.656C703.103 300.62 704.299 302.388 706.639 302.388ZM715.89 291.26H718.1V304H715.89V291.26ZM715.89 286.736H718.1V289.388H715.89V286.736ZM726.882 304.312C722.722 304.312 720.72 301.4 720.72 297.682C720.72 293.704 723.294 291.052 726.908 291.052C730.912 291.052 733.2 294.224 732.888 298.332H723.06C723.06 300.828 724.672 302.362 726.83 302.362C728.858 302.362 729.872 301.504 730.418 300.126L732.68 300.412C732.082 302.518 730.08 304.312 726.882 304.312ZM726.908 292.924C724.698 292.924 723.19 294.25 723.086 296.486H730.548C730.496 294.77 729.274 292.924 726.908 292.924ZM737.6 291.26V293.028C738.328 291.91 739.602 291.052 741.786 291.052C743.502 291.052 744.698 291.702 745.374 292.794C745.868 293.6 746.076 294.666 746.076 296.174V304H743.866V296.772C743.866 295.42 743.71 294.614 743.398 294.068C742.93 293.288 742.15 292.976 741.032 292.976C738.9 292.976 737.6 294.432 737.6 297.214V304H735.39V291.26H737.6ZM754.685 291.052C757.857 291.052 759.755 293.288 760.041 295.264L757.805 295.576C757.493 293.99 756.245 293.002 754.529 293.002C752.501 293.002 750.837 294.51 750.837 297.63C750.837 300.802 752.527 302.362 754.529 302.362C756.401 302.362 757.597 301.218 757.909 299.814L760.171 300.1C759.755 302.336 757.519 304.312 754.477 304.312C750.681 304.312 748.497 301.478 748.497 297.656C748.497 293.912 750.759 291.052 754.685 291.052ZM767.964 304.312C763.804 304.312 761.802 301.4 761.802 297.682C761.802 293.704 764.376 291.052 767.99 291.052C771.994 291.052 774.282 294.224 773.97 298.332H764.142C764.142 300.828 765.754 302.362 767.912 302.362C769.94 302.362 770.954 301.504 771.5 300.126L773.762 300.412C773.164 302.518 771.162 304.312 767.964 304.312ZM767.99 292.924C765.78 292.924 764.272 294.25 764.168 296.486H771.63C771.578 294.77 770.356 292.924 767.99 292.924ZM782.523 304V286.736H794.405V288.92H784.993V294.016H793.859V296.2H784.993V301.816H794.405V304H782.523ZM799.223 291.26V293.028C799.951 291.91 801.225 291.052 803.409 291.052C805.125 291.052 806.321 291.702 806.997 292.794C807.491 293.6 807.699 294.666 807.699 296.174V304H805.489V296.772C805.489 295.42 805.333 294.614 805.021 294.068C804.553 293.288 803.773 292.976 802.655 292.976C800.523 292.976 799.223 294.432 799.223 297.214V304H797.013V291.26H799.223ZM819.454 302.882V301.738C818.648 302.96 817.556 303.792 815.424 303.792C812.356 303.792 810.12 301.452 810.12 297.396C810.12 293.392 812.434 291.052 815.684 291.052C817.53 291.052 818.752 291.832 819.454 292.924L819.506 291.26H821.664V302.388C821.664 305.04 821.274 306.132 820.546 306.938C819.584 308.03 817.972 308.654 816.048 308.654C813.084 308.654 811.108 307.302 810.692 304.754L813.032 304.676C813.344 305.846 814.046 306.73 816.074 306.73C817.244 306.73 818.154 306.392 818.726 305.768C819.194 305.248 819.454 304.65 819.454 302.882ZM815.996 301.868C817.946 301.868 819.558 300.594 819.558 297.396C819.558 294.198 818.024 292.976 815.996 292.976C813.682 292.976 812.46 294.562 812.46 297.396C812.46 300.256 813.656 301.868 815.996 301.868ZM827.018 295.186L824.86 295.108C825.016 292.482 827.33 291.026 830.19 291.026C833.804 291.026 835.286 292.43 835.234 295.862L835.182 299.086C835.156 301.088 835.286 302.31 835.442 304H833.31L833.232 302.206C832.452 303.48 831.204 304.312 828.942 304.312C825.978 304.312 824.444 302.362 824.444 300.178C824.444 298.8 825.146 297.864 826.16 297.292C827.382 296.616 828.916 296.356 830.554 296.174L833.024 295.914V295.446C833.024 293.366 831.776 292.82 830.086 292.82C828.084 292.82 827.148 293.782 827.018 295.186ZM833.18 298.488V297.734L830.528 297.994C828.032 298.228 826.784 298.826 826.784 300.256C826.784 301.608 827.85 302.388 829.358 302.388C831.152 302.388 833.18 301.426 833.18 298.488ZM847.003 302.882V301.738C846.197 302.96 845.105 303.792 842.973 303.792C839.905 303.792 837.669 301.452 837.669 297.396C837.669 293.392 839.983 291.052 843.233 291.052C845.079 291.052 846.301 291.832 847.003 292.924L847.055 291.26H849.213V302.388C849.213 305.04 848.823 306.132 848.095 306.938C847.133 308.03 845.521 308.654 843.597 308.654C840.633 308.654 838.657 307.302 838.241 304.754L840.581 304.676C840.893 305.846 841.595 306.73 843.623 306.73C844.793 306.73 845.703 306.392 846.275 305.768C846.743 305.248 847.003 304.65 847.003 302.882ZM843.545 301.868C845.495 301.868 847.107 300.594 847.107 297.396C847.107 294.198 845.573 292.976 843.545 292.976C841.231 292.976 840.009 294.562 840.009 297.396C840.009 300.256 841.205 301.868 843.545 301.868ZM857.999 304.312C853.839 304.312 851.837 301.4 851.837 297.682C851.837 293.704 854.411 291.052 858.025 291.052C862.029 291.052 864.317 294.224 864.005 298.332H854.177C854.177 300.828 855.789 302.362 857.947 302.362C859.975 302.362 860.989 301.504 861.535 300.126L863.797 300.412C863.199 302.518 861.197 304.312 857.999 304.312ZM858.025 292.924C855.815 292.924 854.307 294.25 854.203 296.486H861.665C861.613 294.77 860.391 292.924 858.025 292.924ZM877.425 286.736V304H875.293L875.215 302.258C874.409 303.48 873.213 304.312 871.081 304.312C868.013 304.312 865.777 301.816 865.777 297.656C865.777 293.548 868.091 291.052 871.341 291.052C873.187 291.052 874.513 291.832 875.215 292.924V286.736H877.425ZM871.653 302.388C873.603 302.388 875.319 300.958 875.319 297.656C875.319 294.354 873.681 292.976 871.653 292.976C869.339 292.976 868.117 294.718 868.117 297.656C868.117 300.62 869.313 302.388 871.653 302.388Z" fill="#727272"/>
<circle cx="744" cy="278" r="277.5" stroke="black"/>
</svg>
